<svg width="105" height="130" viewBox="0 0 105 130" fill="none" xmlns="http://www.w3.org/2000/svg">
<path d="M104.033 92.3366L89.3313 65.5635C89.0724 65.0914 88.7229 64.675 88.303 64.338C87.883 64.001 87.4007 63.7501 86.8837 63.5996C86.3668 63.4491 85.8252 63.402 85.29 63.4609C84.7548 63.5198 84.2364 63.6836 83.7645 63.9429L79.3645 66.3586C78.5463 66.8056 77.9058 67.5192 77.5496 68.3807C77.1933 69.2423 77.1428 70.1999 77.4064 71.0941C77.015 71.2552 76.6116 71.3856 76.1998 71.4839C74.0442 71.8471 71.8289 71.5327 69.8594 70.5841C64.2036 68.2753 55.2211 68.1346 42.3948 70.1584C40.6803 70.4339 39.1448 71.3774 38.1242 72.7824L36.7406 74.6943C35.0328 74.245 33.3173 73.7972 31.5923 73.4345C30.1783 73.1177 28.818 72.5965 27.5543 71.8873C27.8586 70.9786 27.8338 69.9917 27.4841 69.0994C27.1344 68.2071 26.4822 67.4661 25.6414 67.0061L21.2402 64.5893C20.2873 64.0665 19.1658 63.9434 18.1222 64.2471C17.0786 64.5508 16.1982 65.2563 15.6746 66.2087L0.966299 92.992C0.443371 93.945 0.320334 95.0667 0.624238 96.1104C0.928142 97.1541 1.63411 98.0343 2.58691 98.5577L6.98808 100.974C7.59022 101.307 8.26676 101.481 8.95443 101.48C9.72883 101.474 10.4859 101.25 11.1384 100.833C12.0764 101.988 13.041 103.104 14.0243 104.2C13.5416 105.102 13.3007 106.114 13.325 107.137C13.3494 108.16 13.6381 109.16 14.1633 110.038C14.6884 110.916 15.4319 111.644 16.3215 112.15C17.2112 112.656 18.2166 112.923 19.24 112.925C19.3661 112.925 19.4931 112.914 19.6197 112.905C19.4683 113.946 19.5997 115.009 20.0001 115.982C20.4006 116.954 21.0552 117.802 21.8956 118.434C22.7359 119.067 23.731 119.462 24.7766 119.578C25.8221 119.694 26.8796 119.527 27.8382 119.094C28.0804 120.471 28.8057 121.716 29.8837 122.605C30.7733 123.339 31.8592 123.793 33.0058 123.913C34.1524 124.033 35.3089 123.812 36.3311 123.279C36.5154 124.779 37.2694 126.151 38.4372 127.111C39.4886 127.974 40.8065 128.449 42.1667 128.454C43.5268 128.458 44.8469 127.994 45.9042 127.138C49.4836 128.814 53.3531 129.782 57.2999 129.99C59.7205 130.098 62.0998 129.335 64.0064 127.84C64.7438 127.196 65.368 126.433 65.8531 125.582C65.9185 125.584 65.9851 125.603 66.0504 125.603C67.3271 125.611 68.5867 125.309 69.7219 124.725C70.857 124.141 71.8341 123.291 72.57 122.247C73.1251 121.45 73.5202 120.552 73.7333 119.604C74.8773 119.402 75.9592 118.939 76.8946 118.25C77.83 117.561 78.5936 116.666 79.1258 115.633C79.7613 114.38 80.0197 112.97 79.8695 111.574C80.4819 111.383 81.0642 111.106 81.5989 110.752C82.6671 110.109 83.5412 109.189 84.1284 108.089C84.7157 106.989 84.9941 105.75 84.9343 104.505C87.6762 102.929 90.3109 101.173 92.8211 99.2486C93.3454 99.9268 94.0709 100.422 94.8937 100.662C95.2676 100.771 95.6551 100.827 96.0446 100.827C96.7328 100.826 97.4096 100.652 98.012 100.319L102.412 97.9033C102.884 97.6444 103.301 97.2949 103.638 96.875C103.975 96.455 104.225 95.9727 104.376 95.4558C104.526 94.9388 104.574 94.3972 104.515 93.862C104.456 93.3268 104.292 92.8085 104.033 92.3366ZM43.1121 74.715C54.9203 72.8523 63.3274 72.8984 68.2522 74.9121C71.0423 76.1854 74.1583 76.5631 77.1717 75.9932C77.9893 75.8154 78.7874 75.5572 79.5543 75.2225L90.5185 95.1897C88.1755 97.0237 85.713 98.6997 83.1473 100.207C81.5321 98.1872 79.614 96.4301 77.4611 94.9978L76.6874 94.4235C73.4504 91.9696 70.0875 89.6863 66.6124 87.583C62.3858 85.0637 55.2108 80.9339 53.2602 81.0645L53.2546 81.0362L52.5373 81.1883C51.1235 81.4897 49.6529 81.3783 48.3006 80.8673C47.79 80.6813 47.2305 80.6789 46.7184 80.8606C46.2062 81.0423 45.7733 81.3967 45.4941 81.8629C44.5795 83.3641 43.3628 84.6589 41.9214 85.6651C40.48 86.6712 38.8451 87.3669 37.1206 87.7079C35.6626 88.1066 34.1523 88.2809 32.6418 88.2249L41.8619 75.4863C42.0094 75.2819 42.1957 75.1086 42.4102 74.9762C42.6248 74.8439 42.8633 74.7551 43.1121 74.715ZM5.25718 94.7613L19.4698 68.8801L22.97 70.8014L8.75854 96.6837L5.25718 94.7613ZM18.4157 108.012C18.1462 107.79 17.9757 107.471 17.9413 107.123C17.9069 106.776 18.0114 106.429 18.2321 106.158L21.2638 102.459C21.3734 102.325 21.5083 102.214 21.6608 102.132C21.8132 102.051 21.9803 102 22.1524 101.983C22.3246 101.965 22.4984 101.982 22.664 102.032C22.8296 102.082 22.9837 102.165 23.1176 102.274C23.2514 102.384 23.3623 102.519 23.4441 102.671C23.5258 102.824 23.5767 102.991 23.5938 103.163C23.611 103.335 23.5941 103.509 23.544 103.674C23.494 103.84 23.4118 103.994 23.3023 104.128L20.2694 107.829C20.1601 107.963 20.0253 108.074 19.8728 108.155C19.7203 108.237 19.553 108.287 19.3808 108.304C19.2086 108.323 19.0343 108.307 18.8684 108.257C18.7026 108.207 18.5485 108.123 18.4157 108.012ZM25.6166 114.988C25.4444 115.006 25.2703 114.989 25.1046 114.939C24.9389 114.889 24.7848 114.807 24.6514 114.696C24.5175 114.587 24.4064 114.451 24.3247 114.298C24.2429 114.146 24.1921 113.979 24.175 113.807C24.1579 113.635 24.175 113.461 24.2253 113.295C24.2756 113.13 24.358 112.976 24.4679 112.842L31.358 104.434C31.5793 104.164 31.8989 103.993 32.2464 103.958C32.5939 103.924 32.941 104.029 33.2111 104.25C33.4813 104.471 33.6525 104.791 33.687 105.139C33.7215 105.486 33.6166 105.833 33.3953 106.103L26.5052 114.513C26.3957 114.647 26.2609 114.757 26.1084 114.839C25.9559 114.921 25.7887 114.971 25.6166 114.988ZM32.8074 119.037C32.6735 118.927 32.5625 118.791 32.4807 118.639C32.399 118.486 32.3481 118.319 32.3309 118.147C32.3138 117.975 32.3307 117.802 32.3808 117.636C32.4308 117.471 32.513 117.317 32.6227 117.183L37.2165 111.577C37.4383 111.307 37.7581 111.136 38.1056 111.102C38.4531 111.068 38.8 111.173 39.0702 111.394C39.2041 111.504 39.3152 111.638 39.3969 111.791C39.4787 111.943 39.5296 112.11 39.5466 112.282C39.5637 112.454 39.5466 112.628 39.4963 112.794C39.4461 112.959 39.3636 113.113 39.2537 113.247L34.6622 118.852C34.4406 119.122 34.1208 119.293 33.773 119.328C33.4252 119.363 33.0779 119.258 32.8074 119.037ZM41.3631 123.546C41.0933 123.324 40.9212 123.003 40.8866 122.656C40.852 122.309 40.9565 121.961 41.1773 121.691L43.0828 119.366C43.192 119.232 43.3268 119.121 43.4793 119.039C43.6319 118.957 43.7991 118.907 43.9714 118.89C44.0152 118.886 44.0591 118.883 44.1032 118.883C44.3524 118.884 44.5964 118.955 44.8069 119.089C45.0173 119.223 45.1854 119.413 45.2919 119.639C45.3984 119.864 45.4387 120.115 45.4083 120.363C45.3779 120.61 45.278 120.844 45.1201 121.037L43.2168 123.36C42.9951 123.63 42.6757 123.801 42.3283 123.835C41.981 123.87 41.6339 123.766 41.3631 123.546ZM79.0277 106.922C78.3668 107.213 77.6408 107.325 76.9229 107.247C76.205 107.168 75.5205 106.901 74.9385 106.474L61.2799 98.4733C60.7521 98.1641 60.1232 98.0773 59.5314 98.2319C58.9396 98.3865 58.4335 98.7699 58.1243 99.2976C57.8152 99.8254 57.7284 100.454 57.883 101.046C58.0376 101.638 58.4209 102.144 58.9487 102.453L72.6072 110.454C73.4256 110.936 74.3022 111.312 75.2158 111.573C75.3844 112.231 75.3133 112.928 75.0152 113.538C74.7956 113.949 74.4836 114.304 74.1036 114.573C73.7237 114.843 73.2862 115.021 72.8258 115.093L59.6414 108.033C59.1022 107.746 58.4712 107.684 57.8868 107.862C57.3024 108.04 56.8123 108.442 56.524 108.98C56.2357 109.519 56.1726 110.15 56.3487 110.735C56.5248 111.319 56.9257 111.811 57.4634 112.1L69.2532 118.413C69.1876 118.839 69.0293 119.246 68.7895 119.604C68.4118 120.111 67.9021 120.503 67.3162 120.74C66.7302 120.976 66.0906 121.046 65.4672 120.943L55.3347 116.438C54.776 116.191 54.1419 116.175 53.5716 116.395C53.0014 116.614 52.5416 117.051 52.2933 117.61C52.045 118.168 52.0285 118.802 52.2474 119.373C52.4663 119.943 52.9027 120.404 53.4607 120.653L61.2244 124.104C61.1637 124.162 61.1173 124.244 61.0536 124.297C59.0022 126.01 54.777 125.695 49.0211 123.459C49.6315 122.553 49.9775 121.495 50.0203 120.404C50.0632 119.312 49.8012 118.231 49.2638 117.28C48.7263 116.329 47.9347 115.546 46.9775 115.02C46.0203 114.493 44.9355 114.244 43.8445 114.3C44.1536 113.404 44.2412 112.446 44.0999 111.509C43.9585 110.571 43.5924 109.682 43.0328 108.917C42.4732 108.152 41.7367 107.533 40.8863 107.115C40.0359 106.696 39.0967 106.489 38.1491 106.512C38.433 105.226 38.2788 103.882 37.7108 102.694C37.1429 101.505 36.1939 100.541 35.0148 99.9543C33.8357 99.3674 32.4942 99.1917 31.2038 99.4551C29.9133 99.7185 28.748 100.406 27.8932 101.408C27.5595 100.402 26.9617 99.5044 26.1622 98.8089C25.3627 98.1133 24.3911 97.6453 23.3488 97.4539C22.3065 97.2625 21.232 97.3547 20.2375 97.7209C19.2431 98.087 18.3653 98.7137 17.6961 99.5353L16.907 100.498C15.8781 99.3282 14.8778 98.1262 13.9063 96.8921L25.3718 76.0121C27.0265 76.9078 28.8018 77.56 30.6429 77.9483C31.7081 78.1726 32.7602 78.4666 33.8227 78.7259L28.3826 86.2427C27.9519 86.8289 27.6862 87.5199 27.6133 88.2436C27.5404 88.9674 27.663 89.6975 27.9681 90.3578C28.2715 91.0223 28.7451 91.5948 29.341 92.0173C29.9369 92.4398 30.6339 92.6972 31.3614 92.7634C33.7064 92.9848 36.0722 92.7792 38.3438 92.1564C42.3585 91.229 45.9339 88.9534 48.474 85.7089C50.1215 86.0528 51.8225 86.052 53.4697 85.7066C55.748 86.8858 63.3983 91.0368 64.2508 91.5448C67.5874 93.5658 70.8161 95.7596 73.9237 98.1173L74.7222 98.7086C77.0424 100.084 78.9518 102.055 80.2519 104.418C80.7485 105.687 79.3182 106.727 79.0277 106.922ZM96.2416 96.0282L82.0346 70.155L85.5349 68.2337L99.7419 94.1069L96.2416 96.0282Z" fill="#C8B56D"/>
<path d="M86.3111 31.8024L78.0858 17.2878C79.1526 16.8987 80.1708 16.3874 81.1202 15.7642C81.374 15.5981 81.5926 15.3834 81.7634 15.1327C81.9342 14.8819 82.0538 14.5999 82.1155 14.3028C82.1771 14.0057 82.1795 13.6994 82.1226 13.4014C82.0657 13.1034 81.9505 12.8195 81.7837 12.5661C81.617 12.3126 81.4018 12.0946 81.1506 11.9244C80.8994 11.7542 80.6171 11.6353 80.3199 11.5744C80.0227 11.5135 79.7163 11.5118 79.4184 11.5695C79.1206 11.6271 78.837 11.743 78.584 11.9104C77.2117 12.8844 75.5749 13.4164 73.8922 13.4353C71.1781 12.9961 68.6998 11.6307 66.8783 9.57128C64.315 7.33914 61.441 4.80633 57.3957 5.11491C56.5765 5.19221 55.7719 5.38237 55.0048 5.68V3.06305C55.0048 2.45134 54.7618 1.86468 54.3292 1.43214C53.8967 0.999592 53.31 0.756592 52.6983 0.756592C52.0866 0.756592 51.5 0.999592 51.0674 1.43214C50.6349 1.86468 50.3919 2.45134 50.3919 3.06305V5.83294C49.5076 5.44593 48.5669 5.20352 47.6057 5.11498C43.5717 4.80864 40.684 7.33921 38.1219 9.57135C36.3004 11.6308 33.8221 12.9961 31.108 13.4353C29.4252 13.4176 27.788 12.8855 26.4163 11.9105C26.1632 11.743 25.8797 11.6272 25.5818 11.5695C25.2839 11.5119 24.9776 11.5135 24.6803 11.5744C24.3831 11.6353 24.1008 11.7543 23.8496 11.9245C23.5984 12.0946 23.3833 12.3127 23.2165 12.5661C23.0497 12.8196 22.9345 13.1035 22.8776 13.4015C22.8207 13.6995 22.8231 14.0058 22.8847 14.3029C22.9464 14.6 23.066 14.882 23.2368 15.1327C23.4076 15.3835 23.6262 15.5981 23.8801 15.7643C24.8294 16.3875 25.8476 16.8988 26.9145 17.2879L18.6891 31.8024C18.1555 31.885 17.6686 32.1547 17.3154 32.5632C16.9623 32.9717 16.7659 33.4925 16.7614 34.0324C16.8772 37.5618 18.3866 40.9015 20.9591 43.3205C23.5316 45.7396 26.9577 47.041 30.4875 46.9398C34.0172 47.041 37.4434 45.7396 40.0159 43.3205C42.5884 40.9015 44.0977 37.5618 44.2136 34.0324C44.209 33.4925 44.0126 32.9717 43.6595 32.5632C43.3063 32.1547 42.8194 31.885 42.2858 31.8024L34.205 17.5432C36.8076 16.5445 39.1733 15.0143 41.1514 13.0502C43.3059 11.1751 45.2001 9.56801 47.2577 9.71442C48.429 9.86941 49.5237 10.3827 50.3919 11.1841V37.5616C49.3791 38.0084 48.5177 38.7396 47.9124 39.6665C47.307 40.5933 46.9838 41.6759 46.9818 42.7829V49.9917H36.8358C35.6782 49.993 34.5683 50.4534 33.7497 51.2719C32.9311 52.0905 32.4707 53.2004 32.4695 54.358V56.464C32.4709 57.4429 32.8604 58.3812 33.5527 59.0733C34.2449 59.7654 35.1834 60.1546 36.1623 60.1557H69.0754C70.0543 60.1546 70.9928 59.7654 71.6851 59.0733C72.3773 58.3812 72.7669 57.4429 72.7682 56.464V54.358C72.767 53.2004 72.3066 52.0905 71.488 51.2719C70.6694 50.4534 69.5596 49.993 68.4019 49.9917H58.4149V42.7829C58.4129 41.6759 58.0896 40.5933 57.4843 39.6665C56.8789 38.7396 56.0176 38.0084 55.0047 37.5616V10.8539C55.7919 10.2232 56.7414 9.82813 57.7437 9.71438C59.8181 9.56233 61.6955 11.1751 63.8489 13.0502C65.827 15.0143 68.1927 16.5445 70.7952 17.5432L62.7145 31.8024C62.1808 31.885 61.6939 32.1546 61.3408 32.5631C60.9876 32.9716 60.7913 33.4924 60.7867 34.0324C61.0017 37.5269 62.5415 40.8077 65.092 43.2061C67.6425 45.6046 71.0117 46.9399 74.5128 46.9399C78.0139 46.9399 81.3832 45.6046 83.9337 43.2061C86.4842 40.8077 88.0239 37.5269 88.2389 34.0324C88.2344 33.4924 88.038 32.9716 87.6848 32.5631C87.3317 32.1546 86.8448 31.8849 86.3111 31.8024ZM36.9395 31.7259H24.0353L30.4874 20.34L36.9395 31.7259ZM30.4874 42.3268C28.5836 42.3767 26.7127 41.8248 25.1408 40.7497C23.5689 39.6746 22.3761 38.1311 21.7323 36.3388H39.2426C38.5988 38.1311 37.406 39.6747 35.8341 40.7498C34.2622 41.8249 32.3912 42.3767 30.4874 42.3268ZM68.1554 55.5428H37.0824V54.6047H68.1554V55.5428ZM51.5946 49.9918V42.7829C51.5933 42.6372 51.6208 42.4925 51.6757 42.3575C51.7306 42.2224 51.8116 42.0996 51.9143 41.996C52.0169 41.8924 52.139 41.8102 52.2736 41.7541C52.4081 41.698 52.5525 41.6692 52.6982 41.6692C52.844 41.6692 52.9884 41.698 53.1229 41.7541C53.2575 41.8102 53.3796 41.8924 53.4822 41.996C53.5848 42.0996 53.6659 42.2224 53.7208 42.3575C53.7757 42.4925 53.8032 42.6372 53.8019 42.7829V49.9917L51.5946 49.9918ZM80.9649 31.726H68.0606L74.5129 20.34L80.9649 31.726ZM74.5129 42.3268C72.6091 42.3767 70.7382 41.8248 69.1662 40.7497C67.5943 39.6746 66.4016 38.1311 65.7578 36.3388H83.2679C82.6241 38.1311 81.4314 39.6746 79.8595 40.7497C78.2876 41.8248 76.4166 42.3767 74.5129 42.3268Z" fill="#6E1636"/>
</svg>
