<svg width="128" height="128" viewBox="0 0 128 128" fill="none" xmlns="http://www.w3.org/2000/svg">
<g clip-path="url(#clip0_37_870)">
<path d="M126.741 63.1605L106.346 14.3457L86.6667 22.5679C86.9136 20.2469 86.9136 16.963 85.6544 14.5926C82.8396 9.33333 76.2716 7.33333 71.0124 10.1481C65.7531 12.963 63.7531 19.5309 66.5679 24.7901C67.5556 26.642 69.0371 28.1481 70.8642 29.1605L49.8272 37.9259C49.3581 36.4445 48.642 35.037 47.7284 33.7778C48 33.6296 48.2223 33.4568 48.4445 33.2346C48.963 32.7161 49.284 32.0247 49.284 31.284L49.1852 23.1358H50.8642C51.2593 23.1358 51.6297 22.963 51.9013 22.6914C52.1976 22.4198 52.3457 22.0247 52.3457 21.6296L52.0494 0L49.0865 0.0493827L49.3581 20.1728L9.77781 20.4691L9.50621 0L6.54324 0.0493827L6.81485 22C6.83954 22.8148 7.48151 23.4321 8.29633 23.4568H10.0247C10.0247 23.5309 10.1235 31.6049 10.1235 31.6049C10.1482 32.4938 10.5926 33.3086 11.3087 33.8272L10.2223 35.5556C9.8025 36.2222 9.2346 37.8765 9.2346 37.8765H9.20991L4.88892 54L6.02472 57.5062L4.41979 58.2222C2.9383 58.8889 1.75312 60.0988 1.18522 61.6296C0.617316 63.1605 0.666699 64.8395 1.33337 66.321L23.284 115.358L43.8519 106.148C44.5926 105.827 45.1111 105.136 45.1852 104.321C45.2593 103.506 44.8889 102.716 44.2223 102.272C41.5803 100.42 39.7531 98.4198 39.2099 96.7901C37.8272 92.6914 40.0247 88.2222 44.1482 86.8395C48.247 85.4568 52.7161 87.6543 54.0988 91.7778C54.7655 93.7284 54.6173 95.8765 53.7037 97.7284C53.3087 98.5185 53.4568 99.4568 54.0741 100.074C54.6667 100.716 55.605 100.914 56.3951 100.543L73.4815 92.8889C74.2963 92.5432 74.9877 91.9506 75.4815 91.2099L78.0741 90.1482C78.3704 92.5926 79.284 94.9136 80.7408 96.9136C80.4692 97.0617 80.2469 97.2593 80.0247 97.4815C79.4815 98 79.1852 98.7161 79.1852 99.4568L79.3087 107.58H77.6297C77.2346 107.58 76.8642 107.753 76.5926 108.025C76.2963 108.296 76.1482 108.691 76.1729 109.086L76.4445 127.728H79.4074L79.1358 110.568L98.926 110.407L118.716 110.247L118.988 127.753H121.951L121.679 108.765C121.654 107.951 121.012 107.309 120.198 107.284H118.469C118.469 107.235 118.494 107.16 118.494 107.111L118.37 99.1605C118.37 98.2716 117.926 97.4321 117.185 96.9383C117.753 96.0247 118.198 95.3333 118.272 95.1852C118.691 94.5432 119.012 93.8272 119.21 93.0617L119.259 92.8889H119.284L123.605 76.7407L122.025 71.7531L123.457 71.1605C126.568 69.8765 128.049 66.3457 126.765 63.2346C126.765 63.2099 126.741 63.1852 126.741 63.1605ZM23.3087 49.7778L23.0618 50.1975C21.3827 53.1605 18.3457 54.4691 18.321 54.4691L17.2346 54.9136C17.2346 54.9136 18.9383 65.2099 19.4074 68.1975C19.679 69.9753 19.3581 71.8025 18.4692 73.358C17.8272 74.2716 16.7902 74.8148 15.679 74.8148C14.9136 74.7901 14.5926 74.3951 14.4692 74.1728L9.65435 59.1358L8.74077 56.2963L7.97534 53.9259L12.1482 38.3951C12.2716 37.9506 12.4692 37.5309 12.7161 37.1358C12.7161 37.1358 13.4815 35.9012 14.3457 34.5679L44.3704 34.321C45.6544 35.679 46.5926 37.3333 47.1111 39.1358L23.3087 49.7778ZM45.7778 31.3827H45.7284V31.3333L13.7037 31.5802C13.4815 31.6049 13.284 31.5309 13.1111 31.4074V31.1111L13.0124 23.6543C13.1852 23.5556 13.3827 23.4815 13.5803 23.4815L45.6544 23.2346C45.8766 23.2099 46.0741 23.284 46.247 23.4074L46.3704 31.2099C46.1976 31.3086 45.9753 31.3827 45.7778 31.3827ZM72.2716 90.1729L57.1358 96.963C58.5926 91.1605 55.0865 85.284 49.284 83.8272C43.4815 82.3704 37.605 85.8765 36.1482 91.679C35.6297 93.679 35.7284 95.8025 36.3704 97.7531C37.2099 100.198 39.4568 102.37 41.5062 103.951L24.7408 111.457L4.00003 65.1111C3.65435 64.3457 3.62966 63.4815 3.95065 62.6914C4.24695 61.9012 4.83954 61.284 5.60497 60.9383L6.91361 60.3457L11.7531 75.4321C12.4939 76.8395 13.926 77.7531 15.5309 77.7778C15.5309 77.7778 19.3827 77.8519 20.963 74.9136V74.8642C22.1976 72.6914 22.6667 70.1729 22.2716 67.7037C21.9013 65.3333 20.8889 59.1358 20.4692 56.642C22.4445 55.5556 24.1235 53.9753 25.3581 52.0988L50.4198 40.8642C50.4198 40.8642 51.1111 40.4691 51.6544 40.5926C51.9753 40.716 52.2716 41.0864 52.4198 41.4074L60.1729 59.1358C60.4939 59.9506 61.3087 60.4445 62.1729 60.3951C63.0371 60.3457 63.7778 59.7531 64.0494 58.9383C64.7161 56.6914 66.3457 54.8889 68.5186 54C72.3704 52.2716 76.9136 53.9753 78.642 57.8272C80.2469 61.3827 78.9383 65.5556 75.5803 67.5556C73.4321 68.7654 69.679 68.4691 68.1729 68.2963C67.3828 68.1975 66.5926 68.5432 66.0988 69.1852C66.0988 69.2099 65.3828 70.0247 65.8519 71.4321L73.1852 87.7778C73.4568 88.3951 73.3581 89.1358 72.9383 89.6543C72.7902 89.8765 72.5433 90.0741 72.2716 90.1729ZM115.407 99.5803L115.531 107.037C115.358 107.16 115.161 107.235 114.938 107.21L82.8642 107.457C82.642 107.481 82.4445 107.407 82.2716 107.284L82.1482 99.6049L115.407 99.5803ZM116.346 92.2963C116.222 92.7407 116.025 93.1605 115.778 93.5556V93.6049C115.778 93.6049 115.037 94.8148 114.173 96.1482L113.877 96.6173H84.3704L84.1235 96.3704C82.2223 94.3457 81.0865 91.7037 80.9383 88.9136L102.321 80C101.852 80.8395 101.407 81.7284 100.988 82.6173L103.679 83.8765C104.222 82.7161 104.815 81.5803 105.432 80.4938C106.049 79.4074 106.889 78.4691 107.852 77.679C108.568 77.0864 109.333 76.6173 110.173 76.2222L111.259 75.7778L111.086 74.6173C111.062 74.5926 110.988 74.0494 110.84 73.2346C110.395 70.5679 109.457 64.7901 109.086 62.5185C108.815 60.7407 109.136 58.9136 110.025 57.358C110.667 56.4444 111.704 55.8765 112.815 55.8765C113.58 55.9012 113.901 56.2963 114.025 56.5432L118.37 70.0741L119.284 72.9136L120.519 76.7901L116.346 92.2963ZM124.025 66.7161C123.704 67.4815 123.086 68.0988 122.321 68.4198L121.111 68.9383L116.716 55.2593C115.975 53.8519 114.543 52.963 112.963 52.9136C109.161 53.0124 107.506 55.8025 107.506 55.8025C106.272 57.9753 105.803 60.4938 106.198 62.963C106.568 65.358 107.58 71.5309 108 74.0247C107.432 74.3457 106.889 74.7161 106.37 75.1111L76.247 87.7037C76.1729 87.3086 69.3087 71.8519 69.3087 71.8519C71.7531 72.0247 74.5679 71.9012 76.6667 70.7901L77.605 70.2222C78.7408 69.4568 79.7284 68.4938 80.4939 67.358L80.8149 66.8642C81.3828 65.9259 81.8025 64.9136 82.0741 63.8519C82.0988 63.8025 82.0988 63.7531 82.0988 63.7037H82.1235C82.3951 62.7407 82.5186 61.7531 82.5186 60.7407C82.5186 59.6543 82.3457 58.5432 82.0247 57.5062C80.2469 51.8025 74.1729 48.642 68.4692 50.4198C65.7284 51.284 63.4321 53.2099 62.0988 55.7778L60.3457 51.8519C59.7778 50.4445 56 42.1482 55.1605 40.2222C54.963 39.8519 54.7408 39.4815 54.4692 39.1605L74 31.1111C74.8148 30.7654 75.3087 29.9506 75.2593 29.0864C75.2346 28.2222 74.642 27.4815 73.8272 27.2346C69.679 25.9753 67.3334 21.6049 68.5926 17.4321C68.7161 17.037 68.8642 16.6667 69.0371 16.2963C70 14.2716 71.7778 12.7407 73.9507 12.1481C77.5062 11.1358 81.284 12.7161 83.0371 15.9753C84.1976 18.1481 83.8025 21.8765 83.5803 23.3827C83.4815 24.1975 83.8025 24.9877 84.4445 25.4815C85.0865 25.9753 85.926 26.0988 86.6667 25.7778L104.741 18.2222L124 64.2963C124.346 65.0617 124.346 65.9506 124.025 66.7161Z" fill="#6E1636"/>
<path d="M33.9464 116.026L31.3135 117.385L34.7332 124.011L37.3661 122.652L33.9464 116.026Z" fill="#C8B56D"/>
<path d="M13.3606 116.145L9.94092 122.771L12.5738 124.13L15.9935 117.504L13.3606 116.145Z" fill="#C8B56D"/>
<path d="M22.2051 120.389L22.0229 127.844L24.985 127.916L25.1672 120.461L22.2051 120.389Z" fill="#C8B56D"/>
<path d="M96.5903 4.1822L93.9575 5.54102L97.3771 12.1671L100.01 10.8083L96.5903 4.1822Z" fill="#C8B56D"/>
<path d="M118.758 4.28162L115.338 10.9077L117.971 12.2665L121.391 5.64043L118.758 4.28162Z" fill="#C8B56D"/>
<path d="M106.174 0.320346L105.992 7.7749L108.954 7.84729L109.136 0.392738L106.174 0.320346Z" fill="#C8B56D"/>
</g>
<defs>
<clipPath id="clip0_37_870">
<rect width="128" height="128" fill="white"/>
</clipPath>
</defs>
</svg>
