<svg width="212" height="158" viewBox="0 0 212 158" fill="none" xmlns="http://www.w3.org/2000/svg">
<path d="M146.6 55.1464H146.626C146.774 55.1464 146.908 55.0792 147.002 54.9584L151.218 50.231C151.419 50.0027 151.406 49.6535 151.178 49.452L146.452 45.235C146.344 45.141 146.197 45.0872 146.049 45.1007C145.901 45.1007 145.767 45.1678 145.673 45.2887L141.458 50.0161C141.256 50.2444 141.27 50.5936 141.498 50.795L146.224 55.0121C146.331 55.1061 146.452 55.1464 146.586 55.1464H146.6Z" fill="white"/>
<path d="M124.327 63.3925H124.354C124.501 63.3925 124.636 63.3253 124.73 63.2045L128.945 58.4771C129.147 58.2488 129.133 57.8996 128.905 57.6981L124.179 53.4811C124.072 53.3871 123.924 53.3333 123.776 53.3468C123.629 53.3468 123.494 53.4139 123.401 53.5348L119.185 58.2622C118.984 58.4905 118.997 58.8397 119.225 59.0411L123.951 63.2582C124.058 63.3522 124.179 63.3925 124.313 63.3925H124.327Z" fill="white"/>
<path d="M73.9815 72.3905H74.0083C74.156 72.3905 74.2903 72.3234 74.3842 72.2025L78.5998 67.4751C78.8012 67.2468 78.7878 66.8976 78.5595 66.6962L73.8338 62.4791C73.7264 62.3851 73.5787 62.3314 73.431 62.3448C73.2833 62.3448 73.1491 62.412 73.0551 62.5328L68.8395 67.2602C68.6382 67.4885 68.6516 67.8377 68.8798 68.0392L73.6056 72.2562C73.713 72.3502 73.8338 72.3905 73.968 72.3905H73.9815Z" fill="white"/>
<path d="M66.074 47.0209C66.074 47.0209 66.2082 47.1284 66.2753 47.1821C66.4499 47.3298 66.6378 47.4641 66.8258 47.5984C66.9735 47.6924 67.1211 47.7865 67.2688 47.867C67.497 48.0013 67.7253 48.1356 67.9132 48.2968C68.2489 48.5654 68.6516 48.7937 69.1215 48.4714C69.6183 48.8071 70.0613 49.2235 70.5043 49.7875C71.3904 50.9157 72.102 52.1109 72.5853 53.3465C72.8672 54.0583 73.1223 54.797 73.364 55.5222C73.4177 55.6968 73.4848 55.8714 73.5385 56.046C73.619 56.2743 73.7264 56.5832 74.0889 56.6503C74.1292 56.6503 74.1695 56.6503 74.1963 56.6503C74.4648 56.6503 74.6797 56.4757 74.8139 56.1131C74.9616 55.7236 75.1227 55.3207 75.1898 54.891C75.3509 53.8837 75.4717 52.8496 75.5926 51.8558V51.7886C75.7 50.9694 75.7805 50.1501 75.8745 49.3443C75.9148 48.9817 75.9551 48.6191 75.9953 48.2431C76.0356 47.9342 76.0625 47.6253 76.0893 47.3298C76.1565 46.6315 76.237 45.9062 76.3444 45.2079C76.3981 44.8453 76.5324 44.6035 76.7472 44.5095C76.962 44.4021 77.2708 44.4424 77.6064 44.6438C78.2642 45.0198 78.7744 45.5705 79.11 46.2957C79.1503 46.3763 79.1637 46.4837 79.1772 46.5912C79.1772 46.6583 79.1906 46.7389 79.2174 46.8061C79.2174 46.8463 79.2309 46.8866 79.2443 46.9269C79.2846 47.1552 79.3249 47.3433 79.486 47.3701C79.5934 47.3835 79.9827 47.4238 80.1841 47.2224C80.372 47.0478 80.5331 46.7926 80.6808 46.4434C81.3521 44.9124 81.3118 44.3752 80.4257 43.0188C79.8753 42.1861 79.1503 41.5683 78.2374 41.1654C77.5661 40.8699 76.9217 41.0177 76.3981 41.5549C76.1162 41.8503 75.8745 42.213 75.7268 42.589C75.0153 44.3081 74.7468 46.0943 74.5588 48.2431C74.4917 48.9549 74.4111 49.6801 74.3306 50.3785L74.2903 50.7814C74.2903 50.7814 74.2903 50.7948 74.2903 50.8082C72.6658 47.1552 70.115 44.3886 66.4767 42.3607C66.3962 42.3204 66.3022 42.3473 66.2619 42.4144C66.2082 42.495 66.1679 42.5621 66.1142 42.6293C66.0203 42.7636 65.9263 42.8979 65.8726 43.0322C65.698 43.5022 65.5101 44.0126 65.3893 44.5364C65.1207 45.6242 65.3624 46.43 66.1008 47.0075L66.074 47.0209Z" fill="white"/>
<path d="M115.063 72.2702C114.822 72.418 114.728 72.7 114.647 72.9552C114.58 73.1566 114.526 73.3581 114.392 73.4924C114.123 73.7744 113.627 73.7207 113.291 73.5192C112.593 73.1029 112.204 72.1628 112.271 71.0347C112.338 69.6514 112.929 68.3755 113.439 67.4085C113.613 67.0862 113.801 66.7639 113.989 66.4416C114.432 65.6761 114.889 64.8971 115.117 64.0376C115.117 63.9973 115.117 63.957 115.077 63.9301C114.889 63.8227 114.687 63.9839 114.566 64.1585C113.117 66.361 111.411 69.2888 111.197 72.3911C111.089 74.0027 111.438 75.1443 112.244 75.7889C112.553 76.0441 112.929 76.1784 113.291 76.1784C113.425 76.1784 113.573 76.1515 113.694 76.1112C114.003 76.0172 114.298 75.7889 114.566 75.4532C114.956 74.9563 115.184 74.3519 115.278 73.6133C115.305 73.4118 115.412 72.3911 115.224 72.2702C115.184 72.2434 115.13 72.2434 115.09 72.2702H115.063Z" fill="white"/>
<path d="M60.3815 58.6519C60.0459 58.8534 59.9385 59.2294 59.8311 59.5786C59.7506 59.8472 59.67 60.1158 59.4955 60.2904C59.133 60.6799 58.4617 60.5858 58.0187 60.3172C57.0789 59.7532 56.5687 58.5042 56.6493 56.9866C56.7433 55.1332 57.5354 53.4142 58.2066 52.1115C58.4349 51.6817 58.6899 51.2385 58.9316 50.8222C59.5223 49.8015 60.1399 48.7539 60.4487 47.5855C60.4621 47.5318 60.4487 47.4781 60.395 47.4512C60.1399 47.3035 59.8714 47.5318 59.7103 47.7601C57.7636 50.7147 55.4813 54.6363 55.1859 58.7996C55.0382 60.9619 55.5081 62.5064 56.5956 63.3659C57.0118 63.7016 57.5219 63.8762 58.0052 63.8762C58.1932 63.8762 58.3812 63.8494 58.5557 63.7956C58.9719 63.6613 59.3612 63.3659 59.7237 62.9093C60.2473 62.2512 60.5561 61.4319 60.6769 60.4381C60.7038 60.1695 60.8514 58.7996 60.5964 58.6385C60.5427 58.5982 60.4755 58.5982 60.4084 58.6385L60.3815 58.6519Z" fill="white"/>
<path d="M150.667 56.6507C146.21 56.6104 143.82 61.1229 142.411 64.6953C141.726 66.4278 137.551 75.7348 140.786 76.7287C142.478 77.239 146.103 75.8423 147.647 74.9827C149.298 74.0695 150.144 72.8205 150.896 71.1283C151.11 70.6448 151.312 70.1479 151.513 69.651C151.916 70.1345 152.278 70.6583 152.534 71.2223C153.111 72.431 153.326 73.7069 153.353 75.0365C153.353 75.1573 153.353 75.2782 153.353 75.3991C153.353 75.4259 153.326 75.4394 153.312 75.4662C152.225 77.1181 150.909 78.6357 149.432 79.9385C145.754 83.202 141.135 85.0688 136.343 85.9551C136.316 85.9551 136.275 85.982 136.235 85.9954C137.618 82.4768 139.296 78.3537 137.913 74.6739C136.651 71.2895 134.53 67.7708 131.147 66.1726C127.253 64.3327 124.689 66.7098 122.984 69.839C119.319 76.5004 117.332 83.0274 115.197 90.3736C113.117 91.1257 111.022 91.8375 108.914 92.5225L106.82 102.904C114.472 100.433 122.138 97.4782 129.12 93.5566C131.469 92.2404 133.389 90.8706 134.772 88.8829C134.45 89.9036 134.221 90.8706 134.1 91.2332C133.953 91.6629 132.758 96.8201 132.825 96.8067C142.478 95.0339 149.513 89.1784 153.165 80.1399C154.91 75.8154 156.601 70.9806 156.964 66.3069C157.273 62.251 155.635 56.7312 150.667 56.6909V56.6507ZM124.099 86.8147C121.615 87.9025 119.091 88.9098 116.553 89.8633C117.305 88.198 117.95 86.2775 118.755 84.6793C119.776 82.6916 122.138 76.9033 124.394 76.2855C126.703 75.6543 129.697 78.0851 131.053 79.643C131.523 80.1802 131.939 80.7443 132.315 81.3486C132.771 82.0604 132.53 83.014 131.791 83.4034C129.173 84.7733 126.341 85.8343 124.099 86.8147Z" fill="white"/>
<path d="M130.637 49.3985C130.637 49.3985 130.717 49.3985 130.758 49.3582C133.134 47.7868 135.738 46.4976 138.262 45.262C138.907 44.9397 139.565 44.6173 140.209 44.295L150.292 39.2319C150.453 39.1513 150.587 38.8827 150.761 38.4798C150.761 38.4529 150.788 38.4261 150.788 38.4126C150.976 38.0097 151.137 37.5531 151.285 37.0562C151.379 36.7607 151.648 35.7669 151.406 35.5789C151.339 35.5252 151.258 35.5117 151.164 35.5654L141.082 40.6286C140.437 40.9509 139.793 41.2732 139.135 41.5956C136.598 42.8446 133.98 44.1204 131.59 45.7052C131.415 45.826 131.268 46.1215 131.147 46.4304C131.134 46.4707 131.12 46.4976 131.107 46.511C130.919 46.9139 130.758 47.3705 130.61 47.8674C130.61 47.8674 130.234 49.1701 130.503 49.3582C130.529 49.385 130.57 49.3985 130.61 49.3985H130.637Z" fill="white"/>
<path d="M106.645 67.4092L102.685 63.877C102.537 63.7562 102.363 63.689 102.175 63.7024C101.987 63.7159 101.826 63.7965 101.705 63.9308L98.3889 67.6375V56.3293L106.337 53.7373C106.337 53.7373 106.323 53.7507 106.337 53.7642C106.404 57.8201 106.538 62.7758 106.645 67.4092Z" fill="white"/>
<path d="M105.303 87.2712C103.88 91.1525 100.805 94.2414 95.9186 96.7126C93.4349 97.9481 81.2312 101.601 78.2373 102.555L81.5265 91.2465C81.9427 91.0988 84.7755 90.1318 87.7828 89.1111C87.9842 89.044 88.1855 88.9634 88.3869 88.9097C88.9105 88.7351 89.4744 88.5336 90.0785 88.3322C90.5081 88.1844 90.9243 88.0367 91.3271 87.9024C91.7299 87.7547 92.1326 87.6204 92.522 87.4995C92.6025 87.4592 92.6965 87.4323 92.777 87.4055C93.1127 87.2846 93.4349 87.1772 93.7302 87.0832C93.8108 87.0563 93.9048 87.016 93.9988 86.9892C94.1062 86.9354 94.2136 86.9086 94.3075 86.8817C94.3881 86.8549 94.4552 86.828 94.5089 86.8146C95.3144 86.5325 95.8649 86.3311 95.9723 86.2908C96.7778 85.9685 97.5028 85.4044 97.919 84.6255C98.2278 84.0748 98.3889 83.4436 98.3889 82.799V72.6055L102.39 76.1779C102.524 76.2854 102.685 76.3525 102.86 76.3525H102.9C103.074 76.3391 103.249 76.2585 103.37 76.1242L106.753 72.3369C106.766 72.7801 106.766 73.2099 106.78 73.6262C106.793 74.244 106.807 74.8483 106.82 75.4527C106.874 79.4414 106.646 83.4705 105.303 87.2712Z" fill="white"/>
<path d="M145.66 30.1802C145.432 30.5026 139.833 38.198 130.556 38.9635C130.059 39.0038 129.549 39.0172 129.053 39.0172C123.199 39.0172 117.426 36.1969 111.855 30.6369C110.619 29.4013 110.418 27.4539 111.371 25.9766L120.098 12.5868C120.648 11.7541 121.481 11.1766 122.447 10.9752C123.414 10.7603 124.407 10.9483 125.24 11.499C126.166 12.1033 126.77 13.0703 126.904 14.1715C127.012 15.0714 126.757 15.9846 126.247 16.7501L119.306 27.4002C122.957 30.4354 126.529 31.8321 129.925 31.5501C133.631 31.2412 136.584 28.9312 138.088 27.4942L127.938 9.17554C127.643 8.65177 127.495 8.06085 127.482 7.45649C114.513 6.7447 108.109 13.5672 105.921 16.6158C105.921 29.361 106.082 36.5864 106.296 49.3047L98.3889 51.7221V51.2655C98.3889 41.9719 98.3889 38.386 98.4157 28.9447L98.4426 21.5312C98.4426 20.8463 98.4426 20.1479 98.4426 19.463V18.3483C98.4426 18.2543 98.4694 18.0931 98.4828 17.9051C98.5097 17.6097 98.5903 16.8307 98.4828 16.683C96.4019 13.7552 90.1994 7.0133 77.566 7.44306C77.566 8.06085 77.4049 8.65177 77.1096 9.18898L66.9465 27.5076C68.4502 28.9447 71.4172 31.2681 75.1495 31.5635C78.5327 31.8321 82.077 30.4354 85.7287 27.4136L78.7206 16.6561C77.6063 14.9371 78.0896 12.6271 79.8081 11.5124C81.5265 10.3977 83.8357 10.8812 84.95 12.6002L93.6766 25.99C94.6298 27.4539 94.4284 29.4147 93.1932 30.6503C87.6351 36.2238 81.8487 39.0307 75.9953 39.0307C75.4985 39.0307 75.0018 39.0172 74.505 38.9769C65.2281 38.2114 59.6297 30.516 59.4014 30.1937C58.5691 29.0252 58.4751 27.4673 59.1732 26.2318L69.108 8.31602C67.7118 7.98027 66.6109 6.89243 66.3155 5.46884C66.1007 4.50187 66.2887 3.50804 66.8257 2.67537C67.3761 1.84271 68.1951 1.26521 69.1617 1.06376C87.0847 -2.77725 97.4759 4.6496 102.161 9.57845C106.833 4.66303 117.184 -2.73696 135.04 1.0369C135.926 1.22492 136.759 1.69498 137.323 2.40677C138.007 3.29316 138.262 4.39443 138.034 5.48227C137.779 6.67754 136.947 7.67137 135.832 8.128L145.875 26.2318C146.573 27.4808 146.479 29.0387 145.646 30.1937L145.66 30.1802Z" fill="white"/>
<path d="M119.252 37.9295C119.252 37.9295 119.225 37.8489 119.212 37.8086C118.446 40.9109 116.567 43.6775 114.177 45.7995C109.921 49.5868 104.39 51.1178 99.0064 52.5414C97.1671 53.0249 95.3413 53.5353 93.5289 54.1127C92.24 54.5291 90.2128 54.8245 89.7832 56.3421C89.5684 57.1345 89.5415 57.9672 89.5012 58.7864C89.4341 60.3309 89.4072 61.8753 89.3267 63.4332C89.179 66.455 88.8165 69.5439 87.4874 72.3105C85.9032 75.6009 83.0302 78.1795 79.7678 79.818C75.0018 82.2085 68.7187 83.5515 63.6976 81.2416C62.2879 80.5969 60.9588 79.6434 60.1935 78.2869C59.1195 76.3933 59.294 74.043 59.7505 71.9076C60.207 69.7722 60.9185 67.6503 60.7977 65.4746C58.0455 68.4292 56.421 72.2971 55.5752 76.2456C54.9979 78.9719 54.7562 81.819 55.3201 84.5588C55.884 87.2985 57.3071 89.9174 59.5625 91.5559C63.7513 94.6045 69.9404 94.0405 74.505 92.214C78.8951 90.4546 82.52 87.2045 85.2319 83.3635C87.6082 79.9926 89.3401 76.1784 90.4813 72.2165C91.0183 70.3632 91.4211 68.483 91.7164 66.5759C91.9312 65.1254 92.5085 64.4136 93.9048 63.8496C97.2745 62.5066 100.765 61.4859 104.242 60.4518C107.411 59.5116 110.66 58.5178 113.264 56.4764C115.466 54.744 117.077 52.3131 118.111 49.7077C119.52 46.1621 120.541 41.6765 119.265 37.9563L119.252 37.9295Z" fill="white"/>
<path d="M102.792 75.0497H102.819C102.967 75.0497 103.101 74.9826 103.195 74.8617L107.411 70.1343C107.612 69.906 107.599 69.5568 107.371 69.3554L102.645 65.1383C102.537 65.0443 102.39 64.9906 102.242 65.004C102.094 65.004 101.96 65.0712 101.866 65.192L97.6505 69.9194C97.4491 70.1477 97.4626 70.4969 97.6908 70.6984L102.417 74.9154C102.524 75.0094 102.645 75.0497 102.779 75.0497H102.792Z" fill="white"/>
<path d="M11.5344 149.552L11.8944 151.904H1.81438V149.552H5.41438V138.248L2.39038 139.88L1.57438 137.696L5.77438 135.464H8.29438V149.552H11.5344ZM26.2068 149.792C24.9588 151.36 23.1668 152.144 20.8308 152.144C18.4948 152.144 16.7028 151.36 15.4548 149.792C14.2068 148.224 13.5828 146.208 13.5828 143.744C13.5828 141.296 14.2068 139.288 15.4548 137.72C16.7028 136.136 18.4948 135.344 20.8308 135.344C23.1668 135.344 24.9588 136.136 26.2068 137.72C27.4708 139.288 28.1028 141.296 28.1028 143.744C28.1028 146.208 27.4708 148.224 26.2068 149.792ZM24.0708 139.256C23.3508 138.152 22.2708 137.6 20.8308 137.6C19.3908 137.6 18.3108 138.152 17.5908 139.256C16.8708 140.344 16.5108 141.84 16.5108 143.744C16.5108 145.648 16.8708 147.152 17.5908 148.256C18.3108 149.344 19.3908 149.888 20.8308 149.888C22.2708 149.888 23.3508 149.344 24.0708 148.256C24.7908 147.152 25.1508 145.648 25.1508 143.744C25.1508 141.84 24.7908 140.344 24.0708 139.256ZM43.1287 149.792C41.8807 151.36 40.0887 152.144 37.7527 152.144C35.4167 152.144 33.6247 151.36 32.3767 149.792C31.1287 148.224 30.5047 146.208 30.5047 143.744C30.5047 141.296 31.1287 139.288 32.3767 137.72C33.6247 136.136 35.4167 135.344 37.7527 135.344C40.0887 135.344 41.8807 136.136 43.1287 137.72C44.3927 139.288 45.0247 141.296 45.0247 143.744C45.0247 146.208 44.3927 148.224 43.1287 149.792ZM40.9927 139.256C40.2727 138.152 39.1927 137.6 37.7527 137.6C36.3127 137.6 35.2327 138.152 34.5127 139.256C33.7927 140.344 33.4327 141.84 33.4327 143.744C33.4327 145.648 33.7927 147.152 34.5127 148.256C35.2327 149.344 36.3127 149.888 37.7527 149.888C39.1927 149.888 40.2727 149.344 40.9927 148.256C41.7127 147.152 42.0727 145.648 42.0727 143.744C42.0727 141.84 41.7127 140.344 40.9927 139.256ZM49.2746 149C50.3946 149.608 51.5866 149.912 52.8506 149.912C56.0346 149.912 57.6266 147.808 57.6266 143.6C57.0186 144.384 56.2506 144.968 55.3226 145.352C54.4106 145.72 53.5226 145.904 52.6586 145.904C51.0586 145.904 49.7866 145.432 48.8426 144.488C47.8986 143.544 47.4266 142.368 47.4266 140.96C47.4266 139.36 47.9626 138.024 49.0346 136.952C50.1066 135.88 51.6346 135.344 53.6186 135.344C55.8746 135.344 57.5946 136.08 58.7786 137.552C59.9786 139.008 60.5786 140.952 60.5786 143.384C60.5786 144.264 60.4906 145.12 60.3146 145.952C60.1546 146.768 59.8826 147.56 59.4986 148.328C59.1146 149.08 58.6426 149.736 58.0826 150.296C57.5386 150.856 56.8426 151.304 55.9946 151.64C55.1466 151.976 54.2106 152.144 53.1866 152.144C51.4266 152.144 49.8506 151.784 48.4586 151.064L49.2746 149ZM57.4826 141.776C57.4186 140.624 57.0586 139.632 56.4026 138.8C55.7466 137.968 54.8346 137.552 53.6666 137.552C52.7066 137.552 51.9146 137.864 51.2906 138.488C50.6666 139.096 50.3546 139.872 50.3546 140.816C50.3546 141.76 50.6506 142.512 51.2426 143.072C51.8346 143.632 52.6106 143.912 53.5706 143.912C54.3866 143.912 55.1466 143.712 55.8506 143.312C56.5706 142.896 57.1146 142.384 57.4826 141.776ZM75.6131 149.792C74.3651 151.36 72.5731 152.144 70.2371 152.144C67.9011 152.144 66.1091 151.36 64.8611 149.792C63.6131 148.224 62.9891 146.208 62.9891 143.744C62.9891 141.296 63.6131 139.288 64.8611 137.72C66.1091 136.136 67.9011 135.344 70.2371 135.344C72.5731 135.344 74.3651 136.136 75.6131 137.72C76.8771 139.288 77.5091 141.296 77.5091 143.744C77.5091 146.208 76.8771 148.224 75.6131 149.792ZM73.4771 139.256C72.7571 138.152 71.6771 137.6 70.2371 137.6C68.7971 137.6 67.7171 138.152 66.9971 139.256C66.2771 140.344 65.9171 141.84 65.9171 143.744C65.9171 145.648 66.2771 147.152 66.9971 148.256C67.7171 149.344 68.7971 149.888 70.2371 149.888C71.6771 149.888 72.7571 149.344 73.4771 148.256C74.1971 147.152 74.5571 145.648 74.5571 143.744C74.5571 141.84 74.1971 140.344 73.4771 139.256ZM80.2709 136.928C82.1749 135.872 83.9749 135.344 85.6709 135.344C87.3989 135.344 88.8309 135.736 89.9669 136.52C91.1029 137.304 91.6709 138.472 91.6709 140.024C91.6709 140.984 91.3749 141.864 90.7829 142.664C90.1909 143.448 89.4709 144.112 88.6229 144.656C87.7749 145.184 86.9269 145.688 86.0789 146.168C85.2309 146.648 84.5109 147.176 83.9189 147.752C83.3269 148.312 83.0309 148.904 83.0309 149.528H91.5989L91.9589 151.904H79.8389V150.416C79.8389 149.456 80.0549 148.584 80.4869 147.8C80.9349 147 81.4869 146.36 82.1429 145.88C82.7989 145.4 83.5109 144.928 84.2789 144.464C85.0469 143.984 85.7589 143.568 86.4149 143.216C87.0709 142.848 87.6149 142.4 88.0469 141.872C88.4949 141.344 88.7189 140.776 88.7189 140.168C88.7189 139.288 88.4069 138.64 87.7829 138.224C87.1589 137.808 86.3509 137.6 85.3589 137.6C84.0629 137.6 82.5109 138.136 80.7029 139.208L80.2709 136.928ZM103.902 149.552L104.262 151.904H94.1816V149.552H97.7816V138.248L94.7576 139.88L93.9416 137.696L98.1416 135.464H100.662V149.552H103.902ZM119.51 148.544H117.014V151.904H114.134V148.544H105.59V146.336L114.086 135.584H117.014V146.336H119.51V148.544ZM114.134 146.336V139.064L108.494 146.336H114.134ZM132.606 138.464C131.438 137.856 130.246 137.552 129.03 137.552C125.846 137.552 124.254 139.664 124.254 143.888C124.862 143.088 125.622 142.504 126.534 142.136C127.446 141.768 128.342 141.584 129.222 141.584C130.822 141.584 132.094 142.056 133.038 143C133.982 143.944 134.454 145.12 134.454 146.528C134.454 148.112 133.918 149.448 132.846 150.536C131.774 151.608 130.246 152.144 128.262 152.144C126.006 152.144 124.278 151.408 123.078 149.936C121.894 148.464 121.302 146.512 121.302 144.08C121.302 143.2 121.382 142.352 121.542 141.536C121.718 140.72 121.998 139.936 122.382 139.184C122.766 138.416 123.23 137.752 123.774 137.192C124.334 136.632 125.038 136.184 125.886 135.848C126.734 135.512 127.67 135.344 128.694 135.344C130.438 135.344 132.014 135.696 133.422 136.4L132.606 138.464ZM124.374 145.712C124.438 146.864 124.798 147.856 125.454 148.688C126.11 149.504 127.022 149.912 128.19 149.912C129.15 149.912 129.942 149.608 130.566 149C131.19 148.376 131.502 147.592 131.502 146.648C131.502 145.72 131.206 144.976 130.614 144.416C130.022 143.84 129.246 143.552 128.286 143.552C127.47 143.552 126.702 143.76 125.982 144.176C125.278 144.592 124.742 145.104 124.374 145.712ZM137.224 136.928C139.128 135.872 140.928 135.344 142.624 135.344C144.352 135.344 145.784 135.736 146.92 136.52C148.056 137.304 148.624 138.472 148.624 140.024C148.624 140.984 148.328 141.864 147.736 142.664C147.144 143.448 146.424 144.112 145.576 144.656C144.728 145.184 143.88 145.688 143.032 146.168C142.184 146.648 141.464 147.176 140.872 147.752C140.28 148.312 139.984 148.904 139.984 149.528H148.552L148.912 151.904H136.792V150.416C136.792 149.456 137.008 148.584 137.44 147.8C137.888 147 138.44 146.36 139.096 145.88C139.752 145.4 140.464 144.928 141.232 144.464C142 143.984 142.712 143.568 143.368 143.216C144.024 142.848 144.568 142.4 145 141.872C145.448 141.344 145.672 140.776 145.672 140.168C145.672 139.288 145.36 138.64 144.736 138.224C144.112 137.808 143.304 137.6 142.312 137.6C141.016 137.6 139.464 138.136 137.656 139.208L137.224 136.928ZM165.21 139.136L163.266 141.08L161.13 138.968L163.242 136.88L165.21 138.8L167.178 136.88L169.314 138.968L167.202 141.08L165.21 139.136ZM171.378 140.264L173.994 139.904V147.152C173.994 148.688 173.554 149.864 172.674 150.68C171.794 151.48 170.482 151.888 168.738 151.904H162.378C160.442 151.904 158.97 151.464 157.962 150.584C156.97 149.688 156.474 148.368 156.474 146.624C156.474 145.456 156.642 144.112 156.978 142.592L159.234 142.88C159.01 144.224 158.898 145.216 158.898 145.856C158.898 146.992 159.234 147.824 159.906 148.352C160.594 148.88 161.626 149.144 163.002 149.144H168.714C170.506 149.144 171.402 148.208 171.402 146.336L171.378 140.264ZM179.158 151.904H176.662V149.408H179.158V151.904ZM208.079 140.264L210.671 139.904V147.152C210.671 148.688 210.263 149.864 209.447 150.68C208.631 151.496 207.423 151.904 205.823 151.904C204.511 151.904 203.183 151.464 201.839 150.584C200.927 151.464 199.687 151.904 198.119 151.904C197.111 151.904 196.071 151.568 194.999 150.896C194.807 152.832 194.127 154.344 192.959 155.432C191.807 156.52 190.167 157.064 188.039 157.064C185.895 157.064 184.231 156.536 183.047 155.48C181.863 154.424 181.271 152.856 181.271 150.776C181.271 149.112 181.623 147.208 182.327 145.064L184.439 145.64C183.911 147.256 183.647 148.728 183.647 150.056C183.663 151.464 184.055 152.52 184.823 153.224C185.591 153.944 186.687 154.304 188.111 154.304C189.583 154.304 190.679 153.896 191.399 153.08C192.119 152.264 192.479 151 192.479 149.288V140.264L195.071 139.904V148.376C196.047 148.888 196.983 149.144 197.879 149.144C199.671 149.144 200.567 148.208 200.567 146.336L200.543 142.784L203.159 142.424V147.152C203.159 147.68 203.095 148.184 202.967 148.664C203.767 148.984 204.583 149.144 205.415 149.144C206.279 149.144 206.935 148.904 207.383 148.424C207.847 147.944 208.079 147.248 208.079 146.336V140.264Z" fill="white"/>
</svg>
