<svg width="132" height="132" viewBox="0 0 132 132" fill="none" xmlns="http://www.w3.org/2000/svg">
<path d="M114.845 37.5543H111.941C113.852 30.939 112.436 23.8085 107.992 18.3797C107.315 17.5532 106.098 17.4322 105.271 18.1082C104.445 18.7847 104.323 20.0029 105 20.8294C108.868 25.5549 109.926 31.8612 107.879 37.5543H98.6478C91.7369 26.1945 79.3328 19.1833 66 19.1833C52.6672 19.1833 40.2631 26.1945 33.3519 37.5543H24.122C21.8594 31.2729 23.3828 24.32 28.1632 19.5399C33.2382 14.4646 40.7617 13.0592 47.3305 15.9583C47.8137 16.1715 48.3633 16.178 48.8511 15.9756C49.3391 15.7737 49.7233 15.3806 49.9141 14.8879C52.5089 8.19302 58.823 3.86719 66 3.86719C73.177 3.86719 79.4911 8.19302 82.086 14.8882C82.2767 15.3808 82.6609 15.774 83.1489 15.9759C83.637 16.1777 84.1858 16.1718 84.6695 15.9586C89.0698 14.0165 94.1235 14.0036 98.5344 15.924C99.5149 16.35 100.653 15.9016 101.079 14.923C101.505 13.9438 101.057 12.8043 100.078 12.3781C95.2723 10.2862 89.8446 10.0681 84.9118 11.722C83.3392 8.55319 80.9995 5.83507 78.0656 3.78727C74.5155 1.30969 70.3434 0 66 0C61.6566 0 57.4845 1.30969 53.9344 3.78727C51.001 5.83455 48.6613 8.55216 47.0884 11.7204C43.7363 10.5922 40.1607 10.3251 36.6383 10.9514C32.3761 11.7096 28.4999 13.7339 25.4286 16.805C22.3575 19.8763 20.3332 23.7525 19.5749 28.0147C19.0049 31.2195 19.1782 34.4688 20.0635 37.554H17.1546C11.0364 37.554 6.05859 42.5318 6.05859 48.65V66.1024C6.05859 72.2205 11.0364 77.1983 17.1546 77.1983H20.0635C19.1782 80.2838 19.0049 83.5328 19.5749 86.7379C20.0313 89.3024 20.9488 91.7253 22.274 93.919L20.0802 98.8672C19.6474 99.8436 20.088 100.986 21.0641 101.419C21.3188 101.531 21.5851 101.585 21.8468 101.585C22.5882 101.585 23.2957 101.156 23.6154 100.435L24.9418 97.4426C28.0611 100.784 32.1515 103.006 36.638 103.801C40.1607 104.428 43.7361 104.161 47.0882 103.032C48.9485 106.796 51.9688 109.981 55.6622 112.048L48.8903 127.322C48.5667 128.052 47.9132 128.132 47.6474 128.133C47.3772 128.133 46.7265 128.053 46.4011 127.327L39.0153 110.838C38.6115 109.936 37.5916 109.483 36.6514 109.79L19.4726 115.388C18.7146 115.636 18.2175 115.204 18.0389 115.006C17.8607 114.809 17.4812 114.27 17.8048 113.541L19.9578 108.684C20.3907 107.708 19.95 106.566 18.974 106.133C17.9971 105.7 16.855 106.141 16.4227 107.117L14.2697 111.973C13.4209 113.888 13.7654 116.043 15.1684 117.597C16.5717 119.151 18.6793 119.714 20.6712 119.065L36.1969 114.005L42.8722 128.908C43.7268 130.816 45.5547 132 47.6445 132C49.7493 131.996 51.5775 130.804 52.4262 128.89L59.1922 113.629C61.3648 114.369 63.657 114.753 66 114.753C68.343 114.753 70.6352 114.369 72.8078 113.629L79.5738 128.89C80.4226 130.805 82.2507 131.996 84.3447 132C86.4451 132 88.2729 130.816 89.1279 128.908L95.8031 114.005L111.329 119.065C113.32 119.714 115.428 119.151 116.832 117.597C118.235 116.043 118.579 113.888 117.73 111.973L109.726 93.9195C111.051 91.7258 111.969 89.3029 112.425 86.7384C112.995 83.5333 112.822 80.2844 111.937 77.1989H114.846C120.964 77.1989 125.942 72.221 125.942 66.1029V48.6505C125.941 42.5321 120.964 37.5543 114.845 37.5543ZM66 23.0505C77.1762 23.0505 87.6279 28.5319 94.0247 37.5543H37.9753C44.3721 28.5319 54.8238 23.0505 66 23.0505ZM66 110.886C58.9068 110.897 52.5123 106.594 49.9141 99.865C49.7233 99.3723 49.3391 98.9791 48.8511 98.7772C48.3625 98.5751 47.8139 98.5808 47.3305 98.7945C40.7612 101.694 33.2382 100.289 28.1632 95.2133C23.4692 90.5636 21.8236 83.4879 24.122 77.1986H33.3522C40.2634 88.5583 52.6672 95.5698 66.0003 95.5698C79.3333 95.5698 91.7369 88.5583 98.6484 77.1986H107.879C110.177 83.4877 108.531 90.5636 103.837 95.2133C98.7626 100.289 91.2391 101.694 84.67 98.7945C84.1869 98.5813 83.637 98.5749 83.1494 98.7772C82.6614 98.9791 82.2773 99.3723 82.0865 99.865C79.4875 106.594 73.0932 110.896 66 110.886ZM37.9753 77.1989H94.0247C87.6276 86.2213 77.1762 91.7026 66 91.7026C54.8238 91.7026 44.3724 86.2213 37.9753 77.1989ZM114.195 113.54C114.519 114.27 114.139 114.808 113.961 115.006C113.782 115.203 113.286 115.636 112.527 115.388L95.3484 109.79C94.4079 109.483 93.3885 109.935 92.9845 110.838L85.5987 127.327C85.2733 128.053 84.6226 128.133 84.3552 128.133C84.0866 128.132 83.433 128.052 83.1095 127.322L76.3375 112.048C80.0309 109.98 83.051 106.796 84.9116 103.032C88.2639 104.16 91.8395 104.428 95.3618 103.801C99.8482 103.006 103.939 100.783 107.058 97.4423L114.195 113.54ZM122.074 66.1026C122.074 70.0887 118.831 73.3314 114.845 73.3314H17.1546C13.1685 73.3314 9.92578 70.0887 9.92578 66.1026V48.6502C9.92578 44.6642 13.1685 41.4214 17.1546 41.4214H114.845C118.831 41.4214 122.074 44.6642 122.074 48.6502V66.1026Z" fill="#6E1636"/>
<path d="M26.0643 50.7983C27.1324 50.7983 27.9979 49.9329 27.9979 48.8647C27.9979 47.7966 27.1324 46.9312 26.0643 46.9312H18.8244C17.7563 46.9312 16.8908 47.7966 16.8908 48.8647V66.0469C16.8908 67.115 17.7563 67.9805 18.8244 67.9805H26.0643C27.1324 67.9805 27.9979 67.115 27.9979 66.0469C27.9979 64.9788 27.1324 64.1133 26.0643 64.1133H20.758V59.3894H25.5307C26.5988 59.3894 27.4642 58.5239 27.4642 57.4558C27.4642 56.3877 26.5988 55.5222 25.5307 55.5222H20.758V50.7986L26.0643 50.7983Z" fill="#C8B56D"/>
<path d="M79.5864 50.7983C80.6546 50.7983 81.52 49.9329 81.52 48.8647C81.52 47.7966 80.6546 46.9312 79.5864 46.9312H72.3466C71.2784 46.9312 70.413 47.7966 70.413 48.8647V66.0469C70.413 67.115 71.2784 67.9805 72.3466 67.9805H79.5864C80.6546 67.9805 81.52 67.115 81.52 66.0469C81.52 64.9788 80.6546 64.1133 79.5864 64.1133H74.2802V59.3894H79.0528C80.1209 59.3894 80.9864 58.5239 80.9864 57.4558C80.9864 56.3877 80.1209 55.5222 79.0528 55.5222H74.2802V50.7986H79.5864V50.7983Z" fill="#C8B56D"/>
<path d="M42.7711 56.7618L47.6613 49.8202C48.2761 48.9469 48.0671 47.7409 47.1941 47.1258C46.3204 46.5106 45.1149 46.7202 44.4997 47.5929L40.4077 53.4017L36.3222 47.5939C35.708 46.721 34.5023 46.5101 33.6283 47.1252C32.7548 47.7396 32.5449 48.9459 33.1596 49.8191L38.0423 56.76L32.2846 64.9334C31.6697 65.8066 31.8788 67.0126 32.7517 67.6278C33.0902 67.8663 33.4787 67.9807 33.8634 67.9807C34.4711 67.9807 35.0694 67.6951 35.4461 67.1604L40.4059 60.1198L45.358 67.1593C45.7344 67.6943 46.3328 67.9807 46.9412 67.9807C47.3253 67.9807 47.7136 67.8665 48.0521 67.6283C48.9256 67.0139 49.1354 65.8076 48.5208 64.9344L42.7711 56.7618Z" fill="#C8B56D"/>
<path d="M113.176 46.7729H103.599C102.531 46.7729 101.666 47.6384 101.666 48.7065C101.666 49.7747 102.531 50.6401 103.599 50.6401H106.435V66.047C106.435 67.1151 107.3 67.9806 108.368 67.9806C109.436 67.9806 110.302 67.1151 110.302 66.047V50.6401H113.176C114.244 50.6401 115.109 49.7747 115.109 48.7065C115.109 47.6384 114.244 46.7729 113.176 46.7729Z" fill="#C8B56D"/>
<path d="M98.6813 53.2128C98.6813 49.662 95.6778 46.7729 91.9859 46.7729H87.3781C86.3045 46.7729 85.4391 47.6384 85.4391 48.7065V66.047C85.4391 67.1151 86.3045 67.9806 87.3726 67.9806C88.4408 67.9806 89.3062 67.1151 89.3062 66.047V60.5187L95.2963 67.3245C96.004 68.1283 97.2268 68.2018 98.0252 67.4985C98.8267 66.7931 98.9046 65.5711 98.1992 64.7696L93.5403 59.4761C96.4845 58.7999 98.6813 56.2494 98.6813 53.2128ZM91.9859 55.7861C91.3651 55.7861 90.2705 55.7907 89.306 55.7956V50.6401H91.9859C93.5189 50.6401 94.8142 51.8183 94.8142 53.2128C94.8142 54.6079 93.5189 55.7861 91.9859 55.7861Z" fill="#C8B56D"/>
<path d="M59.5317 46.7729H54.7034C53.6353 46.7729 52.7698 47.6384 52.7698 48.7065V66.047C52.7698 67.1151 53.6353 67.9806 54.7034 67.9806C55.7715 67.9806 56.637 67.1151 56.637 66.047V60.4378C57.666 60.4324 58.8627 60.427 59.5317 60.427C63.3492 60.427 66.4548 57.3644 66.4548 53.6001C66.4548 49.8358 63.3492 46.7729 59.5317 46.7729ZM59.5317 56.5598C58.8627 56.5598 57.668 56.5652 56.637 56.5706V50.6401H59.5317C61.1882 50.6401 62.5876 51.9957 62.5876 53.5998C62.5876 55.2039 61.1882 56.5598 59.5317 56.5598Z" fill="#C8B56D"/>
</svg>
