<svg width="36" height="36" viewBox="0 0 36 36" fill="none" xmlns="http://www.w3.org/2000/svg">
<path d="M22.125 34.125H15.375V23.25H13.95C13.08 23.25 12.375 22.545 12.375 21.675V18.825C12.375 17.955 13.08 17.25 13.95 17.25H15.375V13.5C15.375 10.395 17.895 7.875 21 7.875H25.05C25.92 7.875 26.625 8.57998 26.625 9.44998V13.05C26.625 13.92 25.92 14.625 25.05 14.625H22.125V17.25H24.945C25.425 17.25 25.86 17.46 26.16 17.82C26.46 18.18 26.58 18.66 26.49 19.125L25.92 21.975C25.77 22.71 25.125 23.235 24.375 23.235H22.125V34.125V34.125ZM17.625 31.875H19.875V21H23.835L24.135 19.5H19.89V13.95C19.89 13.08 20.595 12.375 21.465 12.375H24.39V10.125H21C19.14 10.125 17.625 11.64 17.625 13.5V19.5H14.625V21H17.625V31.875Z" fill="white"/>
<path d="M22.5 34.125H13.5C5.355 34.125 1.875 30.645 1.875 22.5V13.5C1.875 5.355 5.355 1.875 13.5 1.875H22.5C30.645 1.875 34.125 5.355 34.125 13.5V22.5C34.125 30.645 30.645 34.125 22.5 34.125ZM13.5 4.125C6.585 4.125 4.125 6.585 4.125 13.5V22.5C4.125 29.415 6.585 31.875 13.5 31.875H22.5C29.415 31.875 31.875 29.415 31.875 22.5V13.5C31.875 6.585 29.415 4.125 22.5 4.125H13.5Z" fill="white"/>
</svg>
