<svg width="28" height="26" viewBox="0 0 28 26" fill="none" xmlns="http://www.w3.org/2000/svg">
<rect x="1" y="0.5" width="26" height="25" rx="12.5" stroke="white"/>
<path d="M19.5668 8.012C19.0548 7.324 18.4228 6.812 17.6708 6.476C16.9188 6.124 16.1348 5.948 15.3188 5.948C14.3748 5.948 13.5028 6.14 12.7028 6.524C11.9188 6.908 11.2388 7.428 10.6628 8.084C10.0868 8.724 9.63878 9.476 9.31878 10.34C8.99878 11.188 8.83878 12.076 8.83878 13.004C8.83878 13.996 8.99878 14.924 9.31878 15.788C9.63878 16.636 10.0788 17.38 10.6388 18.02C11.2148 18.644 11.8948 19.14 12.6788 19.508C13.4788 19.876 14.3588 20.06 15.3188 20.06C16.3748 20.06 17.3028 19.86 18.1028 19.46C18.9188 19.044 19.6308 18.452 20.2388 17.684L21.7508 18.956C20.9828 19.98 20.0548 20.732 18.9668 21.212C17.8948 21.692 16.6788 21.932 15.3188 21.932C14.0868 21.932 12.9428 21.708 11.8868 21.26C10.8468 20.812 9.93478 20.196 9.15078 19.412C8.38278 18.612 7.77478 17.668 7.32678 16.58C6.89478 15.492 6.67878 14.3 6.67878 13.004C6.67878 11.756 6.88678 10.588 7.30278 9.5C7.73478 8.412 8.33478 7.468 9.10278 6.668C9.87078 5.868 10.7828 5.236 11.8388 4.772C12.8948 4.308 14.0548 4.076 15.3188 4.076C16.4708 4.076 17.5748 4.284 18.6308 4.7C19.7028 5.116 20.5988 5.796 21.3188 6.74L19.5668 8.012Z" fill="white"/>
</svg>
