<svg width="1078" height="77" viewBox="0 0 1078 77" fill="none" xmlns="http://www.w3.org/2000/svg">
<line y1="37.8149" x2="477" y2="37.8149" stroke="#D9D9D9"/>
<g clip-path="url(#clip0_57_2086)">
<path d="M569.23 41.08H569.25C569.36 41.08 569.46 41.03 569.53 40.94L572.67 37.42C572.82 37.25 572.81 36.99 572.64 36.84L569.12 33.7C569.04 33.63 568.93 33.59 568.82 33.6C568.71 33.6 568.61 33.65 568.54 33.74L565.4 37.26C565.25 37.43 565.26 37.69 565.43 37.84L568.95 40.98C569.03 41.05 569.12 41.08 569.22 41.08H569.23Z" fill="#D9D9D9"/>
<path d="M552.64 47.22H552.66C552.77 47.22 552.87 47.17 552.94 47.08L556.08 43.56C556.23 43.39 556.22 43.13 556.05 42.98L552.53 39.84C552.45 39.77 552.34 39.73 552.23 39.74C552.12 39.74 552.02 39.79 551.95 39.88L548.81 43.4C548.66 43.57 548.67 43.83 548.84 43.98L552.36 47.12C552.44 47.19 552.53 47.22 552.63 47.22H552.64Z" fill="#D9D9D9"/>
<path d="M515.14 53.92H515.16C515.27 53.92 515.37 53.87 515.44 53.78L518.58 50.26C518.73 50.09 518.72 49.83 518.55 49.68L515.03 46.54C514.95 46.47 514.84 46.43 514.73 46.44C514.62 46.44 514.52 46.49 514.45 46.58L511.31 50.1C511.16 50.27 511.17 50.53 511.34 50.68L514.86 53.82C514.94 53.89 515.03 53.92 515.13 53.92H515.14Z" fill="#D9D9D9"/>
<path d="M509.26 35.03C509.26 35.03 509.36 35.11 509.41 35.15C509.54 35.26 509.68 35.36 509.82 35.46C509.93 35.53 510.04 35.6 510.15 35.66C510.32 35.76 510.49 35.86 510.63 35.98C510.88 36.18 511.18 36.35 511.53 36.11C511.9 36.36 512.23 36.67 512.56 37.09C513.22 37.93 513.75 38.82 514.11 39.74C514.32 40.27 514.51 40.82 514.69 41.36C514.73 41.49 514.78 41.62 514.82 41.75C514.88 41.92 514.96 42.15 515.23 42.2C515.26 42.2 515.29 42.2 515.31 42.2C515.51 42.2 515.67 42.07 515.77 41.8C515.88 41.51 516 41.21 516.05 40.89C516.17 40.14 516.26 39.37 516.35 38.63V38.58C516.43 37.97 516.49 37.36 516.56 36.76C516.59 36.49 516.62 36.22 516.65 35.94C516.68 35.71 516.7 35.48 516.72 35.26C516.77 34.74 516.83 34.2 516.91 33.68C516.95 33.41 517.05 33.23 517.21 33.16C517.37 33.08 517.6 33.11 517.85 33.26C518.34 33.54 518.72 33.95 518.97 34.49C519 34.55 519.01 34.63 519.02 34.71C519.02 34.76 519.03 34.82 519.05 34.87C519.05 34.9 519.06 34.93 519.07 34.96C519.1 35.13 519.13 35.27 519.25 35.29C519.33 35.3 519.62 35.33 519.77 35.18C519.91 35.05 520.03 34.86 520.14 34.6C520.64 33.46 520.61 33.06 519.95 32.05C519.54 31.43 519 30.97 518.32 30.67C517.82 30.45 517.34 30.56 516.95 30.96C516.74 31.18 516.56 31.45 516.45 31.73C515.92 33.01 515.72 34.34 515.58 35.94C515.53 36.47 515.47 37.01 515.41 37.53L515.38 37.83C515.38 37.83 515.38 37.84 515.38 37.85C514.17 35.13 512.27 33.07 509.56 31.56C509.5 31.53 509.43 31.55 509.4 31.6C509.36 31.66 509.33 31.71 509.29 31.76C509.22 31.86 509.15 31.96 509.11 32.06C508.98 32.41 508.84 32.79 508.75 33.18C508.55 33.99 508.73 34.59 509.28 35.02L509.26 35.03Z" fill="#D9D9D9"/>
<path d="M545.75 53.83C545.57 53.94 545.5 54.15 545.44 54.34C545.39 54.49 545.35 54.64 545.25 54.74C545.05 54.95 544.68 54.91 544.43 54.76C543.91 54.45 543.62 53.75 543.67 52.91C543.72 51.88 544.16 50.93 544.54 50.21C544.67 49.97 544.81 49.73 544.95 49.49C545.28 48.92 545.62 48.34 545.79 47.7C545.79 47.67 545.79 47.64 545.76 47.62C545.62 47.54 545.47 47.66 545.38 47.79C544.3 49.43 543.03 51.61 542.87 53.92C542.79 55.12 543.05 55.97 543.65 56.45C543.88 56.64 544.16 56.74 544.43 56.74C544.53 56.74 544.64 56.72 544.73 56.69C544.96 56.62 545.18 56.45 545.38 56.2C545.67 55.83 545.84 55.38 545.91 54.83C545.93 54.68 546.01 53.92 545.87 53.83C545.84 53.81 545.8 53.81 545.77 53.83H545.75Z" fill="#D9D9D9"/>
<path d="M505.01 43.69C504.76 43.84 504.68 44.12 504.6 44.38C504.54 44.58 504.48 44.78 504.35 44.91C504.08 45.2 503.58 45.13 503.25 44.93C502.55 44.51 502.17 43.58 502.23 42.45C502.3 41.07 502.89 39.79 503.39 38.82C503.56 38.5 503.75 38.17 503.93 37.86C504.37 37.1 504.83 36.32 505.06 35.45C505.07 35.41 505.06 35.37 505.02 35.35C504.83 35.24 504.63 35.41 504.51 35.58C503.06 37.78 501.36 40.7 501.14 43.8C501.03 45.41 501.38 46.56 502.19 47.2C502.5 47.45 502.88 47.58 503.24 47.58C503.38 47.58 503.52 47.56 503.65 47.52C503.96 47.42 504.25 47.2 504.52 46.86C504.91 46.37 505.14 45.76 505.23 45.02C505.25 44.82 505.36 43.8 505.17 43.68C505.13 43.65 505.08 43.65 505.03 43.68L505.01 43.69Z" fill="#D9D9D9"/>
<path d="M572.26 42.2C568.94 42.17 567.16 45.53 566.11 48.19C565.6 49.48 562.49 56.41 564.9 57.15C566.16 57.53 568.86 56.49 570.01 55.85C571.24 55.17 571.87 54.24 572.43 52.98C572.59 52.62 572.74 52.25 572.89 51.88C573.19 52.24 573.46 52.63 573.65 53.05C574.08 53.95 574.24 54.9 574.26 55.89C574.26 55.98 574.26 56.07 574.26 56.16C574.26 56.18 574.24 56.19 574.23 56.21C573.42 57.44 572.44 58.57 571.34 59.54C568.6 61.97 565.16 63.36 561.59 64.02C561.57 64.02 561.54 64.04 561.51 64.05C562.54 61.43 563.79 58.36 562.76 55.62C561.82 53.1 560.24 50.48 557.72 49.29C554.82 47.92 552.91 49.69 551.64 52.02C548.91 56.98 547.43 61.84 545.84 67.31C544.29 67.87 542.73 68.4 541.16 68.91L539.6 76.64C545.3 74.8 551.01 72.6 556.21 69.68C557.96 68.7 559.39 67.68 560.42 66.2C560.18 66.96 560.01 67.68 559.92 67.95C559.81 68.27 558.92 72.11 558.97 72.1C566.16 70.78 571.4 66.42 574.12 59.69C575.42 56.47 576.68 52.87 576.95 49.39C577.18 46.37 575.96 42.26 572.26 42.23V42.2ZM552.47 64.66C550.62 65.47 548.74 66.22 546.85 66.93C547.41 65.69 547.89 64.26 548.49 63.07C549.25 61.59 551.01 57.28 552.69 56.82C554.41 56.35 556.64 58.16 557.65 59.32C558 59.72 558.31 60.14 558.59 60.59C558.93 61.12 558.75 61.83 558.2 62.12C556.25 63.14 554.14 63.93 552.47 64.66Z" fill="#D9D9D9"/>
<path d="M557.34 36.8C557.34 36.8 557.4 36.8 557.43 36.77C559.2 35.6 561.14 34.64 563.02 33.72C563.5 33.48 563.99 33.24 564.47 33L571.98 29.23C572.1 29.17 572.2 28.97 572.33 28.67C572.33 28.65 572.35 28.63 572.35 28.62C572.49 28.32 572.61 27.98 572.72 27.61C572.79 27.39 572.99 26.65 572.81 26.51C572.76 26.47 572.7 26.46 572.63 26.5L565.12 30.27C564.64 30.51 564.16 30.75 563.67 30.99C561.78 31.92 559.83 32.87 558.05 34.05C557.92 34.14 557.81 34.36 557.72 34.59C557.71 34.62 557.7 34.64 557.69 34.65C557.55 34.95 557.43 35.29 557.32 35.66C557.32 35.66 557.04 36.63 557.24 36.77C557.26 36.79 557.29 36.8 557.32 36.8H557.34Z" fill="#D9D9D9"/>
<path d="M539.47 50.21L536.52 47.58C536.41 47.49 536.28 47.44 536.14 47.45C536 47.46 535.88 47.52 535.79 47.62L533.32 50.38V41.96L539.24 40.03C539.24 40.03 539.23 40.04 539.24 40.05C539.29 43.07 539.39 46.76 539.47 50.21Z" fill="#D9D9D9"/>
<path d="M538.47 65C537.41 67.89 535.12 70.19 531.48 72.03C529.63 72.95 520.54 75.67 518.31 76.38L520.76 67.96C521.07 67.85 523.18 67.13 525.42 66.37C525.57 66.32 525.72 66.26 525.87 66.22C526.26 66.09 526.68 65.94 527.13 65.79C527.45 65.68 527.76 65.57 528.06 65.47C528.36 65.36 528.66 65.26 528.95 65.17C529.01 65.14 529.08 65.12 529.14 65.1C529.39 65.01 529.63 64.93 529.85 64.86C529.91 64.84 529.98 64.81 530.05 64.79C530.13 64.75 530.21 64.73 530.28 64.71C530.34 64.69 530.39 64.67 530.43 64.66C531.03 64.45 531.44 64.3 531.52 64.27C532.12 64.03 532.66 63.61 532.97 63.03C533.2 62.62 533.32 62.15 533.32 61.67V54.08L536.3 56.74C536.4 56.82 536.52 56.87 536.65 56.87H536.68C536.81 56.86 536.94 56.8 537.03 56.7L539.55 53.88C539.56 54.21 539.56 54.53 539.57 54.84C539.58 55.3 539.59 55.75 539.6 56.2C539.64 59.17 539.47 62.17 538.47 65Z" fill="#D9D9D9"/>
<path d="M568.53 22.49C568.36 22.73 564.19 28.46 557.28 29.03C556.91 29.06 556.53 29.07 556.16 29.07C551.8 29.07 547.5 26.97 543.35 22.83C542.43 21.91 542.28 20.46 542.99 19.36L549.49 9.39002C549.9 8.77002 550.52 8.34002 551.24 8.19002C551.96 8.03002 552.7 8.17002 553.32 8.58002C554.01 9.03002 554.46 9.75002 554.56 10.57C554.64 11.24 554.45 11.92 554.07 12.49L548.9 20.42C551.62 22.68 554.28 23.72 556.81 23.51C559.57 23.28 561.77 21.56 562.89 20.49L555.33 6.85002C555.11 6.46002 555 6.02002 554.99 5.57002C545.33 5.04002 540.56 10.12 538.93 12.39C538.93 21.88 539.05 27.26 539.21 36.73L533.32 38.53V38.19C533.32 31.27 533.32 28.6 533.34 21.57L533.36 16.05C533.36 15.54 533.36 15.02 533.36 14.51V13.68C533.36 13.61 533.38 13.49 533.39 13.35C533.41 13.13 533.47 12.55 533.39 12.44C531.84 10.26 527.22 5.24002 517.81 5.56002C517.81 6.02002 517.69 6.46002 517.47 6.86002L509.9 20.5C511.02 21.57 513.23 23.3 516.01 23.52C518.53 23.72 521.17 22.68 523.89 20.43L518.67 12.42C517.84 11.14 518.2 9.42002 519.48 8.59002C520.76 7.76002 522.48 8.12002 523.31 9.40002L529.81 19.37C530.52 20.46 530.37 21.92 529.45 22.84C525.31 26.99 521 29.08 516.64 29.08C516.27 29.08 515.9 29.07 515.53 29.04C508.62 28.47 504.45 22.74 504.28 22.5C503.66 21.63 503.59 20.47 504.11 19.55L511.51 6.21002C510.47 5.96002 509.65 5.15002 509.43 4.09002C509.27 3.37002 509.41 2.63002 509.81 2.01002C510.22 1.39002 510.83 0.960016 511.55 0.810016C524.9 -2.04998 532.64 3.48002 536.13 7.15002C539.61 3.49002 547.32 -2.01998 560.62 0.790016C561.28 0.930016 561.9 1.28002 562.32 1.81002C562.83 2.47002 563.02 3.29002 562.85 4.10002C562.66 4.99002 562.04 5.73002 561.21 6.07002L568.69 19.55C569.21 20.48 569.14 21.64 568.52 22.5L568.53 22.49Z" fill="#D9D9D9"/>
<path d="M548.86 28.26C548.86 28.26 548.84 28.2 548.83 28.17C548.26 30.48 546.86 32.54 545.08 34.12C541.91 36.94 537.79 38.08 533.78 39.14C532.41 39.5 531.05 39.88 529.7 40.31C528.74 40.62 527.23 40.84 526.91 41.97C526.75 42.56 526.73 43.18 526.7 43.79C526.65 44.94 526.63 46.09 526.57 47.25C526.46 49.5 526.19 51.8 525.2 53.86C524.02 56.31 521.88 58.23 519.45 59.45C515.9 61.23 511.22 62.23 507.48 60.51C506.43 60.03 505.44 59.32 504.87 58.31C504.07 56.9 504.2 55.15 504.54 53.56C504.88 51.97 505.41 50.39 505.32 48.77C503.27 50.97 502.06 53.85 501.43 56.79C501 58.82 500.82 60.94 501.24 62.98C501.66 65.02 502.72 66.97 504.4 68.19C507.52 70.46 512.13 70.04 515.53 68.68C518.8 67.37 521.5 64.95 523.52 62.09C525.29 59.58 526.58 56.74 527.43 53.79C527.83 52.41 528.13 51.01 528.35 49.59C528.51 48.51 528.94 47.98 529.98 47.56C532.49 46.56 535.09 45.8 537.68 45.03C540.04 44.33 542.46 43.59 544.4 42.07C546.04 40.78 547.24 38.97 548.01 37.03C549.06 34.39 549.82 31.05 548.87 28.28L548.86 28.26Z" fill="#D9D9D9"/>
<path d="M536.6 55.9H536.62C536.73 55.9 536.83 55.85 536.9 55.76L540.04 52.24C540.19 52.07 540.18 51.81 540.01 51.66L536.49 48.52C536.41 48.45 536.3 48.41 536.19 48.42C536.08 48.42 535.98 48.47 535.91 48.56L532.77 52.08C532.62 52.25 532.63 52.51 532.8 52.66L536.32 55.8C536.4 55.87 536.49 55.9 536.59 55.9H536.6Z" fill="#D9D9D9"/>
</g>
<line x1="600.97" y1="37.8149" x2="1077.97" y2="37.8149" stroke="#D9D9D9"/>
<defs>
<clipPath id="clip0_57_2086">
<rect width="75.97" height="76.63" fill="white" transform="translate(501)"/>
</clipPath>
</defs>
</svg>
