<svg width="109" height="130" viewBox="0 0 109 130" fill="none" xmlns="http://www.w3.org/2000/svg">
<path d="M54.5456 0.442871C1.34591 0.942375 -19.7071 68.6643 23.6846 99.3018C23.0655 99.7631 22.6626 100.499 22.6626 101.33V127.47C22.6626 128.867 23.7955 130 25.193 130H37.9944C39.3919 130 40.5248 128.867 40.5248 127.47V126.011H43.9269C44.7164 126.011 45.4755 126.267 46.0537 126.724C47.8147 128.13 50.7798 129.805 54.9049 129.805H66.2518C71.3518 129.805 75.5353 125.991 76.0098 120.922L77.8137 107.624C77.819 107.584 77.8238 107.543 77.8274 107.502C77.9352 106.257 77.8104 105.033 77.4655 103.871C129.609 78.6369 112.544 1.34749 54.5456 0.442871ZM27.7234 124.939V103.86H35.4635L35.464 124.939H27.7234ZM72.7898 107.01L70.9874 120.297C70.9821 120.337 70.9776 120.377 70.974 120.417C70.7587 122.884 68.7288 124.745 66.2518 124.745H54.9049C52.2444 124.745 50.34 123.67 49.2008 122.761C46.5348 120.61 43.7118 120.958 40.5245 120.951V103.544C42.4385 103.009 43.8498 101.588 44.8786 99.9458C45.4571 99.0326 54.3515 84.9321 54.3515 84.9321L56.125 85.8456C58.2081 86.9488 58.9642 89.4258 57.8994 91.5124L55.4312 95.9194C53.9838 98.5381 55.9264 101.911 58.9621 101.911H68.064C70.7845 101.911 72.9945 104.298 72.7898 107.01ZM95.1655 82.4346C90.0341 89.9324 83.0178 95.8136 74.7965 99.5298C72.9913 97.8202 70.5497 96.8496 68.0635 96.8496H60.7119L61.0335 96.2749C92.0033 91.9755 107.462 53.764 88.0029 29.1603C82.541 22.0139 74.797 16.7162 66.1968 14.2435C64.8527 13.8571 63.4519 14.6327 63.0657 15.9761C62.6796 17.3192 63.4551 18.7211 64.7983 19.1072C72.3622 21.2823 79.1748 25.9439 83.9821 32.2335C100.3 52.8012 88.7254 84.9134 63.4141 90.6468C63.8727 86.9053 61.8794 83.1588 58.5416 81.3981L54.6116 79.3675C53.3935 78.7376 51.9106 79.2278 51.2292 80.3943L44.8892 90.4413C8.90779 80.182 8.40399 30.0996 44.1833 19.1396C45.5249 18.7491 46.2962 17.345 45.9057 16.0029C45.5153 14.661 44.1109 13.8892 42.769 14.2802C2.83354 26.4611 2.41324 82.0515 42.0795 94.8938L40.3176 97.6859C39.649 98.5568 39.1265 98.7838 37.9736 98.7995H32.7574C-13.4646 75.1627 2.56 6.27193 54.5461 5.5037C93.4863 4.99508 117.56 50.6298 95.1655 82.4346Z" fill="#6E1636"/>
<path d="M54.5455 27.4158C53.6981 27.4158 52.9071 27.8399 52.4382 28.5456L44.6309 40.2923L31.0464 44.0876C29.3368 44.5649 28.6384 46.7013 29.744 48.0961L38.503 59.1512L37.9149 73.2433C37.841 75.0164 39.6558 76.3421 41.3246 75.7206L54.5455 70.8065L67.7662 75.7206C69.4337 76.3416 71.2501 75.0171 71.1762 73.2433L70.5881 59.1512L79.3471 48.0961C80.4524 46.7011 79.754 44.5649 78.0447 44.0876L64.4605 40.2923L56.6531 28.5456C56.1837 27.8399 55.393 27.4158 54.5455 27.4158ZM62.193 44.9131L73.016 47.9372L66.0372 56.7455C65.6604 57.221 65.4671 57.8161 65.4924 58.4224L65.961 69.6506L55.4274 65.7353C54.8583 65.5238 54.2325 65.5238 53.6642 65.7353L43.1303 69.6506L43.599 58.4224C43.6243 57.8161 43.431 57.221 43.0542 56.7455L36.0753 47.9372L46.8986 44.9131C47.4832 44.7499 47.9892 44.3819 48.325 43.8766L54.5458 34.5174L60.7666 43.8766C61.1021 44.3822 61.6084 44.7501 62.193 44.9131Z" fill="#C8B56D"/>
<path d="M52.21 16.1058C53.0673 18.1655 56.0909 18.1357 56.9016 16.0534C57.745 13.8869 55.3229 11.7917 53.2991 12.9377C52.2037 13.5579 51.7244 14.9415 52.21 16.1058Z" fill="#C8B56D"/>
</svg>
