 <svg
        width="220"
        height="56"
        viewBox="0 0 220 56"
        fill="none"
        xmlns="http://www.w3.org/2000/svg"
      >
        <g clip-path="url(#clip0_4_229)">
          <path
            d="M213.738 29.9884C213.738 29.9884 213.738 29.9884 213.751 29.9884C213.828 29.9884 213.904 29.9501 213.955 29.8864L216.198 27.3755C216.3 27.2608 216.3 27.0696 216.173 26.9549L213.662 24.7116C213.662 24.7116 213.522 24.6351 213.445 24.6351C213.369 24.6351 213.292 24.6734 213.241 24.7371L210.998 27.248C210.896 27.3627 210.896 27.5539 211.023 27.6686L213.534 29.9119C213.534 29.9119 213.662 29.9884 213.726 29.9884H213.738Z"
            fill="white"
          />
          <path
            d="M201.872 34.3729C201.872 34.3729 201.872 34.3729 201.885 34.3729C201.961 34.3729 202.038 34.3347 202.089 34.271L204.332 31.76C204.434 31.6453 204.434 31.4541 204.306 31.3394L201.795 29.0962C201.795 29.0962 201.655 29.0197 201.579 29.0197C201.502 29.0197 201.426 29.0579 201.375 29.1217L199.132 31.6326C199.03 31.7473 199.03 31.9385 199.157 32.0532L201.668 34.2965C201.668 34.2965 201.795 34.3729 201.859 34.3729H201.872Z"
            fill="white"
          />
          <path
            d="M175.029 39.1654C175.029 39.1654 175.029 39.1654 175.042 39.1654C175.118 39.1654 175.195 39.1271 175.246 39.0634L177.489 36.5525C177.591 36.4377 177.591 36.2466 177.464 36.1318L174.953 33.8886C174.953 33.8886 174.813 33.8121 174.736 33.8121C174.66 33.8121 174.583 33.8503 174.532 33.9141L172.289 36.425C172.187 36.5397 172.187 36.7309 172.314 36.8456L174.825 39.0889C174.825 39.0889 174.953 39.1654 175.016 39.1654H175.029Z"
            fill="white"
          />
          <path
            d="M170.823 25.6548C170.823 25.6548 170.9 25.7058 170.925 25.744C171.014 25.8205 171.116 25.8969 171.218 25.9607C171.295 26.0117 171.371 26.0626 171.46 26.1009C171.588 26.1774 171.703 26.2411 171.804 26.3303C171.983 26.4705 172.2 26.598 172.455 26.4195C172.722 26.598 172.952 26.8274 173.194 27.1205C173.665 27.7196 174.048 28.3569 174.303 29.0197C174.456 29.402 174.583 29.7972 174.711 30.1795C174.736 30.2688 174.774 30.3707 174.8 30.46C174.838 30.5874 174.902 30.7531 175.093 30.7786C175.118 30.7786 175.131 30.7786 175.157 30.7786C175.297 30.7786 175.412 30.6894 175.488 30.4982C175.565 30.2943 175.654 30.0776 175.679 29.8482C175.768 29.3128 175.832 28.7648 175.896 28.2294V28.1912C175.947 27.7578 175.998 27.3117 176.049 26.8911C176.074 26.6999 176.087 26.496 176.113 26.3048C176.125 26.1391 176.151 25.9734 176.164 25.8205C176.202 25.4508 176.24 25.0685 176.291 24.6861C176.317 24.4949 176.393 24.3674 176.508 24.3165C176.622 24.2527 176.788 24.2782 176.967 24.3929C177.323 24.5969 177.591 24.89 177.77 25.2724C177.795 25.3106 177.795 25.3744 177.808 25.4254C177.808 25.4636 177.808 25.5018 177.821 25.5401C177.821 25.5528 177.821 25.5783 177.821 25.6038C177.846 25.7312 177.859 25.8205 177.948 25.8332C178.012 25.8332 178.216 25.8587 178.318 25.7567C178.42 25.6548 178.509 25.5273 178.585 25.3489C178.942 24.5331 178.917 24.24 178.445 23.5262C178.152 23.0801 177.757 22.7487 177.272 22.5448C176.916 22.3918 176.571 22.4683 176.291 22.7487C176.138 22.9017 176.011 23.1056 175.934 23.2968C175.552 24.2145 175.412 25.1704 175.31 26.3048C175.271 26.6872 175.233 27.0696 175.195 27.4392L175.169 27.6559C175.169 27.6559 175.169 27.6559 175.169 27.6686C174.303 25.7185 172.939 24.2527 171.002 23.1693C170.963 23.1438 170.912 23.1693 170.887 23.1948C170.861 23.2331 170.836 23.2713 170.81 23.3095C170.759 23.386 170.708 23.4497 170.683 23.5262C170.594 23.7811 170.492 24.0488 170.428 24.3292C170.288 24.9028 170.415 25.3361 170.81 25.642L170.823 25.6548Z"
            fill="white"
          />
          <path
            d="M196.927 39.1016C196.799 39.1781 196.748 39.331 196.71 39.4713C196.672 39.586 196.646 39.6879 196.582 39.7517C196.442 39.9046 196.175 39.8664 195.996 39.7517C195.626 39.5222 195.423 39.0379 195.448 38.4261C195.486 37.6868 195.792 37.0113 196.073 36.4887C196.162 36.3103 196.264 36.1446 196.366 35.9789C196.608 35.571 196.85 35.1504 196.965 34.6916C196.965 34.6661 196.965 34.6533 196.939 34.6406C196.837 34.5769 196.723 34.6661 196.672 34.768C195.894 35.9407 194.989 37.4956 194.874 39.1526C194.811 40.0066 195.002 40.6184 195.435 40.9625C195.601 41.09 195.805 41.1664 195.996 41.1664C196.073 41.1664 196.149 41.1664 196.213 41.1282C196.378 41.0772 196.531 40.9625 196.672 40.7841C196.876 40.5164 197.003 40.1978 197.054 39.8026C197.054 39.6879 197.118 39.1526 197.016 39.0889C196.99 39.0761 196.965 39.0761 196.939 39.0889L196.927 39.1016Z"
            fill="white"
          />
          <path
            d="M167.777 31.8493C167.598 31.964 167.547 32.1552 167.484 32.3463C167.445 32.4865 167.394 32.6267 167.305 32.7287C167.114 32.9326 166.757 32.8944 166.515 32.7415C166.018 32.4356 165.737 31.7728 165.788 30.9698C165.839 29.9884 166.26 29.0707 166.617 28.3696C166.732 28.1402 166.872 27.9108 167.012 27.6814C167.331 27.1333 167.662 26.5725 167.815 25.9607C167.815 25.9352 167.815 25.9097 167.79 25.8842C167.649 25.8077 167.509 25.9224 167.42 26.0499C166.375 27.6176 165.164 29.708 165.011 31.9385C164.935 33.0983 165.177 33.9141 165.763 34.3729C165.992 34.5514 166.26 34.6533 166.515 34.6533C166.617 34.6533 166.719 34.6406 166.808 34.6151C167.025 34.5386 167.241 34.3857 167.433 34.1435C167.713 33.7866 167.879 33.3533 167.943 32.8307C167.955 32.6905 168.032 31.9512 167.904 31.8747C167.879 31.862 167.841 31.862 167.802 31.8747L167.777 31.8493Z"
            fill="white"
          />
          <path
            d="M215.905 30.7786C213.534 30.7531 212.26 33.1621 211.508 35.0612C211.138 35.9789 208.92 40.9498 210.641 41.4724C211.546 41.74 213.471 41.0008 214.299 40.5419C215.179 40.0576 215.625 39.3948 216.033 38.4898C216.147 38.2349 216.249 37.9673 216.364 37.6996C216.581 37.9545 216.772 38.2349 216.912 38.5408C217.218 39.1781 217.333 39.8664 217.345 40.5674C217.345 40.6311 217.345 40.6949 217.345 40.7586C217.345 40.7713 217.333 40.7841 217.32 40.7968C216.746 41.6763 216.033 42.4793 215.255 43.1803C213.292 44.9137 210.832 45.9207 208.27 46.3795C208.258 46.3795 208.232 46.3923 208.219 46.405C208.959 44.5314 209.851 42.3263 209.112 40.3762C208.436 38.5791 207.302 36.6927 205.504 35.8515C203.427 34.87 202.063 36.1446 201.145 37.8016C199.195 41.3577 198.137 44.8373 196.99 48.7375C195.881 49.1326 194.76 49.515 193.638 49.8846L192.516 55.4163C196.595 54.1035 200.687 52.523 204.396 50.4327C205.645 49.7317 206.664 49.0051 207.404 47.9472C207.238 48.4953 207.11 49.0051 207.047 49.1963C206.97 49.4258 206.333 52.1661 206.371 52.1661C211.508 51.2229 215.268 48.1002 217.218 43.2823C218.148 40.9753 219.053 38.4006 219.244 35.9152C219.41 33.7484 218.531 30.8169 215.892 30.7914L215.905 30.7786ZM201.744 46.8511C200.419 47.4247 199.081 47.9727 197.73 48.4698C198.125 47.5776 198.469 46.558 198.902 45.704C199.45 44.6461 200.699 41.5616 201.91 41.2302C203.146 40.8988 204.74 42.1861 205.466 43.0146C205.708 43.295 205.938 43.6009 206.142 43.9196C206.384 44.3019 206.256 44.8118 205.861 45.0157C204.472 45.7422 202.955 46.3158 201.757 46.8384L201.744 46.8511Z"
            fill="white"
          />
          <path
            d="M205.224 26.9166C205.224 26.9166 205.262 26.9166 205.288 26.8911C206.55 26.0499 207.939 25.3744 209.29 24.7116C209.634 24.5459 209.978 24.3675 210.322 24.2018L215.701 21.5124C215.79 21.4742 215.867 21.334 215.956 21.1173C215.956 21.1045 215.956 21.0918 215.969 21.079C216.071 20.8624 216.16 20.6202 216.236 20.3525C216.287 20.1996 216.428 19.6642 216.3 19.5623C216.262 19.5368 216.224 19.524 216.173 19.5623L210.794 22.2516C210.45 22.4301 210.106 22.5958 209.762 22.7615C208.411 23.4243 207.021 24.1125 205.747 24.9538C205.657 25.0175 205.581 25.1832 205.504 25.3361C205.504 25.3489 205.492 25.3744 205.479 25.3871C205.377 25.6038 205.288 25.846 205.211 26.1136C205.211 26.1136 205.007 26.8019 205.16 26.9166C205.173 26.9294 205.199 26.9421 205.224 26.9421V26.9166Z"
            fill="white"
          />
          <path
            d="M192.44 36.5142L190.324 34.6278C190.248 34.5641 190.158 34.5259 190.056 34.5386C189.955 34.5514 189.865 34.5896 189.802 34.6661L188.03 36.6417V30.6129L192.262 29.2364C192.262 29.2364 192.262 29.2364 192.262 29.2491C192.3 31.4159 192.363 34.0543 192.427 36.5142H192.44Z"
            fill="white"
          />
          <path
            d="M191.726 47.0933C190.961 49.1581 189.33 50.8023 186.73 52.1279C185.404 52.7906 178.904 54.728 177.311 55.2378L179.07 49.2091C179.286 49.1326 180.803 48.61 182.409 48.0747C182.511 48.0364 182.626 47.9982 182.728 47.9727C183.008 47.8835 183.301 47.7688 183.633 47.6668C183.862 47.5903 184.079 47.5139 184.295 47.4374C184.512 47.3609 184.729 47.2844 184.933 47.2207C184.971 47.1952 185.022 47.1825 185.073 47.1697C185.251 47.106 185.43 47.0423 185.583 47.004C185.621 46.9913 185.672 46.9658 185.723 46.9531C185.774 46.9276 185.838 46.9148 185.889 46.9021C185.927 46.8893 185.965 46.8766 185.991 46.8638C186.424 46.7109 186.717 46.6089 186.768 46.5834C187.201 46.4177 187.584 46.1118 187.8 45.6912C187.966 45.3981 188.055 45.0667 188.055 44.7225V39.2928L190.184 41.1919C190.26 41.2429 190.337 41.2812 190.439 41.2812H190.464C190.554 41.2812 190.656 41.2302 190.719 41.1537L192.516 39.1399C192.516 39.382 192.516 39.5987 192.529 39.8281C192.529 40.1595 192.542 40.4782 192.555 40.7968C192.58 42.9254 192.465 45.0667 191.752 47.0933H191.726Z"
            fill="white"
          />
          <path
            d="M213.228 16.669C213.101 16.8474 210.118 20.9388 205.186 21.3467C204.918 21.3722 204.65 21.3722 204.383 21.3722C201.26 21.3722 198.188 19.8682 195.219 16.9111C194.556 16.2484 194.454 15.216 194.964 14.4257L199.616 7.28805C199.909 6.84195 200.355 6.53605 200.865 6.43408C201.375 6.31937 201.91 6.42133 202.356 6.71449C202.853 7.03313 203.172 7.55571 203.248 8.14202C203.312 8.62636 203.172 9.1107 202.904 9.51857L199.208 15.1905C201.158 16.8092 203.057 17.5484 204.867 17.4082C206.843 17.2425 208.411 16.0189 209.213 15.2414L203.797 5.49089C203.644 5.21048 203.554 4.89183 203.554 4.57319C196.633 4.19081 193.23 7.82337 192.07 9.45484C192.07 16.2484 192.16 20.0976 192.274 26.8656L188.055 28.153V27.9108C188.055 22.9654 188.055 21.0535 188.068 16.0189V12.0677C188.081 11.6981 188.081 11.3285 188.081 10.9716V10.3725C188.081 10.3725 188.094 10.2323 188.106 10.1304C188.119 9.97742 188.157 9.55681 188.106 9.48033C186.998 7.92534 183.684 4.33102 176.967 4.56044C176.967 4.89183 176.877 5.21048 176.724 5.49089L171.307 15.2542C172.11 16.0189 173.691 17.2553 175.679 17.4082C177.476 17.5484 179.375 16.8092 181.313 15.1905L177.578 9.45484C176.979 8.53714 177.247 7.31354 178.152 6.71449C179.07 6.11543 180.293 6.3831 180.892 7.28805L185.544 14.4257C186.054 15.2032 185.94 16.2484 185.29 16.9111C182.32 19.8809 179.248 21.3722 176.125 21.3722C175.858 21.3722 175.59 21.3722 175.335 21.3467C170.39 20.9388 167.407 16.8347 167.28 16.669C166.834 16.0444 166.783 15.216 167.152 14.5532L172.455 5.00655C171.715 4.8281 171.129 4.2418 170.963 3.48979C170.849 2.97996 170.951 2.44463 171.231 1.99853C171.524 1.55243 171.957 1.24653 172.48 1.14456C182.039 -0.90752 187.571 3.05643 190.069 5.68207C192.555 3.06918 198.074 -0.882028 207.595 1.13181C208.066 1.23378 208.512 1.4887 208.806 1.85833C209.175 2.32992 209.303 2.91623 209.188 3.48979C209.048 4.12708 208.602 4.64966 208.015 4.90458L213.369 14.5532C213.738 15.216 213.687 16.0444 213.241 16.669H213.228Z"
            fill="white"
          />
          <path
            d="M199.157 20.7986C199.157 20.7986 199.144 20.7476 199.132 20.7349C198.724 22.3919 197.717 23.8576 196.442 24.992C194.173 27.0058 191.229 27.8216 188.361 28.5863C187.38 28.8412 186.411 29.1089 185.443 29.4148C184.754 29.6315 183.671 29.7972 183.454 30.6002C183.339 31.0208 183.327 31.4669 183.301 31.9002C183.263 32.7287 183.25 33.5445 183.212 34.3729C183.136 35.9917 182.944 37.6359 182.231 39.1016C181.389 40.8606 179.86 42.2244 178.114 43.1038C175.577 44.3784 172.225 45.0922 169.548 43.8558C168.796 43.5117 168.095 43.0019 167.688 42.2881C167.114 41.2812 167.203 40.0193 167.445 38.885C167.688 37.7506 168.07 36.6162 168.006 35.4563C166.54 37.0368 165.674 39.0889 165.228 41.1919C164.922 42.645 164.794 44.1617 165.087 45.6148C165.381 47.0678 166.145 48.4698 167.356 49.3365C169.587 50.9553 172.888 50.6621 175.322 49.6807C177.757 48.6992 179.592 47.004 181.045 44.9647C182.307 43.1676 183.238 41.1282 183.837 39.0252C184.117 38.0437 184.346 37.0368 184.487 36.0171C184.601 35.2396 184.907 34.8573 185.659 34.5641C187.456 33.8504 189.317 33.3023 191.165 32.7542C192.861 32.2571 194.594 31.7218 195.971 30.6384C197.143 29.708 197.997 28.4206 198.558 27.0313C199.31 25.1449 199.858 22.7487 199.17 20.7731L199.157 20.7986Z"
            fill="white"
          />
          <path
            d="M190.388 40.5929C190.388 40.5929 190.388 40.5929 190.401 40.5929C190.477 40.5929 190.554 40.5547 190.605 40.4909L192.848 37.98C192.95 37.8653 192.95 37.6741 192.822 37.5594L190.311 35.3161C190.311 35.3161 190.171 35.2397 190.095 35.2397C190.018 35.2397 189.942 35.2779 189.891 35.3416L187.648 37.8525C187.546 37.9673 187.546 38.1584 187.673 38.2732L190.184 40.5164C190.184 40.5164 190.311 40.5929 190.375 40.5929H190.388Z"
            fill="white"
          />
          <path
            d="M4.03117 37.878C5.12731 37.878 5.95579 37.5849 6.51661 36.9986C7.07742 36.4123 7.39607 35.6093 7.47254 34.5769C7.80394 35.0485 8.30102 35.2779 8.9893 35.2779H20.6645C21.6459 35.2779 22.3469 35.0102 22.7803 34.4622C23.3793 35.0102 24.0294 35.2779 24.7431 35.2779H34.43C35.4879 35.2779 36.3164 35.0102 36.9154 34.4622C37.5145 33.9141 37.8204 33.1621 37.8204 32.1934C37.8204 31.4032 37.5527 30.7404 37.0301 30.2178C36.5075 29.6952 35.8575 29.4275 35.08 29.4275C34.2643 29.4275 33.5887 29.6952 33.0662 30.2305C32.5436 30.7659 32.2759 31.4414 32.2759 32.2444C32.2759 32.8052 32.4544 33.4552 32.824 34.2072H24.7559C24.2206 34.2072 23.6852 34.0288 23.1754 33.6592C23.2264 33.4042 23.2646 33.1748 23.2646 32.9709V31.9385C23.2646 31.1737 23.0352 30.5492 22.5381 30.0648C22.041 29.5805 21.4165 29.3383 20.6517 29.3383C20.0527 29.3383 19.4281 29.4403 18.7781 29.6315C18.1408 29.8354 17.1849 30.1923 15.9358 30.7404V29.2873L14.9034 29.453V34.2072H13.7053H9.01479C8.61967 34.2072 8.27553 34.0925 7.96963 33.8631C7.67648 33.6337 7.52353 33.315 7.52353 32.8944V26.4323L6.49112 26.5852V34.0033C6.49112 34.9592 6.29993 35.6603 5.90481 36.1064C5.50969 36.5525 4.91063 36.7946 4.10765 36.7946C3.30466 36.7946 2.74384 36.6035 2.33598 36.2083C1.91536 35.8132 1.69868 35.2396 1.69868 34.4876C1.69868 33.7101 1.83889 32.8944 2.1193 32.0659L1.29082 31.8365C0.933935 32.9199 0.755493 33.8886 0.755493 34.7553C0.755493 35.7877 1.04865 36.5652 1.6477 37.0878C2.23401 37.6104 3.04974 37.878 4.05666 37.878H4.03117ZM33.7799 30.9825C34.1241 30.6257 34.5319 30.4472 35.0163 30.4472C35.5261 30.4472 35.9467 30.6129 36.2781 30.9443C36.6095 31.2757 36.7752 31.7091 36.7752 32.2189C36.7752 32.8434 36.5713 33.3278 36.1634 33.6719C35.7555 34.016 35.1947 34.1945 34.5064 34.1945H33.8819C33.474 33.4807 33.2828 32.8307 33.2828 32.2444C33.2828 31.76 33.4485 31.3394 33.7927 30.9825H33.7799ZM15.8975 31.6071C17.3123 31.0845 18.2683 30.7531 18.8036 30.6002C19.3262 30.4472 19.8615 30.3707 20.3968 30.3707C20.9321 30.3707 21.3655 30.5237 21.6969 30.8423C22.0283 31.161 22.2067 31.5561 22.2067 32.0659V32.767C22.2067 33.2258 22.0793 33.5699 21.8116 33.8249C21.5439 34.067 21.1616 34.1817 20.6772 34.1817H15.8975V31.6071Z"
            fill="white"
          />
          <path
            d="M19.836 27.3373L18.931 26.4578L18.0643 27.3373L18.9565 28.2167L19.836 27.3373Z"
            fill="white"
          />
          <path
            d="M35.7938 27.5157L34.8888 26.6362L34.0221 27.5157L34.9143 28.3952L35.7938 27.5157Z"
            fill="white"
          />
          <path
            d="M46.0032 29.4403L45.0982 28.5609L44.2188 29.4403L45.111 30.3198L46.0032 29.4403Z"
            fill="white"
          />
          <path
            d="M48.4887 34.5641C48.7946 35.0357 49.2661 35.2779 49.8907 35.2779H54.5812C55.4224 35.2779 56.0597 35.0739 56.4803 34.6788C56.9136 34.271 57.1303 33.7101 57.1303 32.9581V29.2746L56.0979 29.4403V32.6777C56.0979 33.6847 55.6008 34.1945 54.5812 34.1945H49.8907C49.0495 34.1945 48.5906 33.7484 48.5141 32.8562V32.7542V29.2746L47.4945 29.4403V34.0033C47.4945 34.9592 47.3033 35.6603 46.9082 36.1064C46.513 36.5525 45.914 36.7946 45.111 36.7946C44.308 36.7946 43.7472 36.6034 43.3393 36.2083C42.9187 35.8132 42.702 35.2396 42.702 34.4876C42.702 33.7101 42.8422 32.8944 43.1227 32.0659L42.2942 31.8365C41.9373 32.9199 41.7589 33.8886 41.7589 34.7553C41.7589 35.7877 42.052 36.5652 42.6511 37.0878C43.2374 37.6104 44.0531 37.878 45.06 37.878C46.1562 37.878 46.9846 37.5849 47.5455 36.9986C48.1063 36.4123 48.4249 35.5965 48.5014 34.5641H48.4887Z"
            fill="white"
          />
          <path
            d="M55.0018 37.1133L55.894 37.98L56.7862 37.1133L55.8812 36.2338L55.0018 37.1133Z"
            fill="white"
          />
          <path
            d="M66.2436 34.7553C66.6005 35.0994 67.1485 35.2779 67.8878 35.2779C68.5506 35.2779 69.1751 35.0102 69.7232 34.4876C70.131 35.0102 70.8321 35.2779 71.8007 35.2779C73.4959 35.2779 74.3499 34.4749 74.3499 32.8562V26.445L73.3302 26.598V32.6013C73.3302 33.6464 72.8204 34.169 71.8007 34.169C70.7938 34.169 70.284 33.6464 70.284 32.6013V26.4323L69.2516 26.5852V32.8307C69.2516 33.1493 69.2771 33.4297 69.3408 33.6464C68.9457 33.9906 68.4613 34.1563 67.875 34.1563C67.4544 34.1563 67.1485 34.0543 66.9701 33.8376C66.7789 33.6337 66.6897 33.2768 66.6897 32.7925V28.8412L65.6573 29.0069V29.7589C65.0709 29.5295 64.5229 29.4148 64.0385 29.4148C63.2355 29.4148 62.5728 29.708 62.0502 30.2943C61.5276 30.8806 61.2599 31.5943 61.2599 32.4356C61.2599 33.2768 61.5149 33.9523 62.0374 34.5004C62.56 35.0612 63.2228 35.3289 64.0385 35.3289C64.6886 35.3289 65.4151 35.1249 66.2308 34.7043L66.2436 34.7553ZM62.2541 32.4738C62.2541 31.913 62.4198 31.4541 62.764 31.0718C63.1081 30.6894 63.5414 30.4982 64.0895 30.4982C64.4974 30.4982 65.02 30.6002 65.67 30.8296V32.9327C65.67 33.3278 65.7082 33.6592 65.7847 33.9396C65.1602 34.22 64.5866 34.3602 64.0385 34.3474C63.5032 34.3474 63.0699 34.1563 62.7385 33.7994C62.4071 33.4425 62.2414 32.9964 62.2414 32.4738H62.2541Z"
            fill="white"
          />
          <path
            d="M77.4854 26.445L76.4657 26.6107V35.2779H77.4854V26.445Z"
            fill="white"
          />
          <path
            d="M94.6158 36.2466L93.7491 37.126L94.6413 37.9928L95.5208 37.126L94.6158 36.2466Z"
            fill="white"
          />
          <path
            d="M107.68 33.6719C106.151 33.9268 104.812 34.0798 103.665 34.1308C103.194 33.4935 102.952 32.8562 102.952 32.2316C102.952 31.6963 103.13 31.2757 103.487 30.9571C103.844 30.6384 104.303 30.4727 104.863 30.4727C105.271 30.4727 105.845 30.5874 106.584 30.8169L106.877 29.9374C105.947 29.6187 105.22 29.4658 104.698 29.4658C103.92 29.4658 103.257 29.708 102.735 30.1796C102.212 30.6512 101.945 31.263 101.945 32.015C101.945 32.767 102.174 33.4552 102.62 34.1818C102.365 34.1818 101.957 34.1818 101.384 34.1818H96.6933C96.1707 34.1818 95.6609 34.0161 95.1638 33.6719C95.2148 33.468 95.253 33.2258 95.253 32.9454V30.5492L94.2206 30.7021V32.665C94.2206 33.6719 93.7235 34.1818 92.7039 34.1818H85.6682C85.1328 34.1818 84.6103 34.0033 84.1132 33.6464C84.1642 33.3915 84.2024 33.1621 84.2024 32.9454V31.9512C84.1769 31.1737 83.9347 30.5492 83.4377 30.0776C82.9406 29.606 82.316 29.3638 81.5385 29.3638H80.6081V30.4217H81.3218C81.8572 30.4217 82.2905 30.5747 82.6347 30.8806C82.9788 31.1865 83.1572 31.5816 83.1572 32.0787V32.7797C83.1572 33.2258 83.0425 33.57 82.7749 33.8121C82.5072 34.0543 82.1376 34.169 81.6405 34.169H78.5942L78.7982 35.2524H81.6277C82.5837 35.2524 83.2847 34.9847 83.7308 34.4367C84.3171 34.972 84.9544 35.2524 85.6682 35.2524H92.7039C93.6598 35.2524 94.3608 34.9847 94.7814 34.4622C95.3805 34.9847 96.0178 35.2524 96.7061 35.2524H101.397C103.627 35.2524 105.654 35.0867 107.464 34.7426L107.68 33.6592V33.6719Z"
            fill="white"
          />
          <path
            d="M115.965 27.4392L115.086 26.5725L114.181 27.4392L115.086 28.3059L115.965 27.4392Z"
            fill="white"
          />
          <path
            d="M114.04 27.4392L113.161 26.5725L112.281 27.4392L113.161 28.3059L114.04 27.4392Z"
            fill="white"
          />
          <path
            d="M135.504 34.5769C136.002 34.118 136.244 33.4807 136.244 32.6905C136.244 31.9003 135.976 31.3012 135.453 30.8424C134.931 30.3835 134.217 30.1541 133.338 30.1541H131.184L134.587 26.3813L133.593 25.8587L129.973 30.1413L130.534 31.1228H133.452C134 31.1228 134.434 31.263 134.752 31.5434C135.071 31.8238 135.237 32.1934 135.237 32.6778C135.237 33.1621 135.084 33.519 134.752 33.7866C134.434 34.0543 134 34.1818 133.44 34.1818H117.966C117.546 34.1818 117.24 34.0798 117.061 33.8631C116.87 33.6592 116.781 33.3023 116.781 32.818V28.8668L115.748 29.0324V29.7844C115.162 29.555 114.614 29.4403 114.13 29.4403C113.327 29.4403 112.664 29.7335 112.141 30.3198C111.619 30.9061 111.351 31.6198 111.351 32.4611C111.351 33.3023 111.606 33.9778 112.129 34.5259C112.651 35.0867 113.314 35.3544 114.13 35.3544C114.78 35.3544 115.506 35.1504 116.322 34.7298C116.679 35.074 117.227 35.2524 117.966 35.2524H133.529C134.357 35.2524 135.02 35.023 135.517 34.5641L135.504 34.5769ZM114.13 34.3475C113.594 34.3475 113.161 34.1563 112.83 33.7994C112.498 33.4425 112.332 32.9964 112.332 32.4738C112.332 31.9512 112.498 31.4542 112.842 31.0718C113.186 30.6894 113.62 30.4982 114.168 30.4982C114.576 30.4982 115.098 30.6002 115.748 30.8296V32.9327C115.748 33.3278 115.787 33.6592 115.863 33.9396C115.239 34.22 114.665 34.3602 114.117 34.3475H114.13Z"
            fill="white"
          />
          <path
            d="M151.118 27.9235L150.226 27.0568L149.346 27.9235L150.239 28.803L151.118 27.9235Z"
            fill="white"
          />
          <path
            d="M152.24 28.803L153.119 27.9235L152.24 27.0568L151.347 27.9235L152.24 28.803Z"
            fill="white"
          />
          <path
            d="M151.253 25.822L150.622 26.4526L151.261 27.0928L151.893 26.4623L151.253 25.822Z"
            fill="white"
          />
          <path
            d="M154.572 29.4276V32.665C154.572 33.1621 154.445 33.5445 154.177 33.7994C153.909 34.0543 153.54 34.1818 153.043 34.1818C152.609 34.1818 152.138 34.0798 151.641 33.8759C151.743 33.6082 151.794 33.3023 151.794 32.9454V30.5492L150.761 30.7021V32.665C150.761 33.6719 150.264 34.1818 149.244 34.1818C148.875 34.1818 148.454 34.0798 147.983 33.8886C148.085 33.6082 148.123 33.3023 148.123 32.9582V30.5619L147.09 30.7149V32.6778C147.09 33.6847 146.593 34.1945 145.574 34.1945H140.883C140.029 34.1945 139.57 33.8121 139.519 33.0474V29.2746L138.487 29.4403V34.921C138.487 36.3103 137.773 36.9986 136.32 36.9986L136.422 37.8781C137.455 37.8781 138.232 37.6486 138.742 37.177C139.252 36.7054 139.519 35.9662 139.519 34.9593V34.6406C139.812 35.074 140.259 35.2779 140.883 35.2779H145.574C146.415 35.2779 147.052 35.0612 147.498 34.6406C148.123 35.0612 148.722 35.2652 149.295 35.2652C150.098 35.2652 150.71 35.0485 151.131 34.6279C151.832 35.0485 152.507 35.2652 153.145 35.2652C153.935 35.2652 154.534 35.0612 154.929 34.6661C155.337 34.2582 155.528 33.6847 155.528 32.9454V29.2619L154.508 29.4276H154.572Z"
            fill="white"
          />
          <path
            d="M5.25476 42.8107L6.13422 41.944L5.25476 41.0772L4.36255 41.944L5.25476 42.8107Z"
            fill="white"
          />
          <path
            d="M2.45068 41.944L3.33015 42.8107L4.20961 41.944L3.33015 41.0772L2.45068 41.944Z"
            fill="white"
          />
          <path
            d="M8.53046 51.6053L9.40992 52.472L10.2894 51.6053L9.40992 50.7386L8.53046 51.6053Z"
            fill="white"
          />
          <path
            d="M10.4423 51.6053L11.3345 52.472L12.214 51.6053L11.3345 50.7386L10.4423 51.6053Z"
            fill="white"
          />
          <path
            d="M14.2151 47.1825C14.2151 48.1894 13.7052 48.6993 12.6856 48.6993C12.0738 48.6993 11.5002 48.4953 10.9521 48.1002C10.9904 47.8835 11.0159 47.6796 11.0159 47.4757V45.0795L9.99619 45.2324V47.1953C9.99619 47.7306 9.84324 48.113 9.55009 48.3551C9.25693 48.5973 8.78534 48.712 8.14804 48.712C7.72743 48.712 7.42153 48.61 7.24309 48.3934C7.0519 48.1894 6.96268 47.8325 6.96268 47.3482V43.397L5.93027 43.5627V44.3147C5.34396 44.0853 4.79589 43.9706 4.31155 43.9706C3.50856 43.9706 2.84578 44.2637 2.3232 44.85C1.80062 45.4363 1.53296 46.1501 1.53296 46.9913C1.53296 47.8326 1.78788 48.5081 2.31045 49.0561C2.83303 49.617 3.49582 49.8846 4.31155 49.8846C4.96159 49.8846 5.6881 49.6807 6.50383 49.2601C6.86072 49.6042 7.40879 49.7827 8.14804 49.7827C9.3589 49.7827 10.1746 49.4895 10.608 48.9032C11.2453 49.4895 11.9336 49.7827 12.6856 49.7827C13.5268 49.7827 14.1641 49.5787 14.5847 49.1836C15.018 48.7757 15.2347 48.2149 15.2347 47.4629V43.7794L14.2023 43.9451V47.1825H14.2151ZM4.2988 48.8522C3.76348 48.8522 3.33012 48.661 2.99873 48.3041C2.66734 47.9473 2.50164 47.5012 2.50164 46.9786C2.50164 46.456 2.66734 45.9589 3.01148 45.5765C3.35561 45.1942 3.78897 45.003 4.33704 45.003C4.74491 45.003 5.26749 45.1049 5.91752 45.3344V47.4374C5.91752 47.8325 5.95576 48.1639 6.03224 48.4444C5.40769 48.7248 4.83413 48.865 4.28606 48.8522H4.2988Z"
            fill="white"
          />
          <path
            d="M13.7817 41.8802L14.6739 42.7724L15.5662 41.8802L14.6612 41.0135L13.7817 41.8802Z"
            fill="white"
          />
          <path
            d="M24.1058 47.1825C24.1058 48.1894 23.596 48.6992 22.5763 48.6992H21.8753V46.6854C21.8753 45.8697 21.6459 45.2196 21.1743 44.7226C20.7027 44.2255 20.1036 43.9833 19.3516 43.9833C18.5487 43.9833 17.8731 44.251 17.3505 44.799C16.828 45.3471 16.5603 46.0481 16.5603 46.9148C16.5603 47.7815 16.8152 48.4953 17.3378 49.0179C17.8476 49.5405 18.5359 49.7954 19.3899 49.7954H20.8429C20.7664 50.3944 20.4223 50.8278 19.8232 51.0955C19.2242 51.3631 18.3702 51.5033 17.2486 51.5033L17.3633 52.3828C20.2184 52.3828 21.7096 51.5161 21.8626 49.7826H22.5763C23.4176 49.7826 24.0548 49.5787 24.4755 49.1836C24.9088 48.7757 25.1255 48.2149 25.1255 47.4629V43.7794L24.0931 43.9451V47.1825H24.1058ZM20.8429 48.6992C20.2184 48.712 19.7723 48.7247 19.5173 48.7247C18.9055 48.7247 18.4212 48.559 18.0516 48.2404C17.6947 47.9218 17.5035 47.4502 17.5035 46.8511C17.5035 46.303 17.6692 45.8569 18.0006 45.5255C18.332 45.1941 18.7398 45.0157 19.2497 45.0157C19.7595 45.0157 20.1036 45.1687 20.4095 45.4873C20.7027 45.8059 20.8556 46.2266 20.8556 46.7491V48.6992H20.8429Z"
            fill="white"
          />
          <path
            d="M23.6852 41.8802L24.5774 42.7724L25.4569 41.8802L24.552 41.0135L23.6852 41.8802Z"
            fill="white"
          />
          <path
            d="M31.9828 42.8999L32.8622 42.0332L31.9828 41.1665L31.0906 42.0332L31.9828 42.8999Z"
            fill="white"
          />
          <path
            d="M33.0024 42.0332L33.8947 42.8999L34.7869 42.0332L33.8947 41.1665L33.0024 42.0332Z"
            fill="white"
          />
          <path
            d="M37.8459 47.1188C37.8459 48.1639 37.336 48.6865 36.3291 48.6865C35.5899 48.6865 34.9781 48.6483 34.5065 48.5845C35.2457 48.0365 35.6154 47.3354 35.6154 46.4687C35.6154 45.755 35.3604 45.1432 34.8634 44.6461C34.3663 44.149 33.729 43.9068 32.9515 43.9068C32.174 43.9068 31.5622 44.149 31.0524 44.6333C30.5425 45.1177 30.2876 45.7295 30.2876 46.4687C30.2876 47.3354 30.6572 48.0492 31.3965 48.61C30.8357 48.661 30.2111 48.6865 29.5101 48.6865C28.5032 48.6865 27.9933 48.1639 27.9933 47.1188V40.9498L26.9609 41.1027V47.3482C26.9609 48.9542 27.8149 49.7699 29.5101 49.7699C30.9121 49.7699 32.072 49.617 32.9897 49.3238C34.0094 49.617 35.1183 49.7699 36.3164 49.7699C38.0116 49.7699 38.8655 48.9669 38.8655 47.3482V40.937L37.8459 41.09V47.0933V47.1188ZM32.9387 48.4826C32.4416 48.3424 32.0338 48.0875 31.7406 47.7433C31.4475 47.3992 31.2945 47.0041 31.2945 46.5834C31.2945 46.0991 31.4475 45.704 31.7534 45.3981C32.0593 45.0922 32.4416 44.9265 32.926 44.9265C33.4103 44.9265 33.8182 45.0794 34.1368 45.3981C34.4682 45.704 34.6212 46.0991 34.6212 46.5834C34.6212 47.0041 34.4682 47.3864 34.1623 47.7178C33.8564 48.0492 33.4486 48.3041 32.9387 48.4826Z"
            fill="white"
          />
          <path
            d="M40.9686 49.7827H42.001V40.9498L40.9686 41.1155V49.7827Z"
            fill="white"
          />
          <path
            d="M54.1096 47.1825C54.1096 48.1894 53.5997 48.6993 52.5928 48.6993H49.6103C48.1318 48.6993 47.3798 48.0875 47.3798 46.8766C47.3798 46.4942 47.4435 45.9334 47.5709 45.2196L46.666 45.1049C46.5003 45.8952 46.4111 46.5834 46.4111 47.1698C46.4111 48.0365 46.666 48.6865 47.1631 49.1326C47.6602 49.5787 48.3994 49.7954 49.3554 49.7954H52.5801C53.4213 49.7954 54.0586 49.5915 54.4792 49.1963C54.9125 48.7885 55.1292 48.2277 55.1292 47.4757V43.7921L54.0968 43.9578V47.1952L54.1096 47.1825Z"
            fill="white"
          />
          <path
            d="M50.8594 43.3588L51.7516 44.2255L52.631 43.3588L51.7516 42.492L50.8594 43.3588Z"
            fill="white"
          />
          <path
            d="M48.9474 43.3588L49.8269 44.2255L50.7191 43.3588L49.8269 42.492L48.9474 43.3588Z"
            fill="white"
          />
          <path
            d="M56.9901 49.7827H58.0098V40.9498L56.9901 41.1155V49.7827Z"
            fill="white"
          />
          <path
            d="M60.8138 49.413C60.8138 50.8023 60.0873 51.4906 58.6343 51.4906L58.7362 52.3701C59.7687 52.3701 60.5462 52.1406 61.056 51.669C61.5658 51.1975 61.8335 50.4582 61.8335 49.4513V43.7666L60.8011 43.9323V49.413H60.8138Z"
            fill="white"
          />
          <path
            d="M69.9271 42.4283L70.8193 43.3078L71.686 42.4283L70.8066 41.5616L69.9271 42.4283Z"
            fill="white"
          />
          <path
            d="M71.8117 40.3203L71.1805 40.9509L71.82 41.5911L72.4513 40.9605L71.8117 40.3203Z"
            fill="white"
          />
          <path
            d="M73.6871 42.4283L72.8077 41.5616L71.9155 42.4283L72.8077 43.3078L73.6871 42.4283Z"
            fill="white"
          />
          <path
            d="M78.9002 42.4538L78.0207 43.3205L78.9002 44.2L79.7796 43.3205L78.9002 42.4538Z"
            fill="white"
          />
          <path
            d="M81.7042 43.3205L80.8248 42.4538L79.9326 43.3205L80.8248 44.2L81.7042 43.3205Z"
            fill="white"
          />
          <path
            d="M91.0597 47.1698C91.0597 47.6668 90.9323 48.0492 90.6646 48.3041C90.3969 48.559 90.0273 48.6865 89.5302 48.6865C89.0969 48.6865 88.6253 48.5845 88.1282 48.3806C88.2301 48.1129 88.2811 47.807 88.2811 47.4502V45.0539L87.2487 45.2069V47.1698C87.2487 48.1767 86.7516 48.6865 85.732 48.6865C85.3623 48.6865 84.9417 48.5845 84.4701 48.3934C84.5721 48.1129 84.6103 47.807 84.6103 47.4629V45.0667L83.5779 45.2196V47.1825C83.5779 48.1894 83.0808 48.6993 82.0612 48.6993C81.4494 48.6993 80.8758 48.4953 80.3277 48.1002C80.366 47.8835 80.3915 47.6796 80.3915 47.4757V45.0794L79.3718 45.2324V47.1952C79.3718 47.7306 79.2188 48.1129 78.9257 48.3551C78.6325 48.5973 78.1609 48.712 77.5236 48.712C77.0138 48.712 76.5167 48.5591 76.0451 48.2532C76.1089 47.9982 76.1471 47.7306 76.1471 47.4629V43.7794L75.1274 43.9451V47.1825C75.1274 47.6796 75 48.062 74.7323 48.3169C74.4646 48.5718 74.095 48.6993 73.5979 48.6993C73.1646 48.6993 72.693 48.5973 72.1959 48.3934C72.2979 48.1257 72.3488 47.8198 72.3488 47.4629V45.0667L71.3164 45.2196V47.1825C71.3164 48.1894 70.8193 48.6993 69.7997 48.6993C69.43 48.6993 69.0094 48.5973 68.5378 48.4061C68.6398 48.1257 68.678 47.8198 68.678 47.4757V45.0794L67.6456 45.2324V47.1952C67.6456 48.2022 67.1485 48.712 66.1289 48.712C65.122 48.712 64.6121 48.1894 64.6121 47.1443V40.9753L63.5797 41.1282V47.3737C63.5797 48.9797 64.4337 49.7954 66.1289 49.7954C66.9701 49.7954 67.6074 49.5787 68.0535 49.1581C68.678 49.5787 69.2771 49.7826 69.8507 49.7826C70.6536 49.7826 71.2654 49.566 71.6861 49.1454C72.3871 49.566 73.0626 49.7826 73.6999 49.7826C74.5539 49.7826 75.1912 49.5405 75.599 49.0561C76.1853 49.5532 76.8099 49.7954 77.4727 49.7954C78.6835 49.7954 79.4992 49.5022 79.9326 48.9159C80.5699 49.5022 81.2582 49.7954 82.0102 49.7954C82.8514 49.7954 83.4887 49.5787 83.9348 49.1581C84.5593 49.5787 85.1584 49.7826 85.732 49.7826C86.535 49.7826 87.1467 49.566 87.5674 49.1454C88.2684 49.566 88.9439 49.7826 89.5812 49.7826C90.3714 49.7826 90.9705 49.5787 91.3656 49.1836C91.7735 48.7757 91.9647 48.2022 91.9647 47.4629V43.7794L90.945 43.9451V47.1825L91.0597 47.1698Z"
            fill="white"
          />
          <path
            d="M98.72 47.1188C98.72 48.1639 98.2101 48.6865 97.2032 48.6865H96.8463L95.6864 42.5303L94.6668 42.7852L95.8776 48.6865H93.0098L93.201 49.7699H97.2032C98.8984 49.7699 99.7524 48.9669 99.7524 47.3482V40.937L98.72 41.09V47.0933V47.1188Z"
            fill="white"
          />
          <path
            d="M101.83 49.7827H102.862V40.9498L101.83 41.1155V49.7827Z"
            fill="white"
          />
          <path
            d="M107.158 43.9705C106.355 43.9705 105.679 44.2382 105.157 44.7863C104.634 45.3343 104.366 46.0354 104.366 46.9021C104.366 47.7688 104.621 48.4826 105.144 49.0051C105.654 49.5277 106.342 49.7826 107.17 49.7826C107.655 49.7826 108.152 49.6679 108.674 49.4258V49.4512C108.674 50.165 108.381 50.6748 107.782 51.0062C107.183 51.3376 106.278 51.4906 105.067 51.4906L105.182 52.37C108.19 52.37 109.694 51.4141 109.694 49.4895V46.6599C109.694 45.8442 109.465 45.1941 108.993 44.6971C108.521 44.2 107.922 43.9578 107.17 43.9578L107.158 43.9705ZM108.674 48.4953C108.241 48.6483 107.782 48.7247 107.311 48.7247C106.699 48.7375 106.214 48.5845 105.858 48.2659C105.501 47.9472 105.322 47.4756 105.322 46.8511C105.322 46.303 105.488 45.8569 105.819 45.5255C106.151 45.1941 106.559 45.0157 107.068 45.0157C107.578 45.0157 107.935 45.1814 108.228 45.5C108.521 45.8187 108.674 46.2393 108.674 46.7619V48.5081V48.4953Z"
            fill="white"
          />
          <path
            d="M115.57 41.1155L114.678 41.9822L115.57 42.8489L116.449 41.9822L115.57 41.1155Z"
            fill="white"
          />
          <path
            d="M117.482 41.1155L116.59 41.9822L117.482 42.8489L118.374 41.9822L117.482 41.1155Z"
            fill="white"
          />
          <path
            d="M116.526 43.9706C115.723 43.9706 115.06 44.2637 114.537 44.85C114.015 45.4363 113.747 46.1501 113.747 46.9913C113.747 47.8325 114.002 48.5081 114.525 49.0561C115.047 49.617 115.71 49.8846 116.526 49.8846C117.342 49.8846 117.979 49.6042 118.501 49.0561C119.024 48.4953 119.279 47.807 119.279 46.9913C119.279 46.1756 119.024 45.4491 118.501 44.8628C117.979 44.2765 117.329 43.9706 116.526 43.9706ZM117.788 48.2659C117.456 48.61 117.048 48.7885 116.539 48.7885C116.029 48.7885 115.595 48.61 115.264 48.2659C114.933 47.9218 114.767 47.4884 114.767 46.9786C114.767 46.4687 114.933 45.9971 115.264 45.6148C115.595 45.2451 116.016 45.0539 116.526 45.0539C117.036 45.0539 117.444 45.2451 117.775 45.6148C118.106 45.9844 118.272 46.4432 118.272 46.9786C118.272 47.5139 118.106 47.9218 117.788 48.2659Z"
            fill="white"
          />
          <path
            d="M126.582 43.9196C125.767 43.9196 125.091 44.1872 124.568 44.7225C124.046 45.2579 123.778 45.9334 123.778 46.7364C123.778 47.2972 123.957 47.9472 124.326 48.6992H123.281C122.274 48.6992 121.764 48.1767 121.764 47.1315V40.9625L120.732 41.1155V47.3609C120.732 48.9669 121.586 49.7826 123.281 49.7826H125.932C126.99 49.7826 127.819 49.515 128.418 48.9669C129.017 48.4188 129.323 47.6668 129.323 46.6981C129.323 45.9079 129.055 45.2451 128.532 44.7225C128.01 44.2 127.36 43.9323 126.582 43.9323V43.9196ZM127.666 48.1767C127.258 48.5208 126.697 48.6992 126.009 48.6992H125.384C124.976 47.9855 124.785 47.3354 124.785 46.7491C124.785 46.2648 124.951 45.8442 125.295 45.4873C125.639 45.1304 126.047 44.952 126.531 44.952C127.041 44.952 127.462 45.1177 127.793 45.4491C128.125 45.7804 128.29 46.2138 128.29 46.7236C128.29 47.3482 128.086 47.8325 127.678 48.1767H127.666Z"
            fill="white"
          />
          <path
            d="M153.361 47.1188C153.361 48.1639 152.851 48.6865 151.845 48.6865C150.838 48.6865 150.328 48.1639 150.328 47.1188V40.9498L149.295 41.1027V47.3482C149.295 47.6668 149.321 47.9473 149.385 48.1639C148.989 48.5081 148.505 48.6738 147.919 48.6738H146.899C147.18 47.9218 147.32 47.2207 147.32 46.5962C147.32 45.8697 147.052 45.2451 146.517 44.7098C145.981 44.1745 145.344 43.9068 144.592 43.9068C143.789 43.9068 143.139 44.1745 142.617 44.7098C142.107 45.2451 141.839 45.9079 141.839 46.7109C141.839 47.3737 141.979 47.9345 142.272 48.4189C141.89 48.5973 141.495 48.6865 141.074 48.6865H140.526C139.902 48.6865 139.481 48.5208 139.277 48.1894C139.507 48.0875 139.736 47.96 139.965 47.8198L140.118 46.8129C138.742 45.6658 137.76 44.9265 137.174 44.5824C136.588 44.2382 136.04 44.0598 135.517 44.0598C135.084 44.0598 134.561 44.1745 133.975 44.4039L134.179 45.3216C134.778 45.1942 135.173 45.1304 135.364 45.1304C135.81 45.1304 136.282 45.2706 136.766 45.551C137.263 45.8314 138.028 46.405 139.073 47.2845C137.161 48.2149 135.262 48.6865 133.401 48.6865C132.394 48.6865 131.885 48.1639 131.885 47.1188V40.9498L130.852 41.1027V47.3482C130.852 48.9542 131.706 49.7699 133.401 49.7699C135.046 49.7699 136.792 49.3493 138.653 48.4953C138.755 48.9032 138.971 49.2091 139.277 49.4385C139.583 49.6679 140.004 49.7827 140.514 49.7827H141.074C141.699 49.7827 142.336 49.5787 142.961 49.1963C143.496 49.5915 144.172 49.7827 144.962 49.7827H147.881C148.543 49.7827 149.168 49.515 149.716 48.9924C150.124 49.515 150.825 49.7827 151.794 49.7827C153.489 49.7827 154.343 48.9797 154.343 47.361V40.9498L153.323 41.1027V47.106L153.361 47.1188ZM145.905 48.6865H144.898C144.274 48.6865 143.789 48.5081 143.42 48.1512C143.063 47.7943 142.871 47.3227 142.871 46.7492C142.871 46.2011 143.037 45.755 143.356 45.4236C143.674 45.0922 144.108 44.9265 144.656 44.9265C145.128 44.9265 145.523 45.1177 145.841 45.4873C146.16 45.8569 146.313 46.2903 146.313 46.7874C146.313 47.2845 146.173 47.909 145.892 48.6993L145.905 48.6865Z"
            fill="white"
          />
        </g>
        <defs>
          <clipPath id="clip0_4_229">
            <rect
              width="218.54"
              height="54.8326"
              fill="white"
              transform="translate(0.72998 0.58374)"
            />
          </clipPath>
        </defs>
      </svg>