<svg width="376" height="90" viewBox="0 0 376 90" fill="none" xmlns="http://www.w3.org/2000/svg">
<path d="M57.6474 58.757H59.5582V47.798H57.6474V58.757ZM130.466 47.798H133.234V49.7087H132.376V58.757H119.817C119.075 59.5361 117.985 60.0467 116.812 60.0467C115.68 60.0467 114.59 59.5413 113.848 58.757H69.1539C67.0484 58.757 65.3325 57.0411 65.3325 54.9356C65.3325 52.8301 67.0484 51.151 69.1539 51.151H70.2435V50.4877H72.1542V56.8832H84.0503V51.151H85.961V56.8832H98.9887V54.6198C98.9887 54.0723 98.5571 53.646 98.0149 53.646H91.8142L91.151 51.7721L93.3355 47.7927H95.362L93.2565 51.7721H98.2097C99.6519 51.7721 100.82 52.9406 100.82 54.3829V56.8779H105.737V47.7927H107.648V56.8779H112.795C112.716 56.6042 112.716 56.3305 112.716 56.0199C112.716 53.7197 114.548 51.8879 116.775 51.8879C119.075 51.8879 120.907 53.6828 120.907 56.0199C120.907 56.3305 120.87 56.6042 120.828 56.8779H125.781V47.7927H127.692V56.8779H130.46V47.798H130.466ZM70.2435 53.067H69.1539C68.1012 53.067 67.2432 53.925 67.2432 54.9777C67.2432 56.0304 68.1012 56.8884 69.1539 56.8884H70.2435V53.067ZM118.996 55.9883C118.996 54.6987 118.059 53.767 116.775 53.767C115.527 53.767 114.627 54.7408 114.627 55.9883C114.627 57.199 115.564 58.1728 116.775 58.1728C118.022 58.1728 118.996 57.2358 118.996 55.9883ZM138.577 54.9356C138.577 52.8301 140.293 51.151 142.362 51.151H143.451V50.4877H145.362V56.8832H156.358V51.151H158.269V58.757H142.393C140.251 58.757 138.577 57.0411 138.577 54.9356ZM140.446 54.9356C140.446 55.9883 141.304 56.8463 142.356 56.8463H143.446V53.0248H142.356C141.304 53.067 140.446 53.9249 140.446 54.9356ZM214.396 58.757H216.307V47.798H214.396V58.757ZM244.388 49.0876H242.515V48.7349C242.515 48.3033 242.709 48.0717 243.257 48.0717H243.957V47.4453H243.178C242.125 47.4453 241.462 47.9138 241.462 49.1244V50.0982H244.425V49.0823H244.388V49.0876ZM222.118 54.9356C222.118 52.8301 223.834 51.151 225.939 51.151H227.029V50.4877H228.939V56.8832H242.083V51.151H243.994V56.8832H250.389V51.151H252.3V56.8832H258.385H258.422C258.264 56.5305 258.148 56.1041 258.148 55.6725C258.148 54.0723 259.437 52.788 261.032 52.788C262.627 52.788 263.917 54.0776 263.917 55.6725C263.917 56.1041 263.801 56.4936 263.643 56.8832H263.722H264.933C265.049 56.4936 265.128 56.1041 265.128 55.6725C265.128 53.4091 263.296 51.5773 261.032 51.5773C260.211 51.5773 259.474 51.8089 258.811 52.2406L257.758 50.5614C258.695 49.935 259.827 49.5877 261.032 49.5877C264.385 49.5877 267.075 52.3195 267.075 55.6304C267.075 56.062 267.038 56.4515 266.959 56.841H272.539V47.7559H275.308V49.6666H274.45V58.7518H225.939C223.834 58.757 222.118 57.0411 222.118 54.9356ZM259.869 55.6778C259.869 56.341 260.417 56.8884 261.08 56.8884C261.743 56.8884 262.29 56.341 262.29 55.6778C262.29 55.0146 261.743 54.4671 261.08 54.4671C260.417 54.4671 259.869 55.0146 259.869 55.6778ZM224.028 54.9356C224.028 55.9883 224.886 56.8463 225.939 56.8463H227.029V53.0248H225.939C224.85 53.067 224.028 53.9249 224.028 54.9356ZM276.76 47.798V58.757H278.671V47.798H276.76ZM14.0849 60.6309C14.0849 61.1784 14.5533 61.6468 15.1008 61.6468C15.6482 61.6468 16.1167 61.1784 16.1167 60.6309C16.1167 60.0835 15.6482 59.615 15.1008 59.615C14.5112 59.615 14.0849 60.0835 14.0849 60.6309ZM17.3221 59.615C16.7746 59.615 16.3062 60.0835 16.3062 60.6309C16.3062 61.1784 16.7746 61.6468 17.3221 61.6468C17.8695 61.6468 18.338 61.1784 18.338 60.6309C18.338 60.0835 17.8642 59.615 17.3221 59.615ZM46.1409 49.5561C46.6884 49.5561 47.1568 49.0876 47.1568 48.5402C47.1568 47.9927 46.6884 47.5243 46.1409 47.5243C45.5935 47.5243 45.125 47.9927 45.125 48.5402C45.1303 49.1244 45.5567 49.5561 46.1409 49.5561ZM83.7029 59.615C83.1554 59.615 82.687 60.0835 82.687 60.6309C82.687 61.1784 83.1554 61.6468 83.7029 61.6468C84.2503 61.6468 84.7187 61.1784 84.7187 60.6309C84.7187 60.0835 84.245 59.615 83.7029 59.615ZM86.94 60.6309C86.94 60.0835 86.4716 59.615 85.9241 59.615C85.3767 59.615 84.9082 60.0835 84.9082 60.6309C84.9082 61.1784 85.3767 61.6468 85.9241 61.6468C86.4716 61.6468 86.94 61.1784 86.94 60.6309ZM225.586 49.5561C226.134 49.5561 226.602 49.0876 226.602 48.5402C226.602 47.9927 226.134 47.5243 225.586 47.5243C225.039 47.5243 224.571 47.9927 224.571 48.5402C224.613 49.1244 225.044 49.5561 225.586 49.5561ZM227.813 49.5561C228.36 49.5561 228.829 49.0876 228.829 48.5402C228.829 47.9927 228.36 47.5243 227.813 47.5243C227.266 47.5243 226.797 47.9927 226.797 48.5402C226.797 49.1244 227.266 49.5561 227.813 49.5561ZM154.958 59.615C154.41 59.615 153.942 60.0835 153.942 60.6309C153.942 61.1784 154.41 61.6468 154.958 61.6468C155.505 61.6468 155.974 61.1784 155.974 60.6309C155.968 60.0835 155.542 59.615 154.958 59.615ZM158.195 60.6309C158.195 60.0835 157.727 59.615 157.179 59.615C156.632 59.615 156.163 60.0835 156.163 60.6309C156.163 61.1784 156.632 61.6468 157.179 61.6468C157.727 61.6468 158.195 61.1784 158.195 60.6309ZM250.121 59.615C249.573 59.615 249.105 60.0835 249.105 60.6309C249.105 61.1784 249.573 61.6468 250.121 61.6468C250.668 61.6468 251.137 61.1784 251.137 60.6309C251.137 60.0835 250.668 59.615 250.121 59.615ZM251.331 60.6309C251.331 61.1784 251.8 61.6468 252.347 61.6468C252.895 61.6468 253.363 61.1784 253.363 60.6309C253.363 60.0835 252.895 59.615 252.347 59.615C251.758 59.615 251.331 60.0835 251.331 60.6309ZM142.046 49.5561C142.593 49.5561 143.062 49.0876 143.062 48.5402C143.062 47.9927 142.593 47.5243 142.046 47.5243C141.499 47.5243 141.03 47.9927 141.03 48.5402C141.035 49.1244 141.499 49.5561 142.046 49.5561ZM144.272 49.5561C144.82 49.5561 145.288 49.0876 145.288 48.5402C145.288 47.9927 144.82 47.5243 144.272 47.5243C143.725 47.5243 143.257 47.9927 143.257 48.5402C143.257 49.1244 143.683 49.5561 144.272 49.5561ZM166.501 53.767C166.501 52.3248 165.333 51.1562 163.89 51.1562H162.138L161.669 53.0301H163.617C164.164 53.0301 164.59 53.4618 164.59 54.0039V56.8884H159.753V58.7992H166.501V53.767ZM68.8434 49.5561C69.3908 49.5561 69.8593 49.0876 69.8593 48.5402C69.8593 47.9927 69.3908 47.5243 68.8434 47.5243C68.2959 47.5243 67.8275 47.9927 67.8275 48.5402C67.8275 49.1244 68.2959 49.5561 68.8434 49.5561ZM71.0647 49.5561C71.6121 49.5561 72.0806 49.0876 72.0806 48.5402C72.0806 47.9927 71.6121 47.5243 71.0647 47.5243C70.5172 47.5243 70.0488 47.9927 70.0488 48.5402C70.0488 49.1244 70.4804 49.5561 71.0647 49.5561ZM4.29436 49.5561C4.84178 49.5561 5.31025 49.0876 5.31025 48.5402C5.31025 47.9927 4.84178 47.5243 4.29436 47.5243C3.74693 47.5243 3.27845 47.9927 3.27845 48.5402C3.27845 49.1244 3.74693 49.5561 4.29436 49.5561ZM6.51564 49.5561C7.06307 49.5561 7.53154 49.0876 7.53154 48.5402C7.53154 47.9927 7.06307 47.5243 6.51564 47.5243C5.96821 47.5243 5.49974 47.9927 5.49974 48.5402C5.49974 49.1244 5.93137 49.5561 6.51564 49.5561ZM0.783447 54.9356C0.783447 52.8301 2.49942 51.151 4.56806 51.151H5.65766V50.4877H7.60523V56.8832H16.1851V51.151H18.0958V58.757H4.59965C2.49942 58.757 0.783447 57.0411 0.783447 54.9356ZM2.69418 54.9356C2.69418 55.9883 3.55217 56.8463 4.60491 56.8463H5.6945V53.0248H4.60491C3.55217 53.067 2.69418 53.9249 2.69418 54.9356ZM20.6329 61.7258C20.2803 61.7258 19.8908 61.6889 19.6592 61.61V59.7361C19.9329 59.815 20.1645 59.8151 20.4013 59.8151C21.1435 59.8151 21.4172 59.4255 21.4172 58.4886V51.1194H23.328V56.8516H35.3398V54.5882C35.3398 54.0408 34.9082 53.6144 34.366 53.6144H28.1653L27.5021 51.7405L29.6865 47.7611H31.7131L29.6076 51.7405H34.5608C36.003 51.7405 37.1716 52.9091 37.1716 54.3513V56.8463H42.4774C42.1247 56.2989 41.9721 55.6357 41.9721 54.9356C41.9721 52.8301 43.688 51.1141 45.7567 51.1141H46.8463H47.3516H48.7149V56.8463H53.4365V47.7611H56.2052V49.6719H55.3103V58.757H23.249C23.2069 60.8257 22.4279 61.7258 20.6329 61.7258ZM43.8775 54.9356C43.8775 55.9883 44.7355 56.8463 45.7883 56.8463H46.8779V53.0248H45.7883C44.7355 53.067 43.8775 53.9249 43.8775 54.9356ZM172.665 58.757H171.612C169.507 58.757 167.791 57.0411 167.791 54.9356C167.791 52.8301 169.507 51.151 171.612 51.151H172.702H173.207H174.57V56.8832H180.266L178.587 52.5932C179.876 51.4615 181.161 50.6825 182.761 50.6825C184.319 50.6825 185.687 51.4615 186.935 52.6301L185.298 56.92H190.135C191.188 56.92 192.046 56.062 192.046 55.0093V50.1351H193.957V55.0093C193.957 56.062 194.815 56.92 195.868 56.92C196.92 56.92 197.778 56.062 197.778 55.0093V51.7352H199.689V55.0093C199.689 56.062 200.547 56.92 201.6 56.92C202.652 56.92 203.51 56.062 203.51 55.0093V50.1351H205.421V55.0093C205.421 56.062 206.279 56.92 207.332 56.92H210.258V47.8348H213.027V49.7456H212.169V58.757H207.332C206.2 58.757 205.184 58.2517 204.484 57.4674C203.784 58.2465 202.768 58.757 201.637 58.757C200.505 58.757 199.489 58.2517 198.789 57.4674C198.089 58.2465 197.073 58.757 195.941 58.757C194.809 58.757 193.794 58.2517 193.094 57.4674C192.393 58.2465 191.378 58.757 190.246 58.757H174.644C174.528 60.552 173.628 61.7205 171.212 61.7205C170.47 61.7205 170.081 61.6416 169.223 61.4099V59.5361C169.886 59.7308 170.47 59.8466 171.054 59.8466C172.002 59.8519 172.544 59.694 172.665 58.757ZM180.697 53.3775L181.945 56.8463H183.582L184.829 53.3354C184.087 52.8301 183.54 52.6353 182.761 52.6353C181.987 52.6353 181.398 52.8722 180.697 53.3775ZM172.702 56.8884V53.067H171.612C170.56 53.067 169.702 53.925 169.702 54.9777C169.702 56.0304 170.56 56.8884 171.612 56.8884H172.702Z" fill="#4D4D4F"/>
<path d="M16.6957 71.2013V75.4912C15.7587 75.8438 14.5902 76.0755 13.4953 76.0755C11.6636 76.0755 10.0266 75.4122 10.0266 73.6173C10.0266 71.9803 11.432 71.1223 13.4585 71.1223C13.848 71.1223 14.3533 71.1592 14.9008 71.2381V71.1223C14.9008 70.3012 14.2007 70.0696 13.1848 70.0696C12.4426 70.0696 11.3109 70.3801 10.6108 70.7328L10.8424 68.8589C11.4267 68.5483 12.4426 68.3115 13.4532 68.3115C15.2903 68.2746 16.6957 69.0537 16.6957 71.2013ZM14.8639 72.7225C14.5112 72.6435 14.0428 72.5646 13.6164 72.5646C12.6795 72.5646 11.9004 72.7962 11.9004 73.5015C11.9004 74.1647 12.6005 74.4384 13.5006 74.4384C13.9691 74.4384 14.4744 74.3595 14.8639 74.2437V72.7225ZM22.9753 74.0858C22.4279 74.2437 22.0015 74.2805 21.612 74.2805C20.5961 74.2805 20.1697 73.891 20.1697 72.5277V68.5115H18.338V72.9962C18.338 75.2964 19.7802 76.0386 21.691 76.0386C22.9806 76.0386 23.7964 75.8438 24.8492 75.4912V68.5115H23.0174L22.9753 74.0858ZM31.592 65.2743H33.4238V75.6491C32.529 75.8807 31.5131 76.0386 30.4603 76.0386C27.7284 76.0386 26.1704 74.3595 26.1704 72.175C26.1704 69.9906 27.8074 68.2746 30.3445 68.2746C30.6551 68.2746 31.1235 68.3115 31.6341 68.3904V65.269H31.592V65.2743ZM31.592 70.2275C31.1604 70.1117 30.7709 70.0696 30.4603 70.0696C29.0181 70.0696 28.0811 70.7696 28.0811 72.175C28.0811 73.5805 29.0181 74.2437 30.4603 74.2437C30.813 74.2437 31.2025 74.2068 31.592 74.0858V70.2275ZM35.4187 75.9228H37.2505V68.5536H35.4187V75.9228ZM57.6474 74.0858C57.1 74.2437 56.6737 74.2805 56.2841 74.2805C55.2682 74.2805 54.8419 73.891 54.8419 72.5277V68.5115H53.0101V72.9962C53.0101 75.2964 54.4524 76.0386 56.3631 76.0386C57.6527 76.0386 58.4686 75.8438 59.5213 75.4912V68.5115H57.6895L57.6474 74.0858ZM63.8902 72.9172V70.2275H66.6958V68.5115H63.8902V65.8217H62.0584V68.5115H60.6951V70.2275H62.0584V73.5436C62.0584 75.2964 62.9533 75.886 65.0219 75.886H66.7379V74.2068H65.1798C64.2376 74.2068 63.8902 73.891 63.8902 72.9172ZM71.57 68.2746C71.1805 68.2746 70.633 68.3536 70.0856 68.4325V65.3112H68.2538V75.9175H70.0856V70.2275C70.5909 70.1485 71.1015 70.0696 71.491 70.0696C72.5806 70.0696 73.128 70.4591 73.128 71.8224V75.9175H74.9598V71.3171C74.9651 68.8589 73.4439 68.2746 71.57 68.2746ZM84.1661 72.175C84.1661 74.3595 82.4501 76.0755 80.1867 76.0755C77.9233 76.0755 76.2073 74.3963 76.2073 72.175C76.2073 69.9906 77.9233 68.2746 80.1867 68.2746C82.4133 68.2746 84.1661 69.9906 84.1661 72.175ZM82.2553 72.175C82.2553 71.0433 81.4763 70.0696 80.1867 70.0696C78.8971 70.0696 78.1181 71.0433 78.1181 72.175C78.1181 73.3436 78.8971 74.2805 80.1867 74.2805C81.4395 74.2437 82.2553 73.3489 82.2553 72.175ZM91.1089 75.9228H92.9407V68.5536H91.1089V75.9228ZM97.3517 72.9172V70.2275H100.157V68.5115H97.3517V65.8217H95.5199V68.5115H94.1566V70.2275H95.5199V73.5436C95.5199 75.2964 96.4148 75.886 98.4834 75.886H100.199V74.2068H98.6413C97.6622 74.2068 97.3517 73.891 97.3517 72.9172ZM106.163 73.9331C105.616 74.0911 105.189 74.1279 104.8 74.1279C103.784 74.1279 103.358 73.7384 103.358 72.3751V68.5115H101.526V72.8804C101.526 75.2964 102.852 75.9228 104.726 75.9228C105.195 75.9228 105.7 75.886 106.211 75.7649V75.9228C106.211 76.7808 105.432 77.1703 104.3 77.1703C103.6 77.1703 102.426 76.9387 101.726 76.6229L102.115 78.5336C102.7 78.7284 103.673 78.8442 104.221 78.8442C107.147 78.8442 108.042 77.9493 108.042 75.3333V68.5062H106.211L106.163 73.9331ZM114.432 67.8062V68.5062H113.069V70.2222H114.432V75.8755H116.264V70.2275H119.07V68.5115H116.264V68.1588C116.264 67.3798 116.422 66.9903 117.354 66.9903H119.07V65.2743H117.317C115.29 65.2743 114.432 66.0533 114.432 67.8062ZM127.497 72.175C127.497 74.3595 125.781 76.0755 123.518 76.0755C121.254 76.0755 119.538 74.3963 119.538 72.175C119.538 69.9906 121.254 68.2746 123.518 68.2746C125.781 68.2746 127.497 69.9906 127.497 72.175ZM125.586 72.175C125.586 71.0433 124.807 70.0696 123.518 70.0696C122.228 70.0696 121.449 71.0433 121.449 72.175C121.449 73.3436 122.228 74.2805 123.518 74.2805C124.807 74.2437 125.586 73.3489 125.586 72.175ZM145.362 68.2746C144.583 68.2746 143.178 68.4325 142.046 68.6641V75.9175H143.878V70.2275C144.383 70.1485 144.894 70.0696 145.283 70.0696C146.373 70.0696 146.92 70.4591 146.92 71.8224V75.9175H148.752V71.3171C148.794 68.8589 147.236 68.2746 145.362 68.2746ZM153.047 72.9172V70.2275H155.853V68.5115H153.047V65.8217H151.215V68.5115H149.852V70.2275H151.215V73.5436C151.215 75.2964 152.11 75.886 154.179 75.886H155.895V74.2068H154.337C153.358 74.2068 153.047 73.891 153.047 72.9172ZM164.238 72.7593H158.427C158.658 73.7752 159.479 74.2437 160.648 74.2437H160.843C161.622 74.2437 162.596 73.9331 162.99 73.5804L163.811 75.2175C163.032 75.6491 162.059 76.0386 160.611 76.0386C158.269 76.0386 156.553 74.3595 156.553 72.1382C156.553 69.8748 158.269 68.2378 160.453 68.2378C162.68 68.2746 164.317 69.9169 164.238 72.7593ZM162.327 71.2381C162.132 70.3433 161.39 69.8748 160.416 69.8748C159.443 69.8748 158.7 70.4591 158.469 71.2381H162.327ZM165.527 75.9228H167.359V65.3164H165.527V75.9228ZM169.349 75.9228H171.181V65.3164H169.349V75.9228ZM180.229 72.7593H174.418C174.649 73.7752 175.471 74.2437 176.639 74.2437H176.834C177.613 74.2437 178.587 73.9331 178.981 73.5804L179.803 75.2175C179.024 75.6491 178.05 76.0386 176.602 76.0386C174.26 76.0386 172.544 74.3595 172.544 72.1382C172.544 69.8748 174.26 68.2378 176.444 68.2378C178.708 68.2746 180.345 69.9169 180.229 72.7593ZM178.318 71.2381C178.123 70.3433 177.381 69.8748 176.408 69.8748C175.434 69.8748 174.692 70.4591 174.46 71.2381H178.318ZM185.145 70.0696C185.809 70.0696 186.393 70.2643 186.861 70.538L187.603 68.901C186.861 68.5115 186.045 68.2746 185.066 68.2746C182.803 68.2746 181.129 69.9538 181.129 72.175C181.129 74.3963 182.808 76.0755 185.066 76.0755C186.082 76.0755 186.861 75.8807 187.603 75.4912L186.861 73.8121C186.393 74.1226 185.809 74.2805 185.145 74.2805C183.856 74.2805 183.04 73.4594 183.04 72.175C183.04 70.9275 183.856 70.0696 185.145 70.0696ZM191.304 72.9172V70.2275H194.109V68.5115H191.304V65.8217H189.472V68.5115H188.109V70.2275H189.472V73.5436C189.472 75.2964 190.367 75.886 192.436 75.886H194.152V74.2068H192.593C191.657 74.2068 191.304 73.891 191.304 72.9172ZM200.121 74.0858C199.573 74.2437 199.147 74.2805 198.757 74.2805C197.741 74.2805 197.315 73.891 197.315 72.5277V68.5115H195.483V72.9962C195.483 75.2964 196.925 76.0386 198.836 76.0386C200.126 76.0386 200.942 75.8438 201.994 75.4912V68.5115H200.163L200.121 74.0858ZM210.258 71.2013V75.4912C209.322 75.8438 208.153 76.0755 207.058 76.0755C205.226 76.0755 203.589 75.4122 203.589 73.6173C203.589 71.9803 204.995 71.1223 207.021 71.1223C207.411 71.1223 207.916 71.1592 208.464 71.2381V71.1223C208.464 70.3012 207.763 70.0696 206.748 70.0696C206.005 70.0696 204.874 70.3801 204.174 70.7328L204.405 68.8589C204.99 68.5483 206.005 68.3115 207.016 68.3115C208.858 68.2746 210.258 69.0537 210.258 71.2013ZM208.39 72.7225C208.037 72.6435 207.569 72.5646 207.142 72.5646C206.205 72.5646 205.426 72.7962 205.426 73.5015C205.426 74.1647 206.126 74.4384 207.027 74.4384C207.495 74.4384 208 74.3595 208.39 74.2437V72.7225ZM212.096 75.9228H213.927V65.3164H212.096V75.9228ZM241.657 72.175C241.657 74.3595 239.941 76.0755 237.677 76.0755C235.414 76.0755 233.698 74.3963 233.698 72.175C233.698 69.9906 235.414 68.2746 237.677 68.2746C239.941 68.2746 241.657 69.9906 241.657 72.175ZM239.746 72.175C239.746 71.0433 238.967 70.0696 237.677 70.0696C236.388 70.0696 235.609 71.0433 235.609 72.175C235.609 73.3436 236.388 74.2805 237.677 74.2805C238.967 74.2437 239.746 73.3489 239.746 72.175ZM250.279 72.175C250.279 74.3595 248.642 76.0755 246.104 76.0755C245.794 76.0755 245.362 76.0386 244.815 75.9597V78.7652H242.983V68.6641C243.878 68.3904 244.894 68.2746 245.947 68.2746C248.715 68.2746 250.279 69.9538 250.279 72.175ZM248.368 72.175C248.368 70.7696 247.431 70.0696 245.989 70.0696C245.636 70.0696 245.246 70.1485 244.857 70.2275V74.1279C245.289 74.2437 245.678 74.2858 245.989 74.2858C247.468 74.2437 248.368 73.5805 248.368 72.175ZM258.937 72.7593H253.126C253.358 73.7752 254.179 74.2437 255.348 74.2437H255.542C256.321 74.2437 257.295 73.9331 257.69 73.5804L258.511 75.2175C257.732 75.6491 256.758 76.0386 255.311 76.0386C252.968 76.0386 251.252 74.3595 251.252 72.1382C251.252 69.8748 252.968 68.2378 255.153 68.2378C257.416 68.2746 259.011 69.9169 258.937 72.7593ZM257.021 71.2381C256.827 70.3433 256.084 69.8748 255.111 69.8748C254.137 69.8748 253.395 70.4591 253.163 71.2381H257.021ZM268.254 72.9172V70.2275H271.06V68.5115H268.254V65.8217H266.422V68.5115H265.017V70.2275H266.38V73.5436C266.38 75.2964 267.275 75.886 269.344 75.886H271.06V74.2068H269.502C268.57 74.2068 268.254 73.891 268.254 72.9172ZM276.839 73.9331C276.292 74.0911 275.866 74.1279 275.476 74.1279C274.46 74.1279 274.034 73.7384 274.034 72.3751V68.5115H272.202V72.8804C272.202 75.2964 273.528 75.9228 275.402 75.9228C275.871 75.9228 276.376 75.886 276.887 75.7649V75.9228C276.887 76.7808 276.108 77.1703 274.976 77.1703C274.276 77.1703 273.102 76.9387 272.402 76.6229L272.792 78.5336C273.376 78.7284 274.35 78.8442 274.897 78.8442C277.824 78.8442 278.718 77.9493 278.718 75.3333V68.5062H276.887L276.839 73.9331ZM128.866 70.4591V75.9175H130.697V70.7328C130.697 70.4222 130.929 70.1854 131.245 70.1854C131.987 70.1854 133.119 70.1854 133.119 70.1854V68.4325H130.855C129.803 68.4325 128.866 69.3274 128.866 70.4591ZM85.5346 70.4591V75.9175H87.3664V70.7328C87.3664 70.4222 87.598 70.1854 87.9138 70.1854C88.656 70.1854 89.7877 70.1854 89.7877 70.1854V68.4325H87.5664C86.4295 68.4325 85.5346 69.3274 85.5346 70.4591ZM228.75 70.4591V75.9175H230.582V70.7328C230.582 70.4222 230.813 70.1854 231.129 70.1854C231.871 70.1854 233.003 70.1854 233.003 70.1854V68.4325H230.74C229.645 68.4325 228.75 69.3274 228.75 70.4591ZM260.143 70.4591V75.9175H261.975V70.7328C261.975 70.4222 262.206 70.1854 262.522 70.1854C263.264 70.1854 264.396 70.1854 264.396 70.1854V68.4325H262.132C261.08 68.4325 260.143 69.3274 260.143 70.4591ZM36.3136 65.3901C35.7661 65.3901 35.2977 65.8586 35.2977 66.406C35.2977 66.9535 35.7661 67.4219 36.3136 67.4219C36.861 67.4219 37.3295 66.9535 37.3295 66.406C37.3295 65.8586 36.8978 65.3901 36.3136 65.3901ZM92.0459 65.3901C91.4984 65.3901 91.03 65.8586 91.03 66.406C91.03 66.9535 91.4984 67.4219 92.0459 67.4219C92.5933 67.4219 93.0618 66.9535 93.0618 66.406C93.0196 65.8586 92.5933 65.3901 92.0459 65.3901Z" fill="#4D4D4F"/>
<path d="M8.89484 72.8795C8.89484 74.906 7.09992 76.0377 4.68387 76.0377C3.1995 76.0377 1.67828 75.6482 0.783447 75.1007L1.52563 73.4216C2.26782 73.8901 3.55217 74.2427 4.64702 74.2427C5.93664 74.2427 6.91042 73.8111 6.91042 72.8373C6.91042 71.9425 6.13139 71.6267 4.88389 71.353L4.0259 71.1214C2.11517 70.6529 1.09927 69.5212 1.09927 67.9631C1.09927 66.2471 2.65733 65.0786 4.96284 65.0786C6.2893 65.0786 7.76841 65.4681 8.66851 66.0524L7.92632 67.7315C7.14729 67.2262 5.97874 66.9104 4.92073 66.9104C3.90483 66.9104 3.04685 67.2999 3.04685 68.0421C3.04685 68.7422 3.55217 69.0948 4.72598 69.4054L5.62081 69.637C7.41574 70.0686 8.89484 71.0056 8.89484 72.8795ZM48.2885 65.2734L52.2258 75.8798H50.2361L49.3413 73.3847H44.9355L44.0407 75.8798H42.051L45.9883 65.2734H48.2885ZM48.7149 71.632L47.1568 67.2262L45.5988 71.632H48.7149ZM227.813 68.5474C227.813 70.3002 226.566 71.9425 223.913 71.9425H221.807V75.9219H219.933V65.3155H223.913C226.602 65.2734 227.813 66.8735 227.813 68.5474ZM225.823 68.5895C225.823 67.5368 225.081 67.0683 223.523 67.0683H221.844V70.1897H223.523C224.886 70.1844 225.823 69.7949 225.823 68.5895ZM138.261 75.9219H140.093V65.3155H138.261V75.9219Z" fill="#006E63"/>
<path d="M359.327 31.1071C361.433 20.069 363.501 8.91522 354.532 4.50948C339.283 -2.93868 300.437 -2.62812 296.068 17.574C295.247 21.4376 296.847 28.2594 299.5 34.618C300.473 27.833 306.443 17.4951 333.04 15.7791C350.042 14.6895 357.064 21.5534 359.327 31.1071Z" fill="#0065A1"/>
<path d="M375.197 19.7159C374.966 12.1887 367.512 7.66193 358.701 4.97217C359.674 5.83015 360.532 6.7671 361.275 7.8988C363.422 11.136 363.496 17.6472 362.485 24.3953C355.542 71.9793 337.525 71.0424 336.004 71.0792C355.658 77.8273 363.033 61.3308 363.97 59.5359C364.475 58.6042 375.745 37.3862 375.197 19.7159Z" fill="#006E63"/>
<path d="M339.004 32.707C339.825 32.5491 340.683 32.4754 341.578 32.4754C345.515 32.4754 349.068 33.9967 351.758 36.4548C349.3 31.3859 344.152 27.9118 338.183 27.9118C337.751 27.9118 337.325 27.9486 336.935 27.9486C338.225 26.0748 340.093 24.6746 342.278 23.9324C338.925 23.4639 335.53 24.7114 333.266 27.2854C333.266 27.1275 333.266 26.9749 333.266 26.8169C333.266 24.8694 332.682 23.0323 331.666 21.5532C330.65 23.0744 330.066 24.8694 330.066 26.8169C330.066 26.9749 330.066 27.1275 330.066 27.2854C327.803 24.7114 324.371 23.4639 321.055 23.9324C323.239 24.6746 325.113 26.08 326.397 27.9486C325.966 27.9118 325.576 27.9118 325.15 27.9118C319.181 27.9118 314.033 31.3806 311.575 36.4548C314.264 33.9967 317.854 32.4754 321.755 32.4754C322.613 32.4754 323.471 32.5544 324.329 32.707C320.665 34.6967 318.012 38.1655 316.959 42.1449C319.144 39.1814 322.344 37.0338 326.202 36.2548C326.634 36.1758 327.06 36.0969 327.492 36.06L331.703 40.3131L335.914 36.06C336.346 36.0969 336.772 36.1758 337.204 36.2548C341.067 36.997 344.262 39.1814 346.447 42.1449C345.326 38.1655 342.673 34.6967 339.004 32.707Z" fill="#006E63"/>
<path d="M331.635 51.0358C332.687 51.0358 333.582 50.1778 333.582 49.0882C333.582 47.9986 332.724 47.1406 331.635 47.1406C330.582 47.1406 329.687 47.9986 329.687 49.0882C329.724 50.141 330.582 51.0358 331.635 51.0358Z" fill="#006E63"/>
<path d="M331.635 55.1303C332.493 55.1303 333.193 54.4302 333.193 53.5722C333.193 52.7142 332.493 52.0142 331.635 52.0142C330.777 52.0142 330.077 52.7142 330.077 53.5722C330.077 54.4302 330.777 55.1303 331.635 55.1303Z" fill="#006E63"/>
<path d="M331.635 46.24C332.961 46.24 334.051 45.1504 334.051 43.7819C334.051 42.4186 332.961 41.3237 331.635 41.3237C330.308 41.3237 329.219 42.4133 329.219 43.7819C329.219 45.1452 330.308 46.24 331.635 46.24Z" fill="#006E63"/>
<path d="M347.352 52.4043C338.03 52.4043 329.529 56.11 323.286 62.1527H326.603C327.461 62.1527 328.24 61.8422 328.903 61.2579C333.935 56.889 340.251 53.8887 347.352 52.9886C349.068 52.7938 350.747 52.678 352.421 52.757C350.784 52.5201 349.068 52.4043 347.352 52.4043Z" fill="#006E63"/>
<path d="M315.954 52.4043C325.276 52.4043 333.777 56.11 340.02 62.1527H336.704C335.846 62.1527 335.067 61.8422 334.403 61.2579C329.371 56.889 323.055 53.8887 315.954 52.9886C314.238 52.7938 312.559 52.678 310.885 52.757C312.522 52.5201 314.201 52.4043 315.954 52.4043Z" fill="#006E63"/>
<path d="M293.92 21.9434C291.072 24.791 285.103 31.9286 286.472 40.4717C288.267 51.5886 314.243 89.0663 333.43 89.0663C342.788 89.0663 350.042 82.0077 357.453 70.9328C341.62 85.0449 301.679 63.8689 293.92 21.9434Z" fill="#00A19B"/>
</svg>
