<svg width="385" height="359" viewBox="0 0 385 359" fill="none" xmlns="http://www.w3.org/2000/svg">
<path d="M85.689 253.675L99.3311 284.424L99.481 284.473C99.481 284.473 99.5559 284.523 99.6059 284.547C99.6559 284.572 99.7058 284.596 99.7558 284.621C99.8058 284.67 99.8558 284.695 99.9057 284.744C99.9307 284.769 99.9807 284.818 100.006 284.843C100.006 284.843 100.081 284.941 100.131 284.991C100.156 285.015 100.181 285.065 100.231 285.114C100.281 285.163 100.306 285.237 100.33 285.286C100.33 285.311 100.355 285.36 100.38 285.385L100.43 285.508L131.687 298.911L148.627 282.206L166.392 219.378L102.729 236.871L85.689 253.675Z" stroke="#C8B56D" stroke-width="3" stroke-miterlimit="10"/>
<path d="M198.252 98.8833L214.346 40.8383L203.592 3L179.238 27.1689C178.739 27.6642 178.015 27.8128 177.366 27.5899L140.661 14.3168L151.49 52.5018L198.252 98.9081V98.8833Z" stroke="#C8B56D" stroke-width="3" stroke-miterlimit="10"/>
<path d="M357.45 205.209L381.601 180.987L343.728 170.254L285.692 186.278L332.532 233.257L370.405 243.94L357.004 207.072C356.757 206.426 356.93 205.706 357.401 205.209H357.45Z" stroke="#C8B56D" stroke-width="3" stroke-miterlimit="10"/>
<path d="M347.682 82.5686L334.137 51.5892L334.013 51.5396C334.013 51.5396 333.988 51.5147 333.963 51.5147C333.79 51.4403 333.616 51.3162 333.467 51.1672C333.318 51.0183 333.219 50.8445 333.12 50.6708C333.12 50.6708 333.12 50.6459 333.095 50.6211L333.021 50.4722L302.036 36.9187L285.836 53.1283L268.148 116.452L331.482 98.7533L347.657 82.5686H347.682Z" stroke="#C8B56D" stroke-width="3" stroke-miterlimit="10"/>
<path d="M357.151 132.189C356.654 131.694 356.504 130.952 356.753 130.308L371.826 91.8905L333.721 102.485L285.692 150.284L344.242 166.746L381.601 156.522L357.151 132.189Z" stroke="#C8B56D" stroke-width="3" stroke-miterlimit="10"/>
<path d="M282.112 51.5011L292.71 12.9218L254.304 28.1571C253.661 28.4089 252.918 28.2578 252.423 27.7542L228.082 3L217.855 40.7734L234.322 100.078L282.112 51.4759V51.5011Z" stroke="#C8B56D" stroke-width="3" stroke-miterlimit="10"/>
<path d="M303.448 300.081L333.584 284.876L348.851 254.79L331.064 237.047L268.148 219.378L286.26 282.96L303.448 300.081Z" stroke="#C8B56D" stroke-width="3" stroke-miterlimit="10"/>
<path d="M239.548 208.914C239.747 208.194 240.342 207.722 241.037 207.623C241.285 207.598 241.508 207.623 241.757 207.672L262.846 213.609L256.817 192.321C256.544 191.377 257.09 190.408 258.032 190.135L278.675 184.447L263.59 169.344C263.59 169.344 263.515 169.294 263.491 169.269C263.143 168.921 262.97 168.449 262.97 168.002C262.97 167.555 263.143 167.083 263.491 166.735C263.515 166.711 263.565 166.686 263.59 166.661L278.427 151.806L257.933 146.018C257.635 145.919 257.362 145.77 257.164 145.571C257.04 145.447 256.941 145.298 256.866 145.174C256.643 144.776 256.569 144.28 256.693 143.808L262.846 121.749L241.087 127.835C241.087 127.835 240.913 127.91 240.814 127.935C240.169 128.108 239.524 127.935 239.077 127.487C238.879 127.289 238.705 127.015 238.63 126.717L232.825 106.149L217.963 121.029C217.963 121.029 217.914 121.103 217.889 121.128C217.541 121.476 217.07 121.65 216.623 121.65C216.177 121.65 215.705 121.476 215.358 121.128C215.358 121.103 215.308 121.054 215.284 121.029L200.199 105.926L194.517 126.593C194.517 126.643 194.467 126.693 194.467 126.742C194.145 127.587 193.252 128.084 192.334 127.835C192.284 127.835 192.235 127.786 192.185 127.786L171.394 121.873L177.249 142.69C177.373 143.187 177.299 143.683 177.05 144.081C177.026 144.155 176.976 144.205 176.926 144.28C176.926 144.28 176.926 144.304 176.902 144.329C176.678 144.603 176.381 144.826 176.008 144.925L154.696 150.788L170.103 166.214C170.103 166.214 170.178 166.263 170.203 166.288C170.55 166.636 170.724 167.083 170.724 167.555C170.724 168.027 170.55 168.474 170.203 168.822C170.178 168.847 170.128 168.872 170.103 168.896L155.192 183.826L176.182 189.713C176.48 189.812 176.753 189.961 176.951 190.16C176.976 190.185 177.026 190.234 177.05 190.259C177.423 190.706 177.596 191.303 177.423 191.899L171.493 213.212L193.202 207.151C193.202 207.151 193.252 207.151 193.277 207.126C193.922 206.952 194.567 207.126 195.013 207.573C195.212 207.772 195.385 208.045 195.46 208.343L201.29 229.035L215.73 214.578C215.73 214.578 215.78 214.504 215.805 214.479C216.152 214.131 216.623 213.957 217.07 213.957C217.517 213.957 217.988 214.131 218.335 214.479C218.36 214.504 218.385 214.553 218.41 214.578L233.718 229.905L239.524 208.939L239.548 208.914Z" stroke="#C8B56D" stroke-width="3" stroke-miterlimit="10"/>
<path d="M165.223 116.452L147.699 53.9379L129.605 35.7491L99.6388 50.9729L84.5194 81.1462L101.547 98.2387L165.223 116.452Z" stroke="#C8B56D" stroke-width="3" stroke-miterlimit="10"/>
<path d="M253.957 308.585C254.453 308.086 255.173 307.937 255.818 308.161L292.71 321.606L282.216 284.49L234.903 236.922L219.025 294.492L229.817 332.83L253.957 308.56V308.585Z" stroke="#C8B56D" stroke-width="3" stroke-miterlimit="10"/>
<path d="M199.099 236.922L151.556 284.568L140.661 323.726L178.472 309.16C179.116 308.912 179.859 309.061 180.354 309.557L204.744 334L215.516 295.089L199.123 236.922H199.099Z" stroke="#C8B56D" stroke-width="3" stroke-miterlimit="10"/>
<path d="M75.3674 204.125C75.8647 204.622 76.0139 205.368 75.7652 206.015L61.1937 243.94L100.457 232.998L147.678 185.797L87.9497 169.085L50.6006 179.356L75.3674 204.125Z" stroke="#C8B56D" stroke-width="3" stroke-miterlimit="10"/>
<path d="M87.9517 165.576L147.678 149.38L99.9673 102.35L62.6413 91.8905L76.1619 128.659C76.3877 129.302 76.2372 130.019 75.7355 130.514L50.6006 155.29L87.9517 165.576Z" stroke="#C8B56D" stroke-width="3" stroke-miterlimit="10"/>
<path d="M143.101 278C73.7889 278 17.6006 221.812 17.6006 152.5C17.6006 83.1883 73.7889 27 143.101 27C212.412 27 268.601 83.1883 268.601 152.5C268.601 221.812 212.412 278 143.101 278Z" fill="#F9F9F9"/>
<path d="M17.1836 331.206C17.1836 338.606 20.1818 345.306 25.0334 350.158C29.8824 355.007 36.5823 358.007 43.9854 358.007H196.713V304.404H43.9854C43.1075 304.404 42.2399 304.445 41.3851 304.53C31.3046 305.5 22.8592 312.051 19.1705 321.058C19.0678 321.31 18.9677 321.561 18.8727 321.821C17.7791 324.742 17.1836 327.904 17.1836 331.208V331.206Z" fill="#C8B56D"/>
<g style="mix-blend-mode:multiply" opacity="0.38">
<path d="M18.8727 321.818L131.663 308.031L140.44 304.404H43.9829C43.105 304.404 42.2373 304.445 41.3825 304.53C31.302 305.5 22.8566 312.051 19.1679 321.058C19.0652 321.31 18.9651 321.561 18.8701 321.821L18.8727 321.818Z" fill="#D9D9D9"/>
</g>
<path d="M111.556 331.205C111.556 338.606 114.557 345.306 119.406 350.157C124.257 355.009 130.957 358.007 138.358 358.007H303.622C305.72 358.007 307.419 356.308 307.419 354.211C307.419 352.113 305.72 350.414 303.622 350.414H299.826V312.002H303.622C305.72 312.002 307.419 310.302 307.419 308.205C307.419 306.108 305.72 304.409 303.622 304.409H138.358C123.557 304.409 111.556 316.409 111.556 331.211V331.205Z" fill="#E6E6E6"/>
<path d="M299.823 350.412V312H138.358C127.766 312 119.152 320.614 119.152 331.206C119.152 341.797 127.766 350.412 138.358 350.412H299.823Z" fill="white"/>
<path d="M288.008 343.599L280.992 336.686L273.976 343.599V323.877H288.008V343.599Z" fill="#838383"/>
<path d="M290.238 277.602C290.238 285.002 287.24 291.702 282.388 296.554C277.539 301.403 270.84 304.404 263.436 304.404H110.709V250.8H263.436C264.314 250.8 265.182 250.841 266.037 250.926C276.117 251.896 284.563 258.447 288.251 267.455C288.354 267.706 288.454 267.958 288.549 268.217C289.643 271.138 290.238 274.301 290.238 277.604V277.602Z" fill="#6E1636"/>
<path d="M195.863 277.602C195.863 285.003 192.862 291.702 188.013 296.554C183.162 301.406 176.462 304.404 169.061 304.404H3.79683C1.69962 304.404 0.000259399 302.704 0.000259399 300.607C0.000259399 298.51 1.69962 296.811 3.79683 296.811H7.59341V258.398H3.79683C1.69962 258.398 0.000259399 256.699 0.000259399 254.602C0.000259399 252.505 1.69962 250.805 3.79683 250.805H169.061C183.863 250.805 195.863 262.806 195.863 277.607V277.602Z" fill="#E6E6E6"/>
<path d="M7.59595 296.808V258.396H169.061C179.653 258.396 188.268 267.011 188.268 277.602C188.268 288.193 179.653 296.808 169.061 296.808H7.59595Z" fill="white"/>
<path d="M20.5182 287.462L27.5337 280.549L34.5493 287.462V267.74H20.5182V287.462Z" fill="#838383"/>
<path d="M188.013 297.524C188.262 297.524 188.511 297.429 188.701 297.239C193.948 291.992 196.836 285.018 196.836 277.599C196.836 262.285 184.376 249.825 169.061 249.825H3.79684C3.26035 249.825 2.82394 250.261 2.82394 250.798C2.82394 251.334 3.26035 251.77 3.79684 251.77H169.061C183.303 251.77 194.89 263.358 194.89 277.599C194.89 284.497 192.203 290.984 187.326 295.863C186.946 296.243 186.946 296.859 187.326 297.239C187.515 297.429 187.764 297.524 188.013 297.524Z" fill="#D9D9D9"/>
<path d="M45.4666 268.71H129.373C129.91 268.71 130.346 268.273 130.346 267.737C130.346 267.2 129.91 266.764 129.373 266.764H45.4666C44.9301 266.764 44.4937 267.2 44.4937 267.737C44.4937 268.273 44.9301 268.71 45.4666 268.71Z" fill="#D9D9D9"/>
<path d="M71.1774 284.379H160.2C160.737 284.379 161.173 283.942 161.173 283.406C161.173 282.869 160.737 282.433 160.2 282.433H71.1774C70.6409 282.433 70.2045 282.869 70.2045 283.406C70.2045 283.942 70.6409 284.379 71.1774 284.379Z" fill="#D9D9D9"/>
<path d="M175.89 141.421H243.137L209.771 83.2688L175.887 141.421H175.89ZM240.988 140.179H178.056L209.766 85.7588L240.991 140.179H240.988Z" fill="#D9D9D9"/>
<path d="M209.145 70.896H210.39V86.4031H209.145V70.896Z" fill="#D9D9D9"/>
<path d="M132.361 74.5898H143.381C145.253 74.5898 146.77 76.1069 146.77 77.9783V92.4663C146.77 94.3376 145.253 95.8547 143.381 95.8547H132.361C130.49 95.8547 128.973 94.3376 128.973 92.4663V77.9783C128.973 76.1069 130.49 74.5898 132.361 74.5898Z" fill="#D9D9D9"/>
<path d="M106.458 85.2248C108.206 85.2248 109.834 85.1555 111.338 85.0374C122.802 84.1492 129.587 80.4862 129.872 80.3296L127.631 76.2352C127.569 76.2686 121.259 79.6339 110.714 80.404C100.98 81.1151 85.5218 79.6904 67.1602 68.8834L64.7935 72.9059C81.5122 82.7477 96.0593 85.2248 106.461 85.2248H106.458Z" fill="#D9D9D9"/>
<path d="M121.566 79.9788C120.628 76.0064 123.089 72.026 127.061 71.0885C131.034 70.1509 135.014 72.6111 135.951 76.5835C136.889 80.556 134.429 84.5363 130.456 85.4739C126.484 86.4115 122.504 83.9512 121.566 79.9788Z" fill="#B0B0B0"/>
<path d="M58.795 72.5879C57.8574 68.6155 60.3176 64.6352 64.2901 63.6976C68.2625 62.76 72.2428 65.2202 73.1804 69.1927C74.118 73.1651 71.6577 77.1454 67.6853 78.083C63.7129 79.0206 59.7325 76.5603 58.795 72.5879Z" fill="#B0B0B0"/>
<path d="M169.285 85.2248C179.686 85.2248 194.231 82.7477 210.952 72.9059L208.585 68.8834C190.224 79.693 174.768 81.1125 165.031 80.404C154.486 79.6339 148.177 76.2686 148.115 76.2352L145.874 80.3296C146.156 80.4862 152.943 84.1492 164.408 85.0374C165.912 85.1529 167.542 85.2248 169.287 85.2248H169.285Z" fill="#D9D9D9"/>
<path d="M141.771 83.5094C138.885 80.6233 138.885 75.944 141.771 73.0579C144.657 70.1718 149.336 70.1718 152.222 73.0579C155.109 75.944 155.109 80.6233 152.222 83.5094C149.336 86.3955 144.657 86.3955 141.771 83.5094Z" fill="#B0B0B0"/>
<path d="M208.069 78.0961C204.096 77.1585 201.636 73.1782 202.574 69.2058C203.511 65.2333 207.492 62.7731 211.464 63.7107C215.437 64.6483 217.897 68.6286 216.959 72.601C216.022 76.5735 212.041 79.0337 208.069 78.0961Z" fill="#B0B0B0"/>
<path d="M134.405 93.7113H141.341V106.446H134.405V93.7113Z" fill="#B0B0B0"/>
<path d="M134.405 95.8546H141.341V99.6666H134.405V95.8546Z" fill="#D9D9D9"/>
<path d="M133.696 104.795H142.047C142.958 104.795 143.697 105.534 143.697 106.446V222.517C143.697 223.429 142.958 224.168 142.047 224.168H133.696C132.785 224.168 132.046 223.429 132.046 222.517V106.446C132.046 105.534 132.785 104.795 133.696 104.795Z" fill="#D9D9D9"/>
<path d="M144.837 216.582H130.903C128.865 216.582 127.209 218.238 127.209 220.276V228.845H148.531V220.276C148.531 218.238 146.875 216.582 144.837 216.582Z" fill="#D9D9D9"/>
<path d="M130.942 198.326H144.798C145.666 198.326 146.369 199.029 146.369 199.897V209.333C146.369 210.201 145.666 210.904 144.798 210.904H130.942C130.074 210.904 129.371 210.201 129.371 209.333V199.897C129.371 199.029 130.074 198.326 130.942 198.326Z" fill="#B0B0B0"/>
<path d="M135.562 107.411H135.58C136.096 107.411 136.515 107.829 136.515 108.346V194.855C136.515 195.371 136.096 195.79 135.58 195.79H135.562C135.046 195.79 134.628 195.371 134.628 194.855V108.346C134.628 107.829 135.046 107.411 135.562 107.411Z" fill="#B0B0B0"/>
<path d="M140.162 107.411H140.18C140.696 107.411 141.115 107.829 141.115 108.346V194.855C141.115 195.371 140.696 195.79 140.18 195.79H140.162C139.646 195.79 139.228 195.371 139.228 194.855V108.346C139.228 107.829 139.646 107.411 140.162 107.411Z" fill="#B0B0B0"/>
<path d="M174.729 139.385C174.729 140.415 175.007 141.383 175.489 142.214C175.736 142.643 176.039 143.038 176.388 143.387C177.412 144.412 178.826 145.046 180.39 145.046H239.145C241.24 145.046 243.07 143.906 244.045 142.214C244.528 141.383 244.805 140.415 244.805 139.385H174.729Z" fill="#D9D9D9"/>
<g style="mix-blend-mode:multiply" opacity="0.38">
<path d="M174.729 139.385C174.729 140.415 175.007 141.383 175.489 142.214H244.045C244.528 141.383 244.805 140.415 244.805 139.385H174.729Z" fill="#B0B0B0"/>
</g>
<path d="M207.969 86.3144C206.976 85.321 206.976 83.7103 207.969 82.7168C208.963 81.7234 210.574 81.7234 211.567 82.7168C212.56 83.7103 212.56 85.321 211.567 86.3144C210.574 87.3079 208.963 87.3079 207.969 86.3144Z" fill="#B0B0B0"/>
<path d="M32.0952 141.421H99.3423L65.9767 83.2688L32.0926 141.421H32.0952ZM97.1937 140.179H34.2617L65.9716 85.7588L97.1963 140.179H97.1937Z" fill="#D9D9D9"/>
<path d="M65.353 70.896H66.598V86.4031H65.353V70.896Z" fill="#D9D9D9"/>
<path d="M30.9376 139.385C30.9376 140.415 31.2148 141.383 31.6974 142.214C31.9438 142.643 32.2493 143.038 32.5958 143.387C33.62 144.412 35.0345 145.046 36.5977 145.046H95.3533C97.448 145.046 99.2782 143.906 100.254 142.214C100.736 141.383 101.013 140.415 101.013 139.385H30.9376Z" fill="#D9D9D9"/>
<g style="mix-blend-mode:multiply" opacity="0.38">
<path d="M30.9376 139.385C30.9376 140.415 31.2148 141.383 31.6974 142.214H100.254C100.736 141.383 101.013 140.415 101.013 139.385H30.9376Z" fill="#B0B0B0"/>
</g>
<path d="M63.5139 85.0941C63.1912 83.7267 64.0381 82.3566 65.4054 82.0339C66.7728 81.7112 68.1429 82.558 68.4656 83.9254C68.7884 85.2928 67.9415 86.6629 66.5741 86.9856C65.2068 87.3083 63.8367 86.4615 63.5139 85.0941Z" fill="#B0B0B0"/>
<path d="M130.441 158.566H145.299C145.89 158.566 146.369 159.045 146.369 159.636V161.741C146.369 162.333 145.89 162.812 145.299 162.812H130.441C129.85 162.812 129.371 162.333 129.371 161.741V159.636C129.371 159.045 129.85 158.566 130.441 158.566Z" fill="#B0B0B0"/>
<g style="mix-blend-mode:multiply" opacity="0.38">
<path d="M143.697 162.812V163.815L132.046 166.29V162.812H143.697Z" fill="#B0B0B0"/>
</g>
<g style="mix-blend-mode:multiply" opacity="0.38">
<path d="M143.697 210.904V212.221L132.046 214.5V210.904H143.697Z" fill="#B0B0B0"/>
</g>
<path d="M195.707 228.847H85.7964C83.9918 228.847 82.5235 230.313 82.5235 232.12V250.803H198.977V232.12C198.977 230.315 197.511 228.847 195.704 228.847H195.707Z" fill="#B0B0B0"/>
<path d="M80.3827 234.502H201.123C201.816 234.502 202.378 235.064 202.378 235.758V239.749C202.378 240.442 201.816 241.004 201.123 241.004H80.3827C79.6894 241.004 79.1274 240.442 79.1274 239.749V235.758C79.1274 235.064 79.6894 234.502 80.3827 234.502Z" fill="#D9D9D9"/>
<path d="M198.977 233.09C199.514 233.09 199.95 232.654 199.95 232.118C199.95 229.777 198.045 227.872 195.707 227.872H153.752C153.216 227.872 152.779 228.308 152.779 228.845C152.779 229.381 153.216 229.818 153.752 229.818H195.707C196.975 229.818 198.007 230.85 198.007 232.118C198.007 232.654 198.443 233.09 198.98 233.09H198.977Z" fill="#838383"/>
<path d="M80.3826 241.977H131.265C131.802 241.977 132.238 241.541 132.238 241.004C132.238 240.468 131.802 240.032 131.265 240.032H80.3826C79.8461 240.032 79.4098 240.468 79.4098 241.004C79.4098 241.541 79.8461 241.977 80.3826 241.977Z" fill="#838383"/>
<path d="M55.8809 305.377H295.857C296.394 305.377 296.83 304.94 296.83 304.404C296.83 303.867 296.394 303.431 295.857 303.431H55.8809C55.3444 303.431 54.908 303.867 54.908 304.404C54.908 304.94 55.3444 305.377 55.8809 305.377Z" fill="#838383"/>
<path d="M19.4118 358.978H322.767C323.304 358.978 323.74 358.541 323.74 358.005C323.74 357.468 323.304 357.032 322.767 357.032H19.4144C18.8779 357.032 18.4415 357.468 18.4415 358.005C18.4415 358.541 18.8779 358.978 19.4144 358.978H19.4118Z" fill="#838383"/>
<path d="M299.826 339.481C300.362 339.481 300.799 339.045 300.799 338.509V311.997C300.799 311.46 300.362 311.024 299.826 311.024C299.289 311.024 298.853 311.46 298.853 311.997V338.509C298.853 339.045 299.289 339.481 299.826 339.481Z" fill="#838383"/>
<path d="M173.749 324.85H262.772C263.308 324.85 263.745 324.413 263.745 323.877C263.745 323.34 263.308 322.904 262.772 322.904H173.749C173.212 322.904 172.776 323.34 172.776 323.877C172.776 324.413 173.212 324.85 173.749 324.85Z" fill="#D2D6DB"/>
<path d="M148.533 338.008H237.556C238.093 338.008 238.529 337.572 238.529 337.035C238.529 336.499 238.093 336.062 237.556 336.062H148.533C147.997 336.062 147.56 336.499 147.56 337.035C147.56 337.572 147.997 338.008 148.533 338.008Z" fill="#D2D6DB"/>
</svg>
