<svg width="378" height="93" viewBox="0 0 378 93" fill="none" xmlns="http://www.w3.org/2000/svg">
<path fill-rule="evenodd" clip-rule="evenodd" d="M37.2588 58.8437C37.1009 60.107 36.7851 61.2124 36.3114 62.0546C35.8376 62.8968 35.206 63.6337 34.5217 64.1601C33.8374 64.6864 33.0479 65.0023 32.2057 65.2655C31.3635 65.476 30.416 65.5813 29.4685 65.5813C28.521 65.5813 27.6789 65.5287 26.8893 65.2655C26.0997 65.0549 25.4155 64.7391 24.7838 64.1601C24.2574 63.6863 23.7837 63.0547 23.4679 62.2125C23.1521 61.423 23.1521 60.4228 23.2573 59.3175C23.31 58.6332 23.5732 57.8436 23.889 56.8961C24.2048 55.9487 24.6785 55.0012 25.3102 54.159L28.2579 55.2644C28.0473 55.7381 27.8894 56.1066 27.7315 56.4224C27.5736 56.7382 27.4157 57.0541 27.363 57.3699C27.3104 57.6857 27.2051 58.0015 27.1525 58.2121C27.0998 58.5279 26.9946 58.8437 26.9946 59.0543C26.9419 59.6859 26.9419 60.2123 27.0472 60.686C27.2051 61.1598 27.4157 61.4756 27.7315 61.7914C28.0473 62.0019 28.4158 62.2651 28.8369 62.3178C29.2053 62.3704 29.6791 62.4757 30.1002 62.4757C31.2055 62.4757 32.0477 62.1599 32.6794 61.6335C33.311 61.1071 33.6795 60.1596 33.8374 58.8963L35.9955 41.8945H39.4696L37.2588 58.8437Z" fill="#3B3B3B"/>
<path fill-rule="evenodd" clip-rule="evenodd" d="M46.7335 59.6859C46.6809 60.1596 46.5756 60.5281 46.5756 60.7913C46.523 61.0019 46.523 61.1071 46.4177 61.1071C45.6282 61.1071 44.8386 61.0545 44.1543 60.9492C43.47 60.8966 42.8384 60.6334 42.312 60.3176C41.7856 60.0017 41.3645 59.6333 41.0487 59.0543C40.8382 58.5279 40.7329 57.8962 40.8382 57.1593L42.7858 42.1577H46.2598L44.4701 56.0013C44.4175 56.3698 44.4175 56.7909 44.4701 57.1067C44.5228 57.4225 44.6807 57.6331 44.8386 57.791C44.9965 57.9489 45.2071 58.0015 45.4703 58.1068C45.6808 58.1594 45.9966 58.1594 46.2598 58.1594C46.4704 58.1594 46.6283 58.3174 46.6283 58.5279C46.8388 58.8437 46.8388 59.1069 46.7335 59.6859Z" fill="#3B3B3B"/>
<path fill-rule="evenodd" clip-rule="evenodd" d="M55.366 52.3172C54.8923 52.3172 54.5238 52.4751 54.1027 52.6857C53.7343 52.8962 53.4184 53.2121 53.1553 53.6858C52.8394 54.0543 52.6289 54.528 52.471 55.107C52.2604 55.6334 52.1025 56.2124 51.9972 56.8966C52.471 57.3704 52.8394 57.6862 53.2605 57.8968C53.629 58.1073 54.1027 58.2126 54.6817 58.2126C55.366 58.2126 55.9977 58.002 56.4714 57.423C56.9451 56.9493 57.261 56.265 57.3136 55.4754C57.4715 54.4753 57.3136 53.6858 56.9978 53.1068C56.6819 52.633 56.1556 52.3172 55.366 52.3172ZM46.4177 61.1076C46.0492 61.1076 45.7334 61.055 45.4702 60.7918C45.2597 60.5813 45.2597 60.2654 45.2597 59.7917C45.3123 59.318 45.4176 58.9495 45.6281 58.6863C45.7861 58.4758 45.9966 58.3179 46.3124 58.3179H46.9967C47.3125 58.3179 47.6284 58.2652 47.7863 58.16C47.9968 58.002 48.1547 57.8441 48.3126 57.6862C48.4705 57.4757 48.5232 57.2125 48.6285 57.0019C48.6811 56.6861 48.839 56.3703 48.9443 56.0018C49.1022 55.0543 49.418 54.2122 49.7865 53.4226C50.1549 52.633 50.6287 51.9487 51.2603 51.3697C51.7867 50.8434 52.5236 50.3696 53.2079 50.0538C53.9975 49.738 54.787 49.5801 55.6292 49.5801C56.5767 49.5801 57.4189 49.738 58.1032 50.0538C58.7874 50.3696 59.4191 50.7381 59.7875 51.3171C60.2613 51.8435 60.5771 52.4751 60.735 53.212C60.8929 53.8963 60.8929 54.6859 60.7877 55.5807C60.735 55.8965 60.735 56.2124 60.6297 56.5282C60.5771 56.844 60.4718 57.0546 60.4192 57.3704C60.5771 57.6862 60.8929 58.002 61.2614 58.16C61.6298 58.3705 62.1036 58.4758 62.5773 58.4758C62.7879 58.4758 62.9458 58.6337 62.9458 58.8442C62.9984 59.0548 62.9984 59.4759 62.9458 59.9496C62.8931 60.2654 62.8931 60.476 62.8931 60.7392C62.8931 60.8971 62.8405 61.055 62.8405 61.2129C62.8405 61.2655 62.7879 61.3708 62.7879 61.3708C62.7879 61.3708 62.7879 61.4235 62.7352 61.4235C62.4194 61.4235 62.2089 61.4234 61.7878 61.3708C61.4719 61.3182 61.1561 61.2129 60.7877 61.1603C60.4718 61.0024 60.156 60.8445 59.8402 60.6339C59.5244 60.4234 59.3138 60.1075 59.0506 59.7917C58.3663 60.4233 57.6294 60.8971 56.8925 61.2129C56.1029 61.5287 55.3134 61.5814 54.4712 61.5814C53.6816 61.5814 52.9973 61.5287 52.3657 61.2655C51.7341 61.055 51.1024 60.6339 50.5234 60.1075C50.0497 60.6339 49.5233 60.9497 49.0496 61.2129C48.5758 61.3708 47.9442 61.5287 47.102 61.5287H46.4177V61.1076Z" fill="#3B3B3B"/>
<path fill-rule="evenodd" clip-rule="evenodd" d="M62.6826 61.107C62.2089 61.107 61.893 61.0544 61.7351 60.7912C61.5772 60.5807 61.5246 60.2648 61.5246 59.7911C61.5772 59.3174 61.6825 58.9489 61.893 58.6857C62.0509 58.4752 62.2615 58.3173 62.5773 58.3173H64.8934C64.6828 57.8435 64.5249 57.3698 64.367 56.8434C64.3144 56.3697 64.2091 55.8433 64.3143 55.3696C64.4723 54.4221 64.6828 53.5799 65.1565 52.7904C65.6303 52.0008 66.1566 51.4744 66.7883 51.0007C67.4199 50.527 68.2095 50.1585 68.9464 49.8953C69.736 49.6848 70.5782 49.5269 71.4204 49.5269C72.052 49.5269 72.7363 49.5795 73.3679 49.6848C74.0522 49.7374 74.6312 49.8953 74.9997 50.0532L74.0522 52.7904C73.8417 52.7377 73.4206 52.6325 72.9468 52.5798C72.4731 52.5272 71.9467 52.5272 71.473 52.5272C71.1046 52.5272 70.7887 52.5798 70.315 52.6851C69.9465 52.7377 69.5254 52.8956 69.2096 53.1588C68.8411 53.3694 68.578 53.6852 68.2621 54.001C68.0516 54.3695 67.7884 54.8432 67.7884 55.4222C67.6305 56.3697 67.841 57.054 68.42 57.633C68.9464 58.1594 69.736 58.4226 70.8414 58.4226H74.3154L73.947 61.3176H62.63V61.107H62.6826Z" fill="#3B3B3B"/>
<path fill-rule="evenodd" clip-rule="evenodd" d="M81.6846 41.8948C81.5267 41.421 81.474 41.0526 81.474 40.6315C81.5267 39.8419 81.9478 39.2103 82.4741 38.7365C83.0005 38.2628 83.7901 38.0522 84.6323 38.0522C84.8428 38.0522 85.106 38.0522 85.3165 38.1049C85.5271 38.1049 85.8429 38.1575 86.1061 38.2628L85.5797 39.684C85.2639 39.5261 84.8954 39.5261 84.4744 39.5261C84.0006 39.5261 83.6322 39.5787 83.369 39.8419C83.1584 40.0525 83.0005 40.3156 82.8952 40.6841C82.79 41.0526 82.9479 41.3684 83.2111 41.6316C83.4216 41.8421 83.8427 41.9474 84.3164 41.9474H85.8956L85.7376 43.4212H80.5266L80.6845 41.9474H81.6846V41.8948ZM81.2109 45.0004H84.6849L83.1058 56.949H79.6317L81.2109 45.0004ZM89.1591 59.3703C88.6853 60.002 88.0537 60.3704 87.3694 60.6862C86.6851 60.8968 85.7903 61.0547 84.7902 61.0547H76.6314L76.9999 58.1597H83.6848C84.6849 58.1597 85.4745 57.9491 85.9482 57.4754C86.4219 57.0017 86.7378 56.2121 86.8957 55.0541L88.5274 42.1053H92.0015L90.3171 55.6857C90.2644 56.4753 90.3697 57.0017 90.8435 57.4754C91.3172 57.9491 91.9488 58.1597 92.8437 58.1597C93.0542 58.1597 93.3174 58.2123 93.37 58.4755C93.4227 58.686 93.4227 59.0019 93.4227 59.5809C93.37 60.2125 93.2648 60.581 93.2121 60.7389C93.1595 60.8968 93.0542 61.0547 93.0016 61.0547C92.6858 61.0547 92.3173 61.0547 91.8962 61.0021C91.4751 60.9494 91.1066 60.8442 90.7908 60.6862C90.475 60.5283 90.1592 60.3704 89.8434 60.1599C89.6328 60.002 89.3696 59.6861 89.1591 59.3703Z" fill="#3B3B3B"/>
<path fill-rule="evenodd" clip-rule="evenodd" d="M92.8964 58.2126C93.4227 58.2126 93.8965 58.16 94.2123 58.0547C94.5807 58.0021 94.8439 57.8442 95.0545 57.581C95.265 57.3704 95.4229 57.1073 95.5282 56.8967C95.5808 56.5809 95.6861 56.2651 95.7388 55.8966L97.4232 42.2109H100.897L99.1076 56.5282C99.0549 57.3178 98.7917 58.0021 98.5812 58.5811C98.3706 59.1075 97.9495 59.5812 97.4758 60.0023C97.0021 60.3708 96.3704 60.6866 95.6335 60.8445C94.8439 61.0024 94.0017 61.1603 92.8964 61.1603C92.5279 61.1603 92.2121 61.1077 91.9489 60.8445C91.7383 60.634 91.7383 60.3182 91.7383 59.8444C91.791 59.3707 91.8962 59.0022 92.1068 58.739C92.4226 58.3706 92.6332 58.2126 92.8964 58.2126Z" fill="#3B3B3B"/>
<path fill-rule="evenodd" clip-rule="evenodd" d="M115.951 67.5289C116.004 67.0025 116.267 66.5814 116.636 66.213C117.004 65.8971 117.478 65.6866 118.057 65.6866C118.583 65.6866 119.004 65.8445 119.32 66.213C119.636 66.5288 119.689 67.0025 119.636 67.5289C119.583 68.0553 119.32 68.529 118.952 68.8448C118.583 69.1607 118.11 69.3712 117.636 69.3712C117.109 69.3712 116.688 69.2133 116.373 68.8448C116.004 68.4764 115.846 68.1079 115.951 67.5289ZM111.425 67.5289C111.477 67.0025 111.741 66.5814 112.109 66.213C112.477 65.8971 112.951 65.6866 113.53 65.6866C114.057 65.6866 114.478 65.8445 114.793 66.213C115.109 66.5288 115.162 67.0025 115.109 67.5289C115.057 68.0553 114.793 68.529 114.425 68.8448C114.057 69.1607 113.583 69.3712 113.109 69.3712C112.583 69.3712 112.162 69.2133 111.846 68.8448C111.53 68.4764 111.372 68.1079 111.425 67.5289ZM111.846 57.1067C111.688 58.2648 112.056 59.2122 112.951 59.7912C113.793 60.4229 115.109 60.6334 117.004 60.6334C117.846 60.6334 118.636 60.5808 119.32 60.4755C120.005 60.3702 120.584 60.265 121.11 60.1071C121.584 59.9492 121.952 59.7386 122.268 59.4754C122.479 59.2649 122.636 59.0017 122.742 58.8438C122.742 58.5279 122.584 58.2121 122.11 57.8436C121.636 57.4752 120.952 57.0541 120.005 56.5277C119.004 56.0013 118.215 55.3697 117.741 54.7381C117.267 54.1064 117.11 53.2642 117.215 52.3168C117.267 51.6851 117.531 51.0535 117.846 50.4218C118.162 49.8954 118.636 49.3164 119.162 48.8427C119.689 48.369 120.426 48.0531 121.163 47.8426C121.952 47.632 122.847 47.4741 123.794 47.4741C124.005 47.4741 124.268 47.4741 124.479 47.4741C124.689 47.4741 125.005 47.5268 125.321 47.5268C125.637 47.5794 125.847 47.5794 126.163 47.6847C126.374 47.7373 126.637 47.8426 126.847 47.8952L125.9 50.4744C125.689 50.4218 125.374 50.3165 124.952 50.2639C124.584 50.2113 124.11 50.2113 123.689 50.2113C123.373 50.2113 123.058 50.2113 122.742 50.2639C122.426 50.3165 122.057 50.4218 121.742 50.5797C121.426 50.7376 121.11 50.8955 120.952 51.1061C120.741 51.3166 120.636 51.6325 120.584 51.9483C120.584 52.1588 120.584 52.422 120.741 52.6326C120.899 52.8431 121.057 53.1063 121.268 53.3169C121.478 53.5274 121.794 53.7906 122.11 53.9485C122.426 54.1591 122.742 54.317 123.11 54.4749C123.584 54.6854 123.952 55.0013 124.373 55.2644C124.742 55.475 125.058 55.7908 125.374 56.1066C125.584 56.4224 125.847 56.7383 126.005 57.1067C126.163 57.4752 126.163 57.8963 126.163 58.37C126.11 59.1596 125.795 59.7912 125.321 60.4229C124.847 61.0545 124.216 61.5809 123.479 62.002C122.689 62.4757 121.689 62.7916 120.584 63.0021C119.478 63.2127 118.162 63.3706 116.794 63.3706C115.32 63.3706 114.057 63.3179 113.004 63.0547C111.898 62.8442 111.004 62.4231 110.214 61.9494C109.424 61.423 108.951 60.7913 108.582 60.0018C108.266 59.2122 108.214 58.2121 108.372 57.1067C108.424 56.4751 108.688 55.7908 109.003 54.8433C109.319 54.0012 109.793 53.0537 110.425 52.1062L113.372 53.2642C113.056 53.8959 112.741 54.5275 112.425 55.2118C112.056 56.0013 111.846 56.5277 111.846 57.1067Z" fill="#3B3B3B"/>
<path fill-rule="evenodd" clip-rule="evenodd" d="M132.637 58.2127C133.48 58.2127 134.111 58.0548 134.48 57.6863C134.953 57.3705 135.164 56.7388 135.322 55.7914L135.375 55.1597C135.427 54.3175 135.322 53.5806 134.743 53.2121C134.217 52.7384 133.427 52.5279 132.322 52.5279H129.9L130.269 49.6328H133.374C134.48 49.6328 135.322 49.7907 136.111 50.0013C136.901 50.2118 137.427 50.6329 137.901 51.0014C138.375 51.4751 138.691 51.9489 138.849 52.5805C139.007 53.2121 139.059 53.8438 139.007 54.5281L138.796 56.2651C138.585 58.0021 138.112 59.2654 137.322 59.9497C136.533 60.7393 135.322 61.1077 133.69 61.1077H127.374L127.742 58.2127H132.637Z" fill="#3B3B3B"/>
<path fill-rule="evenodd" clip-rule="evenodd" d="M145.06 55.2649C144.902 56.2124 145.06 57.0019 145.428 57.4757C145.797 57.9494 146.428 58.16 147.376 58.16H149.376L149.745 55.1596C149.797 54.7912 149.797 54.3701 149.745 54.0543C149.745 53.7384 149.587 53.4226 149.534 53.1068C149.376 52.7909 149.218 52.633 148.902 52.4751C148.692 52.3172 148.271 52.2646 147.955 52.2646C147.639 52.2646 147.323 52.3172 147.007 52.4225C146.692 52.4751 146.376 52.7383 146.165 52.9489C145.955 53.1594 145.692 53.4752 145.481 53.8963C145.218 54.3174 145.06 54.7385 145.06 55.2649ZM145.534 62.7394C146.06 62.7394 146.481 62.7394 146.955 62.6867C147.323 62.6341 147.744 62.5289 147.955 62.4762C148.271 62.3183 148.481 62.1604 148.639 61.9498C148.797 61.7393 148.85 61.4235 148.955 61.1076H146.534C145.692 61.1076 144.902 61.055 144.27 60.7918C143.586 60.5813 143.007 60.2655 142.586 59.8444C142.112 59.3706 141.796 58.8442 141.586 58.1073C141.375 57.423 141.375 56.6335 141.428 55.686C141.481 54.8964 141.744 54.1069 142.112 53.3173C142.428 52.5278 142.902 51.8961 143.533 51.2645C144.165 50.6328 144.849 50.2644 145.639 49.8433C146.428 49.5274 147.323 49.3169 148.376 49.3169C149.166 49.3169 149.85 49.4748 150.482 49.6854C151.113 49.8959 151.745 50.317 152.166 50.6855C152.64 51.1592 152.955 51.6856 153.166 52.4225C153.377 53.1068 153.377 53.8963 153.324 54.8438L152.955 58.0547H154.798C155.008 58.0547 155.166 58.1073 155.272 58.3705C155.324 58.581 155.324 59.0022 155.324 59.4759C155.272 60.0023 155.166 60.4234 155.114 60.6339C155.061 60.7918 154.956 60.8444 154.903 60.8444H152.587C152.376 61.634 152.061 62.3183 151.64 62.9499C151.271 63.4763 150.692 63.95 150.06 64.3711C149.429 64.7396 148.744 65.0028 147.955 65.1607C147.165 65.3186 146.323 65.3713 145.376 65.3713C144.849 65.3713 144.27 65.3712 143.744 65.3186C143.218 65.266 142.639 65.1607 142.165 65.0028L143.007 62.2657C143.376 62.3183 143.797 62.4236 144.27 62.4762C144.586 62.7394 145.06 62.7394 145.534 62.7394Z" fill="#3B3B3B"/>
<path fill-rule="evenodd" clip-rule="evenodd" d="M162.377 52.3166C162.062 52.3166 161.746 52.3166 161.43 52.3693C161.114 52.4219 160.798 52.4219 160.588 52.5272C160.272 52.5798 160.061 52.6851 159.798 52.7377C159.588 52.7904 159.43 52.8956 159.324 52.9483C159.956 53.4746 160.588 54.1063 160.956 54.7379C161.43 55.3696 161.798 55.8959 162.114 56.5276C162.325 56.3697 162.641 56.2118 162.956 56.0012C163.272 55.7907 163.483 55.5275 163.746 55.3169C163.957 55.1064 164.22 54.8432 164.272 54.5274C164.43 54.3168 164.483 54.001 164.588 53.6852C164.588 53.5273 164.588 53.3694 164.536 53.2115C164.483 53.0535 164.378 52.8956 164.167 52.7377C164.009 52.5798 163.799 52.5272 163.483 52.4219C163.167 52.3166 162.851 52.3166 162.377 52.3166ZM154.798 61.107C154.324 61.107 154.008 60.9491 153.85 60.7386C153.692 60.528 153.64 60.2122 153.64 59.7385C153.692 59.2648 153.798 58.8963 154.008 58.6331C154.166 58.4225 154.377 58.2646 154.692 58.2646H157.43C157.903 58.2646 158.377 58.2646 158.745 58.212C159.114 58.1594 159.43 58.0541 159.693 58.0015C159.324 57.633 159.009 57.2119 158.745 56.8961C158.43 56.5802 158.219 56.2644 157.903 56.0539C157.693 55.8433 157.377 55.5275 157.061 55.2643C156.745 55.0538 156.377 54.7379 155.903 54.4748C155.903 54.3169 155.956 54.1063 156.061 53.7905C156.114 53.4747 156.219 53.1588 156.272 52.843C156.324 52.5272 156.429 52.2114 156.587 52.0008C156.64 51.7903 156.745 51.5271 156.798 51.3692C157.114 51.2112 157.482 51.0007 157.956 50.8428C158.43 50.6849 158.903 50.4743 159.43 50.3164C159.956 50.1585 160.535 50.0006 161.061 49.948C161.588 49.8953 162.167 49.79 162.693 49.79C163.535 49.79 164.272 49.8427 164.957 50.0006C165.641 50.1585 166.273 50.3691 166.746 50.7902C167.22 51.106 167.589 51.4744 167.904 52.0534C168.115 52.5272 168.22 53.1588 168.115 53.7905C168.062 54.2642 167.904 54.6327 167.746 55.1064C167.536 55.5802 167.22 55.9486 166.904 56.3697C166.588 56.7382 166.115 57.1593 165.746 57.5277C165.272 57.8962 164.799 58.212 164.272 58.4752C164.483 58.5278 164.746 58.5278 165.115 58.6331C165.483 58.6331 165.799 58.6331 166.062 58.6331H168.641C168.852 58.6331 169.01 58.6857 169.115 58.9489C169.168 59.1595 169.168 59.5806 169.168 60.0543C169.115 60.6859 169.01 61.0544 168.957 61.2123C168.904 61.3702 168.799 61.4229 168.747 61.4229H165.167C164.22 61.4229 163.535 61.3702 162.851 61.107C162.22 60.9491 161.693 60.7386 161.377 60.4228C160.746 60.7386 159.956 60.9491 159.219 61.107C158.43 61.265 157.587 61.4229 156.798 61.4229H154.85V61.107H154.798Z" fill="#3B3B3B"/>
<path fill-rule="evenodd" clip-rule="evenodd" d="M177.221 61.1077C176.379 61.1077 175.642 60.9498 175.063 60.7393C174.431 60.4234 174.063 60.055 173.8 59.5813C173.326 60.1076 172.694 60.5287 171.852 60.7393C171.01 60.9498 170.01 61.1077 168.694 61.1077C168.326 61.1077 168.01 61.0551 167.747 60.7919C167.536 60.5814 167.536 60.2655 167.536 59.7918C167.589 59.3181 167.694 58.9496 167.904 58.6864C168.115 58.4759 168.273 58.318 168.589 58.318C169.536 58.318 170.221 58.16 170.694 57.8442C171.168 57.5284 171.379 56.8967 171.536 55.9493L172.063 51.9488H175.537L175.01 56.2651C175.01 56.5809 174.958 56.7915 175.01 57.0546C175.01 57.2652 175.063 57.5284 175.221 57.6863C175.274 57.8442 175.537 58.0021 175.747 58.16C175.958 58.2127 176.274 58.318 176.695 58.318C177.327 58.318 177.695 58.16 178.011 57.8442C178.327 57.5284 178.537 56.8968 178.642 55.8967L179.169 51.8962H182.643L182.117 56.2125C182.117 56.5283 182.064 56.7388 182.117 57.002C182.117 57.2126 182.169 57.4758 182.274 57.6337C182.327 57.7916 182.59 57.9495 182.801 58.1074C183.011 58.16 183.327 58.2653 183.748 58.2653C184.38 58.2653 184.854 58.1074 185.064 57.7916C185.38 57.4758 185.538 56.8441 185.696 55.8967L186.485 49.6328H189.959L189.17 55.7914C189.117 56.4757 189.223 57.1073 189.696 57.581C190.17 58.0548 190.802 58.2653 191.696 58.2653C191.907 58.2653 192.17 58.318 192.223 58.5811C192.275 58.7917 192.275 59.1075 192.275 59.6865C192.223 60.3182 192.118 60.6866 192.065 60.8445C192.012 61.0024 191.907 61.1604 191.854 61.1604C191.539 61.1604 191.17 61.1604 190.854 61.1077C190.486 61.0551 190.17 60.9498 189.749 60.8972C189.38 60.7393 189.065 60.5814 188.749 60.3708C188.433 60.1603 188.222 59.8971 188.065 59.5813C187.591 60.1076 187.117 60.5287 186.485 60.8445C185.854 61.0551 185.169 61.213 184.38 61.213C183.538 61.213 182.801 61.0551 182.222 60.8445C181.695 60.5287 181.222 60.1602 181.064 59.6865C180.011 60.5287 178.8 61.1077 177.221 61.1077Z" fill="#3B3B3B"/>
<path fill-rule="evenodd" clip-rule="evenodd" d="M191.696 58.2126C192.223 58.2126 192.697 58.16 193.012 58.0547C193.381 58.0021 193.644 57.8442 193.855 57.581C194.065 57.3704 194.223 57.1073 194.328 56.8967C194.381 56.5809 194.486 56.2651 194.539 55.8966L196.223 42.2109H199.697L197.908 56.5282C197.855 57.3178 197.592 58.0021 197.381 58.5811C197.171 59.1075 196.75 59.5812 196.276 60.0023C195.802 60.3708 195.17 60.6866 194.434 60.8445C193.644 61.0024 192.802 61.1603 191.696 61.1603C191.328 61.1603 190.907 61.1077 190.749 60.8445C190.538 60.634 190.538 60.3182 190.538 59.8444C190.591 59.3707 190.696 59.0022 190.907 58.739C191.117 58.3706 191.381 58.2126 191.696 58.2126Z" fill="#3B3B3B"/>
<path fill-rule="evenodd" clip-rule="evenodd" d="M206.698 42.1577L204.277 61.1071H200.803L203.224 42.1577H206.698Z" fill="#3B3B3B"/>
<path fill-rule="evenodd" clip-rule="evenodd" d="M217.541 45.2114C217.594 44.6851 217.857 44.264 218.226 43.8955C218.594 43.5797 219.068 43.3691 219.647 43.3691C220.226 43.3691 220.594 43.5271 220.91 43.8955C221.226 44.2113 221.278 44.6851 221.226 45.2114C221.173 45.7378 220.91 46.2116 220.542 46.5274C220.173 46.8432 219.699 47.0537 219.226 47.0537C218.699 47.0537 218.278 46.8958 217.962 46.5274C217.647 46.1589 217.489 45.6852 217.541 45.2114ZM213.962 65.582C213.436 65.582 212.962 65.582 212.541 65.5294C212.12 65.4768 211.751 65.3715 211.541 65.3188L212.33 62.5817C212.541 62.5817 212.699 62.6344 212.857 62.6344C213.014 62.6344 213.225 62.687 213.383 62.687C214.015 62.687 214.541 62.5291 214.857 62.1606C215.173 61.7922 215.383 61.1605 215.488 60.371L216.804 49.6856H220.278L219.173 58.3181H221.331C221.542 58.3181 221.7 58.3707 221.858 58.6339C221.91 58.8445 221.91 59.2656 221.91 59.7393C221.857 60.2657 221.752 60.6868 221.7 60.8447C221.647 61.0026 221.542 61.1605 221.489 61.1605H218.91C218.752 62.108 218.541 62.7923 218.226 63.4239C217.91 63.9503 217.541 64.424 217.067 64.8451C216.594 65.161 216.12 65.3715 215.594 65.5294C215.067 65.4768 214.541 65.582 213.962 65.582Z" fill="#3B3B3B"/>
<path fill-rule="evenodd" clip-rule="evenodd" d="M221.594 61.1075C221.226 61.1075 220.91 61.0549 220.647 60.7917C220.436 60.5811 220.331 60.2653 220.436 59.7916C220.489 59.3178 220.594 58.9494 220.805 58.6862C220.963 58.4756 221.173 58.3177 221.489 58.3177H228.964C229.806 58.3177 230.543 58.1598 230.911 57.7913C231.28 57.4229 231.595 56.7912 231.701 56.0017L231.753 55.3174C231.964 53.5277 231.069 52.6329 228.964 52.6329H223.437L223.805 49.7379L231.648 42.3687L233.754 44.5794L228.174 49.7905H230.174C231.174 49.7905 232.016 49.9484 232.753 50.159C233.438 50.3695 234.017 50.7906 234.385 51.1591C234.754 51.6328 235.069 52.1065 235.227 52.7382C235.385 53.3698 235.385 54.0015 235.28 54.6857L235.069 56.4228C234.859 58.1598 234.385 59.4231 233.49 60.2126C232.648 61.0022 231.49 61.318 229.858 61.318H221.542V61.1075H221.594Z" fill="#3B3B3B"/>
<path fill-rule="evenodd" clip-rule="evenodd" d="M237.228 65.5815C236.701 65.5815 236.227 65.5815 235.806 65.5289C235.385 65.4762 235.017 65.3709 234.806 65.3183L235.596 62.5812C235.806 62.5812 235.964 62.6338 236.122 62.6338C236.28 62.6338 236.491 62.6864 236.649 62.6864C237.28 62.6864 237.807 62.5285 238.122 62.1601C238.438 61.7916 238.649 61.16 238.754 60.3704L240.175 49.6851H243.649L242.544 58.3176H244.702C244.913 58.3176 245.07 58.3702 245.176 58.6334C245.228 58.8439 245.228 59.265 245.228 59.7388C245.176 60.2651 245.07 60.6862 245.018 60.8441C244.965 61.002 244.86 61.16 244.807 61.16H242.228C242.07 62.1075 241.86 62.7917 241.544 63.4234C241.228 63.9497 240.859 64.4235 240.386 64.8446C239.912 65.1604 239.438 65.371 238.912 65.5289C238.28 65.4762 237.754 65.5815 237.228 65.5815Z" fill="#3B3B3B"/>
<path fill-rule="evenodd" clip-rule="evenodd" d="M253.756 52.3172C253.282 52.3172 252.913 52.4751 252.492 52.6857C252.124 52.8962 251.808 53.2121 251.545 53.6858C251.229 54.0543 251.019 54.528 250.861 55.107C250.65 55.6334 250.492 56.2124 250.387 56.8966C250.861 57.3704 251.229 57.6862 251.65 57.8968C252.019 58.1073 252.492 58.2126 253.071 58.2126C253.756 58.2126 254.387 58.002 254.861 57.423C255.335 56.9493 255.651 56.265 255.703 55.4754C255.861 54.4753 255.703 53.6858 255.387 53.1068C255.072 52.633 254.545 52.3172 253.756 52.3172ZM244.807 61.1076C244.439 61.1076 244.018 61.055 243.86 60.7918C243.649 60.5813 243.649 60.2654 243.649 59.7917C243.702 59.318 243.807 58.9495 244.018 58.6863C244.176 58.4758 244.386 58.3179 244.702 58.3179H245.386C245.702 58.3179 246.018 58.2652 246.176 58.16C246.386 58.002 246.544 57.8441 246.702 57.6862C246.86 57.4757 246.913 57.2125 247.018 57.0019C247.071 56.6861 247.229 56.3703 247.334 56.0018C247.492 55.0543 247.808 54.2122 248.176 53.4226C248.545 52.633 249.018 51.9487 249.65 51.3697C250.176 50.8434 250.913 50.3696 251.598 50.0538C252.387 49.738 253.177 49.5801 254.019 49.5801C254.966 49.5801 255.809 49.738 256.493 50.0538C257.177 50.3696 257.809 50.7381 258.177 51.3171C258.651 51.8435 258.967 52.4751 259.125 53.212C259.283 53.8963 259.283 54.6859 259.177 55.5807C259.125 55.8965 259.125 56.2124 259.019 56.5282C258.967 56.844 258.861 57.0546 258.809 57.3704C258.967 57.6862 259.283 58.002 259.651 58.16C260.02 58.3705 260.493 58.4758 260.967 58.4758C261.178 58.4758 261.335 58.6337 261.335 58.8442C261.388 59.0548 261.388 59.4759 261.335 59.9496C261.283 60.2654 261.283 60.476 261.283 60.7392C261.283 60.8971 261.23 61.055 261.23 61.2129C261.23 61.2655 261.178 61.3708 261.178 61.3708C261.178 61.3708 261.178 61.4235 261.125 61.4235C260.809 61.4235 260.599 61.4234 260.177 61.3708C259.862 61.3182 259.546 61.2129 259.177 61.1603C258.862 61.0024 258.546 60.8445 258.23 60.6339C257.914 60.4234 257.703 60.1075 257.44 59.7917C256.756 60.4233 256.019 60.8971 255.282 61.2129C254.493 61.5287 253.703 61.5814 252.861 61.5814C252.071 61.5814 251.387 61.5287 250.755 61.2655C250.124 61.055 249.492 60.6339 248.913 60.1075C248.439 60.6339 247.913 60.9497 247.439 61.2129C246.966 61.3708 246.334 61.5287 245.492 61.5287H244.807V61.1076Z" fill="#3B3B3B"/>
<path fill-rule="evenodd" clip-rule="evenodd" d="M260.967 58.2126C261.493 58.2126 261.914 58.16 262.283 58.0547C262.651 58.0021 262.915 57.8442 263.125 57.581C263.336 57.3704 263.494 57.1073 263.599 56.8967C263.651 56.5809 263.757 56.2651 263.809 55.8966L265.494 42.2109H268.968L267.178 56.5282C267.126 57.3178 266.862 58.0021 266.652 58.5811C266.441 59.1075 266.02 59.5812 265.546 60.0023C265.073 60.3708 264.441 60.6866 263.704 60.8445C262.915 61.0024 262.072 61.1603 260.967 61.1603C260.599 61.1603 260.177 61.1077 260.02 60.8445C259.809 60.634 259.809 60.3182 259.809 59.8444C259.862 59.3707 259.967 59.0022 260.177 58.739C260.493 58.3706 260.756 58.2126 260.967 58.2126Z" fill="#3B3B3B"/>
<path fill-rule="evenodd" clip-rule="evenodd" d="M275.969 42.1577L273.547 61.1071H270.073L272.495 42.1577H275.969Z" fill="#3B3B3B"/>
<path fill-rule="evenodd" clip-rule="evenodd" d="M12.8878 76.8984C12.2561 76.6878 11.6245 76.5299 11.0455 76.372C10.4138 76.3194 9.72955 76.2141 9.09791 76.2141C8.72945 76.2141 8.30835 76.2141 7.99253 76.2667C7.62407 76.3193 7.30824 76.4246 6.99242 76.5826C6.67659 76.7405 6.46604 76.951 6.30813 77.2142C6.09758 77.4248 5.99231 77.7406 5.93967 78.1617C5.88704 78.4775 5.93968 78.7933 5.99231 79.0039C6.04495 79.2144 6.30814 79.4776 6.51869 79.6881C6.72923 79.8987 7.04505 80.1619 7.51879 80.3198C7.88725 80.5303 8.36099 80.7935 8.99263 81.0041C9.67692 81.3199 10.3086 81.6357 10.9402 81.9516C11.4666 82.2674 12.0456 82.6358 12.4141 83.1095C12.7825 83.5833 13.0983 84.057 13.2563 84.5834C13.4142 85.1098 13.4668 85.8467 13.3089 86.6362C13.2562 87.5837 12.9404 88.3733 12.4667 89.0576C11.993 89.7419 11.4666 90.3209 10.7823 90.7946C10.098 91.2683 9.30846 91.5841 8.5189 91.7947C7.67671 92.0052 6.83451 92.1105 5.93967 92.1105C5.09748 92.1105 4.25528 92.0579 3.30781 91.9C2.36034 91.7421 1.46551 91.5315 0.570679 91.2157L1.67606 88.1627C2.46562 88.4786 3.30781 88.7944 4.09737 88.9523C4.88693 89.1102 5.67649 89.1628 6.2555 89.1628C7.25561 89.1628 8.04516 89.0049 8.67681 88.6365C9.20318 88.3206 9.62428 87.7943 9.67692 87.0573C9.72956 86.7415 9.67692 86.4257 9.62428 86.1099C9.57164 85.8993 9.30845 85.5835 9.09791 85.3203C8.88736 85.1098 8.46626 84.8466 8.0978 84.636C7.72934 84.4255 7.15033 84.1623 6.62396 83.9518C5.93967 83.6359 5.30803 83.3201 4.78166 83.0043C4.25528 82.6885 3.78155 82.32 3.36045 81.8463C2.99199 81.3725 2.67617 80.8988 2.51825 80.3724C2.36034 79.8461 2.30771 79.2144 2.46562 78.4775C2.62353 77.53 2.83408 76.7405 3.30781 76.0562C3.78155 75.3719 4.30792 74.7929 4.9922 74.4244C5.67649 74.0559 6.41341 73.7401 7.15033 73.4769C7.93989 73.319 8.72944 73.1611 9.46636 73.1611C10.3086 73.1611 11.1508 73.2138 12.0456 73.319C12.8352 73.3717 13.6247 73.6349 14.2037 73.7928L12.8878 76.8984Z" fill="#3B3B3B"/>
<path fill-rule="evenodd" clip-rule="evenodd" d="M23.5205 85.6893C22.8889 85.6893 22.3625 85.6893 21.8361 85.742C21.3097 85.7946 20.836 85.8999 20.3623 86.0578C19.8885 86.2157 19.5727 86.4263 19.2569 86.7421C19.0463 87.0579 18.7832 87.3737 18.7832 87.8474C18.7305 88.3738 18.8358 88.8476 19.1516 89.1634C19.4674 89.4792 19.9412 89.6371 20.5728 89.6371C21.0992 89.6371 21.5203 89.5845 21.994 89.4266C22.3625 89.2687 22.7836 89.0581 22.9941 88.7423C23.31 88.4265 23.5205 88.1107 23.6784 87.7422C23.8363 87.3737 23.889 87.0579 23.9942 86.6368L24.1521 85.6893H23.5205ZM24.3627 83.1101C24.4153 82.4258 24.3101 81.8468 23.8363 81.4784C23.3626 81.1099 22.6783 80.8467 21.6782 80.8467C21.2045 80.8467 20.6781 80.8993 20.0464 81.0046C19.4148 81.1099 18.7832 81.3204 18.0989 81.531L17.783 78.9518C18.4147 78.7412 19.099 78.5833 19.9412 78.4254C20.7834 78.2675 21.5729 78.2148 22.2572 78.2148C24.4153 78.2148 25.9945 78.6886 26.9419 79.5308C27.8894 80.4782 28.2052 81.7415 27.942 83.3733L27.2577 89.0581C27.2051 89.5319 27.2051 90.0582 27.0998 90.6372C27.0472 91.1636 27.0472 91.7426 27.0998 92.1111H23.8363C23.7837 91.9005 23.7837 91.6373 23.7837 91.2689C23.7837 90.953 23.7837 90.6372 23.7837 90.4267H23.731C23.3626 91.0583 22.7309 91.5321 22.0467 91.8479C21.3624 92.2164 20.4675 92.3743 19.6253 92.3743C18.9937 92.3743 18.4673 92.3216 17.941 92.1637C17.4146 92.0058 16.8356 91.7953 16.4671 91.4794C15.9934 91.1636 15.6776 90.6899 15.5196 90.1635C15.3091 89.6371 15.3091 89.0055 15.3617 88.2159C15.5196 87.2684 15.8355 86.4263 16.3092 85.7946C16.8356 85.163 17.4672 84.6892 18.3094 84.3734C19.1516 84.0576 20.0991 83.847 21.2045 83.6891C22.3098 83.5312 23.3626 83.5312 24.468 83.5312V83.1101H24.3627Z" fill="#3B3B3B"/>
<path fill-rule="evenodd" clip-rule="evenodd" d="M39.3643 92.0055L39.5748 90.2158H39.5222C39.0485 90.9001 38.5221 91.3738 37.6799 91.7949C36.8903 92.1634 36.0481 92.3213 35.2059 92.3213C34.4164 92.3213 33.7321 92.1634 33.2057 91.9529C32.5741 91.7423 32.1003 91.4265 31.7319 90.9528C31.3634 90.5843 31.1002 90.0053 30.9423 89.3736C30.7844 88.742 30.7844 88.1103 30.8897 87.3208L32.0477 78.3724H35.6797L34.7322 86.0048C34.6796 86.5312 34.6796 87.005 34.6796 87.4787C34.6796 87.8472 34.7322 88.2683 34.8901 88.5841C35.048 88.8999 35.2586 89.1104 35.5744 89.2684C35.8902 89.4263 36.2587 89.4789 36.7324 89.4789C37.1009 89.4789 37.4167 89.4263 37.8378 89.2684C38.2063 89.1104 38.5221 88.9525 38.8379 88.6367C39.1537 88.3209 39.3643 87.9524 39.6275 87.4787C39.838 87.005 39.9959 86.3733 40.1012 85.689L41.0487 78.3198H44.6806L42.9962 91.9002H39.4169V92.0055H39.3643Z" fill="#3B3B3B"/>
<path fill-rule="evenodd" clip-rule="evenodd" d="M50.3128 85.1627C50.2602 85.7944 50.2602 86.3207 50.2602 86.8997C50.3128 87.4261 50.4181 87.8998 50.6287 88.3209C50.8392 88.6894 51.1024 89.0052 51.4709 89.2684C51.8393 89.479 52.2604 89.5842 52.7868 89.5842C53.3132 89.5842 53.7869 89.5316 54.2606 89.2684C54.7344 89.0052 55.1028 88.742 55.4186 88.3209C55.7345 87.9525 56.0503 87.4787 56.2608 86.8997C56.4714 86.3734 56.6293 85.7944 56.7346 85.1627C56.7872 84.5311 56.7872 84.0047 56.7346 83.4257C56.6819 82.8993 56.524 82.4256 56.2608 82.0045C56.0503 81.636 55.7345 81.3202 55.3134 81.1623C54.9449 81.0044 54.4712 80.8465 53.9974 80.8465C53.4711 80.8465 52.9973 80.8991 52.5762 81.1623C52.1025 81.3728 51.7867 81.6887 51.4709 82.1098C51.155 82.4782 50.9445 82.952 50.7866 83.531C50.5234 84.0047 50.3655 84.5311 50.3128 85.1627ZM58.1031 73.0562H61.7351L59.3138 92.0055H55.7345L55.945 90.2685H55.8924C55.2607 90.9528 54.5765 91.5318 53.7869 91.8476C52.9973 92.1635 52.2078 92.3214 51.4709 92.3214C50.5234 92.3214 49.7865 92.1634 49.0495 91.795C48.3653 91.4265 47.8915 90.9528 47.4704 90.3211C47.102 89.6895 46.7861 88.9 46.6809 88.0578C46.523 87.2156 46.523 86.2681 46.6809 85.3206C46.8388 84.3205 47.0493 83.3731 47.4704 82.4782C47.8389 81.636 48.3126 80.8464 48.8916 80.2148C49.418 79.5832 50.1549 79.1094 50.8918 78.741C51.6814 78.3725 52.5236 78.2146 53.4711 78.2146C54.2606 78.2146 54.9449 78.3725 55.6292 78.5831C56.3135 78.8989 56.7872 79.3726 57.2609 80.0043H57.3136L58.1031 73.0562Z" fill="#3B3B3B"/>
<path fill-rule="evenodd" clip-rule="evenodd" d="M68.8938 73.1084L68.5253 76.2666H64.8933L65.2618 73.1084H68.8938ZM68.1568 78.3195L66.4725 91.8999H62.8405L64.5249 78.3195H68.1568Z" fill="#3B3B3B"/>
<path fill-rule="evenodd" clip-rule="evenodd" d="M81.9478 81.0564H84.5796C85.5797 81.0564 86.3693 80.8985 87.0009 80.53C87.5273 80.1616 87.9484 79.5826 88.001 78.7404C88.0537 78.2666 88.001 77.9508 87.9484 77.635C87.7905 77.3192 87.6326 77.1613 87.422 77.0033C87.2115 76.8454 86.8957 76.7928 86.5798 76.6875C86.264 76.6349 85.8955 76.6349 85.4744 76.6349H82.6847L81.9478 81.0564ZM80.895 88.952H83.948C84.4217 88.952 84.8954 88.952 85.2639 88.8993C85.6324 88.8467 86.0535 88.7415 86.3693 88.5309C86.6851 88.373 86.8957 88.1624 87.1588 87.7413C87.3168 87.4255 87.4747 87.0571 87.5273 86.5833C87.5799 86.1096 87.5273 85.7411 87.3694 85.4253C87.2115 85.1095 87.0009 84.8989 86.7378 84.6357C86.4219 84.4778 86.1061 84.3199 85.6324 84.2673C85.1586 84.2146 84.6849 84.2146 84.1585 84.2146H81.5793L80.895 88.952ZM79.2106 73.5293H86.843C87.6326 73.5293 88.4221 73.5819 89.0011 73.7398C89.6328 73.8977 90.2644 74.2136 90.6329 74.5294C91.1066 74.8978 91.4225 75.3716 91.633 75.9506C91.8436 76.477 91.8435 77.2139 91.7909 78.0561C91.633 79.2141 91.2646 80.1616 90.6329 80.7932C90.0013 81.4249 89.2117 81.8986 88.3695 82.2144V82.2671C88.8432 82.425 89.2117 82.5829 89.6328 82.7934C90.0013 83.004 90.3171 83.2672 90.5803 83.6356C90.7908 83.9514 91.054 84.4252 91.1066 84.8989C91.1593 85.3727 91.2646 86.0043 91.1593 86.6359C91.1066 87.3202 90.8434 87.9519 90.5276 88.5835C90.2118 89.2152 89.8433 89.7415 89.2643 90.2153C88.738 90.689 88.001 91.0575 87.3167 91.3207C86.5272 91.5312 85.685 91.6891 84.5796 91.6891H76.7893L79.2106 73.5293Z" fill="#3B3B3B"/>
<path fill-rule="evenodd" clip-rule="evenodd" d="M102.424 92.0055L102.634 90.2158H102.582C102.108 90.9001 101.581 91.3738 100.739 91.7949C99.9497 92.1634 99.1075 92.3213 98.2653 92.3213C97.4757 92.3213 96.7914 92.1634 96.2651 91.9529C95.6334 91.7423 95.1597 91.4265 94.7912 90.9528C94.4228 90.5843 94.1596 90.0053 94.0017 89.3736C93.8438 88.742 93.8438 88.1103 93.949 87.3208L95.1071 78.3724H98.739L97.7916 86.0048C97.7389 86.5312 97.7389 87.005 97.7389 87.4787C97.7389 87.8472 97.7916 88.2683 97.9495 88.5841C98.1074 88.8999 98.3179 89.1104 98.6337 89.2684C98.9496 89.4263 99.318 89.4789 99.7918 89.4789C100.16 89.4789 100.476 89.4263 100.897 89.2684C101.318 89.1104 101.581 88.9525 101.897 88.6367C102.213 88.3209 102.424 87.9524 102.687 87.4787C102.897 87.005 103.055 86.3733 103.161 85.689L104.108 78.3198H107.74L106.056 91.9002H102.424V92.0055Z" fill="#3B3B3B"/>
<path fill-rule="evenodd" clip-rule="evenodd" d="M119.057 81.5306C118.373 81.32 117.741 81.0568 117.215 81.0042C116.583 80.9516 116.057 80.8463 115.53 80.8463C115.004 80.8463 114.583 80.8989 114.214 81.0569C113.899 81.2148 113.688 81.5306 113.583 81.899C113.53 82.2675 113.635 82.5833 113.951 82.8465C114.267 83.0571 114.899 83.3729 115.794 83.6361C116.478 83.8466 117.109 84.1098 117.583 84.3204C118.11 84.5309 118.531 84.8467 118.899 85.2678C119.215 85.5837 119.531 86.0574 119.583 86.4259C119.741 86.8996 119.741 87.3733 119.636 88.005C119.583 88.7945 119.32 89.4262 118.847 89.9525C118.478 90.4789 118.004 90.9 117.373 91.2158C116.846 91.5317 116.215 91.7422 115.53 91.9001C114.846 92.058 114.109 92.1107 113.53 92.1107C112.688 92.1107 111.846 92.058 110.951 91.9001C110.109 91.7422 109.319 91.5317 108.635 91.2158L109.74 88.4787C110.425 88.7945 111.214 89.0051 111.898 89.163C112.688 89.3209 113.32 89.3735 113.846 89.3735C114.53 89.3735 115.109 89.3209 115.478 89.163C115.846 89.0051 116.109 88.6892 116.162 88.2155C116.215 87.847 116.109 87.5312 115.688 87.2154C115.32 87.0049 114.583 86.689 113.583 86.3732C112.162 85.8995 111.267 85.3731 110.635 84.6362C110.109 84.0045 109.846 83.1624 109.951 82.2149C110.003 81.5306 110.267 80.8989 110.635 80.3199C111.004 79.7936 111.425 79.3725 111.951 79.004C112.477 78.6882 113.109 78.3723 113.741 78.2144C114.372 78.0565 115.057 78.0039 115.688 78.0039C116.373 78.0039 117.162 78.0565 117.952 78.1618C118.741 78.3197 119.426 78.4776 120.057 78.6882L119.057 81.5306Z" fill="#3B3B3B"/>
<path fill-rule="evenodd" clip-rule="evenodd" d="M128.058 73.1084L127.69 76.2666H124.005L124.373 73.1084H128.058ZM127.374 78.3195L125.689 91.8999H122.057L123.742 78.3195H127.374Z" fill="#3B3B3B"/>
<path fill-rule="evenodd" clip-rule="evenodd" d="M134.532 78.3197L134.322 80.1094H134.374C134.848 79.4251 135.375 78.9514 136.217 78.5303C137.006 78.1618 137.849 78.0039 138.691 78.0039C139.48 78.0039 140.165 78.0565 140.691 78.3197C141.217 78.5303 141.796 78.8461 142.165 79.3198C142.533 79.7936 142.796 80.2673 142.954 80.899C143.112 81.5306 143.112 82.1622 143.007 82.9518L141.849 91.9001H138.217L139.164 84.2677C139.217 83.7413 139.217 83.2676 139.217 82.7939C139.217 82.3201 139.164 81.9517 139.007 81.6885C138.849 81.3727 138.638 81.1621 138.322 81.0042C138.006 80.8463 137.638 80.7937 137.164 80.7937C136.796 80.7937 136.48 80.8463 136.059 80.9516C135.743 81.1095 135.375 81.2674 135.059 81.5832C134.743 81.8991 134.427 82.2675 134.217 82.7413C134.006 83.215 133.848 83.8466 133.743 84.4783L132.795 91.8475H129.163L130.848 78.2671H134.48V78.3197H134.532Z" fill="#3B3B3B"/>
<path fill-rule="evenodd" clip-rule="evenodd" d="M152.85 80.5306C152.008 80.5306 151.271 80.8464 150.587 81.3728C149.955 81.8992 149.481 82.6887 149.271 83.6362H155.114C155.271 82.6887 155.114 81.8992 154.64 81.3728C154.324 80.8464 153.692 80.5306 152.85 80.5306ZM149.06 86.268C149.06 86.8997 149.113 87.3734 149.376 87.8471C149.534 88.2156 149.85 88.5314 150.218 88.8473C150.587 89.0578 151.008 89.321 151.534 89.3736C152.008 89.5316 152.534 89.5315 153.166 89.5315C153.692 89.5315 154.271 89.5316 154.798 89.4789C155.324 89.4263 155.903 89.2684 156.429 89.1105L156.482 91.7949C155.85 91.9529 155.219 92.1108 154.535 92.1634C153.85 92.216 153.113 92.3213 152.376 92.3213C151.113 92.3213 150.113 92.1634 149.218 91.7949C148.271 91.4791 147.586 90.9528 147.06 90.3211C146.534 89.6895 146.113 89.0052 145.902 88.0577C145.691 87.2155 145.586 86.268 145.744 85.1627C145.902 84.1626 146.113 83.2151 146.586 82.3202C146.955 81.478 147.534 80.6885 148.218 80.0568C148.85 79.4252 149.639 78.9515 150.534 78.583C151.376 78.2672 152.376 78.0566 153.429 78.0566C154.429 78.0566 155.271 78.2146 156.008 78.5304C156.693 78.8462 157.324 79.3199 157.693 79.8463C158.167 80.3727 158.377 81.1096 158.535 81.9518C158.693 82.794 158.693 83.6888 158.535 84.6889L158.377 86.1628H149.06V86.268Z" fill="#3B3B3B"/>
<path fill-rule="evenodd" clip-rule="evenodd" d="M169.957 81.5306C169.273 81.32 168.641 81.0568 168.115 81.0042C167.483 80.9516 166.957 80.8463 166.431 80.8463C165.904 80.8463 165.483 80.8989 165.115 81.0569C164.799 81.2148 164.588 81.5306 164.483 81.899C164.43 82.2675 164.536 82.5833 164.851 82.8465C165.167 83.0571 165.799 83.3729 166.694 83.6361C167.378 83.8466 168.01 84.1098 168.483 84.3204C169.01 84.5309 169.431 84.8467 169.799 85.2678C170.115 85.5837 170.431 86.0574 170.484 86.4259C170.641 86.8996 170.641 87.3733 170.536 88.005C170.484 88.7945 170.22 89.4262 169.747 89.9525C169.378 90.4789 168.904 90.9 168.273 91.2158C167.746 91.5317 167.115 91.7422 166.431 91.9001C165.746 92.058 165.009 92.1107 164.43 92.1107C163.588 92.1107 162.746 92.058 161.851 91.9001C161.009 91.7422 160.219 91.5317 159.535 91.2158L160.64 88.4787C161.325 88.7945 162.114 89.0051 162.799 89.163C163.588 89.3209 164.22 89.3735 164.746 89.3735C165.43 89.3735 166.009 89.3209 166.378 89.163C166.746 89.0051 167.01 88.6892 167.062 88.2155C167.115 87.847 167.01 87.5312 166.588 87.2154C166.22 87.0049 165.483 86.689 164.483 86.3732C163.062 85.8995 162.167 85.3731 161.535 84.6362C161.009 84.0045 160.746 83.1624 160.851 82.2149C160.904 81.5306 161.167 80.8989 161.535 80.3199C161.904 79.7936 162.325 79.3725 162.851 79.004C163.378 78.6882 164.009 78.3723 164.641 78.2144C165.272 78.0565 165.957 78.0039 166.588 78.0039C167.273 78.0039 168.062 78.0565 168.852 78.1618C169.641 78.3197 170.326 78.4776 170.957 78.6882L169.957 81.5306Z" fill="#3B3B3B"/>
<path fill-rule="evenodd" clip-rule="evenodd" d="M182.116 81.5306C181.432 81.32 180.801 81.0568 180.274 81.0042C179.642 80.9516 179.116 80.8463 178.59 80.8463C178.063 80.8463 177.642 80.8989 177.274 81.0569C176.958 81.2148 176.747 81.5306 176.642 81.899C176.59 82.2675 176.695 82.5833 177.011 82.8465C177.326 83.0571 177.958 83.3729 178.853 83.6361C179.537 83.8466 180.169 84.1098 180.643 84.3204C181.169 84.5309 181.59 84.8467 181.959 85.2678C182.274 85.5837 182.59 86.0574 182.643 86.4259C182.801 86.8996 182.801 87.3733 182.695 88.005C182.643 88.7945 182.38 89.4262 181.906 89.9525C181.537 90.4789 181.064 90.9 180.432 91.2158C179.906 91.5317 179.274 91.7422 178.59 91.9001C177.905 92.058 177.169 92.1107 176.59 92.1107C175.747 92.1107 174.905 92.058 174.01 91.9001C173.168 91.7422 172.379 91.5317 171.694 91.2158L172.8 88.4787C173.484 88.7945 174.273 89.0051 174.958 89.163C175.747 89.3209 176.379 89.3735 176.905 89.3735C177.59 89.3735 178.169 89.3209 178.537 89.163C178.906 89.0051 179.169 88.6892 179.221 88.2155C179.274 87.847 179.169 87.5312 178.748 87.2154C178.379 87.0049 177.642 86.689 176.642 86.3732C175.221 85.8995 174.326 85.3731 173.694 84.6362C173.168 84.0045 172.905 83.1624 173.01 82.2149C173.063 81.5306 173.326 80.8989 173.694 80.3199C174.063 79.7936 174.484 79.3725 175.01 79.004C175.537 78.6882 176.168 78.3723 176.8 78.2144C177.432 78.0565 178.116 78.0039 178.748 78.0039C179.432 78.0039 180.221 78.0565 181.011 78.1618C181.801 78.3197 182.485 78.4776 183.117 78.6882L182.116 81.5306Z" fill="#3B3B3B"/>
<path fill-rule="evenodd" clip-rule="evenodd" d="M205.961 76.8985C205.487 76.7406 204.961 76.5827 204.382 76.4248C203.803 76.2669 203.277 76.2669 202.75 76.2669C201.803 76.2669 200.908 76.4248 200.118 76.7933C199.329 77.1091 198.644 77.5828 198.118 78.2145C197.592 78.7409 197.118 79.4778 196.802 80.32C196.486 81.1095 196.276 81.9517 196.118 82.8465C196.065 83.6887 196.065 84.4783 196.171 85.2679C196.328 86.0574 196.539 86.7417 197.013 87.3207C197.381 87.9524 197.96 88.4261 198.644 88.7419C199.329 89.0577 200.118 89.2683 201.118 89.2683C201.803 89.2683 202.434 89.2157 202.961 89.1104C203.487 88.9525 204.066 88.7946 204.592 88.584L204.803 91.4791C204.119 91.7949 203.382 91.9528 202.645 92.1107C201.855 92.2686 201.066 92.2686 200.224 92.2686C198.802 92.2686 197.644 92.0581 196.592 91.5843C195.486 91.1106 194.644 90.479 193.96 89.6368C193.275 88.7946 192.802 87.8471 192.486 86.6364C192.17 85.4784 192.17 84.2151 192.328 82.7939C192.486 81.3727 192.854 80.1094 193.433 78.9514C193.96 77.7934 194.749 76.7407 195.592 75.8985C196.539 75.0563 197.539 74.4246 198.75 73.9509C200.013 73.4771 201.329 73.2666 202.698 73.2666C203.487 73.2666 204.277 73.3192 204.961 73.4245C205.645 73.5824 206.277 73.7403 206.909 73.9509L205.961 76.8985Z" fill="#3B3B3B"/>
<path fill-rule="evenodd" clip-rule="evenodd" d="M214.594 80.5306C213.751 80.5306 213.014 80.8464 212.33 81.3728C211.698 81.8992 211.225 82.6887 211.014 83.6362H216.857C217.015 82.6887 216.857 81.8992 216.383 81.3728C216.067 80.8464 215.436 80.5306 214.594 80.5306ZM210.698 86.268C210.698 86.8997 210.751 87.3734 211.014 87.8471C211.172 88.2156 211.488 88.5314 211.856 88.8473C212.225 89.0578 212.646 89.321 213.172 89.3736C213.646 89.5316 214.172 89.5315 214.804 89.5315C215.33 89.5315 215.909 89.5316 216.436 89.4789C216.962 89.4263 217.541 89.2684 218.068 89.1105L218.12 91.7949C217.489 91.9529 216.857 92.1108 216.173 92.1634C215.488 92.216 214.751 92.3213 214.015 92.3213C212.751 92.3213 211.751 92.1634 210.856 91.7949C209.909 91.4791 209.225 90.9528 208.698 90.3211C208.172 89.6895 207.751 89.0052 207.54 88.0577C207.33 87.2155 207.224 86.268 207.382 85.1627C207.54 84.1626 207.751 83.2151 208.224 82.3202C208.593 81.478 209.172 80.6885 209.856 80.0568C210.488 79.4252 211.277 78.9515 212.172 78.583C213.014 78.2672 214.015 78.0566 215.067 78.0566C216.067 78.0566 216.91 78.2146 217.647 78.5304C218.331 78.8462 218.962 79.3199 219.331 79.8463C219.805 80.3727 220.015 81.1096 220.173 81.9518C220.331 82.794 220.331 83.6888 220.173 84.6889L220.015 86.1628H210.698V86.268Z" fill="#3B3B3B"/>
<path fill-rule="evenodd" clip-rule="evenodd" d="M227.332 78.3197L227.121 80.1094H227.174C227.648 79.4251 228.174 78.9514 229.016 78.5303C229.806 78.1618 230.648 78.0039 231.49 78.0039C232.28 78.0039 232.964 78.0565 233.49 78.3197C234.017 78.5303 234.596 78.8461 234.964 79.3198C235.333 79.7936 235.596 80.2673 235.754 80.899C235.912 81.5306 235.912 82.1622 235.806 82.9518L234.648 91.9001H231.016L231.964 84.2677C232.017 83.7413 232.017 83.2676 232.017 82.7939C232.017 82.3201 231.964 81.9517 231.806 81.6885C231.648 81.3727 231.438 81.1621 231.122 81.0042C230.806 80.8463 230.437 80.7937 229.964 80.7937C229.595 80.7937 229.279 80.8463 228.858 80.9516C228.543 81.1095 228.174 81.2674 227.858 81.5832C227.542 81.8991 227.227 82.2675 227.016 82.7413C226.805 83.215 226.648 83.8466 226.542 84.4783L225.595 91.8475H221.963L223.647 78.2671H227.279V78.3197H227.332Z" fill="#3B3B3B"/>
<path fill-rule="evenodd" clip-rule="evenodd" d="M238.386 78.32H240.491L240.965 74.688H244.597L244.123 78.32H246.913L246.544 81.0571H243.755L242.965 87.1104C242.912 87.5841 242.912 87.9526 242.912 88.2158C242.912 88.5316 242.965 88.6895 243.07 88.8474C243.123 89.0053 243.281 89.0579 243.439 89.1632C243.597 89.2159 243.912 89.2159 244.228 89.2159C244.439 89.2159 244.597 89.2159 244.86 89.2159C245.018 89.2159 245.228 89.1632 245.492 89.1632L245.176 91.9004C244.86 91.9004 244.491 91.953 244.018 91.953C243.649 91.953 243.175 91.953 242.754 91.953C241.912 91.953 241.175 91.9004 240.754 91.7425C240.28 91.5845 239.912 91.374 239.649 90.9529C239.438 90.6371 239.28 90.2686 239.175 89.6896C239.122 89.2159 239.175 88.5842 239.228 87.9526L240.175 80.8992H238.07L238.386 78.32Z" fill="#3B3B3B"/>
<path fill-rule="evenodd" clip-rule="evenodd" d="M254.808 80.5306C253.966 80.5306 253.229 80.8464 252.545 81.3728C251.913 81.8992 251.44 82.6887 251.229 83.6362H257.072C257.23 82.6887 257.072 81.8992 256.598 81.3728C256.23 80.8464 255.598 80.5306 254.808 80.5306ZM250.966 86.268C250.966 86.8997 251.019 87.3734 251.282 87.8471C251.492 88.2156 251.755 88.5314 252.124 88.8473C252.492 89.0578 252.913 89.321 253.44 89.3736C253.914 89.5316 254.44 89.5315 255.072 89.5315C255.598 89.5315 256.177 89.5316 256.703 89.4789C257.23 89.4263 257.809 89.2684 258.335 89.1105L258.388 91.7949C257.756 91.9529 257.124 92.1108 256.44 92.1634C255.756 92.216 255.019 92.3213 254.282 92.3213C253.019 92.3213 252.019 92.1634 251.124 91.7949C250.176 91.4791 249.492 90.9528 248.966 90.3211C248.439 89.6895 248.018 89.0052 247.808 88.0577C247.597 87.2155 247.492 86.268 247.65 85.1627C247.808 84.1626 248.018 83.2151 248.492 82.3202C248.86 81.478 249.439 80.6885 250.124 80.0568C250.808 79.4252 251.545 78.9515 252.44 78.583C253.282 78.2672 254.282 78.0566 255.335 78.0566C256.335 78.0566 257.177 78.2146 257.914 78.5304C258.598 78.8462 259.23 79.3199 259.598 79.8463C260.072 80.3727 260.283 81.1096 260.441 81.9518C260.599 82.794 260.599 83.6888 260.441 84.6889L260.283 86.1628H250.966V86.268Z" fill="#3B3B3B"/>
<path fill-rule="evenodd" clip-rule="evenodd" d="M271.6 80.8991C271.442 80.8991 271.284 80.8464 271.126 80.8464C270.968 80.8464 270.81 80.8464 270.6 80.8464C270.126 80.8464 269.757 80.8991 269.336 81.057C268.968 81.2149 268.547 81.4254 268.178 81.8465C267.81 82.215 267.547 82.6887 267.231 83.2677C267.02 83.8994 266.862 84.5837 266.704 85.3732L265.862 91.9529H262.283L263.967 78.3725H267.547L267.336 80.1621H267.389C268.231 78.7409 269.494 78.0566 271.179 78.0566C271.336 78.0566 271.494 78.0566 271.705 78.0566C271.863 78.0566 272.021 78.0566 272.179 78.0566L271.6 80.8991Z" fill="#3B3B3B"/>
<path fill-rule="evenodd" clip-rule="evenodd" d="M363.715 56.3173C363.241 57.1595 362.241 57.5806 361.293 57.2648C359.504 56.7384 357.819 56.1594 356.082 55.6857C354.398 55.1593 352.608 54.6856 350.871 54.2645C347.397 53.4223 343.871 52.5275 340.396 51.8958C338.765 51.58 337.607 50.0009 337.923 48.2638C337.975 47.948 338.08 47.6322 338.238 47.3164C339.923 44.1581 341.818 41.3157 343.765 38.5786C345.713 35.8415 347.818 33.157 350.082 30.6304C350.871 29.7882 352.187 29.6829 353.029 30.4725C353.714 31.1041 353.872 32.2095 353.503 32.9991C351.924 35.9994 350.292 38.8418 348.608 41.7368L346.134 46.0004C346.081 46.1584 345.923 46.3689 345.818 46.5268C348.134 47.0532 350.398 47.7901 352.661 48.5797C354.451 49.2113 356.24 49.8956 357.925 50.6852C359.609 51.4747 361.399 52.3169 363.03 53.2644C363.978 54.0013 364.346 55.2646 363.715 56.3173Z" fill="#59529F"/>
<path fill-rule="evenodd" clip-rule="evenodd" d="M322.868 51.5798C322.553 51.7377 322.237 51.7904 321.921 51.8956C318.447 52.5273 314.92 53.3168 311.446 54.2643C309.762 54.738 307.972 55.2118 306.235 55.6855C304.551 56.1593 302.814 56.6856 301.024 57.2646C299.919 57.5805 298.761 56.9488 298.445 55.8434C298.234 54.896 298.603 53.9485 299.392 53.4221C301.024 52.4747 302.708 51.6324 304.445 50.8429C306.13 50.0533 307.919 49.369 309.709 48.7374C311.972 47.9478 314.236 47.2636 316.552 46.6845C316.499 46.5266 316.341 46.3161 316.236 46.1582L313.762 41.8946C312.078 39.0522 310.446 36.1571 308.867 33.1568C308.34 32.1567 308.709 30.8934 309.709 30.3144C310.551 29.8406 311.551 30.1038 312.183 30.7881C314.446 33.3147 316.552 35.9992 318.499 38.7363C320.447 41.4735 322.289 44.3159 324.026 47.4741C324.921 48.8427 324.447 50.7376 322.868 51.5798Z" fill="#532D7B"/>
<path fill-rule="evenodd" clip-rule="evenodd" d="M344.45 90.7948C343.502 91.1107 342.502 90.7948 341.976 89.9526C340.818 88.0577 339.712 86.1101 338.554 84.1099L335.291 78.2672L332.027 72.4244C331.817 71.9507 331.501 71.5822 331.238 71.1085C331.027 71.5822 330.711 71.9507 330.448 72.4244L327.185 78.2672L323.868 84.1099C322.71 86.0048 321.605 87.9524 320.447 89.8474C319.815 90.7948 318.605 91.1106 317.552 90.479C316.71 89.9526 316.394 88.8999 316.71 87.9524C317.499 85.8469 318.341 83.7941 319.289 81.6886C320.131 79.6357 321.131 77.5829 322.079 75.53C323.079 73.4772 324.079 71.4243 325.184 69.4768C326.29 67.5292 327.342 65.4763 328.658 63.4761V63.4235C329.606 62.0023 331.448 61.6338 332.869 62.5813C333.185 62.7918 333.501 63.1077 333.712 63.4235C335.028 65.4763 336.133 67.4239 337.186 69.4768C338.186 71.5296 339.291 73.4772 340.239 75.53C341.239 77.5829 342.186 79.6357 343.028 81.6886C343.871 83.7941 344.818 85.8469 345.66 87.9524C346.081 89.2683 345.555 90.4264 344.45 90.7948Z" fill="#2A4B8F"/>
<path fill-rule="evenodd" clip-rule="evenodd" d="M329.079 21.4717C328.606 19.8926 328.395 18.3134 328.237 16.6817C328.079 15.1026 328.079 13.5235 328.079 11.8917C328.132 8.73347 328.395 5.52261 329.185 2.36438C329.501 1.20636 330.606 0.469441 331.764 0.785265C332.554 0.995813 333.185 1.62746 333.343 2.36438C334.133 5.52261 334.291 8.73347 334.343 11.8917C334.343 13.4708 334.291 15.0499 334.185 16.6817C334.027 18.2608 333.817 19.8399 333.343 21.4717C333.027 22.6297 331.764 23.2614 330.606 22.8929C329.816 22.735 329.343 22.156 329.079 21.4717Z" fill="#75348A"/>
<path fill-rule="evenodd" clip-rule="evenodd" d="M371.189 70.4771C370.558 71.4246 369.4 71.8983 368.4 71.4772C366.136 70.6877 363.978 69.8455 361.715 69.1086C359.451 68.319 357.188 67.6874 354.977 67.0031C352.819 66.3714 350.608 65.8451 348.45 65.3713C349.924 68.0558 351.398 70.7403 352.977 73.4774C354.398 75.8987 355.714 78.4253 357.03 81.0046C358.293 83.5838 359.609 86.1104 360.609 88.7949C361.136 90.0582 360.557 91.3741 359.346 91.9531C358.241 92.4268 357.083 91.9531 356.451 91.1109L347.345 77.0041C344.292 72.2668 341.291 67.3189 338.817 62.1604C337.975 60.4234 338.659 58.3179 340.397 57.3705C341.081 57.0546 341.87 56.8967 342.555 57.0546C347.503 57.8968 352.345 59.1601 357.083 60.8972C359.399 61.7394 361.767 62.6868 363.978 63.7922C366.241 64.8976 368.4 66.0029 370.558 67.3189C371.505 67.7926 371.874 69.2665 371.189 70.4771Z" fill="#146CB5"/>
<path fill-rule="evenodd" clip-rule="evenodd" d="M323.658 61.9497C321.079 67.2134 318.131 72.1613 315.131 76.8987L306.13 91.0581C305.445 92.1635 303.972 92.4793 302.866 91.7424C301.866 91.1107 301.55 89.8474 301.919 88.8473C303.024 86.1628 304.235 83.5836 305.498 81.0044C306.814 78.4778 308.13 75.9512 309.551 73.4773C311.025 70.7401 312.604 68.0556 313.973 65.3711C311.815 65.8975 309.604 66.4765 307.446 67.1082C305.182 67.7398 302.919 68.4241 300.708 69.2137C298.445 69.8979 296.181 70.7928 294.023 71.5823C292.76 72.0561 291.444 71.3718 290.97 70.1611C290.602 69.0557 291.023 67.8977 291.97 67.3187C294.076 66.0028 296.339 64.8974 298.55 63.792C300.813 62.7919 303.129 61.7392 305.445 60.897C310.13 59.16 314.973 57.8967 319.973 56.9492C321.816 56.6334 323.711 57.8967 324.026 59.8442C324.026 60.5285 323.974 61.3181 323.658 61.9497Z" fill="#2B2E69"/>
<path fill-rule="evenodd" clip-rule="evenodd" d="M363.188 74.9512C364.768 75.7408 366.083 76.6882 367.399 77.6883C368.715 78.6884 369.873 79.7938 371.031 81.0571C373.347 83.4258 375.453 86.005 377.19 89.0053C377.716 90.0054 377.348 91.374 376.348 91.9004C375.663 92.2688 374.769 92.2162 374.084 91.7425C371.452 89.8475 369.031 87.6368 366.768 85.4786C365.61 84.3733 364.504 83.2152 363.452 82.0046C362.346 80.7413 361.346 79.478 360.504 78.0568C359.872 77.0567 360.188 75.6881 361.188 75.0565C361.82 74.6354 362.557 74.6354 363.188 74.9512Z" fill="#146CB5"/>
<path fill-rule="evenodd" clip-rule="evenodd" d="M301.919 77.8985C301.076 79.3197 300.076 80.6357 298.971 81.8463C297.866 83.0043 296.813 84.215 295.655 85.373C293.339 87.5838 290.97 89.7945 288.338 91.6368C287.391 92.3211 286.075 92.1106 285.391 91.1104C284.917 90.4262 284.917 89.5313 285.233 88.8471C286.864 85.7941 289.023 83.2675 291.286 80.8462C292.444 79.6882 293.707 78.5828 294.918 77.4774C296.234 76.4773 297.55 75.5298 299.129 74.7403C300.234 74.2139 301.445 74.6876 302.024 75.6878C302.392 76.5299 302.287 77.3195 301.919 77.8985Z" fill="#2B2E69"/>
<path fill-rule="evenodd" clip-rule="evenodd" d="M348.134 19.2611C346.134 23.5773 343.871 27.8409 341.555 31.894C339.239 36.0523 336.817 40.158 334.238 44.1585C333.554 45.1586 332.448 45.7902 331.29 45.7902C330.027 45.7902 328.974 45.1059 328.343 44.1585C325.869 40.0528 323.447 35.9997 321.131 31.7887C319.973 29.7359 318.815 27.6304 317.71 25.5249C316.605 23.4194 315.447 21.2613 314.446 19.1558C313.92 17.9978 314.394 16.5766 315.552 15.9449C316.552 15.4185 317.815 15.787 318.447 16.6292C319.921 18.5241 321.237 20.4717 322.658 22.4719C324.079 24.4195 325.395 26.4197 326.711 28.3673C328.29 30.736 329.816 33.1573 331.396 35.5786C332.975 33.1573 334.501 30.6833 336.08 28.3673C338.712 24.3669 341.449 20.5244 344.397 16.7345C345.187 15.7344 346.66 15.4712 347.713 16.366C348.292 17.0503 348.503 18.3136 348.134 19.2611Z" fill="#75348A"/>
</svg>
