<svg width="437" height="304" viewBox="0 0 437 304" fill="none" xmlns="http://www.w3.org/2000/svg">
<g clip-path="url(#clip0_65_2313)">
<path d="M124.05 29.9013C124.05 13.4142 137.5 0 154.031 0C170.562 0 184.012 13.4142 184.012 29.9013C184.012 46.3885 170.562 59.8027 154.031 59.8027C137.5 59.8027 124.05 46.3885 124.05 29.9013ZM125.847 29.9013C125.847 45.4012 138.492 58.0134 154.033 58.0134C169.575 58.0134 182.218 45.4012 182.218 29.9013C182.218 14.4014 169.572 1.78926 154.033 1.78926C138.495 1.78926 125.847 14.3988 125.847 29.8987V29.9013Z" fill="white"/>
<path d="M219.236 303.55H5.50679C2.71492 303.55 0.448502 301.29 0.448502 298.505L0.448502 150.87C0.448502 148.085 2.71492 145.825 5.50679 145.825L219.236 145.825C222.028 145.825 224.295 148.085 224.295 150.87L224.295 298.508C224.295 301.292 222.028 303.553 219.236 303.553V303.55Z" fill="#7E868A"/>
<path d="M0 298.505V150.87C0 147.842 2.47076 145.378 5.50679 145.378H219.239C222.275 145.378 224.746 147.842 224.746 150.87V298.505C224.746 301.533 222.275 303.997 219.239 303.997H5.50679C2.47076 303.997 0 301.533 0 298.505ZM5.50679 146.272C2.96438 146.272 0.897009 148.334 0.897009 150.87V298.505C0.897009 301.041 2.96438 303.103 5.50679 303.103H219.239C221.782 303.103 223.849 301.041 223.849 298.505V150.87C223.849 148.334 221.782 146.272 219.239 146.272H5.50679Z" fill="#7E868A"/>
<path d="M200.667 30.8647H24.0759V220.119H200.667V30.8647Z" fill="white"/>
<path d="M200.667 220.566H24.0759C23.8291 220.566 23.6274 220.365 23.6274 220.119V30.8648C23.6274 30.6186 23.8291 30.4175 24.0759 30.4175H200.667C200.914 30.4175 201.116 30.6186 201.116 30.8648V220.119C201.116 220.365 200.914 220.566 200.667 220.566ZM24.5244 219.672H200.219V31.3121H24.5244V219.669V219.672Z" fill="#373951"/>
<path d="M193.154 61.6132H37.4568V64.657H193.154V61.6132Z" fill="#C8B56D"/>
<path d="M153.779 71.4462H37.4568V74.49H153.779V71.4462Z" fill="#C8B56D"/>
<path d="M167.86 81.5492C167.871 81.6339 167.876 81.7159 167.881 81.8006C176.26 81.7345 184.67 81.6551 193.154 81.5492H167.863H167.86Z" fill="white"/>
<path d="M167.881 82.2506C167.645 82.2506 167.449 82.0679 167.433 81.8324C167.43 81.7556 167.425 81.6815 167.414 81.6074C167.398 81.4803 167.438 81.3506 167.523 81.2554C167.608 81.1601 167.733 81.1045 167.86 81.1045H193.152C193.398 81.1045 193.597 81.303 193.6 81.5492C193.6 81.7953 193.404 81.9965 193.157 81.9991C184.672 82.1076 176.262 82.187 167.884 82.2506H167.881Z" fill="#373951"/>
<path d="M162.632 81.5491H64.8633C97.5033 81.9699 129.753 82.0626 162.608 81.8376C162.611 81.7396 162.619 81.6444 162.632 81.5491Z" fill="white"/>
<path d="M127.994 82.404C106.853 82.404 85.9775 82.2691 64.8553 81.9964C64.6085 81.9938 64.4095 81.7926 64.4122 81.5465C64.4122 81.3003 64.6138 81.1018 64.8607 81.1018H162.629C162.759 81.1018 162.881 81.1574 162.966 81.2527C163.051 81.348 163.091 81.4777 163.075 81.6047C163.065 81.6868 163.059 81.7688 163.057 81.8535C163.049 82.0944 162.852 82.2849 162.611 82.2849C150.944 82.3643 139.429 82.404 127.994 82.404Z" fill="#373951"/>
<path d="M57.0689 81.9964H37.4568C37.2099 81.9964 37.0083 81.7953 37.0083 81.5491C37.0083 81.303 37.2099 81.1018 37.4568 81.1018H57.0689C57.3157 81.1018 57.5174 81.303 57.5174 81.5491C57.5174 81.7953 57.3157 81.9964 57.0689 81.9964Z" fill="#373951"/>
<path d="M171.063 90.0587C161.284 90.0269 151.464 90.0084 141.64 90.0057C141.68 90.0534 141.712 90.109 141.746 90.1593H171.037C171.045 90.1248 171.053 90.0931 171.063 90.0587Z" fill="white"/>
<path d="M171.039 90.6066H141.751C141.608 90.6066 141.473 90.5378 141.388 90.4213C141.287 90.2837 141.221 90.0296 141.297 89.8787C141.374 89.7279 141.475 89.5585 141.645 89.5585C151.47 89.5585 161.289 89.577 171.069 89.6114C171.207 89.6114 171.337 89.6749 171.422 89.7861C171.507 89.8946 171.536 90.0376 171.501 90.1699C171.501 90.1699 171.488 90.2202 171.488 90.2228C171.438 90.4187 171.246 90.6093 171.042 90.6093L171.039 90.6066Z" fill="#373951"/>
<path d="M193.152 90.1592C187.512 90.1248 181.838 90.101 176.153 90.0771C176.159 90.1036 176.167 90.1301 176.175 90.1592H193.152Z" fill="white"/>
<path d="M193.152 90.6066H176.175C175.97 90.6066 175.79 90.4663 175.739 90.2678C175.705 90.1328 175.726 89.9501 175.811 89.8416C175.896 89.7331 176.015 89.6299 176.153 89.6299C181.838 89.6537 187.512 89.6775 193.154 89.7119C193.401 89.7119 193.6 89.9131 193.6 90.1619C193.6 90.4107 193.398 90.6066 193.152 90.6066Z" fill="#373951"/>
<path d="M137.64 90.0083C121.314 90.0136 105.008 90.0639 88.9339 90.1592H137.534C137.571 90.1089 137.601 90.0559 137.64 90.0083Z" fill="white"/>
<path d="M137.534 90.6065H88.9366C88.6898 90.6065 88.4881 90.408 88.4881 90.1619C88.4881 89.9157 88.6871 89.7146 88.9339 89.7119C104.669 89.6166 121.056 89.5663 137.643 89.561C137.818 89.561 137.977 89.6616 138.049 89.8204C138.123 89.9792 138.097 90.1645 137.985 90.2995L137.643 90.0084L137.951 90.3445C137.869 90.4715 137.686 90.6065 137.534 90.6065Z" fill="#373951"/>
<path d="M37.4568 90.1592C52.4326 89.9554 66.867 89.9554 81.2616 90.1592H37.4568Z" fill="white"/>
<path d="M37.4568 90.6066C37.2099 90.6066 37.0109 90.4107 37.0083 90.1645C37.0056 89.9184 37.202 89.7146 37.4488 89.7119C52.4856 89.5081 66.8139 89.5081 81.2669 89.7119C81.5137 89.7146 81.7127 89.9184 81.7074 90.1645C81.7048 90.4107 81.5031 90.6066 81.2589 90.6066H81.251C66.8139 90.4028 52.4883 90.4028 37.4594 90.6066H37.4514H37.4568Z" fill="#373951"/>
<path d="M193.152 98.7694H163.157C163.165 98.8276 163.168 98.8885 163.171 98.9467C173.2 98.9044 183.202 98.8462 193.149 98.7694H193.152Z" fill="white"/>
<path d="M163.173 99.3941C162.937 99.3941 162.741 99.2088 162.725 98.9733C162.706 98.8436 162.738 98.6451 162.826 98.5471C162.911 98.4492 163.03 98.3221 163.16 98.3221H193.154C193.401 98.3221 193.6 98.5207 193.603 98.7668C193.603 99.013 193.404 99.2141 193.157 99.2168C183.21 99.2935 173.205 99.3518 163.176 99.3941H163.173Z" fill="#373951"/>
<path d="M157.927 98.7694H57.0689C90.5316 99.0262 124.376 99.0923 157.911 98.9706C157.916 98.9044 157.919 98.8382 157.927 98.7694Z" fill="white"/>
<path d="M125.133 99.4762C102.376 99.4762 79.5923 99.3888 57.0662 99.2168C56.8194 99.2168 56.6204 99.013 56.6204 98.7668C56.6204 98.5207 56.8221 98.3221 57.0689 98.3221H157.927C158.057 98.3221 158.179 98.3777 158.264 98.473C158.349 98.5709 158.388 98.7006 158.373 98.8277L158.359 98.9521C158.343 99.185 158.144 99.4179 157.911 99.4179C147.014 99.4576 136.075 99.4788 125.133 99.4788V99.4762Z" fill="#373951"/>
<path d="M49.2877 99.2168H37.4568C37.21 99.2168 37.0083 99.0156 37.0083 98.7695C37.0083 98.5233 37.21 98.3221 37.4568 98.3221H49.2877C49.5345 98.3221 49.7362 98.5233 49.7362 98.7695C49.7362 99.0156 49.5345 99.2168 49.2877 99.2168Z" fill="#373951"/>
<path d="M177.677 107.377H193.152C187.995 107.308 182.857 107.268 177.714 107.221C177.701 107.271 177.69 107.324 177.674 107.377H177.677Z" fill="white"/>
<path d="M193.152 107.824H177.677C177.533 107.824 177.401 107.758 177.316 107.642C177.231 107.528 177.204 107.38 177.25 107.242L177.268 107.16C177.316 106.956 177.507 106.771 177.714 106.771H177.717L180.089 106.792C184.442 106.829 188.791 106.866 193.154 106.927C193.401 106.93 193.6 107.131 193.597 107.377C193.597 107.623 193.396 107.822 193.149 107.822L193.152 107.824Z" fill="#373951"/>
<path d="M138.102 107.377H172.669C172.648 107.308 172.634 107.239 172.618 107.171C161.093 107.086 149.599 107.059 138.118 107.091C138.113 107.186 138.11 107.282 138.102 107.377Z" fill="white"/>
<path d="M172.672 107.824H138.105C137.98 107.824 137.861 107.774 137.776 107.681C137.691 107.589 137.648 107.467 137.659 107.343L137.67 107.163C137.68 106.924 137.882 106.641 138.121 106.641C149.609 106.609 161.215 106.636 172.626 106.721C172.836 106.721 173.014 106.866 173.062 107.067C173.075 107.131 173.088 107.186 173.104 107.239C173.147 107.374 173.123 107.523 173.038 107.636C172.953 107.753 172.818 107.819 172.677 107.819L172.672 107.824Z" fill="#373951"/>
<path d="M132.627 107.118C122.505 107.163 112.394 107.242 102.28 107.377H132.609C132.617 107.29 132.622 107.202 132.627 107.118Z" fill="white"/>
<path d="M132.611 107.824H102.283C102.036 107.824 101.837 107.626 101.834 107.38C101.834 107.133 102.031 106.932 102.278 106.93C111.778 106.8 121.707 106.715 132.625 106.67C132.747 106.67 132.866 106.721 132.951 106.811C133.036 106.901 133.081 107.022 133.073 107.144L133.055 107.414C133.036 107.647 132.84 107.827 132.609 107.827L132.611 107.824Z" fill="#373951"/>
<path d="M37.4568 107.377C56.3683 106.969 76.0547 106.969 94.6504 107.377H37.4568Z" fill="white"/>
<path d="M94.6504 107.824H94.6398C76.0971 107.419 56.3284 107.419 37.4674 107.824C37.2551 107.819 37.0136 107.634 37.0083 107.385C37.0029 107.139 37.1993 106.932 37.4461 106.927C56.3205 106.522 76.1051 106.522 94.661 106.927C94.9078 106.932 95.1042 107.139 95.0989 107.385C95.0936 107.628 94.8945 107.824 94.6504 107.824Z" fill="#373951"/>
<path d="M193.152 115.987H160.75C160.764 116.014 160.774 116.043 160.788 116.072C171.554 116.053 182.342 116.027 193.152 115.987Z" fill="white"/>
<path d="M160.788 116.519C160.61 116.519 160.448 116.413 160.376 116.252C160.318 116.114 160.313 115.913 160.395 115.786C160.48 115.659 160.602 115.542 160.753 115.542H193.154C193.401 115.542 193.603 115.744 193.603 115.99C193.603 116.236 193.404 116.437 193.157 116.437C182.348 116.474 171.562 116.503 160.79 116.522L160.788 116.519Z" fill="#373951"/>
<path d="M111.993 115.987H71.2034C84.7621 116.037 98.3711 116.066 112.017 116.082C112.009 116.051 112.001 116.019 111.993 115.987Z" fill="white"/>
<path d="M112.015 116.53C98.3685 116.514 84.7594 116.485 71.1981 116.434C70.9513 116.434 70.7523 116.233 70.7523 115.987C70.7523 115.741 70.954 115.54 71.2008 115.54H111.991C112.2 115.54 112.384 115.685 112.429 115.889L112.012 115.982L112.437 115.924C112.471 116.059 112.445 116.223 112.36 116.331C112.275 116.44 112.15 116.527 112.012 116.527L112.015 116.53Z" fill="#373951"/>
<path d="M117.126 115.987C117.118 116.022 117.11 116.053 117.102 116.085C130.074 116.096 143.078 116.093 156.117 116.075C156.13 116.045 156.141 116.016 156.157 115.987H117.126Z" fill="white"/>
<path d="M131.629 116.54C126.781 116.54 121.938 116.54 117.099 116.535C116.959 116.535 116.829 116.472 116.744 116.36C116.659 116.252 116.63 116.109 116.664 115.974C116.717 115.778 116.922 115.542 117.126 115.542H156.157C156.316 115.542 156.464 115.627 156.544 115.765C156.624 115.902 156.626 116.072 156.547 116.209C156.467 116.352 156.281 116.524 156.114 116.524C147.94 116.535 139.777 116.54 131.629 116.54Z" fill="#373951"/>
<path d="M37.4568 115.987C45.8695 116.133 55.0572 116.133 63.4382 115.987H37.4568Z" fill="white"/>
<path d="M50.4581 116.546C46.0553 116.546 41.6472 116.509 37.4488 116.437C37.1993 116.432 37.0029 116.228 37.0083 115.982C37.0109 115.736 37.2126 115.542 37.4568 115.542H37.4647C45.8536 115.688 55.0732 115.688 63.4329 115.542H63.4408C63.685 115.542 63.8867 115.738 63.8893 115.982C63.892 116.228 63.6956 116.432 63.4488 116.437C59.2663 116.509 54.8662 116.546 50.4634 116.546H50.4581Z" fill="#373951"/>
<path d="M193.152 124.597C187.998 124.528 182.857 124.491 177.711 124.438C177.725 124.491 177.74 124.544 177.751 124.597H193.152Z" fill="white"/>
<path d="M193.152 125.045H177.751C177.536 125.045 177.35 124.894 177.311 124.685C177.284 124.552 177.3 124.335 177.385 124.232C177.47 124.129 177.581 124.018 177.717 123.991L182.488 124.036C186.042 124.068 189.595 124.1 193.154 124.15C193.401 124.153 193.6 124.354 193.597 124.6C193.597 124.846 193.396 125.045 193.149 125.045H193.152Z" fill="#373951"/>
<path d="M172.648 124.388C159.368 124.269 146.098 124.182 132.834 124.166C132.858 124.309 132.869 124.452 132.874 124.597H172.595C172.608 124.526 172.629 124.457 172.648 124.388Z" fill="white"/>
<path d="M172.597 125.045H132.877C132.633 125.045 132.434 124.851 132.428 124.608C132.426 124.486 132.418 124.362 132.396 124.243C132.373 124.113 132.41 123.981 132.495 123.877C132.58 123.777 132.707 123.719 132.837 123.719C144.835 123.734 157.858 123.806 172.653 123.941C172.794 123.941 172.924 124.007 173.009 124.118C173.091 124.229 173.12 124.372 173.083 124.507C173.064 124.565 173.048 124.624 173.038 124.685C172.995 124.894 172.812 125.045 172.597 125.045Z" fill="#373951"/>
<path d="M127.635 124.163C115.213 124.16 102.792 124.187 90.3564 124.277C90.3484 124.383 90.3405 124.491 90.3299 124.597H127.596C127.601 124.452 127.611 124.306 127.635 124.163Z" fill="white"/>
<path d="M127.596 125.045H90.3325C90.2051 125.045 90.0857 124.992 90.0008 124.899C89.9159 124.806 89.8734 124.679 89.8867 124.555L89.9106 124.24C89.9291 124.01 90.1229 123.83 90.3538 123.83C101.585 123.748 113.429 123.708 127.638 123.716C127.771 123.716 127.895 123.774 127.98 123.875C128.065 123.975 128.102 124.108 128.079 124.237C128.057 124.362 128.049 124.486 128.044 124.613C128.036 124.854 127.837 125.045 127.596 125.045Z" fill="#373951"/>
<path d="M87.0019 124.309C77.57 124.383 68.1355 124.47 58.6798 124.597H86.9541C86.9595 124.499 86.9807 124.404 87.0019 124.309Z" fill="white"/>
<path d="M86.9541 125.045H58.6798C58.433 125.045 58.2339 124.846 58.2313 124.6C58.2313 124.354 58.4277 124.153 58.6745 124.15C68.9503 124.01 79.2101 123.922 86.9966 123.861H86.9993C87.1346 123.861 87.262 123.922 87.3469 124.028C87.4318 124.134 87.4663 124.272 87.4372 124.407C87.4212 124.478 87.4026 124.55 87.4 124.624C87.3867 124.862 87.1903 125.047 86.9515 125.047L86.9541 125.045Z" fill="#373951"/>
<path d="M50.8774 125.045H37.4568C37.21 125.045 37.0083 124.843 37.0083 124.597C37.0083 124.351 37.21 124.15 37.4568 124.15H50.8774C51.1242 124.15 51.3259 124.351 51.3259 124.597C51.3259 124.843 51.1242 125.045 50.8774 125.045Z" fill="#373951"/>
<path d="M155.265 133.207H193.152C180.607 133.189 167.956 133.178 155.273 133.17C155.27 133.184 155.267 133.194 155.265 133.207Z" fill="white"/>
<path d="M193.152 133.655H155.265C155.122 133.655 154.989 133.589 154.904 133.472C154.819 133.358 154.792 133.21 154.835 133.075L155.265 133.208L154.843 133.049C154.896 132.858 155.074 132.723 155.273 132.723C167.956 132.731 180.607 132.742 193.152 132.76C193.401 132.76 193.6 132.961 193.6 133.208C193.6 133.454 193.398 133.655 193.152 133.655Z" fill="#373951"/>
<path d="M150.132 133.168C124.408 133.157 98.5675 133.168 73.1487 133.207H150.143C150.143 133.207 150.135 133.181 150.132 133.168Z" fill="white"/>
<path d="M150.143 133.655H73.1487C72.9019 133.655 72.7002 133.454 72.7002 133.207C72.7002 132.961 72.8992 132.76 73.1487 132.76C98.5648 132.723 124.406 132.712 150.132 132.72C150.337 132.72 150.512 132.858 150.565 133.054L150.143 133.168L150.57 133.07C150.607 133.205 150.583 133.358 150.496 133.469C150.411 133.581 150.281 133.655 150.143 133.655Z" fill="#373951"/>
<path d="M37.4568 133.207C47.1805 133.152 56.3683 133.152 65.5852 133.207H37.4568Z" fill="white"/>
<path d="M65.5825 133.655H65.5799C56.3736 133.599 47.1779 133.599 37.4568 133.655C37.21 133.655 37.0109 133.456 37.0083 133.21C37.0083 132.964 37.2073 132.763 37.4541 132.76C47.1726 132.705 56.3736 132.705 65.5878 132.76C65.8346 132.76 66.0337 132.964 66.0337 133.21C66.0337 133.456 65.832 133.655 65.5852 133.655H65.5825Z" fill="#373951"/>
<path d="M193.152 141.818H176.281C176.326 141.884 176.376 141.947 176.416 142.016C182.013 141.963 187.597 141.897 193.154 141.818H193.152Z" fill="white"/>
<path d="M176.414 142.464C176.249 142.464 176.098 142.374 176.018 142.231C176.015 142.228 175.907 142.066 175.904 142.064C175.814 141.926 175.806 141.752 175.885 141.606C175.962 141.46 176.116 141.37 176.281 141.37H193.152C193.398 141.37 193.597 141.569 193.6 141.815C193.6 142.061 193.404 142.262 193.16 142.265C187.602 142.344 182.019 142.411 176.419 142.466H176.416L176.414 142.464Z" fill="#373951"/>
<path d="M171.979 141.818H123.782C123.824 141.923 123.856 142.032 123.888 142.143C139.817 142.217 155.873 142.183 171.83 142.051C171.875 141.968 171.928 141.892 171.979 141.815V141.818Z" fill="white"/>
<path d="M140.517 142.63C134.918 142.63 129.368 142.617 123.885 142.591C123.681 142.591 123.506 142.453 123.456 142.257C123.429 142.162 123.402 142.069 123.365 141.979C123.31 141.841 123.328 141.685 123.41 141.564C123.495 141.442 123.633 141.368 123.782 141.368H171.976C172.143 141.368 172.295 141.46 172.372 141.606C172.451 141.751 172.441 141.931 172.348 142.066L172.335 142.085C172.295 142.141 172.258 142.199 172.223 142.257C172.146 142.403 171.995 142.493 171.83 142.495C161.313 142.583 150.836 142.628 140.517 142.628V142.63Z" fill="#373951"/>
<path d="M118.923 141.818H89.3692C99.0823 141.961 108.923 142.056 118.825 142.117C118.854 142.016 118.886 141.916 118.923 141.818Z" fill="white"/>
<path d="M118.824 142.564H118.822C108.48 142.501 98.5701 142.4 89.3639 142.265C89.1197 142.262 88.9207 142.061 88.9233 141.815C88.9233 141.569 89.125 141.37 89.3718 141.37H118.925C119.074 141.37 119.212 141.444 119.297 141.566C119.379 141.688 119.398 141.844 119.342 141.982C119.31 142.064 119.284 142.149 119.26 142.236C119.204 142.432 119.029 142.567 118.827 142.567L118.824 142.564Z" fill="#373951"/>
<path d="M37.4568 141.818C52.4326 142.315 66.867 142.315 81.6782 141.818H37.4568Z" fill="white"/>
<path d="M59.6299 142.636C52.2893 142.636 44.9274 142.511 37.4408 142.262C37.194 142.254 37.0003 142.048 37.0083 141.799C37.0189 141.553 37.2179 141.386 37.4727 141.368C52.422 141.865 66.8776 141.865 81.6623 141.368C81.8693 141.386 82.1188 141.553 82.1268 141.799C82.1347 142.045 81.941 142.252 81.6942 142.262C74.2925 142.511 66.9705 142.636 59.6299 142.636Z" fill="#373951"/>
<path d="M193.152 150.425C180.217 150.351 167.417 150.301 154.662 150.269C154.681 150.319 154.689 150.375 154.702 150.425H193.152Z" fill="white"/>
<path d="M193.152 150.875H154.702C154.503 150.875 154.331 150.745 154.272 150.557L154.662 150.277L154.235 150.412C154.193 150.274 154.217 150.123 154.299 150.007C154.384 149.89 154.516 149.819 154.66 149.819C167.414 149.851 180.214 149.901 193.149 149.975C193.398 149.975 193.595 150.176 193.595 150.422C193.595 150.669 193.393 150.87 193.146 150.87L193.152 150.875Z" fill="#373951"/>
<path d="M149.708 150.258C119.857 150.198 90.2051 150.25 59.6697 150.425H149.662C149.678 150.37 149.689 150.311 149.708 150.258Z" fill="white"/>
<path d="M149.662 150.875H59.6697C59.4229 150.875 59.2212 150.677 59.2212 150.428C59.2212 150.179 59.4202 149.98 59.667 149.98C90.1627 149.806 119.613 149.75 149.708 149.814C149.854 149.814 149.989 149.885 150.071 150.004C150.156 150.123 150.177 150.274 150.127 150.412L149.705 150.264L150.111 150.475C150.063 150.677 149.867 150.88 149.66 150.88L149.662 150.875Z" fill="#373951"/>
<path d="M51.9814 150.875H37.4568C37.21 150.875 37.0083 150.674 37.0083 150.428C37.0083 150.182 37.21 149.98 37.4568 149.98H51.9814C52.2282 149.98 52.4299 150.182 52.4299 150.428C52.4299 150.674 52.2282 150.875 51.9814 150.875Z" fill="#373951"/>
<path d="M110.032 159.035H70.0516C83.1856 159.131 96.5293 159.194 109.963 159.226C109.984 159.162 110.006 159.099 110.03 159.035H110.032Z" fill="white"/>
<path d="M109.963 159.673C96.0543 159.639 82.6257 159.575 70.0516 159.483C69.8048 159.483 69.6058 159.279 69.6058 159.033C69.6058 158.787 69.8075 158.588 70.0543 158.588H110.032C110.181 158.588 110.319 158.659 110.401 158.784C110.486 158.906 110.502 159.062 110.449 159.199L110.39 159.366C110.329 159.551 110.157 159.676 109.963 159.676V159.673Z" fill="#373951"/>
<path d="M193.152 159.035H175.673C175.678 159.07 175.689 159.104 175.694 159.141C181.528 159.112 187.353 159.078 193.154 159.035H193.152Z" fill="white"/>
<path d="M175.692 159.589C175.469 159.589 175.28 159.427 175.248 159.205C175.23 159.075 175.256 158.892 175.344 158.794C175.429 158.697 175.543 158.588 175.673 158.588H193.151C193.398 158.588 193.597 158.787 193.6 159.033C193.6 159.279 193.401 159.48 193.154 159.483C187.353 159.522 181.528 159.557 175.692 159.589Z" fill="#373951"/>
<path d="M170.495 159.035H114.91C114.937 159.104 114.96 159.17 114.982 159.239C133.408 159.273 151.987 159.247 170.474 159.165C170.479 159.123 170.487 159.08 170.495 159.035Z" fill="white"/>
<path d="M130.751 159.702C125.451 159.702 120.191 159.697 114.976 159.686C114.777 159.686 114.605 159.557 114.546 159.369C114.528 159.311 114.509 159.255 114.488 159.197C114.435 159.059 114.454 158.903 114.538 158.781C114.621 158.659 114.759 158.585 114.907 158.585H170.493C170.625 158.585 170.748 158.644 170.835 158.741C170.92 158.842 170.957 158.974 170.936 159.104C170.936 159.107 170.923 159.173 170.923 159.176C170.883 159.387 170.689 159.607 170.472 159.607C157.133 159.668 143.829 159.697 130.751 159.697V159.702Z" fill="#373951"/>
<path d="M37.4568 159.035C45.8695 159.329 55.0573 159.329 62.3899 159.035H37.4568Z" fill="white"/>
<path d="M50.3281 159.705C46.0712 159.705 41.6791 159.631 37.4408 159.483C37.194 159.475 37.0003 159.266 37.0083 159.019C37.0189 158.773 37.2232 158.596 37.4727 158.588C45.9253 158.884 55.0015 158.884 62.3713 158.588C62.5916 158.601 62.8278 158.771 62.8384 159.017C62.8464 159.263 62.6553 159.472 62.4085 159.483C58.7143 159.631 54.5902 159.705 50.3307 159.705H50.3281Z" fill="#373951"/>
<path d="M149.506 167.645H193.152C178.492 167.502 163.996 167.41 149.567 167.354C149.554 167.452 149.53 167.547 149.506 167.645Z" fill="white"/>
<path d="M193.152 168.093H149.506C149.368 168.093 149.241 168.029 149.153 167.923C149.068 167.815 149.036 167.677 149.068 167.542C149.068 167.542 149.079 167.5 149.079 167.497C149.095 167.428 149.113 167.362 149.121 167.291C149.15 167.071 149.341 166.907 149.564 166.907C164.774 166.965 179.03 167.06 193.149 167.198C193.396 167.198 193.595 167.402 193.595 167.648C193.595 167.894 193.393 168.095 193.146 168.095L193.152 168.093Z" fill="#373951"/>
<path d="M144.344 167.336C113.764 167.243 83.4908 167.344 52.836 167.645H144.408C144.384 167.542 144.36 167.442 144.344 167.336Z" fill="white"/>
<path d="M144.405 168.093H52.836C52.5891 168.093 52.3901 167.894 52.3875 167.648C52.3875 167.402 52.5865 167.201 52.8307 167.198C83.5147 166.896 113.45 166.796 144.344 166.888C144.57 166.888 144.758 167.055 144.787 167.278C144.801 167.367 144.822 167.455 144.84 167.542C144.872 167.675 144.84 167.815 144.756 167.923C144.671 168.032 144.541 168.093 144.403 168.093H144.405Z" fill="#373951"/>
<path d="M45.2645 168.093H37.4568C37.21 168.093 37.0083 167.892 37.0083 167.645C37.0083 167.399 37.21 167.198 37.4568 167.198H45.2645C45.5113 167.198 45.713 167.399 45.713 167.645C45.713 167.892 45.5113 168.093 45.2645 168.093Z" fill="#373951"/>
<path d="M101.986 176.256H68.1621C79.5153 176.28 90.7678 176.298 101.983 176.309C101.983 176.29 101.983 176.274 101.983 176.256H101.986Z" fill="white"/>
<path d="M101.986 176.756C90.7678 176.745 79.5153 176.727 68.1621 176.703C67.9153 176.703 67.7162 176.502 67.7162 176.256C67.7162 176.01 67.9179 175.808 68.1647 175.808H101.988C102.116 175.808 102.235 175.861 102.32 175.954C102.405 176.047 102.447 176.174 102.437 176.298L101.991 176.256L102.437 176.306C102.45 176.433 102.408 176.536 102.323 176.629C102.238 176.722 102.116 176.753 101.988 176.753L101.986 176.756Z" fill="#373951"/>
<path d="M193.152 176.256H166.27C166.27 176.272 166.278 176.285 166.281 176.301C175.187 176.29 184.126 176.277 193.149 176.256H193.152Z" fill="white"/>
<path d="M166.284 176.748C166.074 176.748 165.891 176.602 165.846 176.399C165.817 176.266 165.843 176.105 165.928 175.999C166.013 175.893 166.135 175.808 166.27 175.808H193.152C193.398 175.808 193.6 176.01 193.6 176.256C193.6 176.502 193.401 176.703 193.154 176.703C184.128 176.722 175.19 176.737 166.284 176.748Z" fill="#373951"/>
<path d="M161.085 176.256H107.278C107.278 176.274 107.278 176.295 107.278 176.314C125.199 176.33 143.065 176.324 161.072 176.306C161.074 176.29 161.082 176.274 161.085 176.256Z" fill="white"/>
<path d="M129.692 176.769C122.219 176.769 114.753 176.766 107.278 176.759C107.028 176.759 106.829 176.557 106.829 176.311C106.829 176.065 107.028 175.806 107.275 175.806H161.085C161.22 175.806 161.348 175.867 161.432 175.97C161.517 176.076 161.549 176.213 161.523 176.343C161.52 176.356 161.509 176.385 161.509 176.399C161.486 176.626 161.3 176.748 161.072 176.748C150.578 176.759 140.13 176.766 129.692 176.766V176.769Z" fill="#373951"/>
<path d="M60.3358 176.703H37.4541C37.2073 176.703 37.0056 176.502 37.0056 176.256C37.0056 176.01 37.2073 175.808 37.4541 175.808H60.3358C60.5826 175.808 60.7843 176.01 60.7843 176.256C60.7843 176.502 60.5826 176.703 60.3358 176.703Z" fill="#373951"/>
<path d="M140.151 184.866H84.2074C103.005 185.197 121.531 185.356 140.143 185.345C140.132 185.183 140.135 185.025 140.151 184.866Z" fill="white"/>
<path d="M138.36 185.792C120.183 185.792 102.45 185.636 84.1994 185.313C83.9553 185.308 83.7589 185.107 83.7589 184.86C83.7589 184.614 83.9606 184.418 84.2074 184.418H140.151C140.278 184.418 140.398 184.471 140.483 184.564C140.568 184.657 140.61 184.781 140.6 184.905C140.586 185.043 140.584 185.181 140.592 185.321C140.597 185.443 140.552 185.565 140.469 185.655C140.385 185.745 140.265 185.795 140.143 185.795C139.549 185.795 138.951 185.795 138.36 185.795V185.792Z" fill="#373951"/>
<path d="M193.152 184.866H178.746C178.802 184.932 178.847 185.006 178.895 185.077C183.627 185.017 188.372 184.948 193.152 184.866Z" fill="white"/>
<path d="M178.898 185.525C178.749 185.525 178.611 185.453 178.529 185.329C178.46 185.223 178.433 185.186 178.407 185.152C178.295 185.017 178.269 184.831 178.343 184.675C178.417 184.516 178.574 184.416 178.749 184.416H193.154C193.401 184.416 193.6 184.614 193.603 184.86C193.603 185.107 193.409 185.308 193.162 185.31C188.383 185.392 183.637 185.461 178.906 185.522H178.9L178.898 185.525Z" fill="#373951"/>
<path d="M174.736 184.866H145.4C145.414 185.022 145.419 185.178 145.408 185.334C155.071 185.313 164.774 185.242 174.551 185.13C174.609 185.04 174.665 184.95 174.734 184.868L174.736 184.866Z" fill="white"/>
<path d="M145.408 185.779C145.286 185.779 145.167 185.729 145.082 185.639C144.997 185.549 144.952 185.43 144.96 185.305C144.968 185.173 144.968 185.04 144.952 184.908C144.939 184.781 144.981 184.657 145.066 184.564C145.151 184.469 145.273 184.416 145.4 184.416H174.736C174.911 184.416 175.071 184.516 175.142 184.675C175.217 184.834 175.19 185.019 175.079 185.154C175.028 185.212 174.988 185.279 174.946 185.345C174.866 185.472 174.71 185.572 174.558 185.575C164.336 185.692 154.8 185.76 145.411 185.782L145.408 185.779Z" fill="#373951"/>
<path d="M37.4568 184.866C51.1189 185.509 62.9313 185.509 76.336 184.866H37.4568Z" fill="white"/>
<path d="M56.9893 185.792C50.6253 185.792 44.2268 185.633 37.4355 185.31C37.1887 185.3 36.9976 185.088 37.0082 184.842C37.0215 184.596 37.2153 184.389 37.478 184.416C51.0393 185.054 63.0162 185.054 76.3148 184.416C76.5403 184.381 76.7712 184.593 76.7845 184.842C76.7978 185.088 76.6067 185.3 76.3572 185.31C69.6933 185.631 63.3586 185.792 56.9919 185.792H56.9893Z" fill="#373951"/>
<path d="M193.152 193.473C183.637 193.439 174.155 193.42 164.691 193.407C164.697 193.431 164.705 193.452 164.707 193.473H193.149H193.152Z" fill="white"/>
<path d="M193.152 193.923H164.71C164.49 193.923 164.299 193.762 164.267 193.545C164.248 193.415 164.277 193.251 164.362 193.15C164.447 193.052 164.564 192.96 164.694 192.96C174.158 192.973 183.635 192.994 193.149 193.026H193.154C193.401 193.026 193.6 193.227 193.6 193.473C193.6 193.719 193.398 193.921 193.152 193.921V193.923Z" fill="#373951"/>
<path d="M159.53 193.402C139.124 193.381 118.827 193.402 98.6736 193.473H159.514C159.519 193.45 159.527 193.426 159.532 193.402H159.53Z" fill="white"/>
<path d="M159.511 193.923H98.6736C98.4268 193.923 98.2251 193.722 98.2251 193.476C98.2251 193.23 98.4242 193.029 98.671 193.029C117.92 192.96 138.402 192.936 159.53 192.957C159.665 192.957 159.795 193.018 159.877 193.124C159.962 193.23 159.997 193.367 159.967 193.5C159.967 193.51 159.954 193.558 159.949 193.569C159.893 193.759 159.707 193.926 159.508 193.926L159.511 193.923Z" fill="#373951"/>
<path d="M37.4568 193.473C55.0572 193.362 73.43 193.362 91.1181 193.473H37.4568Z" fill="white"/>
<path d="M37.4568 193.923C37.21 193.923 37.0109 193.725 37.0083 193.479C37.0083 193.232 37.2073 193.031 37.4541 193.029C54.9697 192.918 73.5255 192.918 91.1234 193.029C91.3702 193.029 91.5692 193.232 91.5692 193.479C91.5692 193.725 91.3675 193.923 91.1207 193.923H91.1181C73.5282 193.812 54.9723 193.812 37.4621 193.923H37.4594H37.4568Z" fill="#373951"/>
<path d="M72.2198 202.083H56.4399C61.7132 202.134 66.9652 202.179 72.2092 202.216C72.2092 202.171 72.2172 202.126 72.2198 202.083Z" fill="white"/>
<path d="M72.2066 202.666C66.9625 202.626 61.7105 202.584 56.4373 202.531C56.1905 202.528 55.9914 202.327 55.9914 202.081C55.9914 201.835 56.1931 201.636 56.4399 201.636H72.2198C72.3446 201.636 72.464 201.689 72.5489 201.779C72.6338 201.872 72.6763 201.994 72.6657 202.118C72.6657 202.121 72.6577 202.189 72.6577 202.192C72.6338 202.422 72.4348 202.663 72.2039 202.663L72.2066 202.666Z" fill="#373951"/>
<path d="M193.152 202.083H182.502C182.504 202.113 182.507 202.144 182.509 202.173C186.052 202.144 189.593 202.115 193.152 202.083Z" fill="white"/>
<path d="M182.51 202.624C182.271 202.624 182.074 202.438 182.061 202.2C182.053 202.078 182.095 201.912 182.18 201.822C182.265 201.732 182.379 201.636 182.504 201.636H193.154C193.401 201.636 193.6 201.835 193.603 202.081C193.603 202.327 193.404 202.528 193.157 202.531C189.595 202.565 186.058 202.594 182.515 202.624H182.512H182.51Z" fill="#373951"/>
<path d="M177.25 202.083H77.4719C77.4772 202.139 77.4825 202.195 77.4851 202.253C110.794 202.478 143.678 202.465 177.239 202.218C177.239 202.173 177.247 202.128 177.25 202.083Z" fill="white"/>
<path d="M124.891 202.862C109.154 202.862 93.4163 202.809 77.4825 202.7C77.2436 202.7 77.0446 202.507 77.0366 202.266L77.0234 202.126C77.0101 202.001 77.0525 201.877 77.1401 201.784C77.225 201.692 77.3445 201.639 77.4719 201.639H177.25C177.374 201.639 177.496 201.692 177.579 201.782C177.664 201.874 177.706 201.996 177.695 202.121C177.695 202.121 177.693 202.168 177.693 202.171C177.671 202.401 177.472 202.666 177.242 202.666C159.609 202.795 142.248 202.862 124.889 202.862H124.891Z" fill="#373951"/>
<path d="M48.7782 202.531H37.4568C37.21 202.531 37.0083 202.33 37.0083 202.084C37.0083 201.837 37.21 201.636 37.4568 201.636H48.7782C49.025 201.636 49.2267 201.837 49.2267 202.084C49.2267 202.33 49.025 202.531 48.7782 202.531Z" fill="#373951"/>
<path d="M167.892 210.694H193.152C184.667 210.63 176.26 210.582 167.881 210.545C167.881 210.596 167.892 210.643 167.892 210.694Z" fill="white"/>
<path d="M193.152 211.141H167.892C167.648 211.141 167.446 210.937 167.443 210.694L167.881 210.686L167.441 210.654C167.428 210.527 167.467 210.371 167.552 210.275C167.637 210.183 167.757 210.095 167.881 210.095C176.26 210.133 184.667 210.18 193.152 210.241C193.398 210.241 193.597 210.445 193.597 210.691C193.597 210.937 193.396 211.136 193.149 211.136L193.152 211.141Z" fill="#373951"/>
<path d="M162.611 210.522C152.568 210.482 142.579 210.463 132.598 210.461C132.635 210.537 132.672 210.614 132.702 210.694H162.597C162.597 210.635 162.608 210.58 162.611 210.522Z" fill="white"/>
<path d="M162.597 211.141H132.704C132.516 211.141 132.349 211.024 132.285 210.847C132.266 210.794 132.24 210.744 132.216 210.691C132.15 210.553 132.15 210.371 132.232 210.241C132.311 210.109 132.447 210.011 132.601 210.011C142.582 210.013 152.574 210.035 162.616 210.072C162.738 210.072 162.858 210.122 162.942 210.215C163.027 210.305 163.07 210.424 163.065 210.548C163.065 210.556 163.057 210.633 163.057 210.638C163.057 210.884 162.85 211.141 162.603 211.141H162.597Z" fill="#373951"/>
<path d="M127.874 210.461C108.06 210.466 88.2652 210.543 68.1647 210.694H127.771C127.8 210.614 127.84 210.537 127.874 210.461Z" fill="white"/>
<path d="M127.768 211.141H68.1621C67.9153 211.141 67.7162 210.942 67.7136 210.696C67.7136 210.45 67.9126 210.249 68.1594 210.246C88.2519 210.095 107.782 210.019 127.874 210.013C128.028 210.013 128.171 210.093 128.254 210.223C128.336 210.352 128.347 210.516 128.28 210.654L128.259 210.699C128.235 210.749 128.209 210.797 128.19 210.847C128.126 211.025 127.956 211.141 127.768 211.141Z" fill="#373951"/>
<path d="M57.7085 211.141H37.4568C37.21 211.141 37.0083 210.94 37.0083 210.694C37.0083 210.447 37.21 210.246 37.4568 210.246H57.7085C57.9553 210.246 58.157 210.447 58.157 210.694C58.157 210.94 57.9553 211.141 57.7085 211.141Z" fill="#373951"/>
<path d="M5.5068 303.553H219.236C222.031 303.553 224.295 301.295 224.295 298.508V150.872C224.295 148.085 0.445862 298.508 0.445862 298.508C0.445862 301.295 2.70962 303.553 5.50414 303.553H5.5068Z" fill="white"/>
<path d="M0 298.505C0 298.357 0.0743084 298.217 0.19904 298.135C0.7537 297.764 56.2223 260.491 111.258 223.846C222.909 149.504 223.923 150.137 224.488 150.444C224.634 150.52 224.743 150.703 224.743 150.87V298.505C224.743 301.533 222.272 303.997 219.236 303.997H5.50679C2.47076 303.997 0 301.533 0 298.505ZM0.902317 298.741C1.02439 301.168 3.04134 303.103 5.50679 303.103H219.239C221.782 303.103 223.849 301.041 223.849 298.505V151.436C214.25 155.904 74.9003 249.015 0.904971 298.738L0.902317 298.741Z" fill="#373951"/>
<path d="M5.5068 303.553H219.236C222.031 303.553 224.295 301.295 224.295 298.508C224.295 298.508 0.445862 148.085 0.445862 150.872V298.508C0.445862 301.295 2.70962 303.553 5.50414 303.553H5.5068Z" fill="white"/>
<path d="M0 298.505V150.87C0 150.706 0.108809 150.52 0.254772 150.444C0.814739 150.137 1.84179 149.512 113.485 223.846C168.521 260.491 223.992 297.761 224.544 298.135C224.669 298.219 224.743 298.357 224.743 298.505C224.743 301.533 222.272 303.997 219.236 303.997H5.50679C2.47076 303.997 0 301.533 0 298.505ZM0.897009 151.439V298.508C0.897009 301.043 2.96438 303.105 5.50679 303.105H219.239C221.702 303.105 223.719 301.168 223.844 298.743C149.846 249.017 10.4961 155.907 0.897009 151.439Z" fill="#373951"/>
<path d="M97.713 266.695L112.373 253.604L127.03 266.695V232.546H97.713V266.695Z" fill="#C8B56D"/>
<path d="M85.8263 224.298L88.8092 228.446L87.4212 233.359L91.6515 236.23L92.0363 241.32L96.9964 242.578L99.0956 247.233L104.188 246.725L107.763 250.378L112.373 248.157L116.983 250.378L120.558 246.725L125.65 247.231L127.75 242.578L132.71 241.318L133.094 236.228L137.325 233.356L135.934 228.446L138.92 224.298L135.934 220.153L137.325 215.241L133.092 212.369L132.707 207.279L127.747 206.022L125.648 201.366L120.555 201.872L116.98 198.222L112.373 200.44L107.761 198.222L104.186 201.874L99.0956 201.366L96.9938 206.022L92.0337 207.279L91.6489 212.369L87.4186 215.241L88.8092 220.153L85.8263 224.298Z" fill="#6E1636"/>
<path d="M118.002 242.052C127.84 238.958 133.301 228.496 130.199 218.684C127.097 208.872 116.607 203.425 106.769 206.519C96.9306 209.613 91.4699 220.075 94.5718 229.887C97.6737 239.699 108.164 245.145 118.002 242.052Z" fill="#C8B56D"/>
<path d="M104.151 224.298C104.151 228.827 107.832 232.496 112.37 232.496C116.908 232.496 120.589 228.825 120.589 224.298C120.589 219.772 116.908 216.101 112.37 216.101C107.832 216.101 104.151 219.772 104.151 224.298Z" fill="white"/>
<path d="M331.543 241.757H335.484V86.774H331.543V241.757Z" fill="white"/>
<path d="M331.095 241.757V86.7767C331.095 86.5305 331.296 86.3293 331.543 86.3293H335.484C335.731 86.3293 335.933 86.5305 335.933 86.7767V241.76C335.933 242.006 335.731 242.207 335.484 242.207H331.543C331.296 242.207 331.095 242.006 331.095 241.76V241.757ZM335.036 87.224H331.992V241.31H335.036V87.224Z" fill="#7E868A"/>
<path d="M386.372 176.377C386.579 176.377 386.765 176.234 386.81 176.025L397.659 126.543L408.508 176.025C408.561 176.269 408.787 176.422 409.041 176.367C409.283 176.314 409.437 176.076 409.384 175.835L398.097 124.351C398.007 123.941 397.311 123.941 397.221 124.351L385.934 175.835C385.881 176.076 386.035 176.314 386.277 176.367C386.311 176.375 386.34 176.377 386.372 176.377Z" fill="#6E1636"/>
<path d="M397.659 176.377C397.906 176.377 398.107 176.176 398.107 175.93V124.446C398.107 124.2 397.906 123.999 397.659 123.999C397.412 123.999 397.21 124.2 397.21 124.446V175.93C397.21 176.176 397.412 176.377 397.659 176.377Z" fill="#6E1636"/>
<path d="M330.601 83.0129C330.601 84.6168 331.904 85.9191 333.515 85.9191C335.126 85.9191 336.429 84.6168 336.429 83.0129C336.429 81.4089 333.515 77.473 333.515 77.473C333.515 77.473 330.601 81.4089 330.601 83.0129Z" fill="#6E1636"/>
<path d="M386.194 127.834C389.867 127.834 393.553 127.279 397.131 126.154C398.078 125.855 398.601 124.851 398.301 123.907C398.004 122.964 396.993 122.438 396.051 122.739C387.033 125.579 377.229 124.394 369.156 119.484C359.61 113.684 347.681 112.599 337.246 116.591C336.32 116.945 335.858 117.98 336.214 118.904C336.567 119.828 337.604 120.291 338.533 119.934C347.936 116.339 358.689 117.313 367.288 122.541C373.044 126.04 379.591 127.834 386.192 127.834H386.194Z" fill="#7E868A"/>
<path d="M280.833 127.834C287.433 127.834 293.98 126.04 299.736 122.541C308.338 117.311 319.088 116.336 328.491 119.934C329.42 120.291 330.455 119.828 330.811 118.904C331.166 117.98 330.704 116.945 329.778 116.591C319.341 112.597 307.414 113.682 297.868 119.484C289.792 124.391 279.994 125.579 270.974 122.739C270.032 122.437 269.02 122.967 268.723 123.906C268.423 124.849 268.949 125.855 269.894 126.154C273.471 127.281 277.16 127.834 280.83 127.834H280.833Z" fill="#7E868A"/>
<path d="M338.653 119.06C338.653 121.89 336.352 124.184 333.515 124.184C330.678 124.184 328.377 121.89 328.377 119.06C328.377 116.231 330.678 113.936 333.515 113.936C336.352 113.936 338.653 116.231 338.653 119.06Z" fill="#7E868A"/>
<path d="M327.926 119.06C327.926 115.987 330.434 113.486 333.512 113.486C336.591 113.486 339.101 115.987 339.101 119.06C339.101 122.133 336.593 124.634 333.512 124.634C330.431 124.634 327.926 122.133 327.926 119.06ZM328.823 119.06C328.823 121.641 330.927 123.737 333.512 123.737C336.097 123.737 338.204 121.638 338.204 119.06C338.204 116.482 336.1 114.383 333.512 114.383C330.925 114.383 328.823 116.482 328.823 119.06Z" fill="#7E868A"/>
<path d="M333.515 92.7083C335.542 92.7083 337.188 91.0699 337.188 89.0451C337.188 87.0229 335.545 85.3818 333.515 85.3818C331.487 85.3818 329.842 87.0202 329.842 89.0451C329.842 91.0673 331.485 92.7083 333.515 92.7083Z" fill="white"/>
<path d="M329.393 89.0477C329.393 86.782 331.24 84.9371 333.512 84.9371C335.784 84.9371 337.634 86.782 337.634 89.0477C337.634 91.3134 335.784 93.1582 333.512 93.1582C331.24 93.1582 329.393 91.3134 329.393 89.0477ZM330.29 89.0477C330.29 90.8184 331.737 92.2609 333.512 92.2609C335.288 92.2609 336.737 90.8184 336.737 89.0477C336.737 87.2769 335.29 85.8344 333.512 85.8344C331.734 85.8344 330.29 87.2769 330.29 89.0477Z" fill="#C8B56D"/>
<path d="M398.388 127.29C400.097 126.888 401.156 125.18 400.752 123.476C400.349 121.771 398.637 120.716 396.928 121.118C395.219 121.52 394.16 123.228 394.564 124.932C394.967 126.637 396.679 127.692 398.388 127.29Z" fill="white"/>
<path d="M394.031 124.185C394.031 122.189 395.661 120.566 397.659 120.566C399.657 120.566 401.287 122.189 401.287 124.185C401.287 126.18 399.657 127.803 397.659 127.803C395.661 127.803 394.031 126.18 394.031 124.185ZM394.928 124.185C394.928 125.685 396.154 126.908 397.659 126.908C399.164 126.908 400.39 125.685 400.39 124.185C400.39 122.684 399.164 121.461 397.659 121.461C396.154 121.461 394.928 122.684 394.928 124.185Z" fill="#7E868A"/>
<path d="M421.074 173.114C418.192 183.317 408.811 190.805 397.659 190.805C386.507 190.805 377.126 183.317 374.244 173.114H421.074Z" fill="#6E1636"/>
<path d="M258.081 176.377C258.288 176.377 258.474 176.234 258.519 176.025L269.368 126.543L280.217 176.025C280.27 176.269 280.496 176.422 280.751 176.367C280.992 176.314 281.146 176.076 281.093 175.835L269.806 124.351C269.716 123.941 269.02 123.941 268.93 124.351L257.643 175.835C257.59 176.076 257.744 176.314 257.986 176.367C258.02 176.375 258.049 176.377 258.081 176.377Z" fill="#C8B56D"/>
<path d="M269.368 176.377C269.615 176.377 269.817 176.176 269.817 175.93V124.446C269.817 124.2 269.615 123.999 269.368 123.999C269.121 123.999 268.92 124.2 268.92 124.446V175.93C268.92 176.176 269.121 176.377 269.368 176.377Z" fill="#C8B56D"/>
<path d="M292.783 173.114C289.901 183.317 280.52 190.805 269.368 190.805C258.217 190.805 248.835 183.317 245.953 173.114H292.783Z" fill="#C8B56D"/>
<path d="M271.617 126.426C272.859 125.187 272.859 123.18 271.617 121.941C270.376 120.703 268.363 120.703 267.121 121.941C265.879 123.18 265.879 125.187 267.121 126.426C268.363 127.664 270.376 127.664 271.617 126.426Z" fill="white"/>
<path d="M265.74 124.184C265.74 122.189 267.37 120.566 269.368 120.566C271.366 120.566 272.996 122.189 272.996 124.184C272.996 126.18 271.366 127.803 269.368 127.803C267.37 127.803 265.74 126.18 265.74 124.184ZM266.637 124.184C266.637 125.685 267.863 126.908 269.368 126.908C270.873 126.908 272.099 125.685 272.099 124.184C272.099 122.684 270.873 121.461 269.368 121.461C267.863 121.461 266.637 122.684 266.637 124.184Z" fill="#7E868A"/>
<path d="M316.273 244.459H350.754C351.933 244.459 352.885 243.507 352.885 242.334C352.885 241.159 351.93 240.209 350.754 240.209H316.273C315.094 240.209 314.142 241.161 314.142 242.334C314.142 243.509 315.097 244.459 316.273 244.459Z" fill="#7E868A"/>
<path d="M313.693 242.334C313.693 240.915 314.853 239.759 316.275 239.759H350.754C352.177 239.759 353.334 240.913 353.334 242.334C353.334 243.755 352.177 244.907 350.754 244.907H316.275C314.853 244.907 313.693 243.753 313.693 242.334ZM316.275 240.653C315.346 240.653 314.59 241.408 314.59 242.331C314.59 243.255 315.346 244.009 316.275 244.009H350.754C351.681 244.009 352.437 243.258 352.437 242.331C352.437 241.405 351.681 240.653 350.754 240.653H316.275Z" fill="#7E868A"/>
<path d="M298.627 255.46H368.403C368.403 249.385 363.466 244.462 357.376 244.462H309.657C303.566 244.462 298.63 249.385 298.63 255.46H298.627Z" fill="white"/>
<path d="M298.179 255.46C298.179 249.147 303.327 244.012 309.657 244.012H357.376C363.705 244.012 368.854 249.147 368.854 255.46C368.854 255.706 368.652 255.907 368.405 255.907H298.63C298.383 255.907 298.181 255.706 298.181 255.46H298.179ZM357.373 244.907H309.654C303.972 244.907 299.32 249.398 299.084 255.01H367.944C367.707 249.398 363.055 244.907 357.373 244.907Z" fill="#7E868A"/>
<path d="M213.326 255.163H295.135C281.738 255.163 270.876 265.994 270.876 279.358C270.876 292.719 281.735 303.553 295.135 303.553H213.326C199.93 303.553 189.067 292.722 189.067 279.358C189.067 265.997 199.927 255.163 213.326 255.163Z" fill="#6E1636"/>
<path d="M270.881 279.355C270.881 292.719 281.735 303.545 295.135 303.545H436.551C436.039 302.301 435.58 301.057 435.161 299.789C430.7 286.555 430.7 272.209 435.227 258.935C435.32 258.66 435.41 258.398 435.503 258.122L436.554 255.163H295.137C281.738 255.163 270.883 265.989 270.883 279.353L270.881 279.355Z" fill="#7E868A"/>
<path d="M276.353 279.355C276.353 290.639 287.6 299.789 301.485 299.789H435.158C430.697 286.555 430.697 272.209 435.225 258.935H301.485C287.6 258.935 276.353 268.072 276.353 279.355Z" fill="white"/>
<path d="M275.905 279.355C275.905 267.85 287.38 258.488 301.485 258.488H435.225C435.371 258.488 435.506 258.556 435.588 258.676C435.673 258.792 435.694 258.943 435.647 259.081C431.191 272.145 431.167 286.552 435.583 299.646C435.628 299.784 435.607 299.932 435.522 300.051C435.437 300.167 435.302 300.236 435.158 300.236H301.485C287.38 300.236 275.905 290.869 275.905 279.355ZM434.604 259.385H301.488C287.879 259.385 276.804 268.344 276.804 279.358C276.804 290.371 287.879 299.344 301.488 299.344H434.54C430.323 286.42 430.347 272.28 434.604 259.385Z" fill="#7E868A"/>
<path d="M321.397 267.68H421.223C421.47 267.68 421.671 267.479 421.671 267.233C421.671 266.987 421.47 266.785 421.223 266.785H321.397C321.151 266.785 320.949 266.987 320.949 267.233C320.949 267.479 321.151 267.68 321.397 267.68Z" fill="#7E868A"/>
<path d="M299.694 274.199H386.775C387.022 274.199 387.224 273.998 387.224 273.752C387.224 273.506 387.022 273.305 386.775 273.305H299.694C299.447 273.305 299.245 273.506 299.245 273.752C299.245 273.998 299.447 274.199 299.694 274.199Z" fill="#7E868A"/>
<path d="M367.333 282.497H415.578C415.825 282.497 416.026 282.296 416.026 282.05C416.026 281.804 415.825 281.602 415.578 281.602H367.333C367.086 281.602 366.885 281.804 366.885 282.05C366.885 282.296 367.086 282.497 367.333 282.497Z" fill="#7E868A"/>
<path d="M314.566 289.662H381.115C381.362 289.662 381.563 289.461 381.563 289.215C381.563 288.969 381.362 288.767 381.115 288.767H314.566C314.319 288.767 314.118 288.969 314.118 289.215C314.118 289.461 314.319 289.662 314.566 289.662Z" fill="#7E868A"/>
</g>
<defs>
<clipPath id="clip0_65_2313">
<rect width="437" height="304" fill="white"/>
</clipPath>
</defs>
</svg>
