<svg width="1440" height="135" viewBox="0 0 1440 135" fill="none" xmlns="http://www.w3.org/2000/svg">
<path d="M-30.8934 68.5409C-30.3355 68.8555 -29.7938 69.1862 -29.2683 69.5331C-23.0427 73.6717 -18.8869 80.7468 -16.9141 90.581C-16.4695 92.7673 -17.6418 94.9858 -19.6954 95.8652L-38.4692 103.908C-40.8705 104.941 -43.6679 103.828 -44.7109 101.424C-45.7378 99.0195 -44.622 96.2282 -42.2207 95.2036L-27.1419 88.7336C-28.8802 82.9573 -31.6696 78.9478 -35.4534 76.8503C-39.6335 74.5188 -44.428 74.8818 -47.0475 75.3497L-49.2144 101.972C-49.2791 102.739 -49.5378 103.489 -49.9663 104.15C-36.836 113.533 -25.4602 110.766 -21.175 109.128C-20.9567 109.039 -20.4878 108.16 -20.3099 107.821C-20.1967 107.611 -20.0997 107.426 -20.0269 107.329L-19.2508 106.135C-18.7656 105.401 -18.2805 104.667 -17.7954 103.933L-12.5724 96.0507C-5.91024 86.0068 -5.02895 84.6918 1.55237 74.8415L1.87578 74.3575L8.57838 82.5217C-0.654876 95.8652 -4.27703 100.923 -13.3082 114.444C-13.1384 119.228 -11.1656 130.983 3.13706 139.405C3.57366 138.776 4.15579 138.259 4.84303 137.912L28.6134 125.658C28.0313 123.06 26.5194 118.527 22.8083 115.582C19.3882 112.887 14.6099 111.847 8.57029 112.476L8.40859 128.691C8.40859 129.853 8.03667 130.999 7.27667 131.886C6.34688 132.959 5.0209 133.564 3.61408 133.548C2.33663 133.532 1.1562 133.024 0.274914 132.12C-0.614454 131.225 -1.09956 130.023 -1.08339 128.756L-0.881265 108.37C-0.857009 106.135 0.751939 104.207 2.93493 103.771C12.7907 101.795 20.9406 102.892 27.1662 107.03C27.6917 107.377 28.2172 107.757 28.7185 108.152C38.0326 115.517 38.542 127.635 38.5582 128.151C38.6228 129.974 37.6122 131.693 35.9871 132.523L12.4754 144.649C13.3405 145.931 13.5265 147.577 12.9525 149.013C12.4431 150.32 11.3839 151.312 10.0256 151.772C8.92604 152.135 7.71327 152.047 6.62985 151.619C-15.0384 143.003 -20.8031 127.828 -22.2989 119.309C-30.7721 121.221 -47.088 121.753 -63.4362 105.006C-64.3255 104.11 -64.7945 102.908 -64.7864 101.641C-64.7702 100.375 -64.2609 99.1889 -63.3472 98.3096C-62.0213 97.0269 -60.0727 96.6396 -58.3587 97.2689L-56.2404 71.2354C-56.0948 69.4202 -54.8902 67.839 -53.1842 67.1855C-52.6991 67 -41.3071 62.7888 -30.8934 68.5409Z" stroke="white" stroke-width="0.75" stroke-miterlimit="10"/>
<path d="M63.0562 68.5411C63.6141 68.8557 64.1558 69.1865 64.6813 69.5334C70.9069 73.672 75.0627 80.7471 77.0354 90.5813C77.4801 92.7675 76.3078 94.9861 74.2541 95.8654L55.4804 103.909C53.0791 104.941 50.2816 103.828 49.2387 101.424C48.2118 99.0198 49.3276 96.2284 51.7289 95.2039L66.8077 88.7338C65.0694 82.9576 62.28 78.9481 58.4962 76.8505C54.3161 74.519 49.5216 74.8821 46.902 75.35L44.7352 101.972C44.6705 102.739 44.4118 103.489 43.9833 104.151C57.1136 113.533 68.4894 110.766 72.7746 109.128C72.9929 109.039 73.4618 108.16 73.6397 107.821C73.7529 107.612 73.8499 107.426 73.9227 107.329L74.6988 106.135C75.1839 105.401 75.6691 104.667 76.1542 103.933L81.3772 96.051C88.0394 86.007 88.9206 84.692 95.502 74.8417L95.8254 74.3577L102.528 82.5219C93.2947 95.8735 89.6726 100.924 80.6414 114.445C80.8112 119.229 82.784 130.983 97.0866 139.405C97.5232 138.776 98.1054 138.26 98.7926 137.913L122.563 125.658C121.981 123.061 120.469 118.527 116.758 115.582C113.338 112.888 108.559 111.847 102.52 112.476L102.358 128.692C102.358 129.853 101.986 130.999 101.226 131.886C100.296 132.959 98.9705 133.564 97.5637 133.548C96.2862 133.532 95.1058 133.024 94.2245 132.12C93.3351 131.225 92.85 130.023 92.8662 128.756L93.0683 108.37C93.0926 106.135 94.7015 104.207 96.8845 103.771C106.74 101.795 114.89 102.892 121.116 107.031C121.641 107.378 122.167 107.757 122.668 108.152C131.982 115.518 132.492 127.635 132.508 128.151C132.572 129.974 131.562 131.693 129.937 132.524L106.433 144.641C107.298 145.924 107.484 147.569 106.91 149.005C106.401 150.312 105.342 151.305 103.983 151.764C102.884 152.128 101.671 152.039 100.588 151.611C78.9193 143.003 73.1626 127.82 71.6669 119.309C63.1936 121.221 46.8778 121.754 30.5296 105.006C29.6402 104.11 29.1713 102.908 29.1794 101.642C29.1955 100.375 29.7049 99.1892 30.6185 98.3098C31.9445 97.0271 33.893 96.6399 35.6071 97.2691L37.7254 71.2356C37.8709 69.4204 39.0756 67.8392 40.7816 67.1858C41.2667 67.0002 52.6587 62.789 63.0724 68.5411H63.0562Z" stroke="white" stroke-width="0.75" stroke-miterlimit="10"/>
<path d="M157.006 68.5411C157.564 68.8557 158.105 69.1865 158.631 69.5334C164.857 73.672 169.012 80.7471 170.985 90.5813C171.43 92.7675 170.257 94.9861 168.204 95.8654L149.43 103.909C147.029 104.941 144.231 103.828 143.188 101.424C142.161 99.0198 143.277 96.2284 145.678 95.2039L160.757 88.7338C159.019 82.9576 156.23 78.9481 152.446 76.8505C148.266 74.519 143.471 74.8821 140.852 75.35L138.685 101.972C138.62 102.739 138.361 103.489 137.933 104.151C151.063 113.533 162.439 110.766 166.724 109.128C166.942 109.039 167.411 108.16 167.589 107.821C167.702 107.612 167.8 107.426 167.872 107.329L168.648 106.135C169.134 105.401 169.619 104.667 170.104 103.933L175.327 96.051C181.989 86.007 182.87 84.692 189.452 74.8417L189.775 74.3577L196.478 82.5219C187.244 95.8735 183.622 100.924 174.591 114.445C174.761 119.229 176.734 130.983 191.036 139.405C191.473 138.776 192.055 138.26 192.742 137.913L216.513 125.658C215.93 123.061 214.419 118.527 210.707 115.582C207.287 112.888 202.509 111.847 196.47 112.476L196.308 128.692C196.308 129.853 195.936 130.999 195.176 131.886C194.246 132.959 192.92 133.564 191.513 133.548C190.236 133.532 189.055 133.024 188.174 132.12C187.285 131.225 186.8 130.023 186.816 128.756L187.018 108.37C187.042 106.135 188.651 104.207 190.834 103.771C200.69 101.795 208.84 102.892 215.065 107.031C215.591 107.378 216.116 107.757 216.618 108.152C225.932 115.518 226.441 127.635 226.457 128.151C226.522 129.974 225.511 131.693 223.886 132.524L200.383 144.641C201.248 145.924 201.434 147.569 200.86 149.005C200.35 150.312 199.291 151.305 197.933 151.764C196.833 152.128 195.621 152.039 194.537 151.611C172.869 143.003 167.112 127.82 165.617 119.309C157.143 121.221 140.827 121.754 124.479 105.006C123.59 104.11 123.121 102.908 123.129 101.642C123.145 100.375 123.655 99.1892 124.568 98.3098C125.894 97.0271 127.843 96.6399 129.557 97.2691L131.675 71.2356C131.821 69.4204 133.025 67.8392 134.731 67.1858C135.216 67.0002 146.608 62.789 157.022 68.5411H157.006Z" stroke="white" stroke-width="0.75" stroke-miterlimit="10"/>
<path d="M250.955 68.5411C251.513 68.8557 252.055 69.1865 252.581 69.5334C258.806 73.672 262.962 80.7471 264.935 90.5813C265.379 92.7675 264.207 94.9861 262.153 95.8654L243.38 103.909C240.978 104.941 238.181 103.828 237.138 101.424C236.111 99.0198 237.227 96.2284 239.628 95.2039L254.707 88.7338C252.969 82.9576 250.179 78.9481 246.395 76.8505C242.215 74.519 237.421 74.8821 234.801 75.35L232.634 101.972C232.57 102.739 232.311 103.489 231.882 104.151C245.013 113.533 256.389 110.766 260.674 109.128C260.892 109.039 261.361 108.16 261.539 107.821C261.652 107.612 261.749 107.426 261.822 107.329L262.598 106.135C263.083 105.401 263.568 104.667 264.053 103.933L269.276 96.051C275.939 86.007 276.82 84.692 283.401 74.8417L283.725 74.3577L290.427 82.5219C281.194 95.8735 277.572 100.924 268.541 114.445C268.71 119.229 270.683 130.983 284.986 139.405C285.422 138.776 286.005 138.26 286.692 137.913L310.462 125.658C309.88 123.061 308.368 118.527 304.657 115.582C301.237 112.888 296.459 111.847 290.419 112.476L290.257 128.692C290.257 129.853 289.885 130.999 289.125 131.886C288.196 132.959 286.87 133.564 285.463 133.548C284.185 133.532 283.005 133.024 282.124 132.12C281.234 131.225 280.749 130.023 280.765 128.756L280.968 108.37C280.992 106.135 282.601 104.207 284.784 103.771C294.64 101.795 302.789 102.892 309.015 107.031C309.541 107.378 310.066 107.757 310.567 108.152C319.881 115.518 320.391 127.635 320.407 128.151C320.472 129.974 319.461 131.693 317.836 132.524L294.332 144.641C295.197 145.924 295.383 147.569 294.809 149.005C294.3 150.312 293.241 151.305 291.883 151.764C290.783 152.128 289.57 152.039 288.487 151.611C266.818 143.003 261.062 127.82 259.566 119.309C251.093 121.221 234.777 121.754 218.429 105.006C217.539 104.11 217.07 102.908 217.079 101.642C217.095 100.375 217.604 99.1892 218.518 98.3098C219.844 97.0271 221.792 96.6399 223.506 97.2691L225.625 71.2356C225.77 69.4204 226.975 67.8392 228.681 67.1858C229.166 67.0002 240.558 62.789 250.972 68.5411H250.955Z" stroke="white" stroke-width="0.75" stroke-miterlimit="10"/>
<path d="M344.905 68.5411C345.463 68.8557 346.005 69.1865 346.53 69.5334C352.756 73.672 356.911 80.7471 358.884 90.5813C359.329 92.7675 358.157 94.9861 356.103 95.8654L337.329 103.909C334.928 104.941 332.13 103.828 331.087 101.424C330.061 99.0198 331.176 96.2284 333.578 95.2039L348.657 88.7338C346.918 82.9576 344.129 78.9481 340.345 76.8505C336.165 74.519 331.37 74.8821 328.751 75.35L326.584 101.972C326.519 102.739 326.261 103.489 325.832 104.151C338.962 113.533 350.338 110.766 354.623 109.128C354.842 109.039 355.311 108.16 355.488 107.821C355.602 107.612 355.699 107.426 355.771 107.329L356.548 106.135C357.033 105.401 357.518 104.667 358.003 103.933L363.226 96.051C369.888 86.007 370.769 84.692 377.351 74.8417L377.674 74.3577L384.377 82.5219C375.144 95.8735 371.521 100.924 362.49 114.445C362.66 119.229 364.633 130.983 378.935 139.405C379.372 138.776 379.954 138.26 380.641 137.913L404.412 125.658C403.83 123.061 402.318 118.527 398.607 115.582C395.187 112.888 390.408 111.847 384.369 112.476L384.207 128.692C384.207 129.853 383.835 130.999 383.075 131.886C382.145 132.959 380.819 133.564 379.412 133.548C378.135 133.532 376.955 133.024 376.073 132.12C375.184 131.225 374.699 130.023 374.715 128.756L374.917 108.37C374.941 106.135 376.55 104.207 378.733 103.771C388.589 101.795 396.739 102.892 402.965 107.031C403.49 107.378 404.016 107.757 404.517 108.152C413.831 115.518 414.34 127.635 414.357 128.151C414.421 129.974 413.411 131.693 411.785 132.524L388.282 144.641C389.147 145.924 389.333 147.569 388.759 149.005C388.25 150.312 387.19 151.305 385.832 151.764C384.733 152.128 383.52 152.039 382.436 151.611C360.768 143.003 355.011 127.82 353.516 119.309C345.042 121.221 328.727 121.754 312.378 105.006C311.489 104.11 311.02 102.908 311.028 101.642C311.044 100.375 311.554 99.1892 312.467 98.3098C313.793 97.0271 315.742 96.6399 317.456 97.2691L319.574 71.2356C319.72 69.4204 320.924 67.8392 322.63 67.1858C323.116 67.0002 334.507 62.789 344.921 68.5411H344.905Z" stroke="white" stroke-width="0.75" stroke-miterlimit="10"/>
<path d="M438.855 68.5411C439.412 68.8557 439.954 69.1865 440.48 69.5334C446.705 73.672 450.861 80.7471 452.834 90.5813C453.279 92.7675 452.106 94.9861 450.053 95.8654L431.279 103.909C428.878 104.941 426.08 103.828 425.037 101.424C424.01 99.0198 425.126 96.2284 427.527 95.2039L442.606 88.7338C440.868 82.9576 438.078 78.9481 434.295 76.8505C430.115 74.519 425.32 74.8821 422.7 75.35L420.534 101.972C420.469 102.739 420.21 103.489 419.782 104.151C432.912 113.533 444.288 110.766 448.573 109.128C448.791 109.039 449.26 108.16 449.438 107.821C449.551 107.612 449.648 107.426 449.721 107.329L450.497 106.135C450.982 105.401 451.467 104.667 451.953 103.933L457.176 96.051C463.838 86.007 464.719 84.692 471.3 74.8417L471.624 74.3577L478.326 82.5219C469.093 95.8735 465.471 100.924 456.44 114.445C456.61 119.229 458.582 130.983 472.885 139.405C473.322 138.776 473.904 138.26 474.591 137.913L498.361 125.658C497.779 123.061 496.267 118.527 492.556 115.582C489.136 112.888 484.358 111.847 478.318 112.476L478.157 128.692C478.157 129.853 477.785 130.999 477.025 131.886C476.095 132.959 474.769 133.564 473.362 133.548C472.085 133.532 470.904 133.024 470.023 132.12C469.134 131.225 468.648 130.023 468.665 128.756L468.867 108.37C468.891 106.135 470.5 104.207 472.683 103.771C482.539 101.795 490.689 102.892 496.914 107.031C497.44 107.378 497.965 107.757 498.467 108.152C507.781 115.518 508.29 127.635 508.306 128.151C508.371 129.974 507.36 131.693 505.735 132.524L482.232 144.641C483.097 145.924 483.283 147.569 482.709 149.005C482.199 150.312 481.14 151.305 479.782 151.764C478.682 152.128 477.469 152.039 476.386 151.611C454.718 143.003 448.961 127.82 447.465 119.309C438.992 121.221 422.676 121.754 406.328 105.006C405.439 104.11 404.97 102.908 404.978 101.642C404.994 100.375 405.503 99.1892 406.417 98.3098C407.743 97.0271 409.691 96.6399 411.405 97.2691L413.524 71.2356C413.669 69.4204 414.874 67.8392 416.58 67.1858C417.065 67.0002 428.457 62.789 438.871 68.5411H438.855Z" stroke="white" stroke-width="0.75" stroke-miterlimit="10"/>
<path d="M532.804 68.5411C533.362 68.8557 533.904 69.1865 534.429 69.5334C540.655 73.672 544.811 80.7471 546.783 90.5813C547.228 92.7675 546.056 94.9861 544.002 95.8654L525.228 103.909C522.827 104.941 520.03 103.828 518.987 101.424C517.96 99.0198 519.076 96.2284 521.477 95.2039L536.556 88.7338C534.817 82.9576 532.028 78.9481 528.244 76.8505C524.064 74.519 519.27 74.8821 516.65 75.35L514.483 101.972C514.419 102.739 514.16 103.489 513.731 104.151C526.862 113.533 538.237 110.766 542.523 109.128C542.741 109.039 543.21 108.16 543.388 107.821C543.501 107.612 543.598 107.426 543.671 107.329L544.447 106.135C544.932 105.401 545.417 104.667 545.902 103.933L551.125 96.051C557.787 86.007 558.669 84.692 565.25 74.8417L565.573 74.3577L572.276 82.5219C563.043 95.8735 559.421 100.924 550.389 114.445C550.559 119.229 552.532 130.983 566.835 139.405C567.271 138.776 567.853 138.26 568.541 137.913L592.311 125.658C591.729 123.061 590.217 118.527 586.506 115.582C583.086 112.888 578.308 111.847 572.268 112.476L572.106 128.692C572.106 129.853 571.734 130.999 570.974 131.886C570.044 132.959 568.719 133.564 567.312 133.548C566.034 133.532 564.854 133.024 563.973 132.12C563.083 131.225 562.598 130.023 562.614 128.756L562.816 108.37C562.841 106.135 564.45 104.207 566.633 103.771C576.488 101.795 584.638 102.892 590.864 107.031C591.389 107.378 591.915 107.757 592.416 108.152C601.73 115.518 602.24 127.635 602.256 128.151C602.32 129.974 601.31 131.693 599.685 132.524L576.181 144.641C577.046 145.924 577.232 147.569 576.658 149.005C576.149 150.312 575.09 151.305 573.731 151.764C572.632 152.128 571.419 152.039 570.336 151.611C548.667 143.003 542.911 127.82 541.415 119.309C532.942 121.221 516.626 121.754 500.278 105.006C499.388 104.11 498.919 102.908 498.927 101.642C498.944 100.375 499.453 99.1892 500.367 98.3098C501.693 97.0271 503.641 96.6399 505.355 97.2691L507.473 71.2356C507.619 69.4204 508.824 67.8392 510.53 67.1858C511.015 67.0002 522.407 62.789 532.82 68.5411H532.804Z" stroke="white" stroke-width="0.75" stroke-miterlimit="10"/>
<path d="M626.754 68.5411C627.312 68.8557 627.853 69.1865 628.379 69.5334C634.604 73.672 638.76 80.7471 640.733 90.5813C641.178 92.7675 640.005 94.9861 637.952 95.8654L619.178 103.909C616.777 104.941 613.979 103.828 612.936 101.424C611.909 99.0198 613.025 96.2284 615.426 95.2039L630.505 88.7338C628.767 82.9576 625.978 78.9481 622.194 76.8505C618.014 74.519 613.219 74.8821 610.6 75.35L608.433 101.972C608.368 102.739 608.109 103.489 607.681 104.151C620.811 113.533 632.187 110.766 636.472 109.128C636.69 109.039 637.159 108.16 637.337 107.821C637.45 107.612 637.547 107.426 637.62 107.329L638.396 106.135C638.882 105.401 639.367 104.667 639.852 103.933L645.075 96.051C651.737 86.007 652.618 84.692 659.2 74.8417L659.523 74.3577L666.226 82.5219C656.992 95.8735 653.37 100.924 644.339 114.445C644.509 119.229 646.482 130.983 660.784 139.405C661.221 138.776 661.803 138.26 662.49 137.913L686.261 125.658C685.678 123.061 684.167 118.527 680.455 115.582C677.035 112.888 672.257 111.847 666.217 112.476L666.056 128.692C666.056 129.853 665.684 130.999 664.924 131.886C663.994 132.959 662.668 133.564 661.261 133.548C659.984 133.532 658.803 133.024 657.922 132.12C657.033 131.225 656.548 130.023 656.564 128.756L656.766 108.37C656.79 106.135 658.399 104.207 660.582 103.771C670.438 101.795 678.588 102.892 684.813 107.031C685.339 107.378 685.864 107.757 686.366 108.152C695.68 115.518 696.189 127.635 696.205 128.151C696.27 129.974 695.259 131.693 693.634 132.524L670.131 144.641C670.996 145.924 671.182 147.569 670.608 149.005C670.098 150.312 669.039 151.305 667.681 151.764C666.581 152.128 665.369 152.039 664.285 151.611C642.617 143.003 636.86 127.82 635.365 119.309C626.891 121.221 610.575 121.754 594.227 105.006C593.338 104.11 592.869 102.908 592.877 101.642C592.893 100.375 593.402 99.1892 594.316 98.3098C595.642 97.0271 597.591 96.6399 599.305 97.2691L601.423 71.2356C601.568 69.4204 602.773 67.8392 604.479 67.1858C604.964 67.0002 616.356 62.789 626.77 68.5411H626.754Z" stroke="white" stroke-width="0.75" stroke-miterlimit="10"/>
<path d="M720.703 68.5411C721.261 68.8557 721.803 69.1865 722.329 69.5334C728.554 73.672 732.71 80.7471 734.683 90.5813C735.127 92.7675 733.955 94.9861 731.901 95.8654L713.128 103.909C710.726 104.941 707.929 103.828 706.886 101.424C705.859 99.0198 706.975 96.2284 709.376 95.2039L724.455 88.7338C722.717 82.9576 719.927 78.9481 716.143 76.8505C711.963 74.519 707.169 74.8821 704.549 75.35L702.382 101.972C702.318 102.739 702.059 103.489 701.631 104.151C714.761 113.533 726.137 110.766 730.422 109.128C730.64 109.039 731.109 108.16 731.287 107.821C731.4 107.612 731.497 107.426 731.57 107.329L732.346 106.135C732.831 105.401 733.316 104.667 733.801 103.933L739.024 96.051C745.687 86.007 746.568 84.692 753.149 74.8417L753.473 74.3577L760.175 82.5219C750.942 95.8735 747.32 100.924 738.289 114.445C738.458 119.229 740.431 130.983 754.734 139.405C755.17 138.776 755.753 138.26 756.44 137.913L780.21 125.658C779.628 123.061 778.116 118.527 774.405 115.582C770.985 112.888 766.207 111.847 760.167 112.476L760.005 128.692C760.005 129.853 759.633 130.999 758.873 131.886C757.944 132.959 756.618 133.564 755.211 133.548C753.933 133.532 752.753 133.024 751.872 132.12C750.982 131.225 750.497 130.023 750.513 128.756L750.716 108.37C750.74 106.135 752.349 104.207 754.532 103.771C764.388 101.795 772.537 102.892 778.763 107.031C779.289 107.378 779.814 107.757 780.315 108.152C789.629 115.518 790.139 127.635 790.155 128.151C790.22 129.974 789.209 131.693 787.584 132.524L764.08 144.641C764.945 145.924 765.131 147.569 764.557 149.005C764.048 150.312 762.989 151.305 761.631 151.764C760.531 152.128 759.318 152.039 758.235 151.611C736.567 143.003 730.81 127.82 729.314 119.309C720.841 121.221 704.525 121.754 688.177 105.006C687.287 104.11 686.818 102.908 686.827 101.642C686.843 100.375 687.352 99.1892 688.266 98.3098C689.592 97.0271 691.54 96.6399 693.254 97.2691L695.373 71.2356C695.518 69.4204 696.723 67.8392 698.429 67.1858C698.914 67.0002 710.306 62.789 720.72 68.5411H720.703Z" stroke="white" stroke-width="0.75" stroke-miterlimit="10"/>
<path d="M814.653 68.5411C815.211 68.8557 815.753 69.1865 816.278 69.5334C822.504 73.672 826.659 80.7471 828.632 90.5813C829.077 92.7675 827.905 94.9861 825.851 95.8654L807.077 103.909C804.676 104.941 801.878 103.828 800.835 101.424C799.809 99.0198 800.924 96.2284 803.326 95.2039L818.404 88.7338C816.666 82.9576 813.877 78.9481 810.093 76.8505C805.913 74.519 801.118 74.8821 798.499 75.35L796.332 101.972C796.267 102.739 796.009 103.489 795.58 104.151C808.71 113.533 820.086 110.766 824.371 109.128C824.59 109.039 825.059 108.16 825.236 107.821C825.35 107.612 825.447 107.426 825.519 107.329L826.296 106.135C826.781 105.401 827.266 104.667 827.751 103.933L832.974 96.051C839.636 86.007 840.517 84.692 847.099 74.8417L847.422 74.3577L854.125 82.5219C844.892 95.8735 841.269 100.924 832.238 114.445C832.408 119.229 834.381 130.983 848.683 139.405C849.12 138.776 849.702 138.26 850.389 137.913L874.16 125.658C873.578 123.061 872.066 118.527 868.355 115.582C864.935 112.888 860.156 111.847 854.117 112.476L853.955 128.692C853.955 129.853 853.583 130.999 852.823 131.886C851.893 132.959 850.567 133.564 849.16 133.548C847.883 133.532 846.703 133.024 845.821 132.12C844.932 131.225 844.447 130.023 844.463 128.756L844.665 108.37C844.689 106.135 846.298 104.207 848.481 103.771C858.337 101.795 866.487 102.892 872.713 107.031C873.238 107.378 873.764 107.757 874.265 108.152C883.579 115.518 884.088 127.635 884.105 128.151C884.169 129.974 883.159 131.693 881.534 132.524L858.03 144.641C858.895 145.924 859.081 147.569 858.507 149.005C857.998 150.312 856.938 151.305 855.58 151.764C854.48 152.128 853.268 152.039 852.184 151.611C830.516 143.003 824.759 127.82 823.264 119.309C814.79 121.221 798.475 121.754 782.126 105.006C781.237 104.11 780.768 102.908 780.776 101.642C780.792 100.375 781.302 99.1892 782.215 98.3098C783.541 97.0271 785.49 96.6399 787.204 97.2691L789.322 71.2356C789.468 69.4204 790.672 67.8392 792.378 67.1858C792.863 67.0002 804.255 62.789 814.669 68.5411H814.653Z" stroke="white" stroke-width="0.75" stroke-miterlimit="10"/>
<path d="M908.603 68.5411C909.161 68.8557 909.702 69.1865 910.228 69.5334C916.453 73.672 920.609 80.7471 922.582 90.5813C923.027 92.7675 921.854 94.9861 919.801 95.8654L901.027 103.909C898.626 104.941 895.828 103.828 894.785 101.424C893.758 99.0198 894.874 96.2284 897.275 95.2039L912.354 88.7338C910.616 82.9576 907.826 78.9481 904.043 76.8505C899.863 74.519 895.068 74.8821 892.449 75.35L890.282 101.972C890.217 102.739 889.958 103.489 889.53 104.151C902.66 113.533 914.036 110.766 918.321 109.128C918.539 109.039 919.008 108.16 919.186 107.821C919.299 107.612 919.396 107.426 919.469 107.329L920.245 106.135C920.73 105.401 921.215 104.667 921.701 103.933L926.924 96.051C933.586 86.007 934.467 84.692 941.048 74.8417L941.372 74.3577L948.074 82.5219C938.841 95.8735 935.219 100.924 926.188 114.445C926.358 119.229 928.33 130.983 942.633 139.405C943.07 138.776 943.652 138.26 944.339 137.913L968.109 125.658C967.527 123.061 966.015 118.527 962.304 115.582C958.884 112.888 954.106 111.847 948.066 112.476L947.905 128.692C947.905 129.853 947.533 130.999 946.773 131.886C945.843 132.959 944.517 133.564 943.11 133.548C941.833 133.532 940.652 133.024 939.771 132.12C938.882 131.225 938.396 130.023 938.413 128.756L938.615 108.37C938.639 106.135 940.248 104.207 942.431 103.771C952.287 101.795 960.437 102.892 966.662 107.031C967.188 107.378 967.713 107.757 968.215 108.152C977.529 115.518 978.038 127.635 978.054 128.151C978.119 129.974 977.108 131.693 975.483 132.524L951.979 144.641C952.845 145.924 953.031 147.569 952.457 149.005C951.947 150.312 950.888 151.305 949.53 151.764C948.43 152.128 947.217 152.039 946.134 151.611C924.466 143.003 918.709 127.82 917.213 119.309C908.74 121.221 892.424 121.754 876.076 105.006C875.187 104.11 874.718 102.908 874.726 101.642C874.742 100.375 875.251 99.1892 876.165 98.3098C877.491 97.0271 879.439 96.6399 881.153 97.2691L883.272 71.2356C883.417 69.4204 884.622 67.8392 886.328 67.1858C886.813 67.0002 898.205 62.789 908.619 68.5411H908.603Z" stroke="white" stroke-width="0.75" stroke-miterlimit="10"/>
<path d="M1002.55 68.5411C1003.11 68.8557 1003.65 69.1865 1004.18 69.5334C1010.4 73.672 1014.56 80.7471 1016.53 90.5813C1016.98 92.7675 1015.8 94.9861 1013.75 95.8654L994.976 103.909C992.575 104.941 989.778 103.828 988.735 101.424C987.708 99.0198 988.824 96.2284 991.225 95.2039L1006.3 88.7338C1004.57 82.9576 1001.78 78.9481 997.992 76.8505C993.812 74.519 989.018 74.8821 986.398 75.35L984.231 101.972C984.167 102.739 983.908 103.489 983.479 104.151C996.61 113.533 1007.99 110.766 1012.27 109.128C1012.49 109.039 1012.96 108.16 1013.14 107.821C1013.25 107.612 1013.35 107.426 1013.42 107.329L1014.19 106.135C1014.68 105.401 1015.17 104.667 1015.65 103.933L1020.87 96.051C1027.54 86.007 1028.42 84.692 1035 74.8417L1035.32 74.3577L1042.02 82.5219C1032.79 95.8735 1029.17 100.924 1020.14 114.445C1020.31 119.229 1022.28 130.983 1036.58 139.405C1037.02 138.776 1037.6 138.26 1038.29 137.913L1062.06 125.658C1061.48 123.061 1059.97 118.527 1056.25 115.582C1052.83 112.888 1048.06 111.847 1042.02 112.476L1041.85 128.692C1041.85 129.853 1041.48 130.999 1040.72 131.886C1039.79 132.959 1038.47 133.564 1037.06 133.548C1035.78 133.532 1034.6 133.024 1033.72 132.12C1032.83 131.225 1032.35 130.023 1032.36 128.756L1032.56 108.37C1032.59 106.135 1034.2 104.207 1036.38 103.771C1046.24 101.795 1054.39 102.892 1060.61 107.031C1061.14 107.378 1061.66 107.757 1062.16 108.152C1071.48 115.518 1071.99 127.635 1072 128.151C1072.07 129.974 1071.06 131.693 1069.43 132.524L1045.93 144.641C1046.79 145.924 1046.98 147.569 1046.41 149.005C1045.9 150.312 1044.84 151.305 1043.48 151.764C1042.38 152.128 1041.17 152.039 1040.08 151.611C1018.42 143.003 1012.66 127.82 1011.16 119.309C1002.69 121.221 986.374 121.754 970.026 105.006C969.136 104.11 968.667 102.908 968.675 101.642C968.692 100.375 969.201 99.1892 970.115 98.3098C971.441 97.0271 973.389 96.6399 975.103 97.2691L977.221 71.2356C977.367 69.4204 978.572 67.8392 980.278 67.1858C980.763 67.0002 992.155 62.789 1002.57 68.5411H1002.55Z" stroke="white" stroke-width="0.75" stroke-miterlimit="10"/>
<path d="M1096.5 68.5411C1097.06 68.8557 1097.6 69.1865 1098.13 69.5334C1104.35 73.672 1108.51 80.7471 1110.48 90.5813C1110.93 92.7675 1109.75 94.9861 1107.7 95.8654L1088.93 103.909C1086.52 104.941 1083.73 103.828 1082.68 101.424C1081.66 99.0198 1082.77 96.2284 1085.17 95.2039L1100.25 88.7338C1098.52 82.9576 1095.73 78.9481 1091.94 76.8505C1087.76 74.519 1082.97 74.8821 1080.35 75.35L1078.18 101.972C1078.12 102.739 1077.86 103.489 1077.43 104.151C1090.56 113.533 1101.94 110.766 1106.22 109.128C1106.44 109.039 1106.91 108.16 1107.09 107.821C1107.2 107.612 1107.3 107.426 1107.37 107.329L1108.14 106.135C1108.63 105.401 1109.11 104.667 1109.6 103.933L1114.82 96.051C1121.49 86.007 1122.37 84.692 1128.95 74.8417L1129.27 74.3577L1135.97 82.5219C1126.74 95.8735 1123.12 100.924 1114.09 114.445C1114.26 119.229 1116.23 130.983 1130.53 139.405C1130.97 138.776 1131.55 138.26 1132.24 137.913L1156.01 125.658C1155.43 123.061 1153.91 118.527 1150.2 115.582C1146.78 112.888 1142.01 111.847 1135.97 112.476L1135.8 128.692C1135.8 129.853 1135.43 130.999 1134.67 131.886C1133.74 132.959 1132.42 133.564 1131.01 133.548C1129.73 133.532 1128.55 133.024 1127.67 132.12C1126.78 131.225 1126.3 130.023 1126.31 128.756L1126.51 108.37C1126.54 106.135 1128.15 104.207 1130.33 103.771C1140.19 101.795 1148.34 102.892 1154.56 107.031C1155.09 107.378 1155.61 107.757 1156.11 108.152C1165.43 115.518 1165.94 127.635 1165.95 128.151C1166.02 129.974 1165.01 131.693 1163.38 132.524L1139.88 144.641C1140.74 145.924 1140.93 147.569 1140.36 149.005C1139.85 150.312 1138.79 151.305 1137.43 151.764C1136.33 152.128 1135.12 152.039 1134.03 151.611C1112.36 143.003 1106.61 127.82 1105.11 119.309C1096.64 121.221 1080.32 121.754 1063.98 105.006C1063.09 104.11 1062.62 102.908 1062.63 101.642C1062.64 100.375 1063.15 99.1892 1064.06 98.3098C1065.39 97.0271 1067.34 96.6399 1069.05 97.2691L1071.17 71.2356C1071.32 69.4204 1072.52 67.8392 1074.23 67.1858C1074.71 67.0002 1086.1 62.789 1096.52 68.5411H1096.5Z" stroke="white" stroke-width="0.75" stroke-miterlimit="10"/>
<path d="M1190.45 68.5411C1191.01 68.8557 1191.55 69.1865 1192.08 69.5334C1198.3 73.672 1202.46 80.7471 1204.43 90.5813C1204.88 92.7675 1203.7 94.9861 1201.65 95.8654L1182.88 103.909C1180.47 104.941 1177.68 103.828 1176.63 101.424C1175.61 99.0198 1176.72 96.2284 1179.12 95.2039L1194.2 88.7338C1192.46 82.9576 1189.68 78.9481 1185.89 76.8505C1181.71 74.519 1176.92 74.8821 1174.3 75.35L1172.13 101.972C1172.07 102.739 1171.81 103.489 1171.38 104.151C1184.51 113.533 1195.88 110.766 1200.17 109.128C1200.39 109.039 1200.86 108.16 1201.03 107.821C1201.15 107.612 1201.24 107.426 1201.32 107.329L1202.09 106.135C1202.58 105.401 1203.06 104.667 1203.55 103.933L1208.77 96.051C1215.43 86.007 1216.32 84.692 1222.9 74.8417L1223.22 74.3577L1229.92 82.5219C1220.69 95.8735 1217.07 100.924 1208.04 114.445C1208.21 119.229 1210.18 130.983 1224.48 139.405C1224.92 138.776 1225.5 138.26 1226.19 137.913L1249.96 125.658C1249.38 123.061 1247.86 118.527 1244.15 115.582C1240.73 112.888 1235.95 111.847 1229.91 112.476L1229.75 128.692C1229.75 129.853 1229.38 130.999 1228.62 131.886C1227.69 132.959 1226.37 133.564 1224.96 133.548C1223.68 133.532 1222.5 133.024 1221.62 132.12C1220.73 131.225 1220.25 130.023 1220.26 128.756L1220.46 108.37C1220.49 106.135 1222.1 104.207 1224.28 103.771C1234.14 101.795 1242.29 102.892 1248.51 107.031C1249.04 107.378 1249.56 107.757 1250.06 108.152C1259.38 115.518 1259.89 127.635 1259.9 128.151C1259.97 129.974 1258.96 131.693 1257.33 132.524L1233.83 144.641C1234.69 145.924 1234.88 147.569 1234.31 149.005C1233.8 150.312 1232.74 151.305 1231.38 151.764C1230.28 152.128 1229.07 152.039 1227.98 151.611C1206.31 143.003 1200.56 127.82 1199.06 119.309C1190.59 121.221 1174.27 121.754 1157.92 105.006C1157.04 104.11 1156.57 102.908 1156.57 101.642C1156.59 100.375 1157.1 99.1892 1158.01 98.3098C1159.34 97.0271 1161.29 96.6399 1163 97.2691L1165.12 71.2356C1165.27 69.4204 1166.47 67.8392 1168.18 67.1858C1168.66 67.0002 1180.05 62.789 1190.47 68.5411H1190.45Z" stroke="white" stroke-width="0.75" stroke-miterlimit="10"/>
<path d="M1284.4 68.5411C1284.96 68.8557 1285.5 69.1865 1286.03 69.5334C1292.25 73.672 1296.41 80.7471 1298.38 90.5813C1298.82 92.7675 1297.65 94.9861 1295.6 95.8654L1276.83 103.909C1274.42 104.941 1271.63 103.828 1270.58 101.424C1269.56 99.0198 1270.67 96.2284 1273.07 95.2039L1288.15 88.7338C1286.41 82.9576 1283.62 78.9481 1279.84 76.8505C1275.66 74.519 1270.87 74.8821 1268.25 75.35L1266.08 101.972C1266.02 102.739 1265.76 103.489 1265.33 104.151C1278.46 113.533 1289.83 110.766 1294.12 109.128C1294.34 109.039 1294.81 108.16 1294.98 107.821C1295.1 107.612 1295.19 107.426 1295.27 107.329L1296.04 106.135C1296.53 105.401 1297.01 104.667 1297.5 103.933L1302.72 96.051C1309.38 86.007 1310.27 84.692 1316.85 74.8417L1317.17 74.3577L1323.87 82.5219C1314.64 95.8735 1311.02 100.924 1301.99 114.445C1302.16 119.229 1304.13 130.983 1318.43 139.405C1318.87 138.776 1319.45 138.26 1320.14 137.913L1343.91 125.658C1343.33 123.061 1341.81 118.527 1338.1 115.582C1334.68 112.888 1329.9 111.847 1323.86 112.476L1323.7 128.692C1323.7 129.853 1323.33 130.999 1322.57 131.886C1321.64 132.959 1320.32 133.564 1318.91 133.548C1317.63 133.532 1316.45 133.024 1315.57 132.12C1314.68 131.225 1314.19 130.023 1314.21 128.756L1314.41 108.37C1314.44 106.135 1316.05 104.207 1318.23 103.771C1328.09 101.795 1336.24 102.892 1342.46 107.031C1342.99 107.378 1343.51 107.757 1344.01 108.152C1353.33 115.518 1353.84 127.635 1353.85 128.151C1353.92 129.974 1352.91 131.693 1351.28 132.524L1327.78 144.641C1328.64 145.924 1328.83 147.569 1328.25 149.005C1327.75 150.312 1326.69 151.305 1325.33 151.764C1324.23 152.128 1323.02 152.039 1321.93 151.611C1300.26 143.003 1294.51 127.82 1293.01 119.309C1284.54 121.221 1268.22 121.754 1251.87 105.006C1250.99 104.11 1250.52 102.908 1250.52 101.642C1250.54 100.375 1251.05 99.1892 1251.96 98.3098C1253.29 97.0271 1255.24 96.6399 1256.95 97.2691L1259.07 71.2356C1259.22 69.4204 1260.42 67.8392 1262.13 67.1858C1262.61 67.0002 1274 62.789 1284.42 68.5411H1284.4Z" stroke="white" stroke-width="0.75" stroke-miterlimit="10"/>
<path d="M1378.35 68.5411C1378.91 68.8557 1379.45 69.1865 1379.98 69.5334C1386.2 73.672 1390.36 80.7471 1392.33 90.5813C1392.77 92.7675 1391.6 94.9861 1389.55 95.8654L1370.77 103.909C1368.37 104.941 1365.58 103.828 1364.53 101.424C1363.51 99.0198 1364.62 96.2284 1367.02 95.2039L1382.1 88.7338C1380.36 82.9576 1377.57 78.9481 1373.79 76.8505C1369.61 74.519 1364.82 74.8821 1362.2 75.35L1360.03 101.972C1359.97 102.739 1359.71 103.489 1359.28 104.151C1372.41 113.533 1383.78 110.766 1388.07 109.128C1388.29 109.039 1388.76 108.16 1388.93 107.821C1389.05 107.612 1389.14 107.426 1389.22 107.329L1389.99 106.135C1390.48 105.401 1390.96 104.667 1391.45 103.933L1396.67 96.051C1403.33 86.007 1404.22 84.692 1410.8 74.8417L1411.12 74.3577L1417.82 82.5219C1408.59 95.8735 1404.97 100.924 1395.94 114.445C1396.11 119.229 1398.08 130.983 1412.38 139.405C1412.82 138.776 1413.4 138.26 1414.09 137.913L1437.86 125.658C1437.28 123.061 1435.76 118.527 1432.05 115.582C1428.63 112.888 1423.85 111.847 1417.81 112.476L1417.65 128.692C1417.65 129.853 1417.28 130.999 1416.52 131.886C1415.59 132.959 1414.26 133.564 1412.86 133.548C1411.58 133.532 1410.4 133.024 1409.52 132.12C1408.63 131.225 1408.14 130.023 1408.16 128.756L1408.36 108.37C1408.39 106.135 1410 104.207 1412.18 103.771C1422.03 101.795 1430.18 102.892 1436.41 107.031C1436.94 107.378 1437.46 107.757 1437.96 108.152C1447.28 115.518 1447.79 127.635 1447.8 128.151C1447.87 129.974 1446.86 131.693 1445.23 132.524L1421.73 144.641C1422.59 145.924 1422.78 147.569 1422.2 149.005C1421.7 150.312 1420.64 151.305 1419.28 151.764C1418.18 152.128 1416.97 152.039 1415.88 151.611C1394.21 143.003 1388.46 127.82 1386.96 119.309C1378.49 121.221 1362.17 121.754 1345.82 105.006C1344.93 104.11 1344.47 102.908 1344.47 101.642C1344.49 100.375 1345 99.1892 1345.91 98.3098C1347.24 97.0271 1349.19 96.6399 1350.9 97.2691L1353.02 71.2356C1353.17 69.4204 1354.37 67.8392 1356.08 67.1858C1356.56 67.0002 1367.95 62.789 1378.37 68.5411H1378.35Z" stroke="white" stroke-width="0.75" stroke-miterlimit="10"/>
<path d="M-30.8934 -9.7294C-30.3355 -9.41477 -29.7938 -9.08401 -29.2683 -8.73711C-23.0427 -4.59853 -18.8869 2.47658 -16.9141 12.3108C-16.4695 14.497 -17.6418 16.7156 -19.6954 17.5949L-38.4692 25.6381C-40.8705 26.6707 -43.6679 25.5574 -44.7109 23.1533C-45.7377 20.7493 -44.622 17.9579 -42.2207 16.9334L-27.1419 10.4633C-28.8802 4.68706 -31.6696 0.677546 -35.4534 -1.41998C-39.6334 -3.75146 -44.4279 -3.38843 -47.0475 -2.92052L-49.2144 23.7019C-49.279 24.4683 -49.5378 25.2186 -49.9663 25.8801C-36.836 35.2625 -25.4602 32.4954 -21.175 30.8577C-20.9567 30.769 -20.4878 29.8896 -20.3099 29.5508C-20.1967 29.341 -20.0997 29.1555 -20.0269 29.0587L-19.2508 27.8647C-18.7656 27.1306 -18.2805 26.3964 -17.7954 25.6623L-12.5724 17.7805C-5.91023 7.73653 -5.02895 6.42155 1.55237 -3.42876L1.87578 -3.91281L8.57838 4.25141C-0.654874 17.603 -4.27703 22.6532 -13.3082 36.1741C-13.1384 40.9581 -11.1656 52.7123 3.13706 61.1347C3.57366 60.5054 4.1558 59.9891 4.84303 59.6422L28.6134 47.3878C28.0313 44.7901 26.5194 40.2563 22.8083 37.3116C19.3882 34.6171 14.6099 33.5764 8.5703 34.2057L8.40859 50.4212C8.40859 51.5829 8.03668 52.7285 7.27667 53.6159C6.34688 54.6888 5.0209 55.2939 3.61409 55.2778C2.33663 55.2616 1.1562 54.7534 0.274916 53.8498C-0.614452 52.9544 -1.09956 51.7523 -1.08339 50.4857L-0.881263 30.0994C-0.857007 27.8647 0.751941 25.9366 2.93494 25.501C12.7907 23.5244 20.9406 24.6216 27.1662 28.7602C27.6917 29.1071 28.2172 29.4863 28.7185 29.8816C38.0326 37.2471 38.542 49.3644 38.5582 49.8807C38.6228 51.7039 37.6122 53.4223 35.9871 54.2532L12.4835 66.3704C13.3486 67.6532 13.5346 69.2989 12.9605 70.7349C12.4512 72.0418 11.392 73.0341 10.0337 73.494C8.93413 73.857 7.72135 73.7683 6.63794 73.3407C-15.0303 64.7328 -20.7869 49.5499 -22.2827 41.0388C-30.7559 42.9508 -47.0718 43.4832 -63.42 26.7353C-64.3094 25.8398 -64.7783 24.6378 -64.7702 23.3712C-64.7541 22.1046 -64.2447 20.9187 -63.3311 20.0393C-62.0051 18.7566 -60.0566 18.3694 -58.3425 18.9986L-56.2242 -7.03489C-56.0787 -8.85006 -54.874 -10.4313 -53.168 -11.0847C-52.6829 -11.2703 -41.2909 -15.4815 -30.8772 -9.7294H-30.8934Z" stroke="white" stroke-width="0.75" stroke-miterlimit="10"/>
<path d="M63.0562 -9.7294C63.6141 -9.41477 64.1558 -9.08401 64.6813 -8.73711C70.9069 -4.59853 75.0627 2.47658 77.0354 12.3108C77.4801 14.497 76.3078 16.7156 74.2541 17.5949L55.4804 25.6381C53.0791 26.6707 50.2816 25.5574 49.2387 23.1533C48.2118 20.7493 49.3276 17.9579 51.7289 16.9334L66.8077 10.4633C65.0694 4.68706 62.28 0.677546 58.4962 -1.41998C54.3161 -3.75146 49.5216 -3.38843 46.902 -2.92052L44.7352 23.7019C44.6705 24.4683 44.4118 25.2186 43.9833 25.8801C57.1136 35.2625 68.4894 32.4954 72.7746 30.8577C72.9929 30.769 73.4618 29.8896 73.6397 29.5508C73.7529 29.341 73.8499 29.1555 73.9227 29.0587L74.6988 27.8647C75.1839 27.1306 75.6691 26.3964 76.1542 25.6623L81.3772 17.7805C88.0394 7.73653 88.9206 6.42155 95.502 -3.42876L95.8254 -3.91281L102.528 4.25141C93.2947 17.603 89.6726 22.6532 80.6414 36.1741C80.8112 40.9581 82.784 52.7123 97.0866 61.1347C97.5232 60.5054 98.1054 59.9891 98.7926 59.6422L122.563 47.3878C121.981 44.7901 120.469 40.2563 116.758 37.3116C113.338 34.6171 108.559 33.5764 102.52 34.2057L102.358 50.4212C102.358 51.5829 101.986 52.7285 101.226 53.6159C100.296 54.6888 98.9705 55.2939 97.5637 55.2778C96.2862 55.2616 95.1058 54.7534 94.2245 53.8498C93.3351 52.9544 92.85 51.7523 92.8662 50.4857L93.0683 30.0994C93.0926 27.8647 94.7015 25.9366 96.8845 25.501C106.74 23.5244 114.89 24.6216 121.116 28.7602C121.641 29.1071 122.167 29.4863 122.668 29.8816C131.982 37.2471 132.492 49.3644 132.508 49.8807C132.572 51.7039 131.562 53.4223 129.937 54.2532L106.433 66.3704C107.298 67.6532 107.484 69.2989 106.91 70.7349C106.401 72.0418 105.342 73.0341 103.983 73.494C102.884 73.857 101.671 73.7683 100.588 73.3407C78.9193 64.7328 73.1626 49.5499 71.6669 41.0388C63.1936 42.9508 46.8778 43.4832 30.5296 26.7353C29.6402 25.8398 29.1713 24.6378 29.1794 23.3712C29.1955 22.1046 29.7049 20.9187 30.6185 20.0393C31.9445 18.7566 33.893 18.3694 35.6071 18.9986L37.7254 -7.03489C37.8709 -8.85006 39.0756 -10.4313 40.7816 -11.0847C41.2667 -11.2703 52.6587 -15.4815 63.0724 -9.7294H63.0562Z" stroke="white" stroke-width="0.75" stroke-miterlimit="10"/>
<path d="M157.006 -9.7294C157.564 -9.41477 158.105 -9.08401 158.631 -8.73711C164.857 -4.59853 169.012 2.47658 170.985 12.3108C171.43 14.497 170.257 16.7156 168.204 17.5949L149.43 25.6381C147.029 26.6707 144.231 25.5574 143.188 23.1533C142.161 20.7493 143.277 17.9579 145.678 16.9334L160.757 10.4633C159.019 4.68706 156.23 0.677546 152.446 -1.41998C148.266 -3.75146 143.471 -3.38843 140.852 -2.92052L138.685 23.7019C138.62 24.4683 138.361 25.2186 137.933 25.8801C151.063 35.2625 162.439 32.4954 166.724 30.8577C166.942 30.769 167.411 29.8896 167.589 29.5508C167.702 29.341 167.8 29.1555 167.872 29.0587L168.648 27.8647C169.134 27.1306 169.619 26.3964 170.104 25.6623L175.327 17.7805C181.989 7.73653 182.87 6.42155 189.452 -3.42876L189.775 -3.91281L196.478 4.25141C187.244 17.603 183.622 22.6532 174.591 36.1741C174.761 40.9581 176.734 52.7123 191.036 61.1347C191.473 60.5054 192.055 59.9891 192.742 59.6422L216.513 47.3878C215.93 44.7901 214.419 40.2563 210.707 37.3116C207.287 34.6171 202.509 33.5764 196.47 34.2057L196.308 50.4212C196.308 51.5829 195.936 52.7285 195.176 53.6159C194.246 54.6888 192.92 55.2939 191.513 55.2778C190.236 55.2616 189.055 54.7534 188.174 53.8498C187.285 52.9544 186.8 51.7523 186.816 50.4857L187.018 30.0994C187.042 27.8647 188.651 25.9366 190.834 25.501C200.69 23.5244 208.84 24.6216 215.065 28.7602C215.591 29.1071 216.116 29.4863 216.618 29.8816C225.932 37.2471 226.441 49.3644 226.457 49.8807C226.522 51.7039 225.511 53.4223 223.886 54.2532L200.383 66.3704C201.248 67.6532 201.434 69.2989 200.86 70.7349C200.35 72.0418 199.291 73.0341 197.933 73.494C196.833 73.857 195.621 73.7683 194.537 73.3407C172.869 64.7328 167.112 49.5499 165.617 41.0388C157.143 42.9508 140.827 43.4832 124.479 26.7353C123.59 25.8398 123.121 24.6378 123.129 23.3712C123.145 22.1046 123.655 20.9187 124.568 20.0393C125.894 18.7566 127.843 18.3694 129.557 18.9986L131.675 -7.03489C131.821 -8.85006 133.025 -10.4313 134.731 -11.0847C135.216 -11.2703 146.608 -15.4815 157.022 -9.7294H157.006Z" stroke="white" stroke-width="0.75" stroke-miterlimit="10"/>
<path d="M250.955 -9.7294C251.513 -9.41477 252.055 -9.08401 252.581 -8.73711C258.806 -4.59853 262.962 2.47658 264.935 12.3108C265.379 14.497 264.207 16.7156 262.153 17.5949L243.38 25.6381C240.978 26.6707 238.181 25.5574 237.138 23.1533C236.111 20.7493 237.227 17.9579 239.628 16.9334L254.707 10.4633C252.969 4.68706 250.179 0.677546 246.395 -1.41998C242.215 -3.75146 237.421 -3.38843 234.801 -2.92052L232.634 23.7019C232.57 24.4683 232.311 25.2186 231.882 25.8801C245.013 35.2625 256.389 32.4954 260.674 30.8577C260.892 30.769 261.361 29.8896 261.539 29.5508C261.652 29.341 261.749 29.1555 261.822 29.0587L262.598 27.8647C263.083 27.1306 263.568 26.3964 264.053 25.6623L269.276 17.7805C275.939 7.73653 276.82 6.42155 283.401 -3.42876L283.725 -3.91281L290.427 4.25141C281.194 17.603 277.572 22.6532 268.541 36.1741C268.71 40.9581 270.683 52.7123 284.986 61.1347C285.422 60.5054 286.005 59.9891 286.692 59.6422L310.462 47.3878C309.88 44.7901 308.368 40.2563 304.657 37.3116C301.237 34.6171 296.459 33.5764 290.419 34.2057L290.257 50.4212C290.257 51.5829 289.885 52.7285 289.125 53.6159C288.196 54.6888 286.87 55.2939 285.463 55.2778C284.185 55.2616 283.005 54.7534 282.124 53.8498C281.234 52.9544 280.749 51.7523 280.765 50.4857L280.968 30.0994C280.992 27.8647 282.601 25.9366 284.784 25.501C294.64 23.5244 302.789 24.6216 309.015 28.7602C309.541 29.1071 310.066 29.4863 310.567 29.8816C319.881 37.2471 320.391 49.3644 320.407 49.8807C320.472 51.7039 319.461 53.4223 317.836 54.2532L294.332 66.3704C295.197 67.6532 295.383 69.2989 294.809 70.7349C294.3 72.0418 293.241 73.0341 291.883 73.494C290.783 73.857 289.57 73.7683 288.487 73.3407C266.818 64.7328 261.062 49.5499 259.566 41.0388C251.093 42.9508 234.777 43.4832 218.429 26.7353C217.539 25.8398 217.07 24.6378 217.079 23.3712C217.095 22.1046 217.604 20.9187 218.518 20.0393C219.844 18.7566 221.792 18.3694 223.506 18.9986L225.625 -7.03489C225.77 -8.85006 226.975 -10.4313 228.681 -11.0847C229.166 -11.2703 240.558 -15.4815 250.972 -9.7294H250.955Z" stroke="white" stroke-width="0.75" stroke-miterlimit="10"/>
<path d="M344.905 -9.7294C345.463 -9.41477 346.005 -9.08401 346.53 -8.73711C352.756 -4.59853 356.911 2.47658 358.884 12.3108C359.329 14.497 358.157 16.7156 356.103 17.5949L337.329 25.6381C334.928 26.6707 332.13 25.5574 331.087 23.1533C330.061 20.7493 331.176 17.9579 333.578 16.9334L348.657 10.4633C346.918 4.68706 344.129 0.677546 340.345 -1.41998C336.165 -3.75146 331.37 -3.38843 328.751 -2.92052L326.584 23.7019C326.519 24.4683 326.261 25.2186 325.832 25.8801C338.962 35.2625 350.338 32.4954 354.623 30.8577C354.842 30.769 355.311 29.8896 355.488 29.5508C355.602 29.341 355.699 29.1555 355.771 29.0587L356.548 27.8647C357.033 27.1306 357.518 26.3964 358.003 25.6623L363.226 17.7805C369.888 7.73653 370.769 6.42155 377.351 -3.42876L377.674 -3.91281L384.377 4.25141C375.144 17.603 371.521 22.6532 362.49 36.1741C362.66 40.9581 364.633 52.7123 378.935 61.1347C379.372 60.5054 379.954 59.9891 380.641 59.6422L404.412 47.3878C403.83 44.7901 402.318 40.2563 398.607 37.3116C395.187 34.6171 390.408 33.5764 384.369 34.2057L384.207 50.4212C384.207 51.5829 383.835 52.7285 383.075 53.6159C382.145 54.6888 380.819 55.2939 379.412 55.2778C378.135 55.2616 376.955 54.7534 376.073 53.8498C375.184 52.9544 374.699 51.7523 374.715 50.4857L374.917 30.0994C374.941 27.8647 376.55 25.9366 378.733 25.501C388.589 23.5244 396.739 24.6216 402.965 28.7602C403.49 29.1071 404.016 29.4863 404.517 29.8816C413.831 37.2471 414.34 49.3644 414.357 49.8807C414.421 51.7039 413.411 53.4223 411.785 54.2532L388.282 66.3704C389.147 67.6532 389.333 69.2989 388.759 70.7349C388.25 72.0418 387.19 73.0341 385.832 73.494C384.733 73.857 383.52 73.7683 382.436 73.3407C360.768 64.7328 355.011 49.5499 353.516 41.0388C345.042 42.9508 328.727 43.4832 312.378 26.7353C311.489 25.8398 311.02 24.6378 311.028 23.3712C311.044 22.1046 311.554 20.9187 312.467 20.0393C313.793 18.7566 315.742 18.3694 317.456 18.9986L319.574 -7.03489C319.72 -8.85006 320.924 -10.4313 322.63 -11.0847C323.116 -11.2703 334.507 -15.4815 344.921 -9.7294H344.905Z" stroke="white" stroke-width="0.75" stroke-miterlimit="10"/>
<path d="M438.855 -9.7294C439.412 -9.41477 439.954 -9.08401 440.48 -8.73711C446.705 -4.59853 450.861 2.47658 452.834 12.3108C453.279 14.497 452.106 16.7156 450.053 17.5949L431.279 25.6381C428.878 26.6707 426.08 25.5574 425.037 23.1533C424.01 20.7493 425.126 17.9579 427.527 16.9334L442.606 10.4633C440.868 4.68706 438.078 0.677546 434.295 -1.41998C430.115 -3.75146 425.32 -3.38843 422.7 -2.92052L420.534 23.7019C420.469 24.4683 420.21 25.2186 419.782 25.8801C432.912 35.2625 444.288 32.4954 448.573 30.8577C448.791 30.769 449.26 29.8896 449.438 29.5508C449.551 29.341 449.648 29.1555 449.721 29.0587L450.497 27.8647C450.982 27.1306 451.467 26.3964 451.953 25.6623L457.176 17.7805C463.838 7.73653 464.719 6.42155 471.3 -3.42876L471.624 -3.91281L478.326 4.25141C469.093 17.603 465.471 22.6532 456.44 36.1741C456.61 40.9581 458.582 52.7123 472.885 61.1347C473.322 60.5054 473.904 59.9891 474.591 59.6422L498.361 47.3878C497.779 44.7901 496.267 40.2563 492.556 37.3116C489.136 34.6171 484.358 33.5764 478.318 34.2057L478.157 50.4212C478.157 51.5829 477.785 52.7285 477.025 53.6159C476.095 54.6888 474.769 55.2939 473.362 55.2778C472.085 55.2616 470.904 54.7534 470.023 53.8498C469.134 52.9544 468.648 51.7523 468.665 50.4857L468.867 30.0994C468.891 27.8647 470.5 25.9366 472.683 25.501C482.539 23.5244 490.689 24.6216 496.914 28.7602C497.44 29.1071 497.965 29.4863 498.467 29.8816C507.781 37.2471 508.29 49.3644 508.306 49.8807C508.371 51.7039 507.36 53.4223 505.735 54.2532L482.232 66.3704C483.097 67.6532 483.283 69.2989 482.709 70.7349C482.199 72.0418 481.14 73.0341 479.782 73.494C478.682 73.857 477.469 73.7683 476.386 73.3407C454.718 64.7328 448.961 49.5499 447.465 41.0388C438.992 42.9508 422.676 43.4832 406.328 26.7353C405.439 25.8398 404.97 24.6378 404.978 23.3712C404.994 22.1046 405.503 20.9187 406.417 20.0393C407.743 18.7566 409.691 18.3694 411.405 18.9986L413.524 -7.03489C413.669 -8.85006 414.874 -10.4313 416.58 -11.0847C417.065 -11.2703 428.457 -15.4815 438.871 -9.7294H438.855Z" stroke="white" stroke-width="0.75" stroke-miterlimit="10"/>
<path d="M532.804 -9.7294C533.362 -9.41477 533.904 -9.08401 534.429 -8.73711C540.655 -4.59853 544.811 2.47658 546.783 12.3108C547.228 14.497 546.056 16.7156 544.002 17.5949L525.228 25.6381C522.827 26.6707 520.03 25.5574 518.987 23.1533C517.96 20.7493 519.076 17.9579 521.477 16.9334L536.556 10.4633C534.817 4.68706 532.028 0.677546 528.244 -1.41998C524.064 -3.75146 519.27 -3.38843 516.65 -2.92052L514.483 23.7019C514.419 24.4683 514.16 25.2186 513.731 25.8801C526.862 35.2625 538.237 32.4954 542.523 30.8577C542.741 30.769 543.21 29.8896 543.388 29.5508C543.501 29.341 543.598 29.1555 543.671 29.0587L544.447 27.8647C544.932 27.1306 545.417 26.3964 545.902 25.6623L551.125 17.7805C557.787 7.73653 558.669 6.42155 565.25 -3.42876L565.573 -3.91281L572.276 4.25141C563.043 17.603 559.421 22.6532 550.389 36.1741C550.559 40.9581 552.532 52.7123 566.835 61.1347C567.271 60.5054 567.853 59.9891 568.541 59.6422L592.311 47.3878C591.729 44.7901 590.217 40.2563 586.506 37.3116C583.086 34.6171 578.308 33.5764 572.268 34.2057L572.106 50.4212C572.106 51.5829 571.734 52.7285 570.974 53.6159C570.044 54.6888 568.719 55.2939 567.312 55.2778C566.034 55.2616 564.854 54.7534 563.973 53.8498C563.083 52.9544 562.598 51.7523 562.614 50.4857L562.816 30.0994C562.841 27.8647 564.45 25.9366 566.633 25.501C576.488 23.5244 584.638 24.6216 590.864 28.7602C591.389 29.1071 591.915 29.4863 592.416 29.8816C601.73 37.2471 602.24 49.3644 602.256 49.8807C602.32 51.7039 601.31 53.4223 599.685 54.2532L576.181 66.3704C577.046 67.6532 577.232 69.2989 576.658 70.7349C576.149 72.0418 575.09 73.0341 573.731 73.494C572.632 73.857 571.419 73.7683 570.336 73.3407C548.667 64.7328 542.911 49.5499 541.415 41.0388C532.942 42.9508 516.626 43.4832 500.278 26.7353C499.388 25.8398 498.919 24.6378 498.927 23.3712C498.944 22.1046 499.453 20.9187 500.367 20.0393C501.693 18.7566 503.641 18.3694 505.355 18.9986L507.473 -7.03489C507.619 -8.85006 508.824 -10.4313 510.53 -11.0847C511.015 -11.2703 522.407 -15.4815 532.82 -9.7294H532.804Z" stroke="white" stroke-width="0.75" stroke-miterlimit="10"/>
<path d="M626.754 -9.7294C627.312 -9.41477 627.853 -9.08401 628.379 -8.73711C634.604 -4.59853 638.76 2.47658 640.733 12.3108C641.178 14.497 640.005 16.7156 637.952 17.5949L619.178 25.6381C616.777 26.6707 613.979 25.5574 612.936 23.1533C611.909 20.7493 613.025 17.9579 615.426 16.9334L630.505 10.4633C628.767 4.68706 625.978 0.677546 622.194 -1.41998C618.014 -3.75146 613.219 -3.38843 610.6 -2.92052L608.433 23.7019C608.368 24.4683 608.109 25.2186 607.681 25.8801C620.811 35.2625 632.187 32.4954 636.472 30.8577C636.69 30.769 637.159 29.8896 637.337 29.5508C637.45 29.341 637.547 29.1555 637.62 29.0587L638.396 27.8647C638.882 27.1306 639.367 26.3964 639.852 25.6623L645.075 17.7805C651.737 7.73653 652.618 6.42155 659.2 -3.42876L659.523 -3.91281L666.226 4.25141C656.992 17.603 653.37 22.6532 644.339 36.1741C644.509 40.9581 646.482 52.7123 660.784 61.1347C661.221 60.5054 661.803 59.9891 662.49 59.6422L686.261 47.3878C685.678 44.7901 684.167 40.2563 680.455 37.3116C677.035 34.6171 672.257 33.5764 666.217 34.2057L666.056 50.4212C666.056 51.5829 665.684 52.7285 664.924 53.6159C663.994 54.6888 662.668 55.2939 661.261 55.2778C659.984 55.2616 658.803 54.7534 657.922 53.8498C657.033 52.9544 656.548 51.7523 656.564 50.4857L656.766 30.0994C656.79 27.8647 658.399 25.9366 660.582 25.501C670.438 23.5244 678.588 24.6216 684.813 28.7602C685.339 29.1071 685.864 29.4863 686.366 29.8816C695.68 37.2471 696.189 49.3644 696.205 49.8807C696.27 51.7039 695.259 53.4223 693.634 54.2532L670.131 66.3704C670.996 67.6532 671.182 69.2989 670.608 70.7349C670.098 72.0418 669.039 73.0341 667.681 73.494C666.581 73.857 665.369 73.7683 664.285 73.3407C642.617 64.7328 636.86 49.5499 635.365 41.0388C626.891 42.9508 610.575 43.4832 594.227 26.7353C593.338 25.8398 592.869 24.6378 592.877 23.3712C592.893 22.1046 593.402 20.9187 594.316 20.0393C595.642 18.7566 597.591 18.3694 599.305 18.9986L601.423 -7.03489C601.568 -8.85006 602.773 -10.4313 604.479 -11.0847C604.964 -11.2703 616.356 -15.4815 626.77 -9.7294H626.754Z" stroke="white" stroke-width="0.75" stroke-miterlimit="10"/>
<path d="M720.703 -9.7294C721.261 -9.41477 721.803 -9.08401 722.329 -8.73711C728.554 -4.59853 732.71 2.47658 734.683 12.3108C735.127 14.497 733.955 16.7156 731.901 17.5949L713.128 25.6381C710.726 26.6707 707.929 25.5574 706.886 23.1533C705.859 20.7493 706.975 17.9579 709.376 16.9334L724.455 10.4633C722.717 4.68706 719.927 0.677546 716.143 -1.41998C711.963 -3.75146 707.169 -3.38843 704.549 -2.92052L702.382 23.7019C702.318 24.4683 702.059 25.2186 701.631 25.8801C714.761 35.2625 726.137 32.4954 730.422 30.8577C730.64 30.769 731.109 29.8896 731.287 29.5508C731.4 29.341 731.497 29.1555 731.57 29.0587L732.346 27.8647C732.831 27.1306 733.316 26.3964 733.801 25.6623L739.024 17.7805C745.687 7.73653 746.568 6.42155 753.149 -3.42876L753.473 -3.91281L760.175 4.25141C750.942 17.603 747.32 22.6532 738.289 36.1741C738.458 40.9581 740.431 52.7123 754.734 61.1347C755.17 60.5054 755.753 59.9891 756.44 59.6422L780.21 47.3878C779.628 44.7901 778.116 40.2563 774.405 37.3116C770.985 34.6171 766.207 33.5764 760.167 34.2057L760.005 50.4212C760.005 51.5829 759.633 52.7285 758.873 53.6159C757.944 54.6888 756.618 55.2939 755.211 55.2778C753.933 55.2616 752.753 54.7534 751.872 53.8498C750.982 52.9544 750.497 51.7523 750.513 50.4857L750.716 30.0994C750.74 27.8647 752.349 25.9366 754.532 25.501C764.388 23.5244 772.537 24.6216 778.763 28.7602C779.289 29.1071 779.814 29.4863 780.315 29.8816C789.629 37.2471 790.139 49.3644 790.155 49.8807C790.22 51.7039 789.209 53.4223 787.584 54.2532L764.08 66.3704C764.945 67.6532 765.131 69.2989 764.557 70.7349C764.048 72.0418 762.989 73.0341 761.631 73.494C760.531 73.857 759.318 73.7683 758.235 73.3407C736.567 64.7328 730.81 49.5499 729.314 41.0388C720.841 42.9508 704.525 43.4832 688.177 26.7353C687.287 25.8398 686.818 24.6378 686.827 23.3712C686.843 22.1046 687.352 20.9187 688.266 20.0393C689.592 18.7566 691.54 18.3694 693.254 18.9986L695.373 -7.03489C695.518 -8.85006 696.723 -10.4313 698.429 -11.0847C698.914 -11.2703 710.306 -15.4815 720.72 -9.7294H720.703Z" stroke="white" stroke-width="0.75" stroke-miterlimit="10"/>
<path d="M814.653 -9.7294C815.211 -9.41477 815.753 -9.08401 816.278 -8.73711C822.504 -4.59853 826.659 2.47658 828.632 12.3108C829.077 14.497 827.905 16.7156 825.851 17.5949L807.077 25.6381C804.676 26.6707 801.878 25.5574 800.835 23.1533C799.809 20.7493 800.924 17.9579 803.326 16.9334L818.404 10.4633C816.666 4.68706 813.877 0.677546 810.093 -1.41998C805.913 -3.75146 801.118 -3.38843 798.499 -2.92052L796.332 23.7019C796.267 24.4683 796.009 25.2186 795.58 25.8801C808.71 35.2625 820.086 32.4954 824.371 30.8577C824.59 30.769 825.059 29.8896 825.236 29.5508C825.35 29.341 825.447 29.1555 825.519 29.0587L826.296 27.8647C826.781 27.1306 827.266 26.3964 827.751 25.6623L832.974 17.7805C839.636 7.73653 840.517 6.42155 847.099 -3.42876L847.422 -3.91281L854.125 4.25141C844.892 17.603 841.269 22.6532 832.238 36.1741C832.408 40.9581 834.381 52.7123 848.683 61.1347C849.12 60.5054 849.702 59.9891 850.389 59.6422L874.16 47.3878C873.578 44.7901 872.066 40.2563 868.355 37.3116C864.935 34.6171 860.156 33.5764 854.117 34.2057L853.955 50.4212C853.955 51.5829 853.583 52.7285 852.823 53.6159C851.893 54.6888 850.567 55.2939 849.16 55.2778C847.883 55.2616 846.703 54.7534 845.821 53.8498C844.932 52.9544 844.447 51.7523 844.463 50.4857L844.665 30.0994C844.689 27.8647 846.298 25.9366 848.481 25.501C858.337 23.5244 866.487 24.6216 872.713 28.7602C873.238 29.1071 873.764 29.4863 874.265 29.8816C883.579 37.2471 884.088 49.3644 884.105 49.8807C884.169 51.7039 883.159 53.4223 881.534 54.2532L858.03 66.3704C858.895 67.6532 859.081 69.2989 858.507 70.7349C857.998 72.0418 856.938 73.0341 855.58 73.494C854.48 73.857 853.268 73.7683 852.184 73.3407C830.516 64.7328 824.759 49.5499 823.264 41.0388C814.79 42.9508 798.475 43.4832 782.126 26.7353C781.237 25.8398 780.768 24.6378 780.776 23.3712C780.792 22.1046 781.302 20.9187 782.215 20.0393C783.541 18.7566 785.49 18.3694 787.204 18.9986L789.322 -7.03489C789.468 -8.85006 790.672 -10.4313 792.378 -11.0847C792.863 -11.2703 804.255 -15.4815 814.669 -9.7294H814.653Z" stroke="white" stroke-width="0.75" stroke-miterlimit="10"/>
<path d="M908.603 -9.7294C909.161 -9.41477 909.702 -9.08401 910.228 -8.73711C916.453 -4.59853 920.609 2.47658 922.582 12.3108C923.027 14.497 921.854 16.7156 919.801 17.5949L901.027 25.6381C898.626 26.6707 895.828 25.5574 894.785 23.1533C893.758 20.7493 894.874 17.9579 897.275 16.9334L912.354 10.4633C910.616 4.68706 907.826 0.677546 904.043 -1.41998C899.863 -3.75146 895.068 -3.38843 892.449 -2.92052L890.282 23.7019C890.217 24.4683 889.958 25.2186 889.53 25.8801C902.66 35.2625 914.036 32.4954 918.321 30.8577C918.539 30.769 919.008 29.8896 919.186 29.5508C919.299 29.341 919.396 29.1555 919.469 29.0587L920.245 27.8647C920.73 27.1306 921.215 26.3964 921.701 25.6623L926.924 17.7805C933.586 7.73653 934.467 6.42155 941.048 -3.42876L941.372 -3.91281L948.074 4.25141C938.841 17.603 935.219 22.6532 926.188 36.1741C926.358 40.9581 928.33 52.7123 942.633 61.1347C943.07 60.5054 943.652 59.9891 944.339 59.6422L968.109 47.3878C967.527 44.7901 966.015 40.2563 962.304 37.3116C958.884 34.6171 954.106 33.5764 948.066 34.2057L947.905 50.4212C947.905 51.5829 947.533 52.7285 946.773 53.6159C945.843 54.6888 944.517 55.2939 943.11 55.2778C941.833 55.2616 940.652 54.7534 939.771 53.8498C938.882 52.9544 938.396 51.7523 938.413 50.4857L938.615 30.0994C938.639 27.8647 940.248 25.9366 942.431 25.501C952.287 23.5244 960.437 24.6216 966.662 28.7602C967.188 29.1071 967.713 29.4863 968.215 29.8816C977.529 37.2471 978.038 49.3644 978.054 49.8807C978.119 51.7039 977.108 53.4223 975.483 54.2532L951.979 66.3704C952.845 67.6532 953.031 69.2989 952.457 70.7349C951.947 72.0418 950.888 73.0341 949.53 73.494C948.43 73.857 947.217 73.7683 946.134 73.3407C924.466 64.7328 918.709 49.5499 917.213 41.0388C908.74 42.9508 892.424 43.4832 876.076 26.7353C875.187 25.8398 874.718 24.6378 874.726 23.3712C874.742 22.1046 875.251 20.9187 876.165 20.0393C877.491 18.7566 879.439 18.3694 881.153 18.9986L883.272 -7.03489C883.417 -8.85006 884.622 -10.4313 886.328 -11.0847C886.813 -11.2703 898.205 -15.4815 908.619 -9.7294H908.603Z" stroke="white" stroke-width="0.75" stroke-miterlimit="10"/>
<path d="M1002.55 -9.7294C1003.11 -9.41477 1003.65 -9.08401 1004.18 -8.73711C1010.4 -4.59853 1014.56 2.47658 1016.53 12.3108C1016.98 14.497 1015.8 16.7156 1013.75 17.5949L994.976 25.6381C992.575 26.6707 989.778 25.5574 988.735 23.1533C987.708 20.7493 988.824 17.9579 991.225 16.9334L1006.3 10.4633C1004.57 4.68706 1001.78 0.677546 997.992 -1.41998C993.812 -3.75146 989.018 -3.38843 986.398 -2.92052L984.231 23.7019C984.167 24.4683 983.908 25.2186 983.479 25.8801C996.61 35.2625 1007.99 32.4954 1012.27 30.8577C1012.49 30.769 1012.96 29.8896 1013.14 29.5508C1013.25 29.341 1013.35 29.1555 1013.42 29.0587L1014.19 27.8647C1014.68 27.1306 1015.17 26.3964 1015.65 25.6623L1020.87 17.7805C1027.54 7.73653 1028.42 6.42155 1035 -3.42876L1035.32 -3.91281L1042.02 4.25141C1032.79 17.603 1029.17 22.6532 1020.14 36.1741C1020.31 40.9581 1022.28 52.7123 1036.58 61.1347C1037.02 60.5054 1037.6 59.9891 1038.29 59.6422L1062.06 47.3878C1061.48 44.7901 1059.97 40.2563 1056.25 37.3116C1052.83 34.6171 1048.06 33.5764 1042.02 34.2057L1041.85 50.4212C1041.85 51.5829 1041.48 52.7285 1040.72 53.6159C1039.79 54.6888 1038.47 55.2939 1037.06 55.2778C1035.78 55.2616 1034.6 54.7534 1033.72 53.8498C1032.83 52.9544 1032.35 51.7523 1032.36 50.4857L1032.56 30.0994C1032.59 27.8647 1034.2 25.9366 1036.38 25.501C1046.24 23.5244 1054.39 24.6216 1060.61 28.7602C1061.14 29.1071 1061.66 29.4863 1062.16 29.8816C1071.48 37.2471 1071.99 49.3644 1072 49.8807C1072.07 51.7039 1071.06 53.4223 1069.43 54.2532L1045.93 66.3704C1046.79 67.6532 1046.98 69.2989 1046.41 70.7349C1045.9 72.0418 1044.84 73.0341 1043.48 73.494C1042.38 73.857 1041.17 73.7683 1040.08 73.3407C1018.42 64.7328 1012.66 49.5499 1011.16 41.0388C1002.69 42.9508 986.374 43.4832 970.026 26.7353C969.136 25.8398 968.667 24.6378 968.675 23.3712C968.692 22.1046 969.201 20.9187 970.115 20.0393C971.441 18.7566 973.389 18.3694 975.103 18.9986L977.221 -7.03489C977.367 -8.85006 978.572 -10.4313 980.278 -11.0847C980.763 -11.2703 992.155 -15.4815 1002.57 -9.7294H1002.55Z" stroke="white" stroke-width="0.75" stroke-miterlimit="10"/>
<path d="M1096.5 -9.7294C1097.06 -9.41477 1097.6 -9.08401 1098.13 -8.73711C1104.35 -4.59853 1108.51 2.47658 1110.48 12.3108C1110.93 14.497 1109.75 16.7156 1107.7 17.5949L1088.93 25.6381C1086.52 26.6707 1083.73 25.5574 1082.68 23.1533C1081.66 20.7493 1082.77 17.9579 1085.17 16.9334L1100.25 10.4633C1098.52 4.68706 1095.73 0.677546 1091.94 -1.41998C1087.76 -3.75146 1082.97 -3.38843 1080.35 -2.92052L1078.18 23.7019C1078.12 24.4683 1077.86 25.2186 1077.43 25.8801C1090.56 35.2625 1101.94 32.4954 1106.22 30.8577C1106.44 30.769 1106.91 29.8896 1107.09 29.5508C1107.2 29.341 1107.3 29.1555 1107.37 29.0587L1108.14 27.8647C1108.63 27.1306 1109.11 26.3964 1109.6 25.6623L1114.82 17.7805C1121.49 7.73653 1122.37 6.42155 1128.95 -3.42876L1129.27 -3.91281L1135.97 4.25141C1126.74 17.603 1123.12 22.6532 1114.09 36.1741C1114.26 40.9581 1116.23 52.7123 1130.53 61.1347C1130.97 60.5054 1131.55 59.9891 1132.24 59.6422L1156.01 47.3878C1155.43 44.7901 1153.91 40.2563 1150.2 37.3116C1146.78 34.6171 1142.01 33.5764 1135.97 34.2057L1135.8 50.4212C1135.8 51.5829 1135.43 52.7285 1134.67 53.6159C1133.74 54.6888 1132.42 55.2939 1131.01 55.2778C1129.73 55.2616 1128.55 54.7534 1127.67 53.8498C1126.78 52.9544 1126.3 51.7523 1126.31 50.4857L1126.51 30.0994C1126.54 27.8647 1128.15 25.9366 1130.33 25.501C1140.19 23.5244 1148.34 24.6216 1154.56 28.7602C1155.09 29.1071 1155.61 29.4863 1156.11 29.8816C1165.43 37.2471 1165.94 49.3644 1165.95 49.8807C1166.02 51.7039 1165.01 53.4223 1163.38 54.2532L1139.88 66.3704C1140.74 67.6532 1140.93 69.2989 1140.36 70.7349C1139.85 72.0418 1138.79 73.0341 1137.43 73.494C1136.33 73.857 1135.12 73.7683 1134.03 73.3407C1112.36 64.7328 1106.61 49.5499 1105.11 41.0388C1096.64 42.9508 1080.32 43.4832 1063.98 26.7353C1063.09 25.8398 1062.62 24.6378 1062.63 23.3712C1062.64 22.1046 1063.15 20.9187 1064.06 20.0393C1065.39 18.7566 1067.34 18.3694 1069.05 18.9986L1071.17 -7.03489C1071.32 -8.85006 1072.52 -10.4313 1074.23 -11.0847C1074.71 -11.2703 1086.1 -15.4815 1096.52 -9.7294H1096.5Z" stroke="white" stroke-width="0.75" stroke-miterlimit="10"/>
<path d="M1190.45 -9.7294C1191.01 -9.41477 1191.55 -9.08401 1192.08 -8.73711C1198.3 -4.59853 1202.46 2.47658 1204.43 12.3108C1204.88 14.497 1203.7 16.7156 1201.65 17.5949L1182.88 25.6381C1180.47 26.6707 1177.68 25.5574 1176.63 23.1533C1175.61 20.7493 1176.72 17.9579 1179.12 16.9334L1194.2 10.4633C1192.46 4.68706 1189.68 0.677546 1185.89 -1.41998C1181.71 -3.75146 1176.92 -3.38843 1174.3 -2.92052L1172.13 23.7019C1172.07 24.4683 1171.81 25.2186 1171.38 25.8801C1184.51 35.2625 1195.88 32.4954 1200.17 30.8577C1200.39 30.769 1200.86 29.8896 1201.03 29.5508C1201.15 29.341 1201.24 29.1555 1201.32 29.0587L1202.09 27.8647C1202.58 27.1306 1203.06 26.3964 1203.55 25.6623L1208.77 17.7805C1215.43 7.73653 1216.32 6.42155 1222.9 -3.42876L1223.22 -3.91281L1229.92 4.25141C1220.69 17.603 1217.07 22.6532 1208.04 36.1741C1208.21 40.9581 1210.18 52.7123 1224.48 61.1347C1224.92 60.5054 1225.5 59.9891 1226.19 59.6422L1249.96 47.3878C1249.38 44.7901 1247.86 40.2563 1244.15 37.3116C1240.73 34.6171 1235.95 33.5764 1229.91 34.2057L1229.75 50.4212C1229.75 51.5829 1229.38 52.7285 1228.62 53.6159C1227.69 54.6888 1226.37 55.2939 1224.96 55.2778C1223.68 55.2616 1222.5 54.7534 1221.62 53.8498C1220.73 52.9544 1220.25 51.7523 1220.26 50.4857L1220.46 30.0994C1220.49 27.8647 1222.1 25.9366 1224.28 25.501C1234.14 23.5244 1242.29 24.6216 1248.51 28.7602C1249.04 29.1071 1249.56 29.4863 1250.06 29.8816C1259.38 37.2471 1259.89 49.3644 1259.9 49.8807C1259.97 51.7039 1258.96 53.4223 1257.33 54.2532L1233.83 66.3704C1234.69 67.6532 1234.88 69.2989 1234.31 70.7349C1233.8 72.0418 1232.74 73.0341 1231.38 73.494C1230.28 73.857 1229.07 73.7683 1227.98 73.3407C1206.31 64.7328 1200.56 49.5499 1199.06 41.0388C1190.59 42.9508 1174.27 43.4832 1157.92 26.7353C1157.04 25.8398 1156.57 24.6378 1156.57 23.3712C1156.59 22.1046 1157.1 20.9187 1158.01 20.0393C1159.34 18.7566 1161.29 18.3694 1163 18.9986L1165.12 -7.03489C1165.27 -8.85006 1166.47 -10.4313 1168.18 -11.0847C1168.66 -11.2703 1180.05 -15.4815 1190.47 -9.7294H1190.45Z" stroke="white" stroke-width="0.75" stroke-miterlimit="10"/>
<path d="M1284.4 -9.7294C1284.96 -9.41477 1285.5 -9.08401 1286.03 -8.73711C1292.25 -4.59853 1296.41 2.47658 1298.38 12.3108C1298.82 14.497 1297.65 16.7156 1295.6 17.5949L1276.83 25.6381C1274.42 26.6707 1271.63 25.5574 1270.58 23.1533C1269.56 20.7493 1270.67 17.9579 1273.07 16.9334L1288.15 10.4633C1286.41 4.68706 1283.62 0.677546 1279.84 -1.41998C1275.66 -3.75146 1270.87 -3.38843 1268.25 -2.92052L1266.08 23.7019C1266.02 24.4683 1265.76 25.2186 1265.33 25.8801C1278.46 35.2625 1289.83 32.4954 1294.12 30.8577C1294.34 30.769 1294.81 29.8896 1294.98 29.5508C1295.1 29.341 1295.19 29.1555 1295.27 29.0587L1296.04 27.8647C1296.53 27.1306 1297.01 26.3964 1297.5 25.6623L1302.72 17.7805C1309.38 7.73653 1310.27 6.42155 1316.85 -3.42876L1317.17 -3.91281L1323.87 4.25141C1314.64 17.603 1311.02 22.6532 1301.99 36.1741C1302.16 40.9581 1304.13 52.7123 1318.43 61.1347C1318.87 60.5054 1319.45 59.9891 1320.14 59.6422L1343.91 47.3878C1343.33 44.7901 1341.81 40.2563 1338.1 37.3116C1334.68 34.6171 1329.9 33.5764 1323.86 34.2057L1323.7 50.4212C1323.7 51.5829 1323.33 52.7285 1322.57 53.6159C1321.64 54.6888 1320.32 55.2939 1318.91 55.2778C1317.63 55.2616 1316.45 54.7534 1315.57 53.8498C1314.68 52.9544 1314.19 51.7523 1314.21 50.4857L1314.41 30.0994C1314.44 27.8647 1316.05 25.9366 1318.23 25.501C1328.09 23.5244 1336.24 24.6216 1342.46 28.7602C1342.99 29.1071 1343.51 29.4863 1344.01 29.8816C1353.33 37.2471 1353.84 49.3644 1353.85 49.8807C1353.92 51.7039 1352.91 53.4223 1351.28 54.2532L1327.78 66.3704C1328.64 67.6532 1328.83 69.2989 1328.25 70.7349C1327.75 72.0418 1326.69 73.0341 1325.33 73.494C1324.23 73.857 1323.02 73.7683 1321.93 73.3407C1300.26 64.7328 1294.51 49.5499 1293.01 41.0388C1284.54 42.9508 1268.22 43.4832 1251.87 26.7353C1250.99 25.8398 1250.52 24.6378 1250.52 23.3712C1250.54 22.1046 1251.05 20.9187 1251.96 20.0393C1253.29 18.7566 1255.24 18.3694 1256.95 18.9986L1259.07 -7.03489C1259.22 -8.85006 1260.42 -10.4313 1262.13 -11.0847C1262.61 -11.2703 1274 -15.4815 1284.42 -9.7294H1284.4Z" stroke="white" stroke-width="0.75" stroke-miterlimit="10"/>
<path d="M1378.35 -9.7294C1378.91 -9.41477 1379.45 -9.08401 1379.98 -8.73711C1386.2 -4.59853 1390.36 2.47658 1392.33 12.3108C1392.77 14.497 1391.6 16.7156 1389.55 17.5949L1370.77 25.6381C1368.37 26.6707 1365.58 25.5574 1364.53 23.1533C1363.51 20.7493 1364.62 17.9579 1367.02 16.9334L1382.1 10.4633C1380.36 4.68706 1377.57 0.677546 1373.79 -1.41998C1369.61 -3.75146 1364.82 -3.38843 1362.2 -2.92052L1360.03 23.7019C1359.97 24.4683 1359.71 25.2186 1359.28 25.8801C1372.41 35.2625 1383.78 32.4954 1388.07 30.8577C1388.29 30.769 1388.76 29.8896 1388.93 29.5508C1389.05 29.341 1389.14 29.1555 1389.22 29.0587L1389.99 27.8647C1390.48 27.1306 1390.96 26.3964 1391.45 25.6623L1396.67 17.7805C1403.33 7.73653 1404.22 6.42155 1410.8 -3.42876L1411.12 -3.91281L1417.82 4.25141C1408.59 17.603 1404.97 22.6532 1395.94 36.1741C1396.11 40.9581 1398.08 52.7123 1412.38 61.1347C1412.82 60.5054 1413.4 59.9891 1414.09 59.6422L1437.86 47.3878C1437.28 44.7901 1435.76 40.2563 1432.05 37.3116C1428.63 34.6171 1423.85 33.5764 1417.81 34.2057L1417.65 50.4212C1417.65 51.5829 1417.28 52.7285 1416.52 53.6159C1415.59 54.6888 1414.26 55.2939 1412.86 55.2778C1411.58 55.2616 1410.4 54.7534 1409.52 53.8498C1408.63 52.9544 1408.14 51.7523 1408.16 50.4857L1408.36 30.0994C1408.39 27.8647 1410 25.9366 1412.18 25.501C1422.03 23.5244 1430.18 24.6216 1436.41 28.7602C1436.94 29.1071 1437.46 29.4863 1437.96 29.8816C1447.28 37.2471 1447.79 49.3644 1447.8 49.8807C1447.87 51.7039 1446.86 53.4223 1445.23 54.2532L1421.73 66.3704C1422.59 67.6532 1422.78 69.2989 1422.2 70.7349C1421.7 72.0418 1420.64 73.0341 1419.28 73.494C1418.18 73.857 1416.97 73.7683 1415.88 73.3407C1394.21 64.7328 1388.46 49.5499 1386.96 41.0388C1378.49 42.9508 1362.17 43.4832 1345.82 26.7353C1344.93 25.8398 1344.47 24.6378 1344.47 23.3712C1344.49 22.1046 1345 20.9187 1345.91 20.0393C1347.24 18.7566 1349.19 18.3694 1350.9 18.9986L1353.02 -7.03489C1353.17 -8.85006 1354.37 -10.4313 1356.08 -11.0847C1356.56 -11.2703 1367.95 -15.4815 1378.37 -9.7294H1378.35Z" stroke="white" stroke-width="0.75" stroke-miterlimit="10"/>
</svg>
