<svg width="22" height="31" viewBox="0 0 22 31" fill="none" xmlns="http://www.w3.org/2000/svg">
<path d="M14.5711 11.0049C14.5711 11.7112 14.3617 12.4017 13.9692 12.989C13.5768 13.5763 13.0191 14.034 12.3665 14.3043C11.7139 14.5746 10.9959 14.6453 10.3031 14.5075C9.61035 14.3697 8.97401 14.0296 8.47456 13.5302C7.9751 13.0307 7.63497 12.3944 7.49717 11.7016C7.35937 11.0088 7.4301 10.2908 7.7004 9.63821C7.9707 8.98564 8.42844 8.42788 9.01574 8.03546C9.60303 7.64305 10.2935 7.43359 10.9998 7.43359C11.947 7.43359 12.8554 7.80985 13.5251 8.4796C14.1949 9.14934 14.5711 10.0577 14.5711 11.0049Z" stroke="white" stroke-width="1.5"/>
<path d="M12.7955 23.1386C12.3128 23.6025 11.6693 23.8616 10.9998 23.8616C10.3304 23.8616 9.68688 23.6025 9.20419 23.1386C4.79152 18.8616 -1.1211 14.0875 1.76307 7.14778C2.52529 5.32656 3.80886 3.77128 5.45244 2.67744C7.09601 1.5836 9.02626 1 11.0005 1C12.9748 1 14.9051 1.5836 16.5487 2.67744C18.1922 3.77128 19.4758 5.32656 20.238 7.14778C23.1179 14.0775 17.2196 18.8773 12.7955 23.1386Z" stroke="white" stroke-width="1.5"/>
<path d="M19.5709 26.7188C19.5709 28.2901 15.7339 29.5758 10.9998 29.5758C6.26574 29.5758 2.42876 28.2901 2.42876 26.7188" stroke="white" stroke-width="1.5" stroke-linecap="round"/>
</svg>
