<svg width="214" height="115" viewBox="0 0 214 115" fill="none" xmlns="http://www.w3.org/2000/svg">
<path d="M170.683 0.574219L111.267 114.469H153.589L213.097 0.574219H170.683Z" fill="#306F66"/>
<path d="M110.717 114.469H153.042L123.149 58.0693H80.8266L110.717 114.469Z" fill="#4DA96E"/>
<path d="M108.251 29.8247H65.8372L77.171 51.3054H119.585L108.251 29.8247Z" fill="#EBB446"/>
<path d="M7.88335 37.2278H9.62087C9.89615 37.2278 10.0767 37.136 10.2602 36.9525C10.4437 36.769 10.5355 36.5854 10.5355 36.3131V34.2115C10.5355 33.9362 10.4437 33.7557 10.2602 33.5722C10.0767 33.3886 9.89319 33.2969 9.62087 33.2969H7.88335C7.60807 33.2969 7.42751 33.3886 7.24399 33.5722C7.06047 33.7557 6.9687 33.9392 6.9687 34.2115V36.3131C6.9687 36.5884 7.06047 36.769 7.24399 36.9525C7.33575 37.136 7.61103 37.2278 7.88335 37.2278Z" fill="#465362"/>
<path d="M43.4418 55.2366C43.4418 55.0531 43.3501 54.8696 43.2583 54.689L41.6126 50.4829L41.2455 49.4765C40.5144 47.6472 39.6915 46.0932 38.7769 44.9062C37.8622 43.7193 36.9476 42.8046 35.9442 42.1653C34.9378 41.5259 33.8426 41.0671 32.6526 40.7948C31.4657 40.5195 30.2758 40.4277 28.9053 40.4277C28.4494 40.4277 27.8071 40.4277 27.076 40.5195C26.3449 40.6113 25.7055 40.703 25.155 40.7948C24.8797 40.8865 24.6991 40.9783 24.6074 41.0701C24.5156 41.1618 24.4238 41.3453 24.4238 41.5259V43.1717C24.4238 43.6275 24.6991 43.811 25.3385 43.7193C25.522 43.7193 25.7943 43.7193 26.0696 43.6275C26.3449 43.6275 26.6172 43.6275 26.8925 43.5357C27.1677 43.5357 27.4401 43.5357 27.6236 43.444H28.0794C30.5481 43.444 32.5579 43.8998 33.9284 44.9062C35.3906 45.9126 36.4888 47.3749 37.4034 49.3847L38.3181 51.4863L39.7803 54.8696H10.2543V43.1687C10.2543 42.9852 10.1626 42.8017 10.0708 42.6211C9.97903 42.4376 9.79551 42.4376 9.61495 42.4376H7.69391C7.51039 42.4376 7.32687 42.5293 7.14631 42.6211C7.05455 42.8046 6.96279 42.9881 6.96279 43.1687V60.7185C6.96279 61.6332 6.87103 62.2725 6.77927 62.8201C6.68751 63.3677 6.41223 63.7348 6.04815 64.0071C5.68111 64.2824 5.22527 64.4629 4.67767 64.5547C4.13007 64.6465 3.39895 64.6465 2.57607 64.6465H1.75319C1.29735 64.6465 1.11383 64.83 1.11383 65.194V66.9316C1.11383 67.1151 1.11383 67.2986 1.20559 67.3874C1.29735 67.4762 1.48087 67.5709 1.75319 67.5709C1.93671 67.4792 2.30079 67.4792 2.75959 67.5709H3.58247C5.13647 67.5709 6.32343 67.3874 7.23807 67.0233C8.15271 66.6563 8.88383 66.0169 9.43143 65.1023C9.70671 64.5547 9.88727 63.9153 9.97903 63.273C10.0708 62.5419 10.1626 61.8108 10.1626 60.8961V58.3357H42.246C42.7018 58.3357 42.9771 58.244 43.1606 58.0605C43.3442 57.8769 43.4359 57.6934 43.4359 57.3293V55.8671C43.5277 55.6836 43.5277 55.4113 43.4359 55.2277L43.4418 55.2366Z" fill="#465362"/>
<path d="M57.1526 37.2278H58.8901C59.1654 37.2278 59.3459 37.136 59.5294 36.9525C59.713 36.769 59.8047 36.5854 59.8047 36.3131V34.2115C59.8047 33.9362 59.713 33.7557 59.5294 33.5722C59.3459 33.3886 59.1624 33.2969 58.8901 33.2969H57.1526C56.8773 33.2969 56.6967 33.3886 56.5132 33.5722C56.3297 33.7557 56.2379 33.9392 56.2379 34.2115V36.3131C56.2379 36.5884 56.3297 36.769 56.5132 36.9525C56.6967 37.136 56.8802 37.2278 57.1526 37.2278Z" fill="#465362"/>
<path d="M59.8018 45.3647C59.8018 44.7253 59.8018 43.9942 59.71 43.0795C59.71 42.896 59.6182 42.7125 59.5265 42.5319C59.4347 42.3484 59.2512 42.3484 58.9789 42.3484H57.0578C56.8743 42.3484 56.6908 42.4402 56.602 42.5319C56.5102 42.7155 56.4185 42.899 56.4185 43.0795C56.4185 44.0859 56.5102 45.0894 56.5102 45.9123V53.5905C56.5102 54.2299 56.4185 54.6887 56.235 54.7775C56.0514 54.8692 55.5038 54.961 54.7727 54.961H53.5858C53.1299 54.961 52.7629 54.961 52.4876 54.8692C52.1206 54.7775 51.8482 54.6857 51.6647 54.5939C51.4812 54.4104 51.2977 54.2269 51.1171 53.8628C51.0254 53.5876 50.9336 53.1317 50.9336 52.5841V30.5558C50.9336 30.3723 50.8418 30.1887 50.7501 30.0082C50.5666 29.8247 50.4748 29.7329 50.2025 29.7329H48.2814C48.0979 29.7329 47.9144 29.8247 47.7338 30.0082C47.5503 30.1917 47.5503 30.3752 47.5503 30.5558V53.3182C47.5503 54.3246 47.6421 55.1475 47.9174 55.7868C48.1009 56.4262 48.465 56.885 48.9238 57.3408C49.3796 57.7079 49.9302 57.9802 50.5695 58.1637C50.753 58.2555 51.0254 58.2555 51.3006 58.2555C51.5759 58.3472 51.7565 58.3472 52.1235 58.3472H55.3233C55.7791 58.3472 56.3297 58.3472 56.7855 58.2555C57.2414 58.2555 57.7002 58.1637 58.0642 58.1637C58.4283 58.1637 58.7036 58.0719 58.8871 57.9802C59.1624 57.8884 59.4347 57.7049 59.5265 57.5244C59.6182 57.3408 59.71 57.0685 59.8018 56.885C59.8935 56.2456 59.8935 55.4228 59.9853 54.3246V47.1022C59.8935 46.5546 59.8935 45.9152 59.8018 45.3647Z" fill="#465362"/>
<path d="M17.7549 90.8866C17.7549 91.0701 17.6632 91.2536 17.4797 91.4342C17.2961 91.6177 17.1126 91.7095 16.9321 91.7095H15.011C14.8275 91.7095 14.644 91.6177 14.4634 91.4342C14.2799 91.2507 14.1881 91.0671 14.1881 90.8866V77.8152C14.1881 76.8088 14.0964 75.9859 13.9129 75.3466C13.7293 74.7072 13.457 74.1596 13.09 73.7926C12.7229 73.4255 12.2671 73.1532 11.7195 72.9697C11.1719 72.7862 10.5325 72.6944 9.79846 72.6944C8.97558 72.6944 8.06095 72.8779 7.14631 73.1503C6.23167 73.4255 5.31703 73.7896 4.40535 74.2484V90.9754C4.40535 91.1589 4.31358 91.3424 4.13006 91.523C3.94654 91.7065 3.76302 91.7983 3.58246 91.7983H1.84494C1.66142 91.7983 1.47791 91.7065 1.29735 91.523C1.11383 91.2477 1.02206 91.0672 1.02206 90.8836V70.6816C1.02206 70.4981 1.11382 70.3146 1.20558 70.134C1.3891 69.9505 1.48086 69.8587 1.75318 69.8587H3.76302C3.94654 69.8587 4.13006 69.9505 4.31062 70.134C4.49414 70.3175 4.49414 70.5011 4.49414 70.6816V71.4127C5.5923 70.7734 6.59574 70.3146 7.60214 70.0423C8.51678 69.767 9.61199 69.5864 10.8019 69.5864C13.1788 69.5864 14.9163 70.3175 16.0115 71.688C17.1097 73.1503 17.6573 75.1631 17.6573 77.8123V90.8836H17.749L17.7549 90.8866Z" fill="#465362"/>
<path d="M38.2293 90.8866C38.2293 91.0701 38.1375 91.2536 37.954 91.4342C37.7705 91.6177 37.5869 91.7095 37.4064 91.7095H35.5771C35.3936 91.7095 35.2101 91.6177 35.0295 91.4342C34.846 91.2507 34.7542 91.0671 34.7542 90.8866V89.9719C33.8396 90.5195 32.8332 90.9783 31.8297 91.3424C30.8233 91.7095 29.8199 91.89 28.63 91.89C27.8071 91.89 26.9842 91.7983 26.1613 91.6147C25.3385 91.4312 24.6991 91.0672 24.0597 90.6084C23.5121 90.1525 22.9616 89.4214 22.5975 88.5985C22.2305 87.7756 22.0499 86.7692 22.0499 85.4905V85.0347C22.0499 83.9365 22.2334 83.0248 22.5057 82.2019C22.8728 81.3791 23.4204 80.7397 24.1515 80.1921C24.8826 79.6445 25.889 79.2775 27.076 79.0051C28.2629 78.7299 29.8169 78.6381 31.5545 78.6381H34.4789V77.0841C34.4789 75.4384 34.2037 74.2514 33.5643 73.6091C32.9249 72.9697 31.8268 72.6027 30.2728 72.6027C28.9941 72.6027 27.8041 72.6027 26.8895 72.6944C25.8831 72.7862 25.0602 72.8779 24.2373 72.8779H24.0538C23.8703 72.8779 23.6868 72.8779 23.598 72.7862C23.4145 72.6944 23.4145 72.5109 23.4145 72.2386V70.8681C23.4145 70.4123 23.6897 70.2287 24.2373 70.137C25.0602 70.0452 25.9749 69.8617 26.8895 69.7699C27.8041 69.6782 28.9911 69.5864 30.3645 69.5864C33.1055 69.5864 35.1183 70.2258 36.3053 71.5963C37.4922 72.875 38.1345 74.7043 38.1345 77.0811L38.2263 90.8836L38.2293 90.8866ZM34.7542 81.1067H31.8297C30.6428 81.1067 29.6364 81.1985 28.9053 81.2903C28.0824 81.4738 27.5348 81.6573 27.076 81.9296C26.6201 82.2049 26.3449 82.6607 26.1613 83.1166C25.9778 83.5724 25.8861 84.2148 25.8861 84.9459V85.4017C25.8861 86.8639 26.1613 87.7786 26.8007 88.2344C27.4401 88.6903 28.3547 88.9655 29.4529 88.9655C30.3675 88.9655 31.2821 88.8738 32.105 88.5985C32.9279 88.3232 33.8425 87.9591 34.7572 87.4115V81.1038L34.7542 81.1067Z" fill="#465362"/>
<path d="M47.1892 91.4342C47.1892 92.4406 47.0974 93.3553 46.8221 93.9946C46.6386 94.634 46.2745 95.1816 45.9075 95.6404C45.5405 96.0074 44.9929 96.3715 44.3535 96.4633C43.7141 96.6468 42.983 96.7385 42.2519 96.7385H41.1537C40.8785 96.7385 40.5144 96.6468 40.0556 96.6468C39.5997 96.555 39.3245 96.3715 39.3245 96.0074V94.5452C39.3245 94.1782 39.5997 93.9976 40.1473 93.9976H41.7931C42.5242 93.9976 43.0718 93.8141 43.2553 93.5417C43.5306 93.2665 43.6224 92.5354 43.6224 91.5319V70.6905C43.6224 70.507 43.7141 70.3235 43.8059 70.143C43.8977 69.9594 44.0812 69.8677 44.3535 69.8677H46.4551C46.6386 69.8677 46.8221 69.9594 47.0027 70.143C47.0945 70.3265 47.1862 70.51 47.1862 70.6905V91.4402L47.1892 91.4342Z" fill="#465362"/>
<path d="M56.8773 90.8867C56.8773 91.0702 56.7855 91.2537 56.602 91.4343C56.4185 91.6178 56.2349 91.7096 56.0544 91.7096H54.1333C53.9498 91.7096 53.7663 91.6178 53.5857 91.4343C53.4022 91.2508 53.3105 91.0672 53.3105 90.8867V70.6847C53.3105 70.5012 53.4022 70.3177 53.5857 70.1371C53.7693 69.9536 53.9528 69.8618 54.1333 69.8618H56.0544C56.2379 69.8618 56.4214 69.9536 56.602 70.1371C56.7855 70.3206 56.8773 70.5041 56.8773 70.6847V90.8867Z" fill="#465362"/>
<path d="M77.5351 90.8867C77.5351 91.0702 77.4433 91.2538 77.2598 91.4343C77.0763 91.6179 76.8928 91.7096 76.7122 91.7096H64.8278C64.0049 91.7096 63.3656 91.5261 62.9985 91.0703C62.6315 90.6144 62.4509 90.1556 62.4509 89.608V88.8769C62.4509 88.3293 62.5427 87.8705 62.6344 87.5064C62.7262 87.1394 63.0015 86.7753 63.3656 86.3194L73.6042 73.6122C73.696 73.4286 73.7877 73.3369 73.7877 73.2451C73.7877 73.0616 73.696 72.9699 73.4207 72.9699H63.6408C63.4573 72.9699 63.2738 72.8781 63.0933 72.6946C62.9097 72.5111 62.818 72.3275 62.818 72.147V70.7765C62.818 70.593 62.9097 70.4095 63.0933 70.2289C63.2768 70.0454 63.4603 69.9536 63.6408 69.9536H75.25C76.0728 69.9536 76.6205 70.1371 76.9875 70.5012C77.3545 70.8653 77.4433 71.3241 77.4433 71.9634V72.8781C77.4433 73.3339 77.3516 73.701 77.2598 73.9763C77.0763 74.3433 76.8928 74.6156 76.5287 74.9827L66.1983 87.9623C66.1065 88.054 66.0148 88.2375 66.0148 88.4181C66.0148 88.5987 66.1065 88.6934 66.29 88.6934H76.7122C76.8957 88.6934 77.0792 88.7851 77.2598 88.9687C77.4433 89.1522 77.5351 89.3357 77.5351 89.5163V90.8867Z" fill="#465362"/>
<path d="M43.6224 62.9146C43.6224 62.6393 43.7141 62.4588 43.8977 62.2753C44.0812 62.0918 44.2647 62 44.537 62H46.2745C46.5498 62 46.7304 62.0918 46.9139 62.2753C47.0974 62.4588 47.1892 62.6423 47.1892 62.9146V65.0162C47.1892 65.1998 47.0974 65.3833 46.9139 65.5638C46.7304 65.7474 46.5469 65.8391 46.2745 65.8391H44.537C44.2617 65.8391 44.0812 65.7474 43.8977 65.5638C43.7141 65.3803 43.6224 65.1968 43.6224 65.0162V62.9146Z" fill="#4DA96E"/>
<path d="M53.4052 62.9146C53.4052 62.6393 53.4969 62.4588 53.6805 62.2753C53.864 62.0918 54.0475 62 54.3198 62H56.0573C56.3326 62 56.5132 62.0918 56.6967 62.2753C56.8802 62.4588 56.972 62.6423 56.972 62.9146V65.0162C56.972 65.1998 56.8802 65.3833 56.6967 65.5638C56.5132 65.7474 56.3297 65.8391 56.0573 65.8391H54.3198C54.0445 65.8391 53.864 65.7474 53.6805 65.5638C53.4969 65.3803 53.4052 65.1968 53.4052 65.0162V62.9146Z" fill="#EBB446"/>
<path d="M33.9343 62.9146C33.9343 62.6393 34.0261 62.4588 34.2096 62.2753C34.3931 62.0918 34.5766 62 34.8489 62H36.5865C36.8617 62 37.0423 62.0918 37.2258 62.2753C37.4093 62.4588 37.5011 62.6423 37.5011 62.9146V65.0162C37.5011 65.1998 37.4093 65.3833 37.2258 65.5638C37.0423 65.7444 36.8588 65.8391 36.5865 65.8391H34.8489C34.5737 65.8391 34.3931 65.7474 34.2096 65.5638C34.0261 65.3803 33.9343 65.1968 33.9343 65.0162V62.9146Z" fill="#306F66"/>
<path d="M56.8773 90.8867C56.8773 91.0702 56.7855 91.2537 56.602 91.4343C56.4185 91.6178 56.2349 91.7096 56.0544 91.7096H54.1333C53.9498 91.7096 53.7663 91.6178 53.5857 91.4343C53.4022 91.2508 53.3105 91.0672 53.3105 90.8867V70.6847C53.3105 70.5012 53.4022 70.3177 53.5857 70.1371C53.7693 69.9536 53.9528 69.8618 54.1333 69.8618H56.0544C56.2379 69.8618 56.4214 69.9536 56.602 70.1371C56.7855 70.3206 56.8773 70.5041 56.8773 70.6847V90.8867Z" fill="#465362"/>
<path d="M5.4147 104.872H2.3067C1.85086 104.872 1.39207 104.689 1.11975 104.325C0.844465 103.958 0.572144 103.594 0.572144 103.138V102.499C0.572144 102.043 0.755665 101.584 1.11975 101.312C1.48679 101.036 1.85086 100.764 2.3067 100.764C2.76254 100.764 3.22135 100.948 3.49367 101.312C3.76895 101.679 4.04126 102.043 4.04126 102.499V104.236H5.31999L5.41175 104.875L5.4147 104.872ZM2.3067 104.233H3.40487V102.496C3.40487 101.856 2.85726 101.397 2.3067 101.397C1.75614 101.397 1.20855 101.945 1.20855 102.496V103.135C1.20855 103.683 1.75614 104.233 2.3067 104.233ZM1.39206 99.8464V99.3906C1.39206 99.3294 1.42265 99.2988 1.48382 99.2988H1.93967C2.00084 99.2988 2.03143 99.3294 2.03143 99.3906V99.8464C2.03143 99.9076 2.00084 99.9382 1.93967 99.9382L1.39206 99.8464C1.39206 99.9076 1.39206 99.9076 1.39206 99.8464ZM2.49023 99.8464V99.3906C2.49023 99.3294 2.52081 99.2988 2.58199 99.2988H2.94902C3.0102 99.2988 3.04079 99.3294 3.04079 99.3906V99.8464C3.04079 99.9076 3.0102 99.9382 2.94902 99.9382L2.49319 99.8464C2.49319 99.9076 2.49319 99.9076 2.49319 99.8464H2.49023Z" fill="#8D8F8F"/>
<path d="M6.60166 103.774V101.033C6.60166 100.972 6.63225 100.941 6.69342 100.941H7.06046C7.12163 100.941 7.15222 100.972 7.15222 101.033V103.958C7.15222 104.049 7.15222 104.141 7.24398 104.141C7.33574 104.233 7.51926 104.233 7.69982 104.233H8.06686V104.872H7.79158C7.42454 104.872 7.06046 104.781 6.87694 104.597C6.69342 104.781 6.4211 104.872 6.14582 104.872H4.95886V104.233H6.23758C6.51286 104.233 6.60462 104.049 6.60462 103.777L6.60166 103.774ZM6.32638 105.695V106.151C6.32638 106.212 6.29579 106.243 6.23462 106.243H5.77878C5.71761 106.243 5.68702 106.212 5.68702 106.151V105.695C5.68702 105.634 5.71761 105.603 5.77878 105.603H6.23462C6.32638 105.603 6.32638 105.695 6.32638 105.695ZM7.42454 105.695V106.151C7.42454 106.212 7.39396 106.243 7.33278 106.243H6.96574C6.90457 106.243 6.87398 106.212 6.87398 106.151V105.695C6.87398 105.634 6.90457 105.603 6.96574 105.603H7.33278C7.42454 105.603 7.42454 105.695 7.42454 105.695Z" fill="#8D8F8F"/>
<path d="M9.61791 103.774V101.033C9.61791 100.972 9.6485 100.942 9.70967 100.942H10.1655C10.2267 100.942 10.2573 100.972 10.2573 101.033V103.774C10.2573 104.414 9.80143 104.781 9.15911 104.781H7.88039V104.141H9.25087C9.52615 104.233 9.61791 104.141 9.61791 103.774ZM10.2573 99.3876V99.8434C10.2573 99.9046 10.2267 99.9352 10.1655 99.9352H9.79847C9.73729 99.9352 9.70671 99.9046 9.70671 99.8434V99.3876C9.70671 99.3264 9.73729 99.2958 9.79847 99.2958H10.1655C10.2573 99.2041 10.2573 99.2958 10.2573 99.3876Z" fill="#8D8F8F"/>
<path d="M14.1882 104.964L13.09 104.872C12.6342 104.872 12.1754 104.689 11.903 104.325C11.6278 103.958 11.3554 103.593 11.3554 103.138V102.498C11.3554 102.042 11.539 101.584 11.903 101.311C12.2701 101.036 12.6342 100.764 13.09 100.764C13.5458 100.764 14.0046 100.947 14.277 101.311C14.5522 101.678 14.8246 102.042 14.8246 102.498V104.967C14.8246 105.423 14.641 105.79 14.3687 106.065C14.0017 106.432 13.6376 106.521 13.1818 106.521H12.3589C12.2977 106.521 12.2671 106.49 12.2671 106.429V106.062C12.2671 106.001 12.2977 105.97 12.3589 105.97H13.1818C13.7294 105.97 14.1882 105.514 14.1882 104.964ZM13.0012 104.233H14.0994V102.495C14.0994 101.856 13.5518 101.397 13.0012 101.397C12.4506 101.397 11.903 101.945 11.903 102.495V103.135C11.903 103.682 12.4506 104.233 13.0012 104.233Z" fill="#8D8F8F"/>
<path d="M16.4733 105.145V101.03C16.4733 100.969 16.5039 100.938 16.565 100.938H16.9321C16.9932 100.938 17.0238 100.969 17.0238 101.03V104.23H18.3943V104.869H17.1156V105.145C17.1156 106.059 16.568 106.515 15.7451 106.515H15.2893C15.2281 106.515 15.1975 106.485 15.1975 106.423V106.056C15.1975 105.995 15.2281 105.965 15.2893 105.965H15.6563C16.2039 105.965 16.4792 105.689 16.4792 105.142L16.4733 105.145Z" fill="#8D8F8F"/>
<path d="M19.7648 103.774V101.033C19.7648 100.972 19.7954 100.942 19.8566 100.942H20.2236C20.2848 100.942 20.3154 100.972 20.3154 101.033V103.958C20.3154 104.05 20.3154 104.141 20.4071 104.141C20.4989 104.233 20.6824 104.233 20.863 104.233H21.23V104.873H20.9547C20.5877 104.873 20.2236 104.781 20.0401 104.597C19.8566 104.781 19.5842 104.873 19.309 104.873H17.9385V104.233H19.4007C19.676 104.233 19.7678 104.05 19.7678 103.777L19.7648 103.774ZM19.2172 99.8435V99.3877C19.2172 99.3265 19.2478 99.2959 19.309 99.2959H19.7648C19.826 99.2959 19.8566 99.3265 19.8566 99.3877V99.8435C19.8566 99.9047 19.826 99.9353 19.7648 99.9353H19.309C19.309 99.9353 19.2172 99.9353 19.2172 99.8435ZM20.3154 99.8435V99.3877C20.3154 99.3265 20.3459 99.2959 20.4071 99.2959H20.7742C20.8353 99.2959 20.8659 99.3265 20.8659 99.3877V99.8435C20.8659 99.9047 20.8353 99.9353 20.7742 99.9353H20.4071C20.4071 99.9353 20.3154 99.9353 20.3154 99.8435Z" fill="#8D8F8F"/>
<path d="M24.335 99.2041H24.9744C25.0355 99.2041 25.0661 99.2347 25.0661 99.2959V99.6629C25.0661 99.7241 25.0355 99.7547 24.9744 99.7547H24.335C23.5121 99.7547 22.9645 100.21 22.8728 101.125H24.4268C24.9744 101.125 25.4332 101.309 25.7055 101.673C25.9808 102.04 26.2531 102.496 26.2531 103.043V103.958C26.2531 104.05 26.2531 104.141 26.3449 104.141C26.4366 104.233 26.6201 104.233 26.8007 104.233H27.2565V104.872H26.8895C26.5225 104.872 26.1584 104.781 25.9749 104.597C25.7913 104.781 25.519 104.964 25.152 104.964H21.1293V104.325H25.152C25.4273 104.325 25.6078 104.141 25.6078 103.869V103.138C25.6078 102.407 25.152 101.859 24.4209 101.859H22.5916C22.408 101.859 22.3163 101.676 22.3163 101.584C22.2245 100.122 22.9556 99.2071 24.3261 99.2071L24.335 99.2041Z" fill="#8D8F8F"/>
<path d="M28.3577 103.774V99.0205C28.3577 98.9593 28.3882 98.9287 28.4494 98.9287H28.8165C28.8776 98.9287 28.9082 98.9593 28.9082 99.0205V103.774C28.9082 104.414 28.4524 104.781 27.9018 104.781H26.9872V104.141H27.9018C28.2689 104.233 28.3577 104.05 28.3577 103.774Z" fill="#8D8F8F"/>
<path d="M33.3867 103.41V99.0234C33.3867 98.9622 33.4173 98.9316 33.4785 98.9316H33.8455C33.9067 98.9316 33.9373 98.9622 33.9373 99.0234V103.41C33.9373 104.325 33.3897 104.781 32.5668 104.781H30.0981C30.037 104.781 30.0064 104.75 30.0064 104.689V104.322C30.0064 104.261 30.037 104.23 30.0981 104.23H32.5668C33.1144 104.23 33.3897 103.955 33.3897 103.407L33.3867 103.41ZM31.4657 106.062V106.518H32.2885C32.3497 106.518 32.3803 106.549 32.3803 106.61V106.793C32.3803 106.855 32.3497 106.885 32.2885 106.885H30.9181C30.8569 106.885 30.8263 106.855 30.8263 106.793V106.61C30.8263 106.549 30.8569 106.518 30.9181 106.518H31.1933V106.062C31.1933 105.695 31.4686 105.423 31.8327 105.423C32.108 105.423 32.2885 105.515 32.3803 105.79V105.882C32.3803 105.882 32.3803 105.973 32.2885 105.973L32.105 106.065C32.105 106.065 32.0133 106.065 32.0133 105.973V105.882C31.9215 105.79 31.8297 105.698 31.738 105.698C31.5545 105.79 31.4627 105.882 31.4627 106.065L31.4657 106.062ZM31.2821 103.41V99.6628C31.2821 99.6016 31.3127 99.571 31.3739 99.571H31.7409C31.8021 99.571 31.8327 99.6016 31.8327 99.6628V103.41C31.8327 103.471 31.8021 103.502 31.7409 103.502L31.2851 103.41C31.2851 103.502 31.2851 103.594 31.2851 103.41H31.2821Z" fill="#8D8F8F"/>
<path d="M35.7606 104.872H35.3936C35.3324 104.872 35.3018 104.842 35.3018 104.781V99.0205C35.3018 98.9593 35.3324 98.9287 35.3936 98.9287H35.7606C35.8218 98.9287 35.8524 98.9593 35.8524 99.0205L35.7606 104.869C35.8524 104.778 35.8524 104.869 35.7606 104.869V104.872Z" fill="#8D8F8F"/>
<path d="M43.7142 104.872H40.6979C40.2421 104.872 39.7833 104.689 39.511 104.325C39.2357 103.958 38.9633 103.594 38.9633 103.138V102.499C38.9633 102.043 39.1469 101.584 39.511 101.312C39.878 101.036 40.2421 100.764 40.6979 100.764C41.1538 100.764 41.6125 100.948 41.8849 101.312C42.2519 101.679 42.4325 102.043 42.4325 102.499V104.236H43.7112V104.875L43.7142 104.872ZM40.6979 104.233H41.7961V102.496C41.7961 101.856 41.2485 101.397 40.6979 101.397C40.0586 101.397 39.5997 101.945 39.5997 102.496V103.135C39.5997 103.683 40.0556 104.233 40.6979 104.233ZM39.6915 99.8464V99.3906C39.6915 99.3294 39.7221 99.2988 39.7833 99.2988H40.2391C40.3003 99.2988 40.3309 99.3294 40.3309 99.3906V99.8464C40.3309 99.9076 40.3003 99.9382 40.2391 99.9382L39.6915 99.8464C39.7833 99.9382 39.6915 99.9382 39.6915 99.8464ZM40.7897 99.8464V99.3906C40.7897 99.3294 40.8203 99.2988 40.8814 99.2988H41.2485C41.3096 99.2988 41.3402 99.3294 41.3402 99.3906V99.8464C41.3402 99.9076 41.3096 99.9382 41.2485 99.9382L40.7926 99.8464C40.7926 99.9382 40.8844 99.9382 40.7926 99.8464H40.7897Z" fill="#8D8F8F"/>
<path d="M44.9958 103.774V101.033C44.9958 100.972 45.0264 100.941 45.0876 100.941H45.4546C45.5158 100.941 45.5464 100.972 45.5464 101.033V103.958C45.5464 104.049 45.5464 104.141 45.6381 104.141C45.7299 104.233 45.9134 104.233 46.094 104.233H46.461V104.872H46.1857C45.8187 104.872 45.4546 104.781 45.2711 104.597C45.0876 104.781 44.8153 104.872 44.54 104.872H43.2613V104.233H44.54C44.907 104.233 44.9958 104.049 44.9958 103.777V103.774ZM44.7205 105.695V106.151C44.7205 106.212 44.69 106.243 44.6288 106.243H44.1729C44.1118 106.243 44.0812 106.212 44.0812 106.151V105.695C44.0812 105.634 44.1118 105.603 44.1729 105.603L44.7205 105.695ZM45.8187 105.695V106.151C45.8187 106.212 45.7881 106.243 45.7269 106.243H45.3599C45.2987 106.243 45.2681 106.212 45.2681 106.151V105.695C45.2681 105.634 45.2987 105.603 45.3599 105.603L45.8157 105.695H45.8187Z" fill="#8D8F8F"/>
<path d="M47.7368 103.774V99.0205C47.7368 98.9593 47.7674 98.9287 47.8285 98.9287H48.1956C48.2568 98.9287 48.2873 98.9593 48.2873 99.0205V103.774C48.2873 104.414 47.8315 104.781 47.2809 104.781H46.3663V104.141H47.2809C47.648 104.233 47.7368 104.05 47.7368 103.774Z" fill="#8D8F8F"/>
<path d="M53.2217 104.233H53.5887V104.872H53.3134C52.9464 104.872 52.6741 104.781 52.4905 104.505L52.3988 104.414C52.1235 104.689 51.7594 104.869 51.3006 104.869H49.5631C49.5019 104.869 49.4713 104.839 49.4713 104.778V104.411C49.4713 104.349 49.5019 104.319 49.5631 104.319H51.3006C51.8482 104.319 52.1235 104.135 52.1235 103.588V102.309C52.1235 101.853 51.6677 101.394 51.2089 101.394C50.8418 101.394 50.5695 101.486 50.386 101.578L50.2025 101.67H50.0189L49.8354 101.394V101.303C49.8354 101.303 49.8354 101.211 49.9272 101.211L50.1107 101.119C50.386 100.936 50.7501 100.844 51.2089 100.844C51.5759 100.844 51.94 101.027 52.307 101.3C52.5823 101.575 52.7629 101.939 52.7629 102.306V103.86C52.6711 104.044 52.9464 104.227 53.2187 104.227L53.2217 104.233Z" fill="#8D8F8F"/>
<path d="M59.0706 104.872H53.4022V104.233H55.3233L54.5004 102.495V102.404C54.5921 101.948 54.7757 101.672 55.1397 101.305C55.5068 100.938 55.9626 100.758 56.4185 100.758C56.8743 100.758 57.3331 100.941 57.6972 101.214C58.0642 101.581 58.2448 101.945 58.3365 102.312V102.404L57.5137 104.141H59.2512V104.872H59.0677H59.0706ZM55.5956 101.672C55.4121 101.856 55.2285 102.128 55.1397 102.312L56.0544 104.233H56.7855L57.7001 102.312C57.7001 102.037 57.5166 101.856 57.2443 101.581C56.969 101.397 56.6967 101.305 56.4214 101.305C56.0544 101.305 55.7821 101.489 55.5985 101.672H55.5956Z" fill="#8D8F8F"/>
<path d="M60.2606 103.774V99.0205C60.2606 98.9593 60.2911 98.9287 60.3523 98.9287H60.7194C60.7805 98.9287 60.8111 98.9593 60.8111 99.0205V103.774C60.8111 104.414 60.3553 104.781 59.8047 104.781H58.8901V104.141H59.8047C60.08 104.233 60.2606 104.05 60.2606 103.774Z" fill="#8D8F8F"/>
<path d="M62.6374 104.872H62.2704C62.2092 104.872 62.1786 104.842 62.1786 104.781V99.0205C62.1786 98.9593 62.2092 98.9287 62.2704 98.9287H62.6374C62.6986 98.9287 62.7292 98.9593 62.7292 99.0205L62.6374 104.869C62.7292 104.778 62.7292 104.869 62.6374 104.869V104.872Z" fill="#8D8F8F"/>
<path d="M70.955 103.774V101.033C70.955 100.972 70.9856 100.942 71.0468 100.942H71.4138C71.475 100.942 71.5056 100.972 71.5056 101.033V103.774C71.5056 104.414 71.0497 104.781 70.4992 104.781H67.5747C67.1189 104.781 66.6601 104.597 66.296 104.233C65.9289 103.866 65.7484 103.502 65.7484 102.954C65.7484 102.587 65.8401 102.315 66.0237 102.04C66.2072 101.764 66.4795 101.492 66.7548 101.4L66.9383 101.309H67.0301C67.0912 101.309 67.1218 101.339 67.1218 101.4L67.3053 101.767C67.3053 101.829 67.2748 101.859 67.2136 101.859L67.0301 101.951C66.663 102.134 66.3907 102.498 66.3907 103.049C66.3907 103.688 66.9383 104.236 67.5777 104.236H70.5021C70.7774 104.236 70.958 104.144 70.958 103.78L70.955 103.774ZM68.2141 100.574V100.119C68.2141 100.057 68.2446 100.027 68.3058 100.027H68.6729C68.734 100.027 68.7646 100.057 68.7646 100.119V100.574C68.7646 100.636 68.734 100.666 68.6729 100.666L68.217 100.574H68.2141ZM69.3122 100.574V100.119C69.3122 100.057 69.3428 100.027 69.404 100.027H69.8598C69.921 100.027 69.9516 100.057 69.9516 100.119V100.574C69.9516 100.636 69.921 100.666 69.8598 100.666L69.3122 100.574Z" fill="#8D8F8F"/>
<path d="M73.8795 104.233H74.2466V104.872H73.8795C73.2402 104.872 72.8731 104.505 72.8731 103.866V99.1123C72.8731 99.0511 72.9037 99.0205 72.9649 99.0205H73.3319C73.3931 99.0205 73.4237 99.0511 73.4237 99.1123V103.866C73.4237 104.141 73.6072 104.233 73.8795 104.233Z" fill="#8D8F8F"/>
<path d="M78.358 101.305C78.725 101.672 78.9056 102.037 78.9056 102.492V103.132C78.9056 103.588 78.722 104.046 78.358 104.319C77.9909 104.594 77.6269 104.866 77.0793 104.866H73.9713V104.227H75.3417V102.489C75.3417 102.034 75.5252 101.575 75.8893 101.302C76.2564 101.027 76.6204 100.755 77.0763 100.755C77.5321 100.755 78.0827 100.938 78.355 101.302L78.358 101.305ZM78.2662 103.135V102.495C78.2662 101.856 77.7186 101.397 77.168 101.397C76.5287 101.397 76.0699 101.945 76.0699 102.495V104.233H77.168C77.8074 104.233 78.2662 103.685 78.2662 103.135Z" fill="#8D8F8F"/>
<path d="M83.8429 104.233H84.2099V104.872H83.9346C83.5676 104.872 83.2953 104.781 83.1118 104.505L83.02 104.414C82.7447 104.689 82.3806 104.869 81.9218 104.869H80.1843C80.1231 104.869 80.0926 104.839 80.0926 104.778V104.411C80.0926 104.349 80.1231 104.319 80.1843 104.319H81.9218C82.4694 104.319 82.7447 104.135 82.7447 103.588V102.309C82.7447 101.853 82.2889 101.394 81.8301 101.394C81.463 101.394 81.1907 101.486 81.0072 101.578L80.8237 101.67H80.6402L80.4566 101.394V101.303C80.4566 101.303 80.4566 101.211 80.5484 101.211L80.7319 101.119C81.0072 100.936 81.3713 100.844 81.8301 100.844C82.1971 100.844 82.5612 101.027 82.9282 101.3C83.2035 101.575 83.3841 101.939 83.3841 102.306V103.86C83.2923 104.044 83.4758 104.227 83.8399 104.227L83.8429 104.233Z" fill="#8D8F8F"/>
<path d="M88.2326 103.41V102.587C88.2326 102.22 88.1408 101.948 87.8655 101.673C87.5902 101.397 87.3179 101.306 86.9509 101.306C86.4033 101.306 85.9445 101.489 85.6722 101.945L85.5804 102.129L85.4886 102.22H85.3969L85.1216 102.037L85.0298 101.945V101.853L85.1216 101.67C85.5774 101.122 86.128 100.847 86.9509 100.847C87.4985 100.847 87.9573 101.03 88.3214 101.394C88.6884 101.762 88.869 102.217 88.869 102.765V104.044C88.869 104.135 88.869 104.227 88.9607 104.227C89.0525 104.319 89.236 104.319 89.4166 104.319H89.7836V104.958H89.5083C89.0525 104.958 88.6854 104.867 88.5019 104.502C88.2266 104.778 87.8625 104.958 87.4037 104.958H83.9287V104.319H87.4037C88.0431 104.227 88.2266 103.952 88.2266 103.404L88.2326 103.41ZM86.5868 99.8464V99.3906C86.5868 99.3294 86.6174 99.2988 86.6786 99.2988H87.1344C87.1956 99.2988 87.2262 99.3294 87.2262 99.3906V99.8464C87.2262 99.9076 87.1956 99.9382 87.1344 99.9382L86.5868 99.8464C86.5868 99.9076 86.5868 99.9076 86.5868 99.8464Z" fill="#8D8F8F"/>
<path d="M90.9735 103.774V99.0205C90.9735 98.9593 91.0041 98.9287 91.0653 98.9287H91.4323C91.4935 98.9287 91.5241 98.9593 91.5241 99.0205V103.774C91.5241 104.414 91.0682 104.781 90.5177 104.781H89.603V104.141H90.5177C90.8847 104.233 90.9735 104.05 90.9735 103.774Z" fill="#8D8F8F"/>
<path d="M93.4421 104.872H93.0751C93.0139 104.872 92.9833 104.842 92.9833 104.781V99.0205C92.9833 98.9593 93.0139 98.9287 93.0751 98.9287H93.4421C93.5033 98.9287 93.5339 98.9593 93.5339 99.0205L93.4421 104.869C93.5339 104.778 93.5339 104.869 93.4421 104.869V104.872Z" fill="#8D8F8F"/>
<path d="M2.03142 108.253H2.67078V112.731C2.67078 113.187 2.57902 113.463 2.3955 113.738C2.21198 114.013 1.93966 114.105 1.48086 114.105H0.933259C0.872086 114.105 0.810914 114.074 0.749741 114.013L0.8415 113.465C1.02502 113.557 1.20854 113.557 1.29734 113.557C1.57262 113.557 1.66438 113.465 1.75318 113.282C1.84494 113.098 1.84494 112.915 1.84494 112.643V108.256H2.02846L2.03142 108.253Z" fill="#8D8F8F"/>
<path d="M4.77535 109.898V112.823C4.77535 113.006 4.86711 113.098 4.86711 113.19C4.95887 113.282 5.05063 113.374 5.14239 113.465C5.23415 113.557 5.41767 113.557 5.50943 113.557C5.69295 113.557 5.78471 113.557 5.87647 113.465C5.96823 113.374 6.05999 113.374 6.15175 113.282C6.24351 113.19 6.33527 113.098 6.42703 113.006C6.51879 112.915 6.51879 112.823 6.61055 112.639V109.898H7.24991V113.462C7.24991 113.646 7.24991 113.829 7.34167 114.01H6.88583L6.70231 113.371C6.61055 113.554 6.42703 113.738 6.15471 113.918C5.87943 114.102 5.69887 114.102 5.33183 114.102C5.14831 114.102 4.87599 114.102 4.78423 114.01C4.60071 113.918 4.50895 113.826 4.32839 113.735C4.23663 113.643 4.14487 113.459 4.05311 113.187C3.96135 112.915 3.96135 112.639 3.96135 112.364V109.896H4.78423L4.77535 109.898Z" fill="#8D8F8F"/>
<path d="M11.7225 112.642V113.374C11.7225 113.557 11.7225 113.829 11.8142 114.013H11.3584L11.1749 113.465C11.0831 113.649 10.8996 113.832 10.719 113.921C10.5355 114.013 10.2632 114.105 9.9879 114.105C9.4403 114.105 9.07326 113.921 8.80094 113.557C8.52566 113.19 8.4339 112.642 8.4339 111.911C8.4339 111.18 8.61742 110.633 8.88974 110.266C9.25678 109.899 9.71262 109.718 10.2602 109.718H10.7161C10.8078 109.718 10.9913 109.81 11.0831 109.81V108.072H11.7225V112.642ZM10.0767 113.557C10.352 113.557 10.5325 113.465 10.7161 113.374C10.8996 113.19 10.9913 113.007 11.0831 112.734V110.724C10.9913 110.633 10.8996 110.633 10.7161 110.541C10.6243 110.541 10.4408 110.449 10.2602 110.449C9.89318 110.449 9.62085 110.541 9.34557 110.816C9.16205 111.091 8.97854 111.456 8.97854 112.003C8.97854 112.187 8.97854 112.459 9.0703 112.642C9.16206 112.826 9.16206 113.01 9.25382 113.098C9.34558 113.19 9.43734 113.374 9.62086 113.465C9.80438 113.557 9.89614 113.557 10.0767 113.557Z" fill="#8D8F8F"/>
<path d="M13.0012 108.712C13.0012 108.62 13.0012 108.436 13.0929 108.345C13.1847 108.253 13.2765 108.253 13.46 108.253C13.6435 108.253 13.7353 108.253 13.827 108.345C13.9188 108.436 14.0106 108.528 14.0106 108.712C14.0106 108.803 13.9188 108.987 13.827 108.987C13.7353 109.079 13.6435 109.079 13.46 109.079C13.2765 109.079 13.1847 109.079 13.0929 108.987C13.0929 108.895 13.0012 108.803 13.0012 108.712ZM13.1847 109.899H13.8241V114.013H13.1847V109.899Z" fill="#8D8F8F"/>
<path d="M18.0273 113.738C17.8437 113.83 17.6602 113.921 17.4797 114.013C17.2961 114.105 17.0238 114.105 16.7485 114.105C16.4733 114.105 16.2009 114.013 15.9257 113.921C15.7421 113.83 15.5586 113.646 15.3781 113.466C15.1975 113.285 15.1028 113.01 15.1028 112.826C15.1028 112.643 15.011 112.279 15.011 111.912C15.011 111.18 15.1945 110.725 15.4669 110.266C15.7421 109.899 16.198 109.718 16.7456 109.718C17.0209 109.718 17.2014 109.718 17.3849 109.81C17.5685 109.81 17.752 109.902 17.8408 109.994L17.6573 110.541C17.5655 110.449 17.382 110.449 17.2014 110.358C17.0179 110.266 16.9261 110.266 16.7456 110.266C15.9227 110.266 15.5586 110.813 15.5586 111.82C15.5586 112.003 15.5586 112.187 15.6504 112.459C15.7421 112.734 15.7421 112.826 15.8339 112.915C15.9257 113.099 16.0174 113.19 16.2009 113.282C16.3845 113.374 16.568 113.374 16.7485 113.374C16.9291 113.374 17.1156 113.374 17.2961 113.282C17.4797 113.19 17.5714 113.19 17.6632 113.099L18.0302 113.738H18.0273Z" fill="#8D8F8F"/>
<path d="M18.9419 108.712C18.9419 108.62 18.9419 108.436 19.0337 108.345C19.1254 108.253 19.2172 108.253 19.4007 108.253C19.5842 108.253 19.676 108.253 19.7677 108.345C19.8595 108.436 19.9513 108.528 19.9513 108.712C19.9513 108.803 19.8595 108.987 19.7677 108.987C19.676 109.079 19.5842 109.079 19.4007 109.079C19.2172 109.079 19.1254 109.079 19.0337 108.987C18.9419 108.895 18.9419 108.803 18.9419 108.712ZM19.0337 109.899H19.673V114.013H19.0337V109.899Z" fill="#8D8F8F"/>
<path d="M21.0465 110.265C21.23 110.174 21.5023 110.082 21.7776 109.99C22.0529 109.898 22.3252 109.898 22.6005 109.898C22.8757 109.898 23.1481 109.898 23.3316 109.99C23.5151 110.082 23.6069 110.174 23.6986 110.265C23.7904 110.357 23.8821 110.541 23.8821 110.633V113.557C23.8821 113.741 23.9739 113.924 23.9739 114.013H23.5181L23.3345 113.465C23.2428 113.557 23.2428 113.649 23.151 113.649C23.0593 113.649 22.9675 113.832 22.8757 113.832C22.784 113.924 22.6922 113.924 22.5087 114.016C22.3252 114.108 22.2334 114.108 22.0529 114.108C21.8723 114.108 21.6858 114.108 21.597 114.016C21.4135 113.924 21.3217 113.924 21.23 113.741C21.1382 113.557 21.0465 113.557 20.9547 113.373C20.8629 113.19 20.8629 113.098 20.8629 112.918C20.8629 112.642 20.9547 112.462 21.0465 112.278C21.1382 112.095 21.3217 112.003 21.5023 111.911C21.6829 111.819 21.8693 111.728 22.1417 111.728C22.414 111.728 22.6893 111.636 22.9645 111.636H23.3316V111.18C23.3316 110.905 23.2398 110.633 23.1481 110.541C23.0563 110.449 22.781 110.357 22.5087 110.357H22.2334C22.1417 110.357 22.0499 110.357 21.8664 110.449C21.7746 110.449 21.6829 110.541 21.4993 110.541C21.4076 110.541 21.3158 110.633 21.2241 110.633L21.0405 110.265H21.0465ZM22.2334 113.557C22.4169 113.557 22.5087 113.557 22.6893 113.465C22.781 113.465 22.8728 113.373 22.9645 113.282C23.0563 113.19 23.1481 113.19 23.1481 113.098C23.1481 113.006 23.2398 112.915 23.2398 112.915V112.275H22.2334C22.0499 112.275 21.9581 112.367 21.7776 112.367C21.6858 112.459 21.5941 112.459 21.5023 112.551C21.4105 112.642 21.4105 112.734 21.4105 112.918C21.4105 113.101 21.5023 113.285 21.5941 113.373C21.8693 113.465 22.0499 113.557 22.2334 113.557Z" fill="#8D8F8F"/>
<path d="M25.9808 113.007C25.9808 113.19 25.9808 113.374 26.0726 113.463C26.1643 113.554 26.2561 113.554 26.3478 113.554H26.6231C26.7149 113.554 26.8066 113.554 26.8984 113.463L26.9901 114.01C26.8984 114.01 26.8066 114.102 26.6231 114.102H26.2561C25.9808 114.102 25.8002 114.01 25.6167 113.918C25.4332 113.735 25.3414 113.551 25.3414 113.187V108.25H25.9808V113.004V113.007Z" fill="#8D8F8F"/>
<path d="M29.9117 108.253H33.0197V108.892H30.551V110.813H32.8362V111.453H30.551V113.463H33.0197V114.102H29.8199L29.9117 108.253Z" fill="#8D8F8F"/>
<path d="M34.9407 113.007C34.9407 113.19 34.9407 113.374 35.0324 113.463C35.1242 113.554 35.216 113.554 35.3077 113.554H35.583C35.6748 113.554 35.7665 113.554 35.8583 113.463L35.95 114.01C35.8583 114.01 35.7665 114.102 35.583 114.102H35.216C34.9407 114.102 34.7601 114.01 34.5766 113.918C34.3931 113.735 34.3013 113.551 34.3013 113.187V108.25H34.9407V113.004V113.007Z" fill="#8D8F8F"/>
<path d="M39.5997 113.738C39.4162 113.83 39.2327 114.013 38.9604 114.013C38.6851 114.105 38.4128 114.105 38.1375 114.105C37.8622 114.105 37.5899 114.013 37.3146 113.921C37.0394 113.83 36.8588 113.646 36.767 113.466C36.6753 113.285 36.4917 113.01 36.4 112.826C36.3082 112.643 36.3082 112.279 36.3082 111.912C36.3082 111.18 36.4918 110.633 36.7641 110.266C37.0394 109.899 37.4952 109.718 38.1346 109.718C38.3181 109.718 38.5016 109.718 38.6822 109.81C38.8657 109.81 39.0492 109.902 39.138 110.085C39.2297 110.269 39.4133 110.361 39.505 110.541C39.5968 110.725 39.6886 110.997 39.6886 111.364C39.6886 111.548 39.6886 111.731 39.5968 112.003H36.9446C36.9446 112.279 36.9446 112.459 37.0364 112.643C37.1282 112.826 37.1282 113.01 37.3117 113.099C37.4034 113.19 37.5869 113.282 37.6787 113.374C37.8622 113.466 38.0458 113.466 38.3181 113.466C38.5016 113.466 38.6851 113.466 38.8657 113.374C39.0492 113.282 39.2327 113.19 39.3215 113.099L39.5968 113.738H39.5997ZM38.2293 110.446C37.8622 110.446 37.6817 110.538 37.4064 110.722C37.2229 110.905 37.1311 111.178 37.0393 111.636H39.0492C39.0492 111.18 38.9574 110.905 38.7739 110.722C38.6822 110.446 38.4986 110.446 38.2263 110.446H38.2293Z" fill="#8D8F8F"/>
<path d="M43.5306 113.738C43.3471 113.83 43.1636 113.921 42.983 114.013C42.7995 114.105 42.5272 114.105 42.2519 114.105C41.9766 114.105 41.7043 114.013 41.429 113.921C41.1537 113.83 41.062 113.646 40.8814 113.466C40.6979 113.282 40.6061 113.01 40.6061 112.826C40.5144 112.551 40.5144 112.279 40.5144 111.912C40.5144 111.18 40.6979 110.725 40.9702 110.266C41.2455 109.899 41.7013 109.718 42.2489 109.718C42.5242 109.718 42.7048 109.718 42.8883 109.81C43.0718 109.81 43.2553 109.902 43.3441 109.994L43.1606 110.541C43.0689 110.449 42.8853 110.449 42.7048 110.358C42.5213 110.266 42.4295 110.266 42.2489 110.266C41.426 110.266 41.062 110.813 41.062 111.82C41.062 112.003 41.062 112.187 41.1537 112.459C41.2455 112.734 41.2455 112.826 41.3373 112.915C41.429 113.099 41.5208 113.19 41.7043 113.282C41.8878 113.374 42.0713 113.374 42.2519 113.374C42.4325 113.374 42.6189 113.374 42.7995 113.282C42.983 113.19 43.0748 113.19 43.1665 113.099L43.5336 113.738H43.5306Z" fill="#8D8F8F"/>
<path d="M43.8977 109.898H44.537V109.076L45.1764 108.892V109.898H46.2746V110.446H45.1764V112.731C45.1764 113.006 45.1764 113.187 45.2682 113.371C45.3599 113.462 45.4517 113.554 45.6352 113.554H46.0022C46.094 113.554 46.1858 113.462 46.3693 113.462L46.5528 113.918C46.3693 114.01 46.2775 114.01 46.097 114.102C45.9134 114.193 45.7299 114.193 45.5494 114.193C45.1823 114.193 45.0018 114.102 44.8182 113.918C44.6347 113.735 44.6347 113.371 44.6347 113.004V110.535H43.9954V109.896H43.9036L43.8977 109.898Z" fill="#8D8F8F"/>
<path d="M49.1073 110.538C48.9237 110.446 48.7402 110.446 48.6514 110.446C48.3761 110.446 48.1956 110.538 48.1038 110.63C47.9203 110.721 47.9203 110.905 47.8285 111.085V114.01H47.1892V109.895H47.645L47.7368 110.351C47.8285 110.168 47.9203 109.984 48.1038 109.895C48.2873 109.804 48.4709 109.712 48.6514 109.712C48.832 109.712 49.0185 109.712 49.199 109.804L49.1073 110.535V110.538Z" fill="#8D8F8F"/>
<path d="M49.7466 112.003C49.7466 111.272 49.9301 110.816 50.2024 110.357C50.4777 109.99 50.9336 109.81 51.5729 109.81C51.8482 109.81 52.1205 109.901 52.3958 109.993C52.6711 110.085 52.8516 110.268 52.9434 110.449C53.0352 110.632 53.2187 110.905 53.3104 111.088C53.4022 111.272 53.4022 111.636 53.4022 112.003C53.4022 112.734 53.2187 113.19 52.9464 113.649C52.6711 114.016 52.2153 114.196 51.5759 114.196C51.3006 114.196 51.0283 114.105 50.753 114.013C50.4777 113.921 50.2972 113.737 50.2054 113.557C50.1136 113.373 49.9301 113.101 49.8384 112.918C49.7466 112.734 49.7466 112.278 49.7466 112.003ZM50.4777 112.003C50.4777 112.186 50.4777 112.37 50.5695 112.642C50.6613 112.918 50.6613 113.009 50.753 113.098C50.8448 113.19 50.9365 113.373 51.12 113.465C51.3036 113.557 51.3953 113.557 51.6676 113.557C52.3988 113.557 52.7658 113.009 52.7658 112.003C52.7658 111.819 52.7658 111.547 52.674 111.364C52.5823 111.18 52.5823 110.997 52.4905 110.908C52.3988 110.724 52.307 110.632 52.1235 110.541C51.94 110.449 51.8482 110.449 51.5759 110.449C50.8448 110.357 50.4777 110.905 50.4777 112.003Z" fill="#8D8F8F"/>
<path d="M57.0608 114.013V111.636C57.0608 111.18 56.969 110.905 56.8773 110.629C56.7855 110.446 56.5102 110.262 56.2379 110.262C55.9656 110.262 55.6903 110.354 55.5068 110.538C55.3233 110.721 55.1397 110.905 55.1397 111.085V113.918H54.5004V109.804H54.9562L55.048 110.259C55.1397 110.076 55.3233 109.984 55.5956 109.804C55.8709 109.62 56.0514 109.62 56.4185 109.62C56.602 109.62 56.8743 109.62 56.9661 109.712C57.1496 109.804 57.2414 109.895 57.4219 109.987C57.5137 110.079 57.6054 110.262 57.6972 110.535C57.789 110.718 57.789 111.082 57.789 111.358V113.826H57.0578V114.01L57.0608 114.013Z" fill="#8D8F8F"/>
<path d="M58.8901 108.712C58.8901 108.62 58.8901 108.436 58.9818 108.345C59.0736 108.253 59.1654 108.253 59.3489 108.253C59.4406 108.253 59.6242 108.253 59.7159 108.345C59.8077 108.436 59.8994 108.528 59.8994 108.712C59.8994 108.803 59.8077 108.987 59.7159 108.987C59.6242 109.079 59.5324 109.079 59.3489 109.079C59.2571 109.079 59.0736 109.079 58.9818 108.987C58.9818 108.895 58.8901 108.803 58.8901 108.712ZM59.0736 109.899H59.713V114.013H59.0736V109.899Z" fill="#8D8F8F"/>
<path d="M63.9161 113.738C63.7326 113.83 63.5491 113.921 63.3685 114.013C63.185 114.105 62.9127 114.105 62.6374 114.105C62.3621 114.105 62.0898 114.013 61.8145 113.921C61.5393 113.83 61.4475 113.646 61.2669 113.466C61.0834 113.282 60.9917 113.01 60.9917 112.826C60.8999 112.551 60.8999 112.279 60.8999 111.912C60.8999 111.18 61.0834 110.725 61.3557 110.266C61.631 109.899 62.0869 109.718 62.6345 109.718C62.9097 109.718 63.0903 109.718 63.2738 109.81C63.4573 109.81 63.6409 109.902 63.7297 109.994L63.5461 110.541C63.4544 110.449 63.2709 110.449 63.0903 110.358C62.9068 110.266 62.815 110.266 62.6345 110.266C61.8116 110.266 61.4475 110.813 61.4475 111.82C61.4475 112.003 61.4475 112.187 61.5393 112.459C61.631 112.734 61.631 112.826 61.7228 112.915C61.8145 113.099 61.9063 113.19 62.0898 113.282C62.2733 113.374 62.4569 113.374 62.6374 113.374C62.818 113.374 63.0045 113.374 63.185 113.282C63.3685 113.19 63.4603 113.19 63.5521 113.099L63.9191 113.738H63.9161Z" fill="#8D8F8F"/>
<path d="M69.4928 112.551C69.4928 112.276 69.401 112.095 69.3093 112.003C69.2175 111.82 69.034 111.728 68.7617 111.636C68.5781 111.544 68.3058 111.453 68.1223 111.361C67.847 111.269 67.6665 111.177 67.4829 110.994C67.2994 110.81 67.1159 110.719 66.9353 110.446C66.7518 110.263 66.7518 109.99 66.7518 109.623C66.7518 109.168 66.9353 108.801 67.2077 108.525C67.4829 108.25 67.9388 108.158 68.5781 108.158C68.9452 108.158 69.2175 108.158 69.4928 108.25C69.7681 108.342 69.9486 108.342 70.1321 108.433L69.9486 109.073C69.8569 108.981 69.6733 108.981 69.401 108.889C69.1257 108.798 68.8534 108.798 68.5781 108.798C68.2111 108.798 67.9388 108.889 67.7553 109.073C67.5717 109.256 67.48 109.44 67.48 109.62C67.48 109.801 67.5717 109.987 67.6635 110.168C67.7553 110.352 67.9388 110.443 68.2111 110.535C68.4864 110.627 68.6669 110.719 68.8505 110.902C69.1257 110.994 69.3063 111.177 69.4898 111.269C69.6733 111.453 69.8569 111.544 70.0374 111.817C70.2209 112 70.2209 112.273 70.2209 112.548C70.2209 112.823 70.2209 113.004 70.1292 113.187C70.0374 113.371 69.9457 113.554 69.7621 113.735C69.5786 113.918 69.3951 114.01 69.1228 114.102C68.8475 114.194 68.5752 114.194 68.2999 114.194C67.8441 114.194 67.5688 114.194 67.2935 114.102C67.0182 114.01 66.8377 114.01 66.6541 113.918L66.9294 113.279C67.0212 113.371 67.2047 113.463 67.477 113.463C67.7523 113.554 68.0246 113.554 68.2999 113.554C68.4834 113.554 68.6669 113.554 68.8475 113.463C69.0281 113.371 69.1228 113.371 69.3033 113.279C69.4869 113.187 69.4869 113.095 69.5786 113.004C69.4869 112.912 69.4869 112.728 69.4869 112.548L69.4928 112.551Z" fill="#8D8F8F"/>
<path d="M74.1548 113.738C73.9713 113.83 73.7878 114.013 73.5154 114.013C73.2402 114.105 72.9678 114.105 72.6926 114.105C72.4173 114.105 72.145 114.013 71.8697 113.921C71.5944 113.83 71.4138 113.646 71.3221 113.466C71.2303 113.282 71.0468 113.01 70.955 112.826C70.8633 112.643 70.8633 112.279 70.8633 111.912C70.8633 111.18 71.0468 110.633 71.3191 110.266C71.5944 109.899 72.0502 109.718 72.6896 109.718C72.8731 109.718 73.0566 109.718 73.2372 109.81C73.4207 109.81 73.6042 109.902 73.693 110.085C73.7818 110.269 73.9683 110.361 74.0601 110.541C74.1518 110.725 74.2436 110.997 74.2436 111.364C74.2436 111.548 74.2436 111.731 74.1518 112.003H71.4997C71.4997 112.279 71.4997 112.459 71.5914 112.643C71.6832 112.826 71.6832 113.01 71.8667 113.099C71.9585 113.19 72.142 113.282 72.2338 113.374C72.4173 113.466 72.6008 113.466 72.8731 113.466C73.0566 113.466 73.2402 113.466 73.4207 113.374C73.6013 113.282 73.7878 113.19 73.8766 113.099L74.1518 113.738H74.1548ZM72.7843 110.446C72.4173 110.446 72.2367 110.538 71.9614 110.722C71.7779 110.905 71.6862 111.178 71.5944 111.636H73.6042C73.6042 111.18 73.5125 110.905 73.329 110.722C73.329 110.446 73.0537 110.446 72.7814 110.446H72.7843Z" fill="#8D8F8F"/>
<path d="M77.3545 110.538C77.171 110.446 76.9875 110.446 76.8987 110.446C76.6234 110.446 76.4429 110.538 76.3511 110.63C76.1676 110.721 76.1676 110.905 76.0758 111.085V114.01H75.4365V109.895H75.8923L75.9841 110.351C76.0758 110.168 76.1676 109.984 76.3511 109.895C76.5346 109.804 76.7181 109.712 76.8987 109.712C77.0793 109.712 77.2657 109.712 77.4463 109.804L77.3545 110.535V110.538Z" fill="#8D8F8F"/>
<path d="M79.3644 112.367L79.6397 113.19L79.8232 112.367L80.7378 109.99H81.4689L79.7314 114.196H79.4561L77.6269 109.99H78.358L79.3644 112.367Z" fill="#8D8F8F"/>
<path d="M82.1053 108.712C82.1053 108.62 82.1053 108.436 82.1971 108.345C82.2889 108.253 82.3806 108.253 82.5642 108.253C82.6559 108.253 82.8394 108.253 82.9312 108.345C83.0229 108.436 83.1147 108.528 83.1147 108.712C83.1147 108.803 83.0229 108.987 82.9312 108.987C82.8394 109.079 82.7477 109.079 82.5642 109.079C82.4724 109.079 82.2889 109.079 82.1971 108.987C82.1971 108.895 82.1053 108.803 82.1053 108.712ZM82.2889 109.899H82.9282V114.013H82.2889V109.899Z" fill="#8D8F8F"/>
<path d="M87.1344 113.738C86.9509 113.83 86.7674 113.921 86.5868 114.013C86.4033 114.105 86.131 114.105 85.8557 114.105C85.5804 114.105 85.3081 114.013 85.0328 113.921C84.7575 113.83 84.6658 113.646 84.4852 113.466C84.3017 113.282 84.2099 113.01 84.2099 112.826C84.1182 112.551 84.1182 112.279 84.1182 111.912C84.1182 111.18 84.3017 110.725 84.574 110.266C84.8493 109.899 85.3051 109.718 85.8527 109.718C86.128 109.718 86.3086 109.718 86.4921 109.81C86.6756 109.81 86.8591 109.902 86.9479 109.994L86.7644 110.541C86.6726 110.449 86.4891 110.449 86.3086 110.358C86.125 110.266 86.0333 110.266 85.8527 110.266C85.0298 110.266 84.6658 110.813 84.6658 111.82C84.6658 112.003 84.6658 112.187 84.7575 112.459C84.8493 112.732 84.8493 112.826 84.941 112.915C85.0328 113.099 85.1246 113.19 85.3081 113.282C85.4916 113.374 85.6751 113.374 85.8557 113.374C86.0362 113.374 86.2227 113.374 86.4033 113.282C86.5868 113.19 86.6786 113.19 86.7703 113.099L87.1374 113.738H87.1344Z" fill="#8D8F8F"/>
<path d="M90.8817 113.738C90.6982 113.83 90.5147 114.013 90.2424 114.013C89.9671 114.105 89.6948 114.105 89.4195 114.105C89.1442 114.105 88.8719 114.013 88.5966 113.921C88.3213 113.83 88.1408 113.646 88.049 113.466C87.9573 113.282 87.7737 113.01 87.682 112.826C87.5902 112.643 87.5902 112.279 87.5902 111.912C87.5902 111.18 87.7737 110.633 88.0461 110.266C88.3213 109.899 88.7772 109.718 89.4165 109.718C89.6001 109.718 89.7836 109.718 89.9641 109.81C90.1477 109.81 90.3312 109.902 90.42 110.085C90.5117 110.269 90.6953 110.361 90.787 110.541C90.8788 110.725 90.9705 110.997 90.9705 111.364C90.9705 111.548 90.9705 111.731 90.8788 112.003H88.2266C88.2266 112.279 88.2266 112.459 88.3184 112.643C88.4101 112.826 88.4101 113.01 88.5937 113.099C88.6854 113.19 88.8689 113.282 88.9607 113.374C89.1442 113.466 89.3277 113.466 89.6001 113.466C89.7836 113.466 89.9671 113.466 90.1477 113.374C90.3282 113.282 90.5147 113.19 90.6035 113.099L90.8788 113.738H90.8817ZM89.4195 110.446C89.0525 110.446 88.8719 110.538 88.5966 110.722C88.4131 110.905 88.3213 111.178 88.2296 111.636H90.2394C90.2394 111.18 90.1477 110.905 89.9641 110.722C89.9641 110.446 89.6889 110.446 89.4165 110.446H89.4195Z" fill="#8D8F8F"/>
<path d="M93.8062 112.915C93.8062 112.731 93.7145 112.639 93.6227 112.548C93.5309 112.456 93.4392 112.364 93.2557 112.272C93.0721 112.181 92.9804 112.181 92.7998 112.089C92.6193 111.997 92.4328 111.997 92.344 111.905C92.1605 111.814 92.0687 111.722 91.9769 111.538C91.8852 111.355 91.7934 111.171 91.7934 110.991C91.7934 110.624 91.8852 110.351 92.1605 110.168C92.4357 109.984 92.7081 109.893 93.0751 109.893C93.3504 109.893 93.6227 109.893 93.8062 109.984C93.9897 110.076 94.1733 110.076 94.3538 110.168L94.1703 110.715C94.0785 110.624 93.895 110.624 93.7145 110.532C93.5339 110.44 93.3474 110.44 93.1669 110.44C92.8916 110.44 92.711 110.44 92.6193 110.532C92.5275 110.624 92.4357 110.715 92.4357 110.988C92.4357 111.171 92.5275 111.263 92.6193 111.355C92.711 111.447 92.8028 111.538 92.9863 111.538C93.1698 111.63 93.2616 111.63 93.4421 111.722C93.6257 111.814 93.8092 111.905 93.898 111.997C94.0815 112.089 94.1733 112.181 94.265 112.364C94.3568 112.548 94.4485 112.731 94.4485 113.004C94.4485 113.187 94.4485 113.371 94.3568 113.459C94.265 113.643 94.1733 113.735 94.0815 113.826C93.9897 113.918 93.8062 114.01 93.6257 114.102C93.4421 114.193 93.2586 114.193 92.9863 114.193C92.714 114.193 92.4387 114.193 92.1634 114.102C91.9799 114.01 91.7964 114.01 91.6158 113.918L91.7993 113.371C91.8911 113.462 92.0746 113.554 92.2552 113.554C92.4387 113.646 92.6222 113.646 92.8945 113.646C93.1669 113.646 93.3504 113.554 93.4421 113.462C93.8092 113.371 93.8092 113.187 93.8092 112.915H93.8062Z" fill="#8D8F8F"/>
</svg>
