<svg width="355" height="319" viewBox="0 0 355 319" fill="none" xmlns="http://www.w3.org/2000/svg">
<path d="M7.49781 285.581C10.0068 285.581 11.9031 284.91 13.1868 283.568C14.4705 282.226 15.1998 280.388 15.3749 278.025C16.1334 279.105 17.2712 279.63 18.8466 279.63H45.5703C47.8168 279.63 49.4214 279.017 50.4133 277.763C51.7845 279.017 53.2724 279.63 54.9061 279.63H77.0786C79.5001 279.63 81.3964 279.017 82.7676 277.763C84.1388 276.508 84.839 274.787 84.839 272.57C84.839 270.761 84.2264 269.244 83.0302 268.048C81.8341 266.851 80.3462 266.239 78.5665 266.239C76.6994 266.239 75.1531 266.851 73.957 268.077C72.7608 269.302 72.1482 270.848 72.1482 272.686C72.1482 273.97 72.5566 275.458 73.4027 277.179H54.9353C53.71 277.179 52.4847 276.771 51.3177 275.925C51.4344 275.341 51.5219 274.816 51.5219 274.349V271.986C51.5219 270.236 50.9968 268.806 49.859 267.697C48.7212 266.589 47.2916 266.035 45.5412 266.035C44.17 266.035 42.7404 266.268 41.2525 266.706C39.7938 267.172 37.6057 267.989 34.7467 269.244V265.918L32.3835 266.297V277.179H29.6411H18.905C18.0006 277.179 17.2129 276.917 16.5127 276.391C15.8417 275.866 15.4916 275.137 15.4916 274.174V259.383L13.1285 259.733V276.712C13.1285 278.9 12.6908 280.505 11.7864 281.526C10.882 282.547 9.51084 283.102 7.67286 283.102C5.83487 283.102 4.5512 282.664 3.61762 281.76C2.65487 280.855 2.1589 279.542 2.1589 277.821C2.1589 276.041 2.47982 274.174 3.12166 272.278L1.22532 271.753C0.408441 274.233 0 276.45 0 278.434C0 280.797 0.67101 282.576 2.0422 283.773C3.38423 284.969 5.25138 285.581 7.55616 285.581H7.49781ZM75.5908 269.798C76.3785 268.981 77.312 268.573 78.4207 268.573C79.5876 268.573 80.5504 268.952 81.3089 269.711C82.0675 270.469 82.4467 271.461 82.4467 272.628C82.4467 274.058 81.9799 275.166 81.0463 275.954C80.1128 276.742 78.8291 277.15 77.2537 277.15H75.8241C74.8906 275.516 74.4529 274.028 74.4529 272.686C74.4529 271.578 74.8322 270.615 75.6199 269.798H75.5908ZM34.6591 271.228C37.8975 270.031 40.0856 269.273 41.3109 268.923C42.507 268.573 43.7324 268.398 44.9577 268.398C46.183 268.398 47.1749 268.748 47.9335 269.477C48.692 270.206 49.1004 271.111 49.1004 272.278V273.882C49.1004 274.933 48.8087 275.72 48.196 276.304C47.5834 276.858 46.7081 277.121 45.5995 277.121H34.6591V271.228Z" fill="white"/>
<path d="M43.674 261.454L41.6026 259.441L39.6188 261.454L41.661 263.467L43.674 261.454Z" fill="white"/>
<path d="M80.2003 261.863L78.1289 259.85L76.145 261.863L78.1872 263.876L80.2003 261.863Z" fill="white"/>
<path d="M103.569 266.268L101.498 264.255L99.4845 266.268L101.527 268.281L103.569 266.268Z" fill="white"/>
<path d="M109.258 277.996C109.958 279.075 111.038 279.63 112.467 279.63H123.203C125.129 279.63 126.588 279.163 127.55 278.259C128.542 277.325 129.038 276.041 129.038 274.32V265.889L126.675 266.268V273.678C126.675 275.983 125.537 277.15 123.203 277.15H112.467C110.542 277.15 109.491 276.129 109.316 274.087V273.853V265.889L106.982 266.268V276.712C106.982 278.9 106.545 280.505 105.64 281.526C104.736 282.547 103.365 283.102 101.527 283.102C99.6888 283.102 98.4051 282.664 97.4716 281.76C96.5088 280.855 96.0128 279.542 96.0128 277.821C96.0128 276.041 96.3338 274.174 96.9756 272.278L95.0793 271.753C94.2624 274.233 93.8539 276.45 93.8539 278.434C93.8539 280.797 94.525 282.576 95.8961 283.773C97.2382 284.969 99.1053 285.581 101.41 285.581C103.919 285.581 105.815 284.91 107.099 283.568C108.383 282.226 109.112 280.359 109.287 277.996H109.258Z" fill="white"/>
<path d="M124.166 283.831L126.208 285.815L128.251 283.831L126.179 281.818L124.166 283.831Z" fill="white"/>
<path d="M149.898 278.434C150.715 279.221 151.969 279.63 153.661 279.63C155.178 279.63 156.608 279.017 157.862 277.821C158.796 279.017 160.401 279.63 162.618 279.63C166.498 279.63 168.453 277.792 168.453 274.087V259.412L166.119 259.762V273.503C166.119 275.895 164.952 277.092 162.618 277.092C160.313 277.092 159.146 275.895 159.146 273.503V259.383L156.783 259.733V274.028C156.783 274.758 156.841 275.4 156.987 275.895C156.083 276.683 154.974 277.062 153.632 277.062C152.669 277.062 151.969 276.829 151.561 276.333C151.123 275.866 150.919 275.049 150.919 273.941V264.897L148.556 265.276V266.997C147.214 266.472 145.959 266.21 144.851 266.21C143.013 266.21 141.496 266.881 140.299 268.223C139.103 269.565 138.491 271.198 138.491 273.124C138.491 275.049 139.074 276.596 140.27 277.85C141.466 279.134 142.984 279.747 144.851 279.747C146.339 279.747 148.001 279.28 149.869 278.317L149.898 278.434ZM140.766 273.211C140.766 271.928 141.146 270.878 141.933 270.002C142.721 269.127 143.713 268.689 144.967 268.689C145.901 268.689 147.097 268.923 148.585 269.448V274.262C148.585 275.166 148.673 275.925 148.848 276.567C147.418 277.208 146.105 277.529 144.851 277.5C143.625 277.5 142.633 277.062 141.875 276.246C141.116 275.429 140.737 274.408 140.737 273.211H140.766Z" fill="white"/>
<path d="M175.63 259.412L173.296 259.791V279.629H175.63V259.412Z" fill="white"/>
<path d="M214.84 281.847L212.856 283.86L214.898 285.844L216.911 283.86L214.84 281.847Z" fill="white"/>
<path d="M244.744 275.954C241.243 276.537 238.179 276.887 235.554 277.004C234.474 275.545 233.92 274.087 233.92 272.657C233.92 271.432 234.328 270.469 235.145 269.74C235.962 269.01 237.012 268.631 238.296 268.631C239.23 268.631 240.543 268.894 242.235 269.419L242.906 267.406C240.776 266.676 239.113 266.326 237.917 266.326C236.137 266.326 234.62 266.88 233.424 267.96C232.228 269.039 231.615 270.44 231.615 272.161C231.615 273.882 232.14 275.458 233.161 277.121C232.578 277.121 231.644 277.121 230.331 277.121H219.595C218.399 277.121 217.232 276.741 216.094 275.954C216.211 275.487 216.299 274.933 216.299 274.291V268.806L213.935 269.156V273.649C213.935 275.954 212.798 277.121 210.464 277.121H194.359C193.134 277.121 191.938 276.712 190.8 275.895C190.917 275.312 191.004 274.787 191.004 274.291V272.015C190.946 270.236 190.392 268.806 189.254 267.727C188.116 266.647 186.687 266.093 184.907 266.093H182.777V268.514H184.411C185.636 268.514 186.628 268.864 187.416 269.565C188.204 270.265 188.612 271.169 188.612 272.307V273.912C188.612 274.933 188.35 275.72 187.737 276.275C187.124 276.829 186.278 277.092 185.14 277.092H178.168L178.635 279.571H185.111C187.299 279.571 188.904 278.959 189.925 277.704C191.267 278.929 192.726 279.571 194.359 279.571H210.464C212.652 279.571 214.256 278.959 215.219 277.763C216.59 278.959 218.049 279.571 219.624 279.571H230.361C235.466 279.571 240.105 279.192 244.248 278.404L244.744 275.925V275.954Z" fill="white"/>
<path d="M263.707 261.687L261.694 259.704L259.623 261.687L261.694 263.671L263.707 261.687Z" fill="white"/>
<path d="M259.302 261.687L257.289 259.704L255.276 261.687L257.289 263.671L259.302 261.687Z" fill="white"/>
<path d="M308.431 278.025C309.569 276.975 310.123 275.516 310.123 273.707C310.123 271.898 309.511 270.527 308.315 269.477C307.118 268.427 305.485 267.902 303.472 267.902H298.541L306.331 259.266L304.055 258.07L295.77 267.872L297.053 270.119H303.734C304.989 270.119 305.981 270.44 306.71 271.082C307.439 271.723 307.819 272.569 307.819 273.678C307.819 274.787 307.469 275.604 306.71 276.216C305.981 276.829 304.989 277.121 303.705 277.121H268.287C267.325 277.121 266.624 276.887 266.216 276.391C265.778 275.925 265.574 275.108 265.574 273.999V264.955L263.211 265.334V267.056C261.869 266.53 260.615 266.268 259.506 266.268C257.668 266.268 256.151 266.939 254.955 268.281C253.759 269.623 253.146 271.257 253.146 273.182C253.146 275.108 253.729 276.654 254.926 277.908C256.122 279.192 257.639 279.805 259.506 279.805C260.994 279.805 262.657 279.338 264.524 278.375C265.341 279.163 266.595 279.571 268.287 279.571H303.909C305.806 279.571 307.323 279.046 308.461 277.996L308.431 278.025ZM259.506 277.5C258.281 277.5 257.289 277.062 256.53 276.245C255.772 275.429 255.392 274.407 255.392 273.211C255.392 272.015 255.772 270.877 256.559 270.002C257.347 269.127 258.339 268.689 259.593 268.689C260.527 268.689 261.723 268.923 263.211 269.448V274.262C263.211 275.166 263.299 275.925 263.474 276.566C262.044 277.208 260.731 277.529 259.477 277.5H259.506Z" fill="white"/>
<path d="M344.17 262.796L342.128 260.812L340.115 262.796L342.157 264.809L344.17 262.796Z" fill="white"/>
<path d="M346.737 264.809L348.75 262.796L346.737 260.812L344.695 262.796L346.737 264.809Z" fill="white"/>
<path d="M344.479 257.986L343.034 259.429L344.498 260.895L345.943 259.451L344.479 257.986Z" fill="white"/>
<path d="M352.076 266.239V273.649C352.076 274.787 351.784 275.662 351.172 276.245C350.559 276.829 349.713 277.121 348.575 277.121C347.583 277.121 346.504 276.887 345.366 276.42C345.599 275.808 345.716 275.108 345.716 274.291V268.806L343.353 269.156V273.649C343.353 275.954 342.215 277.121 339.881 277.121C339.035 277.121 338.072 276.887 336.993 276.45C337.226 275.808 337.314 275.108 337.314 274.32V268.835L334.951 269.185V273.678C334.951 275.983 333.813 277.15 331.479 277.15H320.743C318.788 277.15 317.738 276.275 317.621 274.524V265.889L315.258 266.268V278.813C315.258 281.993 313.624 283.568 310.298 283.568L310.532 285.581C312.895 285.581 314.675 285.056 315.842 283.977C317.009 282.897 317.621 281.205 317.621 278.9V278.171C318.292 279.163 319.313 279.63 320.743 279.63H331.479C333.405 279.63 334.863 279.134 335.884 278.171C337.314 279.134 338.685 279.6 339.998 279.6C341.836 279.6 343.236 279.105 344.199 278.142C345.804 279.105 347.35 279.6 348.809 279.6C350.617 279.6 351.989 279.134 352.893 278.229C353.827 277.296 354.264 275.983 354.264 274.291V265.859L351.93 266.239H352.076Z" fill="white"/>
<path d="M10.2985 296.872L12.3116 294.888L10.2985 292.904L8.25632 294.888L10.2985 296.872Z" fill="white"/>
<path d="M3.88019 294.888L5.89322 296.872L7.90625 294.888L5.89322 292.904L3.88019 294.888Z" fill="white"/>
<path d="M17.7964 317.002L19.8094 318.986L21.8224 317.002L19.8094 315.018L17.7964 317.002Z" fill="white"/>
<path d="M22.1725 317.002L24.2147 318.986L26.2278 317.002L24.2147 315.018L22.1725 317.002Z" fill="white"/>
<path d="M30.8081 306.879C30.8081 309.183 29.6411 310.35 27.3072 310.35C25.9068 310.35 24.594 309.884 23.3395 308.979C23.427 308.483 23.4854 308.016 23.4854 307.55V302.065L21.1514 302.415V306.908C21.1514 308.133 20.8013 309.008 20.1303 309.563C19.4593 310.117 18.3798 310.38 16.9211 310.38C15.9584 310.38 15.2582 310.146 14.8497 309.65C14.4121 309.183 14.2079 308.367 14.2079 307.258V298.214L11.8448 298.593V300.314C10.5028 299.789 9.24827 299.527 8.13964 299.527C6.30166 299.527 4.78459 300.198 3.58844 301.54C2.39229 302.882 1.77963 304.516 1.77963 306.441C1.77963 308.367 2.36312 309.913 3.55927 311.167C4.75542 312.451 6.27248 313.064 8.13964 313.064C9.62753 313.064 11.2905 312.597 13.1576 311.634C13.9745 312.422 15.229 312.83 16.9211 312.83C19.6927 312.83 21.5598 312.159 22.5518 310.817C24.0105 312.159 25.5859 312.83 27.3072 312.83C29.2327 312.83 30.6914 312.363 31.6542 311.459C32.6461 310.525 33.1421 309.242 33.1421 307.52V299.089L30.7789 299.468V306.879H30.8081ZM8.11047 310.7C6.88514 310.7 5.89322 310.263 5.13468 309.446C4.37615 308.629 3.99688 307.608 3.99688 306.412C3.99688 305.216 4.37615 304.078 5.16386 303.203C5.95157 302.327 6.94349 301.89 8.19799 301.89C9.13157 301.89 10.3277 302.123 11.8156 302.648V307.462C11.8156 308.367 11.9031 309.125 12.0782 309.767C10.6486 310.409 9.33579 310.73 8.08129 310.7H8.11047Z" fill="white"/>
<path d="M29.8162 294.742L31.8584 296.784L33.9006 294.742L31.8293 292.758L29.8162 294.742Z" fill="white"/>
<path d="M53.4475 306.878C53.4475 309.183 52.2805 310.35 49.9465 310.35H48.3419V305.741C48.3419 303.873 47.8168 302.386 46.7374 301.248C45.6579 300.11 44.2867 299.556 42.5654 299.556C40.7274 299.556 39.1812 300.168 37.985 301.423C36.7889 302.677 36.1762 304.282 36.1762 306.266C36.1762 308.25 36.7597 309.883 37.9559 311.08C39.1228 312.276 40.6983 312.859 42.6529 312.859H45.9788C45.8038 314.23 45.0161 315.222 43.6449 315.835C42.2737 316.448 40.319 316.769 37.7517 316.769L38.0142 318.782C44.5493 318.782 47.9627 316.798 48.3128 312.83H49.9465C51.872 312.83 53.3308 312.363 54.2935 311.459C55.2854 310.525 55.7814 309.242 55.7814 307.52V299.089L53.4183 299.468V306.878H53.4475ZM45.9788 310.35C44.5493 310.379 43.5282 310.409 42.9447 310.409C41.5443 310.409 40.4357 310.029 39.5896 309.3C38.7728 308.571 38.3351 307.491 38.3351 306.12C38.3351 304.865 38.7144 303.844 39.4729 303.086C40.2315 302.327 41.1651 301.919 42.332 301.919C43.499 301.919 44.2867 302.269 44.9869 302.998C45.6579 303.728 46.008 304.69 46.008 305.886V310.35H45.9788Z" fill="white"/>
<path d="M52.4847 294.742L54.5269 296.784L56.5399 294.742L54.4685 292.758L52.4847 294.742Z" fill="white"/>
<path d="M71.4772 297.076L73.4902 295.092L71.4772 293.108L69.435 295.092L71.4772 297.076Z" fill="white"/>
<path d="M73.8111 295.092L75.8533 297.076L77.8955 295.092L75.8533 293.108L73.8111 295.092Z" fill="white"/>
<path d="M84.8974 306.733C84.8974 309.125 83.7305 310.321 81.4257 310.321C79.7336 310.321 78.3332 310.233 77.2538 310.088C78.9459 308.833 79.7919 307.229 79.7919 305.245C79.7919 303.611 79.2084 302.211 78.0706 301.073C76.9328 299.935 75.4741 299.381 73.6945 299.381C71.9149 299.381 70.5145 299.935 69.3475 301.044C68.1805 302.152 67.5971 303.553 67.5971 305.245C67.5971 307.229 68.4431 308.862 70.1352 310.146C68.8515 310.263 67.422 310.321 65.8174 310.321C63.5126 310.321 62.3457 309.125 62.3457 306.733V292.612L59.9825 292.962V307.258C59.9825 310.934 61.9372 312.801 65.8174 312.801C69.0266 312.801 71.6815 312.451 73.782 311.78C76.116 312.451 78.6541 312.801 81.3965 312.801C85.2767 312.801 87.2314 310.963 87.2314 307.258V292.583L84.8974 292.933V306.674V306.733ZM73.6653 309.854C72.5275 309.533 71.5939 308.95 70.9229 308.162C70.2519 307.374 69.9018 306.47 69.9018 305.507C69.9018 304.399 70.2519 303.494 70.9521 302.794C71.6523 302.094 72.5275 301.715 73.6361 301.715C74.7448 301.715 75.6783 302.065 76.4077 302.794C77.1662 303.494 77.5163 304.399 77.5163 305.507C77.5163 306.47 77.1662 307.345 76.4661 308.104C75.7659 308.862 74.8323 309.446 73.6653 309.854Z" fill="white"/>
<path d="M92.045 312.83H94.4082V292.612L92.045 292.992V312.83Z" fill="white"/>
<path d="M122.124 306.879C122.124 309.183 120.957 310.35 118.652 310.35H111.825C108.441 310.35 106.72 308.95 106.72 306.178C106.72 305.303 106.866 304.019 107.157 302.386L105.086 302.123C104.707 303.932 104.503 305.507 104.503 306.849C104.503 308.833 105.086 310.321 106.224 311.342C107.362 312.363 109.054 312.859 111.242 312.859H118.623C120.548 312.859 122.007 312.392 122.97 311.488C123.962 310.555 124.458 309.271 124.458 307.55V299.118L122.095 299.497V306.908L122.124 306.879Z" fill="white"/>
<path d="M114.684 298.126L116.727 300.11L118.74 298.126L116.727 296.142L114.684 298.126Z" fill="white"/>
<path d="M110.308 298.126L112.321 300.11L114.363 298.126L112.321 296.142L110.308 298.126Z" fill="white"/>
<path d="M128.717 312.83H131.051V292.612L128.717 292.992V312.83Z" fill="white"/>
<path d="M137.47 311.984C137.47 315.164 135.807 316.739 132.481 316.739L132.714 318.752C135.077 318.752 136.857 318.227 138.024 317.148C139.191 316.068 139.803 314.376 139.803 312.071V299.06L137.44 299.439V311.984H137.47Z" fill="white"/>
<path d="M158.329 295.997L160.371 298.01L162.355 295.997L160.342 294.013L158.329 295.997Z" fill="white"/>
<path d="M162.643 291.171L161.198 292.615L162.662 294.08L164.107 292.637L162.643 291.171Z" fill="white"/>
<path d="M166.936 295.997L164.923 294.013L162.88 295.997L164.923 298.01L166.936 295.997Z" fill="white"/>
<path d="M178.868 296.055L176.855 298.039L178.868 300.052L180.881 298.039L178.868 296.055Z" fill="white"/>
<path d="M185.286 298.039L183.273 296.055L181.231 298.039L183.273 300.052L185.286 298.039Z" fill="white"/>
<path d="M206.7 306.849C206.7 307.987 206.409 308.862 205.796 309.446C205.183 310.029 204.337 310.321 203.199 310.321C202.207 310.321 201.128 310.087 199.99 309.621C200.224 309.008 200.34 308.308 200.34 307.491V302.006L197.977 302.356V306.849C197.977 309.154 196.839 310.321 194.505 310.321C193.659 310.321 192.697 310.087 191.617 309.65C191.851 309.008 191.938 308.308 191.938 307.52V302.035L189.575 302.385V306.878C189.575 309.183 188.437 310.35 186.103 310.35C184.703 310.35 183.39 309.883 182.136 308.979C182.223 308.483 182.281 308.016 182.281 307.549V302.065L179.947 302.415V306.907C179.947 308.133 179.597 309.008 178.926 309.562C178.255 310.117 177.176 310.379 175.717 310.379C174.55 310.379 173.412 310.029 172.333 309.329C172.479 308.745 172.566 308.133 172.566 307.52V299.089L170.232 299.468V306.878C170.232 308.016 169.941 308.891 169.328 309.475C168.715 310.058 167.869 310.35 166.731 310.35C165.74 310.35 164.66 310.117 163.522 309.65C163.756 309.037 163.872 308.337 163.872 307.52V302.035L161.509 302.385V306.878C161.509 309.183 160.371 310.35 158.037 310.35C157.191 310.35 156.229 310.117 155.149 309.679C155.383 309.037 155.47 308.337 155.47 307.549V302.065L153.107 302.415V306.907C153.107 309.212 151.969 310.379 149.635 310.379C147.331 310.379 146.164 309.183 146.164 306.791V292.67L143.8 293.02V307.316C143.8 310.992 145.755 312.859 149.635 312.859C151.561 312.859 153.02 312.363 154.041 311.4C155.47 312.363 156.841 312.83 158.154 312.83C159.992 312.83 161.393 312.334 162.355 311.371C163.96 312.334 165.506 312.83 166.965 312.83C168.92 312.83 170.378 312.276 171.312 311.167C172.654 312.305 174.083 312.859 175.6 312.859C178.372 312.859 180.239 312.188 181.231 310.846C182.69 312.188 184.265 312.859 185.987 312.859C187.912 312.859 189.371 312.363 190.392 311.4C191.821 312.363 193.193 312.83 194.505 312.83C196.343 312.83 197.744 312.334 198.707 311.371C200.311 312.334 201.857 312.83 203.316 312.83C205.125 312.83 206.496 312.363 207.401 311.459C208.334 310.525 208.772 309.212 208.772 307.52V299.089L206.438 299.468V306.878L206.7 306.849Z" fill="white"/>
<path d="M224.234 306.733C224.234 309.125 223.067 310.321 220.762 310.321H219.946L217.291 296.23L214.957 296.813L217.728 310.321H211.164L211.602 312.801H220.762C224.643 312.801 226.597 310.963 226.597 307.258V292.583L224.234 292.933V306.674V306.733Z" fill="white"/>
<path d="M231.353 312.83H233.716V292.612L231.353 292.992V312.83Z" fill="white"/>
<path d="M243.548 299.527C241.71 299.527 240.163 300.139 238.967 301.394C237.771 302.648 237.158 304.253 237.158 306.237C237.158 308.221 237.742 309.854 238.938 311.051C240.105 312.247 241.68 312.83 243.577 312.83C244.685 312.83 245.823 312.568 247.019 312.013V312.072C247.019 313.705 246.348 314.872 244.977 315.631C243.606 316.39 241.534 316.74 238.763 316.74L239.025 318.753C245.911 318.753 249.353 316.565 249.353 312.159V305.683C249.353 303.815 248.828 302.327 247.749 301.19C246.669 300.052 245.298 299.498 243.577 299.498L243.548 299.527ZM247.019 309.884C246.027 310.234 244.977 310.409 243.898 310.409C242.497 310.438 241.389 310.088 240.572 309.358C239.755 308.629 239.346 307.55 239.346 306.12C239.346 304.866 239.726 303.845 240.484 303.086C241.243 302.327 242.176 301.919 243.343 301.919C244.51 301.919 245.327 302.298 245.998 303.028C246.669 303.757 247.019 304.72 247.019 305.916V309.913V309.884Z" fill="white"/>
<path d="M262.803 292.992L260.76 294.976L262.803 296.959L264.816 294.976L262.803 292.992Z" fill="white"/>
<path d="M267.179 292.992L265.137 294.976L267.179 296.959L269.221 294.976L267.179 292.992Z" fill="white"/>
<path d="M264.991 299.526C263.153 299.526 261.636 300.197 260.439 301.539C259.243 302.881 258.631 304.515 258.631 306.441C258.631 308.366 259.214 309.912 260.41 311.167C261.606 312.451 263.123 313.063 264.991 313.063C266.858 313.063 268.317 312.421 269.513 311.167C270.709 309.883 271.292 308.308 271.292 306.441C271.292 304.574 270.709 302.911 269.513 301.569C268.317 300.227 266.829 299.526 264.991 299.526ZM267.879 309.358C267.12 310.146 266.187 310.554 265.02 310.554C263.853 310.554 262.861 310.146 262.102 309.358C261.344 308.57 260.965 307.578 260.965 306.412C260.965 305.245 261.344 304.165 262.102 303.29C262.861 302.444 263.824 302.006 264.991 302.006C266.158 302.006 267.091 302.444 267.85 303.29C268.608 304.136 268.988 305.186 268.988 306.412C268.988 307.637 268.608 308.57 267.879 309.358Z" fill="white"/>
<path d="M288.009 299.41C286.142 299.41 284.596 300.023 283.4 301.248C282.204 302.473 281.591 304.02 281.591 305.858C281.591 307.141 281.999 308.629 282.845 310.35H280.453C278.148 310.35 276.981 309.154 276.981 306.762V292.642L274.618 292.992V307.287C274.618 310.963 276.573 312.83 280.453 312.83H286.521C288.943 312.83 290.839 312.218 292.21 310.963C293.582 309.709 294.282 307.987 294.282 305.77C294.282 303.961 293.669 302.444 292.473 301.248C291.277 300.052 289.789 299.439 288.009 299.439V299.41ZM290.489 309.154C289.555 309.942 288.272 310.35 286.696 310.35H285.267C284.333 308.717 283.896 307.229 283.896 305.887C283.896 304.778 284.275 303.815 285.063 302.998C285.85 302.182 286.784 301.773 287.893 301.773C289.06 301.773 290.022 302.152 290.781 302.911C291.539 303.67 291.919 304.661 291.919 305.828C291.919 307.258 291.452 308.367 290.518 309.154H290.489Z" fill="white"/>
<path d="M349.305 306.733C349.305 309.125 348.138 310.321 345.833 310.321C343.528 310.321 342.361 309.125 342.361 306.733V292.612L339.998 292.962V307.258C339.998 307.987 340.056 308.629 340.202 309.125C339.298 309.913 338.189 310.292 336.847 310.292H334.513C335.155 308.571 335.476 306.966 335.476 305.537C335.476 303.874 334.863 302.444 333.638 301.219C332.413 299.993 330.954 299.381 329.233 299.381C327.395 299.381 325.907 299.993 324.711 301.219C323.544 302.444 322.931 303.961 322.931 305.799C322.931 307.316 323.252 308.6 323.923 309.708C323.048 310.117 322.143 310.321 321.18 310.321H319.926C318.496 310.321 317.534 309.942 317.067 309.183C317.592 308.95 318.117 308.658 318.642 308.337L318.992 306.033C315.842 303.407 313.595 301.715 312.253 300.927C310.911 300.139 309.657 299.731 308.46 299.731C307.468 299.731 306.272 299.993 304.93 300.519L305.397 302.619C306.768 302.327 307.673 302.181 308.11 302.181C309.131 302.181 310.211 302.502 311.32 303.144C312.457 303.786 314.208 305.099 316.6 307.112C312.224 309.242 307.877 310.321 303.617 310.321C301.313 310.321 300.146 309.125 300.146 306.733V292.612L297.783 292.962V307.258C297.783 310.934 299.737 312.801 303.617 312.801C307.381 312.801 311.378 311.838 315.637 309.884C315.871 310.817 316.367 311.517 317.067 312.042C317.767 312.568 318.73 312.83 319.897 312.83H321.18C322.61 312.83 324.069 312.363 325.498 311.488C326.724 312.393 328.27 312.83 330.079 312.83H336.76C338.277 312.83 339.706 312.217 340.961 311.021C341.894 312.217 343.499 312.83 345.716 312.83C349.596 312.83 351.551 310.992 351.551 307.287V292.612L349.217 292.962V306.704L349.305 306.733ZM332.238 310.321H329.933C328.503 310.321 327.395 309.913 326.549 309.096C325.732 308.279 325.294 307.199 325.294 305.887C325.294 304.632 325.673 303.611 326.403 302.853C327.132 302.094 328.124 301.715 329.378 301.715C330.458 301.715 331.362 302.152 332.092 302.998C332.821 303.844 333.171 304.836 333.171 305.974C333.171 307.112 332.85 308.542 332.208 310.35L332.238 310.321Z" fill="white"/>
<path d="M273.16 121.107H273.219C273.543 121.107 273.838 120.959 274.044 120.694L283.302 110.312C283.744 109.811 283.715 109.044 283.214 108.601L272.835 99.3404C272.6 99.134 272.275 99.016 271.951 99.0455C271.627 99.0455 271.332 99.193 271.125 99.4584L261.868 109.84C261.425 110.342 261.455 111.108 261.956 111.551L272.334 120.812C272.57 121.018 272.835 121.107 273.13 121.107H273.16Z" fill="white"/>
<path d="M224.247 139.216H224.306C224.63 139.216 224.925 139.068 225.132 138.803L234.389 128.421C234.832 127.92 234.802 127.153 234.301 126.71L223.923 117.449C223.687 117.243 223.363 117.125 223.038 117.154C222.714 117.154 222.419 117.302 222.213 117.567L212.955 127.949C212.513 128.45 212.542 129.217 213.043 129.66L223.422 138.921C223.657 139.127 223.923 139.216 224.218 139.216H224.247Z" fill="white"/>
<path d="M113.685 158.976H113.744C114.068 158.976 114.363 158.829 114.569 158.563L123.827 148.182C124.269 147.68 124.24 146.913 123.739 146.471L113.36 137.21C113.125 137.004 112.8 136.886 112.476 136.915C112.152 136.915 111.857 137.063 111.65 137.328L102.393 147.71C101.95 148.211 101.98 148.978 102.481 149.42L112.859 158.681C113.095 158.888 113.36 158.976 113.655 158.976H113.685Z" fill="white"/>
<path d="M96.3192 103.263C96.3192 103.263 96.6141 103.499 96.7615 103.617C97.1448 103.941 97.5575 104.236 97.9703 104.531C98.2946 104.738 98.6189 104.944 98.9432 105.121C99.4444 105.416 99.9457 105.711 100.358 106.065C101.096 106.655 101.98 107.156 103.012 106.448C104.103 107.185 105.076 108.1 106.049 109.339C107.995 111.816 109.557 114.441 110.619 117.154C111.238 118.717 111.798 120.34 112.329 121.932C112.447 122.316 112.594 122.699 112.712 123.083C112.889 123.584 113.125 124.262 113.921 124.41C114.009 124.41 114.098 124.41 114.157 124.41C114.746 124.41 115.218 124.026 115.513 123.23C115.837 122.375 116.191 121.49 116.338 120.546C116.692 118.334 116.958 116.063 117.223 113.881V113.733C117.459 111.934 117.636 110.135 117.842 108.365C117.93 107.569 118.019 106.773 118.107 105.947C118.196 105.268 118.255 104.59 118.314 103.941C118.461 102.408 118.638 100.815 118.874 99.2812C118.992 98.4849 119.287 97.954 119.758 97.7475C120.23 97.5116 120.908 97.6001 121.645 98.0425C123.09 98.8683 124.21 100.078 124.947 101.67C125.036 101.847 125.065 102.083 125.095 102.319C125.095 102.467 125.124 102.643 125.183 102.791C125.183 102.879 125.213 102.968 125.242 103.056C125.331 103.558 125.419 103.971 125.773 104.03C126.009 104.059 126.864 104.148 127.306 103.705C127.719 103.322 128.073 102.761 128.397 101.995C129.871 98.6323 129.783 97.4526 127.837 94.4738C126.628 92.6452 125.036 91.2885 123.031 90.4036C121.557 89.7548 120.142 90.0792 118.992 91.259C118.373 91.9078 117.842 92.7041 117.518 93.53C115.955 97.3051 115.365 101.228 114.953 105.947C114.805 107.51 114.628 109.103 114.451 110.636L114.363 111.521C114.363 111.521 114.363 111.551 114.363 111.58C110.796 103.558 105.194 97.4821 97.2037 93.0286C97.0268 92.9401 96.8204 92.9991 96.732 93.1465C96.6141 93.3235 96.5256 93.471 96.4077 93.6184C96.2013 93.9134 95.9949 94.2083 95.877 94.5033C95.4937 95.5355 95.0809 96.6563 94.8156 97.8065C94.2259 100.196 94.7566 101.965 96.3782 103.233L96.3192 103.263Z" fill="white"/>
<path d="M203.903 158.711C203.373 159.035 203.166 159.655 202.989 160.215C202.842 160.657 202.724 161.1 202.429 161.395C201.84 162.014 200.749 161.896 200.012 161.454C198.479 160.539 197.624 158.475 197.771 155.997C197.918 152.96 199.216 150.158 200.336 148.034C200.719 147.326 201.132 146.619 201.545 145.911C202.518 144.23 203.52 142.519 204.021 140.631C204.021 140.543 204.021 140.454 203.933 140.395C203.52 140.159 203.078 140.513 202.813 140.897C199.628 145.734 195.884 152.163 195.412 158.976C195.176 162.516 195.943 165.023 197.712 166.438C198.39 166.999 199.216 167.294 200.012 167.294C200.307 167.294 200.631 167.235 200.896 167.146C201.574 166.94 202.223 166.438 202.813 165.701C203.668 164.61 204.169 163.282 204.375 161.66C204.434 161.218 204.67 158.976 204.257 158.711C204.169 158.652 204.051 158.652 203.962 158.711H203.903Z" fill="white"/>
<path d="M83.8183 128.805C83.0812 129.247 82.8453 130.073 82.6095 130.84C82.4326 131.43 82.2557 132.019 81.8724 132.403C81.0763 133.258 79.6022 133.052 78.6292 132.462C76.5654 131.223 75.445 128.48 75.6219 125.147C75.8283 121.077 77.5678 117.302 79.042 114.441C79.5432 113.497 80.1034 112.524 80.6341 111.61C81.9314 109.368 83.2876 107.068 83.9657 104.502C83.9952 104.384 83.9657 104.266 83.8478 104.207C83.2876 103.883 82.6979 104.384 82.3441 104.885C78.069 111.374 73.0569 119.986 72.4083 129.129C72.0839 133.878 73.1159 137.269 75.504 139.157C76.418 139.894 77.5384 140.278 78.5998 140.278C79.0125 140.278 79.4253 140.219 79.8086 140.101C80.7225 139.806 81.5776 139.157 82.3736 138.154C83.5235 136.709 84.2016 134.91 84.4669 132.727C84.5259 132.137 84.8502 129.129 84.29 128.775C84.1721 128.687 84.0247 128.687 83.8773 128.775L83.8183 128.805Z" fill="white"/>
<path d="M282.093 124.41C272.305 124.321 267.057 134.231 263.961 142.076C262.457 145.881 253.288 166.32 260.393 168.503C264.108 169.623 272.069 166.556 275.459 164.668C279.086 162.663 280.943 159.92 282.594 156.204C283.066 155.142 283.508 154.051 283.951 152.96C284.835 154.021 285.631 155.172 286.191 156.41C287.459 159.065 287.931 161.867 287.99 164.786C287.99 165.052 287.99 165.317 287.99 165.583C287.99 165.642 287.931 165.671 287.901 165.73C285.513 169.358 282.624 172.691 279.381 175.552C271.302 182.719 261.16 186.818 250.634 188.765C250.576 188.765 250.487 188.824 250.399 188.853C253.435 181.126 257.121 172.071 254.084 163.99C251.313 156.558 246.654 148.83 239.224 145.321C230.674 141.28 225.043 146.5 221.299 153.372C213.25 168.001 208.886 182.335 204.198 198.468C199.628 200.12 195.029 201.683 190.4 203.187L185.801 225.986C202.606 220.559 219.441 214.07 234.772 205.458C239.932 202.568 244.148 199.559 247.185 195.194C246.477 197.436 245.976 199.559 245.711 200.356C245.386 201.299 242.762 212.625 242.91 212.595C264.108 208.702 279.558 195.843 287.577 175.994C291.41 166.497 295.125 155.879 295.921 145.616C296.599 136.709 293.002 124.587 282.093 124.498V124.41ZM223.746 190.652C218.291 193.041 212.748 195.253 207.176 197.347C208.827 193.69 210.242 189.473 212.011 185.963C214.252 181.598 219.441 168.886 224.394 167.529C229.465 166.143 236.04 171.481 239.018 174.903C240.05 176.082 240.964 177.321 241.79 178.648C242.792 180.212 242.261 182.306 240.64 183.161C234.89 186.169 228.669 188.499 223.746 190.652Z" fill="white"/>
<path d="M238.104 108.483C238.104 108.483 238.281 108.483 238.37 108.395C243.588 104.944 249.308 102.113 254.851 99.3992C256.266 98.6914 257.711 97.9835 259.126 97.2757L281.268 86.1566C281.621 85.9797 281.916 85.3898 282.3 84.505C282.3 84.446 282.359 84.387 282.359 84.3575C282.771 83.4727 283.125 82.4699 283.449 81.3787C283.656 80.7298 284.245 78.5473 283.715 78.1344C283.567 78.0164 283.39 77.9869 283.184 78.1049L261.042 89.224C259.627 89.9318 258.212 90.6396 256.767 91.3475C251.195 94.0904 245.445 96.8923 240.197 100.373C239.814 100.638 239.49 101.287 239.225 101.965C239.195 102.054 239.166 102.113 239.136 102.142C238.723 103.027 238.37 104.03 238.045 105.121C238.045 105.121 237.22 107.982 237.809 108.395C237.868 108.454 237.957 108.483 238.045 108.483H238.104Z" fill="white"/>
<path d="M185.417 148.034L176.72 140.277C176.396 140.012 176.012 139.864 175.599 139.894C175.187 139.923 174.833 140.1 174.568 140.395L167.285 148.536V123.702L184.739 118.01C184.739 118.01 184.71 118.039 184.739 118.069C184.887 126.976 185.182 137.859 185.417 148.034Z" fill="white"/>
<path d="M182.469 191.655C179.344 200.179 172.592 206.962 161.86 212.389C156.406 215.103 129.606 223.125 123.031 225.219L130.254 200.385C131.168 200.061 137.389 197.937 143.993 195.696C144.436 195.548 144.878 195.371 145.32 195.253C146.47 194.87 147.708 194.428 149.035 193.985C149.979 193.661 150.893 193.336 151.777 193.041C152.662 192.717 153.546 192.422 154.401 192.157C154.578 192.068 154.784 192.009 154.961 191.95C155.698 191.685 156.406 191.449 157.055 191.242C157.231 191.183 157.438 191.095 157.644 191.036C157.88 190.918 158.116 190.859 158.322 190.8C158.499 190.741 158.647 190.682 158.765 190.652C160.534 190.033 161.742 189.591 161.978 189.502C163.747 188.794 165.339 187.556 166.253 185.845C166.931 184.636 167.285 183.25 167.285 181.834V159.448L176.071 167.294C176.366 167.53 176.72 167.677 177.103 167.677H177.192C177.575 167.647 177.958 167.471 178.224 167.176L185.653 158.858C185.683 159.832 185.683 160.775 185.712 161.69C185.742 163.046 185.771 164.374 185.801 165.701C185.919 174.46 185.417 183.309 182.469 191.655Z" fill="white"/>
<path d="M271.096 66.2781C270.595 66.986 258.3 83.8858 237.927 85.5669C236.836 85.6554 235.716 85.6849 234.625 85.6849C221.77 85.6849 209.093 79.4912 196.857 67.2809C194.145 64.5675 193.702 60.2909 195.796 57.0466L214.96 27.6416C216.169 25.813 217.997 24.5447 220.119 24.1023C222.242 23.6304 224.424 24.0434 226.252 25.2526C228.286 26.5798 229.613 28.7033 229.908 31.1218C230.144 33.0979 229.583 35.1034 228.463 36.7846L213.22 60.173C221.24 66.8385 229.082 69.9058 236.542 69.2865C244.679 68.6081 251.165 63.5352 254.467 60.3794L232.178 20.1502C231.529 19 231.205 17.7022 231.176 16.375C202.695 14.8119 188.631 29.7946 183.825 36.4896C183.825 64.479 184.179 80.3465 184.651 108.277L167.285 113.586V112.583C167.285 92.1735 167.285 84.2987 167.344 63.5647L167.403 47.2843C167.403 45.7801 167.403 44.2464 167.403 42.7423V40.2943C167.403 40.0878 167.462 39.7339 167.492 39.321C167.551 38.6722 167.728 36.9615 167.492 36.6371C162.922 30.2075 149.301 15.4017 121.557 16.3455C121.557 17.7022 121.203 19 120.554 20.1797L98.2355 60.4089C101.538 63.5647 108.053 68.6671 116.25 69.316C123.68 69.9058 131.463 66.8385 139.483 60.2024L124.092 36.5781C121.645 32.8029 122.707 27.73 126.48 25.2821C130.254 22.8341 135.325 23.8959 137.773 27.6711L156.937 57.0761C159.03 60.2909 158.588 64.597 155.875 67.3104C143.669 79.5502 130.962 85.7144 118.107 85.7144C117.016 85.7144 115.925 85.6849 114.835 85.5964C94.4616 83.9153 82.1671 67.0155 81.6659 66.3076C79.8379 63.7417 79.6316 60.3204 81.1647 57.607L102.982 18.2626C99.916 17.5253 97.4984 15.1363 96.8498 12.01C96.378 9.88645 96.7908 7.70393 97.9701 5.87533C99.179 4.04673 100.977 2.7785 103.1 2.3361C142.46 -6.09905 165.28 10.2109 175.57 21.035C185.83 10.2404 208.562 -6.01057 247.775 2.27711C249.721 2.69002 251.549 3.7223 252.787 5.28546C254.29 7.23203 254.851 9.6505 254.349 12.0395C253.789 14.6644 251.961 16.8469 249.514 17.8497L271.568 57.607C273.101 60.3499 272.894 63.7712 271.066 66.3076L271.096 66.2781Z" fill="white"/>
<path d="M213.102 83.2957C213.102 83.2957 213.043 83.1188 213.014 83.0303C211.333 89.8433 207.206 95.919 201.958 100.579C192.611 108.896 180.464 112.258 168.642 115.385C164.602 116.446 160.593 117.567 156.612 118.835C153.782 119.75 149.33 120.399 148.387 123.731C147.915 125.471 147.856 127.3 147.767 129.099C147.62 132.491 147.561 135.883 147.384 139.304C147.06 145.94 146.264 152.724 143.345 158.799C139.866 166.025 133.556 171.688 126.392 175.286C115.925 180.536 102.127 183.485 91.1005 178.412C88.0048 176.997 85.0859 174.903 83.4054 171.924C81.0467 167.765 81.43 162.604 82.4324 157.914C83.4349 153.225 84.9975 148.565 84.7321 143.787C78.6881 150.276 75.1206 158.77 73.2631 167.441C71.9954 173.428 71.4647 179.681 72.703 185.697C73.9413 191.714 77.0665 197.465 82.0197 201.063C91.2185 207.759 104.81 206.52 114.835 202.509C124.476 198.645 132.436 191.508 138.392 183.072C143.61 175.67 147.414 167.293 149.92 158.593C151.099 154.523 151.983 150.394 152.632 146.205C153.104 143.02 154.372 141.457 157.438 140.218C164.838 137.269 172.504 135.027 180.14 132.756C187.098 130.692 194.233 128.509 199.953 124.026C204.788 120.222 208.326 114.883 210.596 109.162C213.692 101.375 215.933 91.5244 213.132 83.3547L213.102 83.2957Z" fill="white"/>
<path d="M176.956 164.816H177.015C177.339 164.816 177.634 164.669 177.84 164.403L187.098 154.022C187.54 153.52 187.511 152.753 187.01 152.311L176.632 143.05C176.396 142.843 176.071 142.725 175.747 142.755C175.423 142.755 175.128 142.902 174.921 143.168L165.664 153.55C165.221 154.051 165.251 154.818 165.752 155.26L176.13 164.521C176.366 164.728 176.632 164.816 176.926 164.816H176.956Z" fill="white"/>
</svg>
