<svg width="122" height="148" viewBox="0 0 122 148" fill="none" xmlns="http://www.w3.org/2000/svg">
<path d="M58.9834 5.71625L56.5195 7.19457L49.0047 8.3033L41.8596 9.90481L37.4246 11.9991L32.7433 15.8181L30.649 18.5283L29.5403 20.9922V22.5937L22.7893 22.8401L14.4122 25.0575L5.41911 31.8331L1.84652 43.1669L1.72333 135.931L120.21 137.385L119.225 42.7973L117.007 33.8042L111.833 27.891L104.811 24.4416L98.6515 23.7024L93.8469 23.2096L92.1222 21.3617L89.412 18.2819L87.6873 15.2021L83.8683 12.4919L80.4189 10.2744L76.8463 9.16565L72.781 8.54969L64.8966 6.5786L61.5704 4.11475L58.9834 5.71625Z" fill="white"/>
<path d="M121.097 44.8176C121.073 44.3494 121.023 43.8567 120.949 43.3392C120.629 40.629 120.013 38.0912 119.077 35.7998C116.983 30.675 113.459 26.856 108.605 24.4415C104.639 22.495 99.7355 21.4848 94.0687 21.4602L93.3541 20.1051L93.2556 19.9572C92.4179 18.75 91.4816 17.6166 90.57 16.5571C88.8453 14.5614 87.3423 13.0584 85.8148 11.8512C83.7205 10.2004 81.2812 8.9438 78.5956 8.10609C76.8709 7.56404 74.9245 7.12055 72.6578 6.77561C72.0172 6.67705 71.3519 6.60314 70.6867 6.52922C69.5287 6.40603 68.3214 6.28284 67.1387 5.96253C65.2908 5.4944 63.6154 4.38566 62.4081 2.88271C62.211 2.61169 62.0139 2.34067 61.8168 2.045L60.5849 0L59.3529 2.045C59.1805 2.34067 58.9833 2.63633 58.7862 2.88271C57.5789 4.38566 55.9035 5.4944 54.0556 5.96253C52.873 6.2582 51.6657 6.40603 50.5077 6.52922C49.8178 6.60314 49.1772 6.67705 48.5366 6.77561C46.2698 7.12055 44.348 7.56404 42.5987 8.10609C39.9131 8.9438 37.4739 10.2004 35.3796 11.8512C33.852 13.0584 32.3244 14.5614 30.6244 16.5325C29.7866 17.518 28.8011 18.7007 27.9387 19.9326L27.1257 21.4356C21.4342 21.4356 16.5557 22.4457 12.5889 24.4168C9.1888 26.0922 6.42928 28.4822 4.35964 31.5374C2.14217 34.7897 0.762411 38.7565 0.245001 43.3392C0.171085 43.9059 0.121807 44.448 0.097168 45.0639V147.043H121.097V44.7929V44.8176ZM3.10308 43.7088C3.57121 39.6435 4.77849 36.1694 6.7003 33.336C8.49892 30.6997 10.8149 28.6793 13.7962 27.2256C17.4181 25.4516 21.9516 24.54 27.2489 24.54H28.8011L30.3041 21.6819C31.0679 20.5978 31.9548 19.5137 32.7433 18.6021C34.3201 16.7542 35.6999 15.3991 37.0797 14.315C38.9029 12.886 41.0218 11.7772 43.3871 11.0381C44.9886 10.5453 46.8119 10.1265 48.9308 9.80615C49.5221 9.7076 50.1381 9.65832 50.7787 9.5844C52.0353 9.46121 53.3411 9.31338 54.7209 8.96844C56.963 8.40175 59.008 7.12055 60.5602 5.37121C62.1124 7.12055 64.1821 8.40175 66.4242 8.96844C67.804 9.31338 69.1098 9.46121 70.3664 9.5844C71.007 9.65832 71.6229 9.7076 72.2143 9.80615C74.3332 10.1265 76.1564 10.5453 77.7579 11.0381C80.1232 11.7772 82.2421 12.886 84.0654 14.315C85.4452 15.3991 86.8249 16.7542 88.4018 18.6021C89.2149 19.563 90.0772 20.5978 90.8164 21.6573L92.344 24.5154H93.8962C99.2181 24.5154 103.727 25.427 107.349 27.201C111.611 29.2953 114.568 32.4983 116.391 36.9825C117.204 39.0029 117.771 41.245 118.042 43.6842C118.091 44.1523 118.141 44.5958 118.165 44.8915V130.683H107.743V124.055H92.1961V117.23H28.9243V124.055H13.3774V130.683H2.95524V45.1379C2.97988 44.6697 3.02916 44.177 3.07844 43.6842" fill="#00904E"/>
<path d="M116.022 109.937L104.91 63.4691L60.3139 56.521L16.2601 63.4691L5.1481 109.937L5.09882 110.11H16.7775C17.2456 110.11 17.7138 110.11 18.1819 110.11C18.65 110.11 18.8718 110.11 19.2414 110.11H57.3572C57.4065 111.268 58.0964 111.958 58.7616 112.327C59.4515 112.722 60.1414 112.82 60.1414 112.82H61.053C61.053 112.82 61.7429 112.722 62.4328 112.327C63.098 111.958 63.7879 111.268 63.8372 110.11H101.928C102.273 110.11 102.643 110.11 102.988 110.11C103.333 110.11 103.924 110.11 104.392 110.11H116.071L116.022 109.937Z" fill="#FEDF5D"/>
<path d="M116.022 109.937L104.91 63.4691L60.3139 56.521L16.2601 63.4691L5.1481 109.937L5.09882 110.11H16.7775C17.2456 110.11 17.7138 110.11 18.1819 110.11C18.65 110.11 18.8718 110.11 19.2414 110.11H57.3572C57.4065 111.268 58.0964 111.958 58.7616 112.327C59.4515 112.722 60.1414 112.82 60.1414 112.82H61.053C61.053 112.82 61.7429 112.722 62.4328 112.327C63.098 111.958 63.7879 111.268 63.8372 110.11H101.928C102.273 110.11 102.643 110.11 102.988 110.11C103.333 110.11 103.924 110.11 104.392 110.11H116.071L116.022 109.937Z" stroke="#231F20" stroke-width="1.1" stroke-miterlimit="10"/>
<path d="M101.953 60.8327L99.9326 60.4631C92.615 59.0833 74.0868 53.2194 60.5602 55.8311C47.0336 53.244 28.5054 59.0833 21.1878 60.4631L19.1674 60.8327L6.82349 108.582C19.0442 111.687 28.8504 109.42 34.7883 106.118C46.0234 99.8848 60.5602 108.927 60.5602 108.927C60.5602 108.927 75.097 99.8848 86.3322 106.118C92.2701 109.42 102.076 111.687 114.297 108.582L101.953 60.8327Z" fill="#FEDF5D"/>
<path d="M101.953 60.8327L99.9326 60.4631C92.615 59.0833 74.0868 53.2194 60.5602 55.8311C47.0336 53.244 28.5054 59.0833 21.1878 60.4631L19.1674 60.8327L6.82349 108.582C19.0442 111.687 28.8504 109.42 34.7883 106.118C46.0234 99.8848 60.5602 108.927 60.5602 108.927C60.5602 108.927 75.097 99.8848 86.3322 106.118C92.27 109.42 102.076 111.687 114.297 108.582L101.953 60.8327Z" stroke="#231F20" stroke-width="1.1" stroke-miterlimit="10"/>
<path d="M98.7253 58.0239C98.7253 58.0239 74.7274 50.928 60.5848 55.363C46.4423 50.928 22.4443 58.0239 22.4443 58.0239L9.41052 107.449C17.9355 110.504 26.6082 108.163 31.1417 106.242C48.0931 96.0413 60.5848 108.582 60.5848 108.582C60.5848 108.582 73.1012 96.0166 90.0279 106.242C94.5614 108.163 103.234 110.504 111.759 107.449L98.7253 58.0239Z" fill="#FEDF5D"/>
<path d="M98.7253 58.0239C98.7253 58.0239 74.7274 50.928 60.5848 55.363C46.4423 50.928 22.4443 58.0239 22.4443 58.0239L9.41052 107.449C17.9355 110.504 26.6082 108.163 31.1417 106.242C48.0931 96.0413 60.5848 108.582 60.5848 108.582C60.5848 108.582 73.1012 96.0166 90.0279 106.242C94.5614 108.163 103.234 110.504 111.759 107.449L98.7253 58.0239Z" stroke="#231F20" stroke-width="1.1" stroke-miterlimit="10"/>
<mask id="mask0_54_1764" style="mask-type:luminance" maskUnits="userSpaceOnUse" x="11" y="49" width="99" height="60">
<path d="M60.5849 55.0673C53.8832 50.7063 47.896 49.1787 42.7958 49.1787C31.3389 49.1787 24.4401 56.792 24.4401 56.792L11.8498 105.823C19.1921 110.75 30.0331 104.985 30.0331 104.763C47.8467 93.2818 60.5849 108.262 60.5849 108.262C60.5849 108.262 73.323 93.3064 91.1367 104.763C91.1367 104.985 101.978 110.726 109.32 105.823L96.7297 56.792C96.7297 56.792 89.8309 49.1787 78.3739 49.1787C66.917 49.1787 67.2619 50.6817 60.5602 55.0673" fill="white"/>
</mask>
<g mask="url(#mask0_54_1764)">
<path d="M109.32 49.1787H11.8498V110.75H109.32V49.1787Z" fill="url(#paint0_linear_54_1764)"/>
</g>
<path d="M96.7543 56.7917C96.7543 56.7917 82.3407 40.8752 60.5849 55.0424C38.8536 40.8752 24.4154 56.7917 24.4154 56.7917L11.8251 105.822C19.1674 110.75 30.0084 104.985 30.0084 104.763C47.8221 93.2814 60.5602 108.262 60.5602 108.262C60.5602 108.262 73.2984 93.3061 91.1121 104.763C91.1121 104.985 101.953 110.726 109.295 105.822L96.705 56.7917H96.7543Z" stroke="#231F20" stroke-width="1.1" stroke-miterlimit="10"/>
<path d="M60.5848 108.582V54.9688" stroke="#010101" stroke-linejoin="round"/>
<path d="M59.7471 120.039L59.9689 119.078C59.2051 119.891 58.9341 121.172 58.8355 122.38C58.8848 122.749 59.279 122.922 59.6486 122.823C60.0182 122.7 60.4617 122.404 60.5109 122.01C60.8312 121.197 60.3385 120.458 59.7471 120.014M60.2399 121.665C59.9196 121.838 59.5747 122.158 59.2051 122.035C59.1558 121.714 59.2544 121.271 59.4268 120.951C59.6979 121.123 60.2399 121.222 60.2399 121.665Z" fill="white"/>
<path d="M59.0819 123.858L58.5891 125.311C59.0819 128.909 59.1804 132.703 59.4761 136.399C59.2543 137.951 60.3384 140.168 58.5891 140.932C57.505 141.203 56.076 141.08 55.4846 140.218C56.4702 139.503 58.2195 139.676 58.2688 138C56.4702 136.177 53.2672 136.448 50.9758 137.089C49.8917 137.089 49.7931 138.37 49.4975 139.084L50.5323 138.863C51.4686 138.863 52.1584 139.454 52.8237 140.095C51.8874 140.809 50.8033 141.105 49.6207 141.154C49.1279 141.105 48.6351 140.661 48.4627 140.144C47.5264 136.374 47.5264 131.964 44.9393 129.056L44.7176 130.288C45.4814 132.875 46.8858 135.29 46.7872 138.148C44.8161 140.834 42.0566 142.879 38.8043 142.78C38.213 142.608 37.9173 142.016 37.942 141.425C39.5189 140.144 41.8102 138.937 42.2537 136.842C43.1654 132.161 41.9827 127.43 42.032 122.774C42.2537 122.995 42.4262 123.316 42.6972 123.365C42.5248 122.01 41.8842 120.63 41.2928 119.374L40.8493 120.458C41.2436 125.78 41.5639 131.397 41.7856 136.842C40.7015 137.976 39.3957 139.01 38.0898 139.577C38.213 139.084 38.484 138.493 38.4101 138.025C37.9666 138.715 38.1391 139.799 37.2767 140.242C35.5767 141.105 33.4578 141.869 31.462 141.105C30.1562 140.464 29.491 139.109 29.5156 137.705C29.417 136.152 30.2794 135.019 30.6982 133.713C30.5997 133.935 30.3287 134.403 29.9837 134.305C29.3185 133.294 30.1562 132.358 30.2547 131.348C29.7127 132.432 28.8996 133.935 29.8113 135.167C29.3185 136.177 29.1707 137.335 29.1707 138.518C29.1707 140.242 29.7127 141.869 31.2896 142.78C33.4085 143.766 35.6013 142.731 37.3753 141.745L37.6463 143.372C37.9666 144.061 38.5579 144.505 39.2725 144.554C42.5987 144.185 46.0234 141.745 47.2061 138.518C47.5757 139.824 47.3786 141.327 48.3641 142.386C50.3352 143.692 52.1831 142.016 53.8092 141.105C54.9919 142.14 56.2484 143.051 57.9485 142.829C59.0326 142.706 59.5746 141.474 59.9196 140.612C60.9544 136.35 59.6978 131.791 59.7471 127.356L60.5109 127.8C60.2399 126.445 59.6486 124.942 59.0326 123.882M53.1686 138.345C53.7599 138.123 54.9672 138.197 55.6325 138.567L54.2774 139.208L53.144 138.345H53.1686Z" fill="white"/>
<path d="M63.8124 119.3C63.4182 119.448 63.4921 119.891 63.3197 120.162L63.911 120.015C64.6009 120.754 63.2458 121.468 63.0486 122.06C63.911 121.518 64.527 120.655 64.527 119.645C64.4284 119.325 64.1327 119.275 63.8124 119.275" fill="white"/>
<path d="M45.9248 120.138C45.9248 119.817 45.6045 119.817 45.3828 119.719C44.9639 119.768 44.7422 120.212 44.7422 120.63L45.3335 120.483C45.8263 121.246 44.6683 121.985 44.4465 122.528C45.2596 121.985 45.9741 121.172 45.9248 120.113" fill="white"/>
<path d="M69.2084 122.577L69.7997 122.946C69.849 122.675 70.1939 122.453 69.9721 122.133C69.1098 121.813 70.0214 121.123 69.7011 120.507C69.4794 119.645 68.7156 120.458 68.346 120.778C67.7054 121.369 68.346 122.182 68.8881 122.503C67.6315 123.784 66.1039 124.277 64.7488 125.311C66.4242 124.893 68.0011 124.079 69.2084 122.577ZM68.617 121.172C68.7156 120.901 69.2576 120.778 69.2576 121.221V121.492C69.0359 121.616 68.8141 121.345 68.617 121.172Z" fill="white"/>
<path d="M73.2244 128.81L72.9534 129.5C74.2592 129.131 75.4665 128.367 76.7231 128.096C76.8955 132.038 77.413 135.98 77.3144 139.947C78.9898 136.325 77.684 131.767 77.7086 127.874L83.9175 125.385L84.09 124.843C81.9218 125.755 79.8522 126.248 77.684 127.159C77.413 126.199 77.3637 125.114 77.4129 124.154C77.684 124.252 77.9057 124.745 78.1767 124.646C77.8072 123.291 77.3637 121.838 76.6984 120.753L76.1564 122.306C76.526 123.981 76.6491 125.804 76.5506 127.529L73.1751 128.835L73.2244 128.81Z" fill="white"/>
<path d="M35.5767 123.981C35.626 124.252 35.897 124.474 36.2173 124.425C36.7101 124.154 36.7101 123.562 36.8579 123.119L36.2173 123.71C35.3303 122.848 36.3159 121.764 36.3651 120.753C35.8724 121.714 35.3796 122.798 35.6013 123.981" fill="white"/>
<path d="M52.1338 123.76C52.2323 124.203 52.183 124.844 52.799 124.77C53.3411 124.548 53.2918 123.907 53.4396 123.464C53.2179 123.686 53.1686 124.105 52.799 124.055C52.0352 123.144 52.7497 122.06 52.9715 121.099C52.4787 121.912 52.2077 122.823 52.1091 123.784" fill="white"/>
<path d="M79.8275 124.178C79.8768 124.499 80.0986 124.819 80.4928 124.77C80.9363 124.499 80.9363 123.907 81.1334 123.464L80.4928 124.055C79.729 123.242 80.4435 121.912 80.5914 121.099C80.0493 122.01 79.7783 123.045 79.8275 124.178Z" fill="white"/>
<path d="M61.8661 123.39L61.2747 125.016C61.866 130.781 62.3095 136.867 62.4081 142.583C62.9009 141.573 63.1719 140.489 63.2212 139.306L62.5559 126.815L63.3197 127.357C62.9501 125.952 62.5067 124.622 61.8661 123.365" fill="white"/>
<path d="M45.6539 123.759C45.0625 124.794 44.7176 125.927 44.7176 127.159C44.8161 127.48 45.1118 127.48 45.3582 127.578C45.7524 127.48 46.2205 127.307 46.3437 126.864C46.7133 126.1 46.2945 125.238 45.6292 124.769L45.9002 123.784H45.6785L45.6539 123.759ZM46.0974 126.223C45.9742 126.494 45.6539 126.765 45.2843 126.716H45.0625C44.8901 126.346 45.1611 125.952 45.2843 125.632C45.5553 125.78 45.8263 126.001 46.0974 126.223Z" fill="white"/>
<path d="M87.9336 125.484C87.293 126.445 86.8003 127.578 86.8495 128.884C86.8988 129.303 87.3423 129.303 87.6626 129.254C88.2047 129.106 88.5989 128.564 88.525 127.972C88.6482 127.381 88.2539 126.839 87.7612 126.519C87.7119 126.1 88.1307 125.755 87.9336 125.484ZM88.2539 127.997C88.1307 128.367 87.6626 128.49 87.3177 128.49C86.9974 128.12 87.3177 127.726 87.4409 127.406C87.7612 127.504 88.0322 127.677 88.2539 127.997Z" fill="white"/>
<path d="M68.6663 126.568C68.2721 126.198 67.8532 125.878 67.3112 125.755L66.7198 127.036L68.1735 128.046L68.7648 127.036L70.12 127.898C70.391 127.479 70.7113 127.085 70.7852 126.568C70.3417 126.124 69.7997 125.927 69.3562 125.607C69.1344 125.927 68.9866 126.42 68.6909 126.568" fill="white"/>
<path d="M47.2307 130.116C48.9801 129.574 50.8773 128.81 51.8135 126.987C52.0353 127.159 52.4048 127.48 52.6759 127.159C53.2672 127.751 53.3165 128.662 53.6121 129.328C54.0556 128.416 54.0064 127.233 54.647 126.42L55.2383 126.79C55.3615 126.642 55.3615 126.47 55.46 126.346C55.3615 125.977 55.0905 125.583 54.647 125.656C53.8832 126.297 54.0556 127.529 53.6121 128.071C53.3904 127.307 53.2426 126.248 52.257 125.977C51.1729 128.145 48.7337 128.884 47.2061 130.116" fill="white"/>
<path d="M33.9506 127.751C34.9854 127.85 36.3898 127.579 37.2275 128.071C36.242 128.884 35.01 129.205 34.123 130.067C36.0202 129.697 38.213 128.663 38.6812 126.568C37.7695 126.076 36.6115 126.199 35.4782 126.199C34.5665 126.149 34.2955 127.11 33.9506 127.751Z" fill="white"/>
<path d="M83.203 130.067C83.3016 130.288 83.5234 130.658 83.8437 130.51C84.3364 130.239 84.3364 129.648 84.5089 129.204C84.2871 129.327 84.1393 129.795 83.7944 129.795C83.0799 128.884 83.8929 127.8 83.9668 126.839C83.5234 127.849 82.9813 128.835 83.203 130.067Z" fill="white"/>
<path d="M71.7215 127.702C71.0809 129.057 70.1939 130.412 69.2576 131.595L67.7793 130.042C67.9518 129.771 68.3213 129.944 68.5924 129.919V129.771C67.9271 129.278 67.188 128.736 66.4734 128.539C65.3893 130.437 67.9271 131.397 68.4938 132.9C67.6314 134.403 66.6952 135.98 67.0401 137.927C67.1633 138.567 67.9517 138.789 68.4938 138.567C69.7011 138.124 71.204 137.114 71.2287 135.561C71.2287 134.206 70.7852 133.024 69.8243 132.013C70.6866 130.658 71.9925 129.328 71.7215 127.652M70.6866 135.438C69.9228 136.3 68.888 137.015 67.7054 136.793C67.2619 136.424 67.6561 135.931 67.7546 135.561L69.0605 133.516C69.775 133.911 70.2678 134.748 70.6866 135.413" fill="white"/>
<path d="M80.4189 130.658C80.7392 130.239 80.9117 129.796 81.0102 129.328C80.616 128.884 80.0986 128.638 79.5812 128.416L78.9899 129.697L80.4435 130.658H80.4189Z" fill="white"/>
<path d="M49.7439 132.876L56.9383 129.968L57.0615 129.525C54.6716 130.387 52.2817 131.151 49.9903 132.161L49.7192 132.876H49.7439Z" fill="white"/>
<path d="M64.8473 134.305C65.4879 134.206 65.4387 133.491 65.5618 132.999C65.3401 133.22 65.2908 133.713 64.8473 133.59C64.2067 132.678 64.9459 131.545 65.0691 130.732C64.527 131.644 64.256 132.678 64.3053 133.812C64.256 134.034 64.5763 134.452 64.8473 134.305Z" fill="white"/>
<path d="M89.6584 136.374C89.7076 134.699 89.1656 133.048 87.6873 132.161C86.9235 131.89 86.2336 132.383 85.7408 132.974C85.2973 133.615 85.1495 134.477 85.2481 135.192C85.8394 136.966 88.4511 135.364 89.067 136.966C87.2191 139.232 84.9278 141.006 82.2175 141.548C81.5523 141.499 80.7392 141.45 80.2711 140.908C81.2566 140.046 82.6117 139.232 82.7842 137.853C83.548 136.029 82.0697 134.822 81.7001 133.368L82.2914 133.516C81.7494 132.826 81.1581 132.112 80.5421 131.619C79.6551 133.886 82.0204 135.438 82.4885 137.434C81.6755 138.469 80.5914 139.06 79.5565 139.799C79.1131 138.345 79.8768 136.941 79.9508 135.66C79.3102 137.064 79.0638 138.616 78.916 140.193C77.8319 140.883 76.6246 141.327 75.2694 141.499C74.5549 141.548 74.0129 141.13 73.5201 140.637C74.4564 139.922 75.4665 139.011 75.6883 137.877C76.4521 136.054 74.9245 134.847 74.5549 133.393L75.1462 133.541C74.6535 132.851 74.0621 132.137 73.4215 131.644C72.4853 133.787 74.6042 135.266 75.2694 137.089V137.582C74.5549 138.296 73.7418 138.986 72.9288 139.356C72.8302 137.951 73.3723 136.719 73.4708 135.586C72.8302 136.867 72.5592 138.321 72.436 139.799C70.7606 140.834 68.4692 142.263 66.572 140.834C65.0444 139.43 66.2024 137.114 66.3503 135.561C66.0793 136.005 65.9561 136.571 65.7589 137.064C65.3155 138.961 64.9952 141.524 66.7938 142.879C68.9127 143.692 70.9331 142.386 72.707 141.253C72.9781 141.795 73.1998 142.337 73.7419 142.756C75.639 143.84 77.6594 142.534 79.3348 141.622C79.6058 142.214 80.0986 142.682 80.5914 143.027C82.39 143.791 84.0654 142.805 85.4452 141.844C87.0713 140.39 89.7323 138.838 89.6337 136.399M87.9337 134.576C87.3423 134.354 86.1843 134.847 86.135 133.935C86.3568 133.566 86.8988 133.713 87.2191 133.787C87.4902 133.935 87.7119 134.206 87.9337 134.428V134.551V134.576Z" fill="white"/>
<path d="M37.5478 136.029C37.6463 136.398 37.7695 136.842 38.2623 136.719C38.6565 136.448 38.8536 135.955 38.8536 135.438C38.6318 135.61 38.5826 136.078 38.213 136.029C37.3999 135.117 38.2623 134.033 38.3855 133.072C37.8927 133.935 37.4738 134.896 37.5231 136.029" fill="white"/>
<path d="M33.9505 138.247C33.9998 138.468 34.2216 138.838 34.5911 138.69C35.0839 138.419 35.0839 137.828 35.2318 137.384C35.0593 137.508 34.9114 137.976 34.5665 137.976C33.852 137.064 34.6158 135.98 34.739 135.019C34.2462 135.98 33.7534 137.064 33.9752 138.247" fill="white"/>
<path d="M45.2103 135.487C45.2596 135.118 44.8408 134.945 44.4958 135.044C44.1755 135.216 44.003 135.537 44.003 135.906L44.5944 135.758C45.0871 136.498 44.1016 137.114 43.6827 137.705C44.348 137.335 45.1611 136.424 45.2103 135.487Z" fill="white"/>
<path d="M85.864 144.332L91.9497 139.922V139.208L85.864 143.741V144.332Z" fill="white"/>
<path d="M64.798 141.869C64.4285 142.041 64.3053 142.361 64.3053 142.731L64.8473 142.608C65.6111 143.322 64.1821 144.012 64.0342 144.653C64.8473 144.16 65.3894 143.347 65.5126 142.435C65.5618 142.016 65.1922 141.795 64.798 141.893" fill="white"/>
<path d="M28.7764 43.0679C28.0865 42.994 28.0372 42.1563 27.4213 42.0085C26.0908 42.6737 25.8444 44.2013 25.2531 45.3347C25.0806 45.655 24.7603 46.0245 24.3415 45.926C23.4545 45.3347 23.8487 43.9795 23.7994 43.0926C23.4545 43.9303 23.4545 45.1129 23.7994 45.9999C23.9965 46.2709 24.1936 46.6898 24.6125 46.6405C25.943 45.9014 25.6473 44.1767 26.7807 43.1911C27.7169 42.1809 27.7169 44.1274 28.6532 43.9795C29.1953 43.9303 29.7127 43.8071 30.0823 43.4375C29.9837 44.1027 29.7619 45.0144 30.2301 45.6303C31.2649 46.0246 31.9301 44.8665 32.6939 44.497C33.1867 45.8521 31.3142 45.655 31.2156 46.542L32.5461 45.7535C32.6693 46.1231 32.7186 46.4927 33.0389 46.7637C33.3345 47.0594 33.8519 47.0347 34.2462 46.9608C36.0694 46.1477 37.9666 44.3491 38.3608 42.378L39.9869 41.3925C40.3812 41.3925 40.7507 41.8606 41.2189 41.8853C42.4262 42.1317 43.3624 41.2447 44.0523 40.407L44.1755 40.9983C44.3726 41.3679 44.7915 41.3432 45.1611 41.3432C45.8263 41.22 46.393 40.5055 46.7626 40.0867C46.8118 40.3577 46.8858 40.6041 47.0829 40.8258C47.3292 40.9983 47.5756 40.9244 47.8467 40.8997C48.3641 40.7273 48.5365 40.1852 48.7583 39.791C48.9308 40.1113 49.1525 40.5794 49.5714 40.6287C50.0395 40.6287 50.483 40.3823 50.7294 40.0867C50.7294 40.8505 50.9511 41.6635 51.5917 42.1563C52.7251 42.3288 52.7497 40.9983 53.1439 40.333C53.415 39.8156 53.8831 39.0272 54.573 39.1257C54.9672 39.9881 55.8049 40.7273 56.7905 40.7765C57.505 40.8751 58.2195 40.9244 58.9586 40.949L59.0818 40.6287V40.062C57.9238 40.0127 56.8151 39.8403 55.7556 39.5692C55.2382 39.1504 55.1889 38.362 54.5237 38.2141C53.2918 38.633 53.0454 39.9635 52.528 40.9244C52.3555 41.2447 52.0106 41.6142 51.5917 41.4418C50.9511 41.0229 50.9018 40.1852 51.0004 39.4707C51.5917 37.2532 50.9511 34.9618 50.9265 32.6951L51.0004 32.6212C51.1236 32.6951 51.2221 32.9415 51.37 32.8429C51.1975 32.153 50.9018 31.5124 50.6062 30.8718C50.6801 30.724 50.5323 30.5022 50.7294 30.4037C52.0599 31.5863 52.9222 33.0154 53.4889 34.543C54.1049 35.972 53.4889 37.475 52.7497 38.633C53.415 38.0416 53.7599 37.2779 53.9324 36.4401C54.3266 33.5328 52.9715 30.9457 50.5569 29.3442C50.2612 29.9848 50.6062 30.6994 50.3844 31.3646C50.4337 33.8777 50.8279 36.4155 50.8033 39.0026L50.5815 39.3475C50.2859 39.5692 49.9409 39.7171 49.5221 39.6678C49.1279 39.5446 49.0293 39.1258 49.1032 38.7069H49.0293C48.7583 39.1258 48.4873 39.6185 48.0684 39.8895C47.822 40.0127 47.4278 40.0867 47.2061 39.8156C46.9597 39.5939 47.0582 39.2982 47.1321 39.0026C46.6147 39.4214 46.2205 40.1852 45.5306 40.333C45.1857 40.4562 44.6929 40.4562 44.4219 40.1852C44.2001 39.9635 44.348 39.6678 44.348 39.3968C43.9045 39.5939 43.5842 40.1359 43.1653 40.4809C42.5247 40.9244 41.5145 41.22 40.8739 40.7519C41.416 40.2838 42.2044 40.1359 42.3276 39.3229C41.3913 38.7069 40.0362 38.9286 39.0507 39.2489C38.3608 39.3968 37.8434 39.9142 37.7941 40.6041C38.0159 40.4809 38.1883 40.3823 38.4594 40.3823C38.8782 40.3084 39.2232 40.5794 39.5188 40.8504L38.2376 41.5896C38.0159 41.2939 37.868 40.9244 37.5231 40.7519C37.2274 40.6041 36.8086 40.678 36.6115 40.9244C36.2665 41.3679 35.9216 41.8606 36.0694 42.452C36.4636 43.0926 37.3753 42.6244 37.9173 42.5505V42.8462C36.9071 44.2998 35.4288 45.9999 33.507 46.0492C33.2606 45.9506 32.9403 45.7535 32.8418 45.4825C33.507 45.0144 34.2215 44.7187 34.8868 44.2998L35.0346 44.0042C34.3201 44.3491 33.6548 44.768 32.965 45.1622H32.7925L32.8418 44.2752C33.5563 43.5114 34.4679 42.8954 35.1332 42.0824C35.3549 41.5157 35.5027 40.678 34.9853 40.1852C34.123 39.7664 33.0635 39.791 32.2997 39.1504C32.4722 39.0518 32.7186 39.0765 32.7925 38.9286C32.3736 38.7315 31.8809 38.6083 31.4374 38.6083V39.2243C32.078 40.2591 33.3838 40.5794 34.5172 40.8997C34.7389 41.0229 35.0839 41.0722 35.1332 41.3679C33.852 42.6244 32.4722 43.9056 30.9692 44.7433C30.7228 44.8419 30.4518 44.8173 30.2547 44.5955C30.0576 43.7085 30.2054 42.6983 31.0432 42.1563C31.1171 42.4027 30.92 42.6983 30.92 42.9201C31.191 42.5259 31.3388 42.107 31.3881 41.6635C31.4374 41.4911 31.3881 41.2939 31.191 41.2939C30.4272 41.8114 29.8605 43.1665 28.7271 43.0186M41.0957 39.9388L40.3812 40.407L39.6913 40.0127C40.1101 39.8895 40.6276 39.8156 41.071 39.9388M36.5622 41.9592V41.7621C36.8086 41.5157 37.2274 41.5403 37.4492 41.8853C37.2028 42.0331 36.8579 42.0577 36.5622 41.9838" fill="black"/>
<path d="M61.9892 40.8748C63.64 40.7024 65.2415 40.3328 66.7198 39.7415C66.8184 39.9632 66.843 40.2589 66.9662 40.456C67.1633 40.8995 67.6068 41.0227 68.0749 40.998C68.346 40.9241 68.5431 40.6531 68.6663 40.4314C68.9127 39.84 68.8634 39.0023 68.4938 38.5342C68.4199 38.7313 68.346 38.953 68.2721 39.1255C68.1981 39.4951 68.6909 39.7908 68.3706 40.0864C68.0996 40.185 67.6807 40.2096 67.4343 40.0125C67.114 39.7415 67.188 39.2241 67.188 38.8791C65.5864 39.4458 63.8125 39.8647 61.9892 40.0371V40.6777C61.9646 40.6777 62.0385 40.8995 62.0385 40.8995L61.9892 40.8748Z" fill="black"/>
<path d="M80.1479 32.8923C80.3203 32.8923 80.4928 32.7445 80.5174 32.572C80.6899 32.1285 80.4189 31.7836 80.1232 31.5126L80.2464 31.0444C79.8029 31.3155 79.7536 32.0053 79.6304 32.572C79.6304 32.7938 79.9015 32.9662 80.1479 32.8923ZM79.9507 31.9314C80.1232 32.0053 80.2957 32.1039 80.3942 32.2764C80.3203 32.4488 80.0986 32.5474 79.8768 32.4488C79.729 32.2764 79.9015 32.0793 79.9507 31.9314Z" fill="black"/>
<path d="M44.077 32.5473C44.2494 32.1285 44.1016 31.6603 43.7074 31.4139C43.7567 31.2415 43.9045 31.069 43.8552 30.9458C43.6581 31.0444 43.6335 31.2661 43.5596 31.4386C43.4117 31.9067 43.0422 32.5966 43.4856 32.9415C43.732 32.9415 43.9538 32.7691 44.1016 32.5473M43.5349 31.956C43.732 31.956 43.8552 32.0792 44.0031 32.2024C43.8552 32.3748 43.6828 32.498 43.461 32.498C43.3625 32.3256 43.461 32.1038 43.5349 31.956Z" fill="black"/>
<path d="M77.5854 33.4099C77.8318 33.3113 77.8564 33.0157 77.9057 32.7939C77.8318 32.8925 77.7086 33.065 77.5854 33.0403C77.1912 32.5968 77.5854 31.9562 77.6347 31.562C77.4376 32.0055 77.1666 32.3997 77.2405 32.9418C77.2405 33.1635 77.339 33.3606 77.5854 33.4099Z" fill="black"/>
<path d="M84.1393 33.4834C84.3364 33.3109 84.3364 33.1138 84.4103 32.9167L84.1147 33.1385C83.5973 32.7443 84.1147 32.1283 84.164 31.6602C83.8929 32.1037 83.6465 32.5964 83.7697 33.1878C83.7697 33.3602 83.9915 33.5327 84.164 33.4834" fill="black"/>
<path d="M72.4852 33.6806C72.707 33.5328 72.7809 33.2864 72.7809 33.04C72.707 33.1632 72.5838 33.3357 72.4606 33.3111C72.091 32.8429 72.4606 32.2762 72.5592 31.8081C72.2881 32.2516 72.0664 32.6951 72.1157 33.2864C72.1649 33.4589 72.2635 33.6806 72.4852 33.6806Z" fill="black"/>
<path d="M41.0465 33.9025C41.3421 33.7547 41.3914 33.4344 41.4653 33.1634C41.3421 33.2619 41.2682 33.533 41.0465 33.5083C40.7754 33.0402 41.0957 32.4735 41.1943 32.0054C40.9972 32.4735 40.7508 32.8924 40.7508 33.459C40.8001 33.6315 40.8001 33.9518 41.0465 33.9025Z" fill="black"/>
<path d="M70.7606 38.6577C70.662 38.9041 70.4649 39.1751 70.4895 39.4215L70.7852 39.3476C71.4012 39.249 71.7707 39.7418 72.165 40.136C71.3519 40.4809 70.4403 40.6041 69.6272 40.9244C68.1242 41.0723 67.6315 43.339 66.0053 43.068C64.8966 42.2303 66.0053 40.9737 66.1039 40.0867C65.685 40.7273 65.3647 41.4172 65.3154 42.2056C65.2662 42.8462 65.5618 43.4376 66.1039 43.7579C67.2372 44.1521 67.73 42.8709 68.5431 42.3288C69.775 41.4172 71.3272 41.2694 72.707 40.7766C73.323 41.4911 74.0868 41.9592 74.9984 41.8607C75.3926 41.7375 75.639 41.3433 75.8115 41.023C76.4028 38.9041 75.6883 36.6866 75.7868 34.543C76.7724 36.1692 78.0536 37.6721 78.226 39.6679C78.1768 40.6288 77.3883 41.4418 76.5999 41.9592V40.5302L76.4521 40.8751C76.255 41.5157 76.5013 42.452 75.6883 42.723C75.9347 42.723 76.1071 42.5506 76.3042 42.4767C76.4274 42.5259 76.3781 42.6491 76.3781 42.6984C76.5999 43.3883 76.7477 44.4477 77.684 44.497C78.6449 43.9057 78.5217 42.6738 79.5072 42.0332C79.729 41.9346 80.0493 41.8114 80.2218 42.0332C80.6406 42.8462 81.232 43.9303 82.3653 43.8318C82.7103 43.7579 83.1045 43.5361 83.2769 43.2158C83.5972 42.723 83.3755 42.0578 83.2277 41.6389C84.1639 42.452 84.8785 44.0289 86.3568 43.7825C86.8742 43.6593 86.9727 43.1173 87.1206 42.6984L87.2438 43.3144C87.6626 44.5217 88.9931 45.3594 90.1511 45.6058L90.225 45.0637C90.1757 44.7927 89.8308 44.6695 89.6091 44.5217C89.2395 44.1521 88.5742 43.955 88.5003 43.4129L90.3482 43.0926C90.5453 43.5608 90.9642 44.0289 91.383 44.3245C91.6541 44.4477 92.0976 44.5709 92.2208 44.1767C92.4179 43.5854 92.3932 42.8462 91.8758 42.4027C91.5309 42.181 91.0874 42.1071 90.6439 42.2056C90.3482 41.3186 90.225 40.2838 90.225 39.3229L91.999 39.1751C92.1715 39.1751 92.2454 38.978 92.2208 38.8794L90.225 39.0519C90.1018 37.9432 90.0279 36.6866 90.0772 35.5039L90.4714 35.8735C90.3236 35.1097 89.9786 34.4198 89.7323 33.6807C89.6091 33.73 89.5598 33.9763 89.4612 34.1488C89.6091 35.7257 89.5598 37.475 89.7569 39.0519C89.338 39.2736 88.525 38.978 88.451 39.5447L89.7569 39.4215C89.9294 40.3577 89.9294 41.3926 90.1265 42.3042L88.8453 42.5752C88.4018 42.6984 88.18 43.1665 88.0815 43.5361L87.9829 43.4129C86.9727 41.1215 87.4409 38.2388 87.0959 35.6518C86.9481 34.8141 86.8742 33.8532 86.5292 33.2125L86.3321 33.8039C86.7756 36.5388 86.8742 39.4215 86.8495 42.3535C86.8495 42.6245 86.5785 42.8216 86.3568 42.9202C85.8886 43.068 85.4944 42.8216 85.1248 42.6245C83.1537 40.6288 81.0348 38.4852 78.9159 36.8098C80.5421 35.9228 82.39 35.5779 84.2379 35.1836C84.7799 35.1836 85.5437 34.9373 85.8394 35.4547C85.3466 36.046 84.5089 36.5388 84.4596 37.3272C84.9277 36.3909 86.2582 35.9967 86.2336 34.8387C86.0118 34.272 85.1741 34.4198 84.6321 34.4445C82.661 34.7894 80.6406 35.0851 78.9406 36.1199C78.7435 36.5141 78.7188 37.0069 78.7681 37.4504L82.045 40.7027C82.5378 41.2694 83.0798 41.8607 83.203 42.5998C82.9074 42.8709 82.5132 42.9941 82.0697 42.9202C81.0348 42.8462 80.9117 41.6882 80.271 41.0969C79.0145 40.9491 78.6449 42.4274 78.1521 43.2158C78.0043 43.4622 77.7579 43.8811 77.3391 43.7332C76.7231 43.5361 76.6492 42.8462 76.5753 42.3042C77.2651 41.8607 78.0536 41.294 78.3739 40.5056C79.0884 37.746 77.068 35.6025 75.8854 33.3357C75.5897 32.9908 75.6144 32.4241 75.2201 32.1777C75.0723 32.5227 74.8506 32.9908 75.1709 33.3111C75.3433 35.6764 75.5651 38.0171 75.6144 40.407C75.5897 40.6041 75.5404 40.8505 75.2941 40.9244C74.6288 41.1708 73.9143 40.9244 73.4708 40.4809C74.0128 40.2099 74.8506 40.2838 74.9245 39.4954C74.5549 39.1258 74.1114 38.8548 73.6186 38.6823C72.7563 38.4359 71.549 38.2881 70.7113 38.6823M91.9004 43.3883V43.5115C91.6048 43.5115 91.3091 43.3144 91.1367 43.0187C91.4323 43.0187 91.7526 43.1665 91.9004 43.3883ZM73.6925 39.6186L72.978 39.865L72.3128 39.2736C72.8056 39.2736 73.2737 39.3476 73.6679 39.6186" fill="black"/>
<path d="M45.8263 33.6804C45.1857 34.3703 44.3726 34.7645 43.7074 35.3558C44.5451 34.9862 45.4075 34.5181 46.0234 33.705L46.3191 33.8529C46.3437 33.705 46.5655 33.5572 46.393 33.4094C46.0481 33.3601 46.3191 33.0398 46.2698 32.8673C46.4176 32.1774 45.6538 32.5963 45.5307 32.8673C45.2596 33.163 45.5307 33.5572 45.8017 33.6804M46.0234 33.0151V33.2123C45.8756 33.163 45.777 33.0891 45.7031 33.0151C45.7031 32.892 46.0481 32.7688 46.0234 33.0151Z" fill="black"/>
<path d="M91.999 34.6908C92.2454 34.198 91.9005 33.7792 91.6294 33.4342C91.6787 33.2864 91.8266 33.1386 91.7773 32.9907C91.3584 33.4342 90.9888 34.1734 91.3091 34.7893C91.5063 34.8879 91.8512 34.9618 92.0237 34.6908M91.457 33.8777C91.6541 33.9763 91.8512 34.1487 91.9005 34.3458C91.728 34.4198 91.5555 34.4937 91.3831 34.4198C91.2352 34.2473 91.3831 34.0502 91.457 33.9024" fill="black"/>
<path d="M87.7365 33.6557C87.9829 34.0007 88.0568 34.3949 88.1554 34.7891C87.9829 34.9369 87.8844 35.1094 87.909 35.3558C87.9829 35.2819 88.2293 35.1341 88.3525 35.3558L87.8844 35.5283C87.7119 36.4645 88.1554 37.4501 88.1307 38.3863C88.2786 37.5486 88.0815 36.7109 87.909 35.8979C88.18 35.75 88.5003 35.7747 88.796 35.7254C89.0917 35.3065 88.5003 34.9862 88.2786 34.7398L88.5742 33.705C88.6974 33.2862 88.9192 33.705 89.067 33.7789H89.1163C89.2148 33.5572 89.1163 33.3354 88.9192 33.1876C88.3032 33.1137 88.4757 33.9268 88.2539 34.2963C88.0568 33.8282 88.0322 33.2122 87.4655 33.0151L87.2191 33.3601C87.3423 33.5079 87.4901 33.7789 87.7119 33.6557" fill="black"/>
<path d="M48.4627 34.9126C48.7091 34.7647 48.783 34.4691 48.8323 34.2227C48.7091 34.2966 48.6598 34.5676 48.4627 34.5184C48.1424 34.0749 48.4873 33.4589 48.5612 33.04C48.3149 33.5328 48.1177 34.0009 48.167 34.6169C48.1917 34.7647 48.2902 34.9372 48.4627 34.9126Z" fill="black"/>
<path d="M82.2914 33.1143C81.0348 33.336 79.7536 33.4592 78.5463 33.7795L78.4724 34.0752L82.2175 33.3606L82.2914 33.1389V33.1143Z" fill="black"/>
<path d="M67.5329 34.9619L71.2533 33.927L71.3765 33.6807C70.6127 33.8531 69.8243 34.0502 69.0851 34.2227C68.5924 34.4937 67.73 34.3213 67.5575 34.9619" fill="black"/>
<path d="M42.3276 34.568L42.574 34.7405C42.6726 34.642 42.6726 34.5188 42.6726 34.3709L42.5001 34.1738C41.8595 34.3217 42.0073 35.0608 41.7856 35.5289C41.687 35.2086 41.5885 34.913 41.3421 34.642C41.2189 34.5927 41.0464 34.4449 40.9479 34.642C40.8493 34.8144 40.6522 35.0115 40.8986 35.1594C41.0218 35.2333 41.1696 35.2333 41.2435 35.1594C41.5146 35.455 41.6624 35.8492 41.6378 36.2435C40.9972 37.0319 40.0363 37.5493 39.3464 38.1653C39.9623 37.8696 40.5783 37.5986 41.0957 37.1058C41.9581 36.4652 41.761 35.3565 42.3276 34.6173" fill="black"/>
<path d="M29.4663 35.3072C29.3431 35.4058 29.2445 35.6768 29.0474 35.6768C28.801 35.2086 29.0967 34.6666 29.1953 34.1738C28.9242 34.7159 28.6039 35.4797 28.9242 36.071C29.3431 36.071 29.3431 35.5782 29.4663 35.3072Z" fill="black"/>
<path d="M69.775 35.7256L73.5447 34.7647L73.6187 34.543C72.3621 34.7894 71.1302 35.085 69.9229 35.43L69.775 35.7256Z" fill="black"/>
<path d="M38.4594 35.9721L38.7058 36.0707C39.2479 35.6272 38.213 35.5779 38.6565 35.1098C38.6565 34.9373 38.7058 34.6909 38.4594 34.7156C38.1391 34.8634 37.7942 35.2084 37.7942 35.5779C37.8435 35.775 38.0652 35.8243 38.1884 35.9475C37.5971 36.7113 36.6608 37.1302 36.0941 37.7708C36.9565 37.4012 37.8188 36.7359 38.4348 35.9968M38.0898 35.3069C38.0898 35.1344 38.4101 35.0359 38.4101 35.2576V35.4547C38.2623 35.4547 38.1638 35.3562 38.0898 35.2823" fill="black"/>
<path d="M52.6512 36.9331C52.8237 36.736 52.9469 36.4896 52.9961 36.2432C52.8976 36.0954 52.7497 36.0707 52.6512 36.0214C52.0106 35.849 52.7744 35.504 52.6512 35.1837L51.9367 34.7402L51.5917 35.4301L51.9367 35.6272C52.528 35.7504 51.9367 36.1693 51.9367 36.4649L52.6758 36.9331H52.6512Z" fill="black"/>
<path d="M33.5563 35.7997C33.6795 35.9229 33.8766 35.9722 34.0245 35.849C34.2955 36.12 34.3694 36.4896 34.468 36.8345C34.7636 36.3911 34.6897 35.7997 34.9361 35.3316C35.0346 35.1345 35.1825 35.3316 35.3057 35.3809C35.4289 35.2577 35.4042 35.1345 35.4042 34.962C35.3303 34.8635 35.2318 34.8142 35.1332 34.7896C34.6404 35.0606 34.7143 35.6765 34.5665 36.1447C34.4433 36.1447 34.468 35.9476 34.4187 35.849C34.2955 35.6026 34.1477 35.2577 33.7781 35.2577C33.2607 36.3911 32.0041 37.1056 31.0925 37.894C32.0287 37.4751 33.0636 36.736 33.5317 35.7751" fill="black"/>
<path d="M23.6516 39.7172C24.2429 39.3477 24.8343 38.9781 25.3517 38.4853C26.1894 37.8201 26.1647 36.7853 26.5097 35.8983C26.5836 35.7751 26.7314 35.7751 26.7807 35.8983C26.9778 36.0215 26.9532 35.7258 26.9778 35.6026C26.9285 35.4794 26.8546 35.4301 26.7314 35.3809C26.1894 35.6765 26.2879 36.391 26.0662 36.8345C26.0169 36.5389 25.8937 36.2432 25.6473 35.9968H25.2531C25.2531 36.1693 24.9575 36.3171 25.1546 36.4896C25.2531 36.5881 25.4995 36.6374 25.5488 36.4896C25.7459 36.7853 25.9676 37.0809 25.9923 37.4751C25.327 38.3128 24.4154 39.0027 23.6516 39.7172Z" fill="black"/>
<path d="M46.393 35.7501C46.122 36.095 46.6394 36.6125 46.1712 36.8835C45.5306 37.0067 45.9988 36.2429 45.777 35.9472L45.6046 36.1443C45.6538 36.3907 45.6538 36.6864 45.7031 37.0313C45.7277 37.1299 45.8509 37.3023 45.9988 37.2531C46.2452 37.1791 46.3437 37.0313 46.4423 36.8096L46.6394 37.0313C46.7626 37.0313 46.9104 37.0806 46.9843 36.9574C47.4032 36.5139 46.9104 36.0458 46.8858 35.5776C46.6147 35.9226 46.8858 36.2675 47.0089 36.5878C46.3191 36.982 46.6886 35.9226 46.3683 35.7008" fill="black"/>
<path d="M30.8461 35.6763C29.5648 36.3169 28.3576 37.13 27.101 37.8691L27.0024 38.2387L30.6489 35.9966L30.8461 35.6763Z" fill="black"/>
<path d="M93.5759 44.3491L93.1816 37.9431L93.2556 37.8692L93.6251 38.288C93.428 37.4996 93.1816 36.7358 92.8367 36.0459L92.5657 36.7111C92.8367 39.717 93.0831 42.8461 93.1077 45.8521C93.4034 45.4086 93.5019 44.8911 93.5512 44.3245" fill="black"/>
<path d="M69.1344 37.8201C69.1344 37.9925 69.3315 38.1157 69.4794 38.1157C69.7257 37.9679 69.7504 37.7215 69.775 37.4751C69.7011 37.5983 69.5779 37.7954 69.4301 37.7462C69.1098 37.278 69.4301 36.6867 69.5286 36.2925C69.2576 36.736 69.1098 37.2287 69.1344 37.8201Z" fill="black"/>
<path d="M91.3091 38.1895C91.5309 38.0663 91.6048 37.8445 91.6048 37.5981C91.5309 37.746 91.4077 37.8199 91.2845 37.8199C90.8902 37.3764 91.2845 36.7604 91.3584 36.3662C91.0874 36.8097 90.9149 37.2532 90.9395 37.8199C90.9888 37.9924 91.1366 38.1648 91.3091 38.1895Z" fill="black"/>
<path d="M82.4392 37.2781C82.5624 37.352 82.4392 37.5245 82.661 37.4998C82.7595 37.4998 82.9074 37.4259 82.8581 37.2781C82.7595 37.0563 82.4885 36.9824 82.2421 36.8839C81.8233 36.7853 81.1334 36.7114 80.8623 37.081C81.158 37.7709 82.1928 37.9926 82.2914 38.7564C81.5769 38.2144 80.6899 37.7462 80.2217 37.0317C80.1478 38.0172 81.3551 38.4361 81.9957 38.9289C82.1928 38.9782 82.4392 38.9289 82.587 38.7071C82.6856 37.8448 81.5276 37.7462 81.2319 37.0317C81.6261 36.9085 82.0943 37.1056 82.4639 37.2781" fill="black"/>
<path d="M43.4117 38.5344C43.4117 38.7069 43.5349 38.9286 43.7566 38.8794C43.9784 38.7315 44.0523 38.3127 44.0523 38.2141C43.9291 38.3127 43.8798 38.5344 43.7074 38.5098C43.3871 38.017 43.732 37.4257 43.8306 37.0068C43.5842 37.4996 43.3624 37.9431 43.4117 38.5344Z" fill="black"/>
<path d="M76.8709 37.697L76.5506 38.313L77.1666 38.8304L76.8709 39.3971C77.1173 39.5942 77.3883 39.8652 77.6347 40.013C77.7825 39.8406 77.9057 39.6188 77.9304 39.3971C77.7825 39.2 77.5608 39.0768 77.3637 38.8797C77.3637 38.7318 77.4869 38.6825 77.5361 38.5594C77.8072 38.1159 77.1173 37.8941 76.8709 37.6724" fill="black"/>
<path d="M28.4808 38.9042C28.3822 39.0274 28.2097 39.1752 28.3083 39.323C28.5547 39.5448 28.2344 40.0129 28.5547 40.1854C28.875 40.1854 29.0475 39.8897 29.1706 39.6926L29.3431 39.8897C29.5402 39.939 29.6634 39.8404 29.762 39.6926C30.0084 39.2737 29.7127 38.8056 29.5649 38.436C29.2199 38.8549 29.8359 39.1998 29.6141 39.5448C28.9982 39.6187 29.417 38.9042 29.146 38.6578C28.7025 38.9042 29.4417 39.5201 28.8503 39.8404C28.2344 39.8897 28.7518 39.1506 28.4808 38.9534" fill="black"/>
<path d="M84.6074 40.4809C84.6074 40.7026 84.706 40.9983 85.0016 40.9736C85.2234 40.8505 85.2727 40.6287 85.2973 40.4316L85.0263 40.6533C84.5335 40.2591 84.9524 39.6185 85.0756 39.1504C84.7799 39.5446 84.6813 39.9881 84.6321 40.4809" fill="black"/>
<path d="M88.1308 41.3186C88.1801 41.4418 88.3279 41.6142 88.4511 41.6142C88.7221 41.5157 88.7221 41.1461 88.7467 41.0229C88.6728 41.1215 88.5989 41.2693 88.4511 41.2447C87.9829 40.7765 88.4511 40.2345 88.525 39.7417C88.254 40.2098 88.0322 40.7272 88.1308 41.2939" fill="black"/>
<path d="M25.7213 40.7764C25.9676 40.8504 26.214 41.0228 26.4111 40.9982C26.5343 40.7518 26.7314 40.5301 26.7068 40.2344L25.9923 39.9634L25.6966 40.5301L24.9575 40.3083L24.6618 41.0721L25.3763 41.3678C25.5734 41.1953 25.5488 40.8996 25.7459 40.7764" fill="black"/>
<path d="M23.5284 42.8466C23.8487 42.7234 23.9226 42.2799 23.9226 42.0828C23.8734 42.2553 23.7255 42.4031 23.5777 42.4524C23.282 41.9843 23.5777 41.3929 23.7255 40.9248C23.4791 41.4422 23.2328 41.935 23.282 42.5756C23.3067 42.6988 23.3806 42.8466 23.5284 42.822" fill="black"/>
<path d="M67.188 41.8363C67.3604 41.4421 66.7445 41.2942 66.4981 41.0479L66.1531 41.7131L66.7691 42.1812C67.0155 42.3537 67.0401 41.9595 67.188 41.8363Z" fill="black"/>
<path d="M47.5511 42.0333V41.7623L47.1568 42.2304C45.7278 41.9101 45.2843 43.6841 44.2249 44.2261C44.7915 44.1276 45.1118 43.5363 45.5307 43.1667C45.9742 42.3536 46.8858 42.9942 47.3786 42.329C47.5511 42.4521 47.8467 42.4029 47.9699 42.2058C48.0192 42.0087 48.167 41.6884 47.9699 41.5405C47.896 41.6637 47.7974 41.8115 47.896 41.9594C47.8221 42.0826 47.6496 42.0087 47.5511 42.0333Z" fill="black"/>
<path d="M48.9061 43.2897C48.9061 43.4375 49.054 43.5114 49.1525 43.5114C49.4236 43.4129 49.5221 43.0187 49.5221 42.8215C49.4728 42.9694 49.325 43.1172 49.1772 43.1172C48.8076 42.6737 49.2511 42.1317 49.3004 41.6143C49.054 42.1317 48.7583 42.6737 48.9061 43.265" fill="black"/>
<path d="M72.0664 44.3C72.5838 44.4725 73.2491 44.4478 73.6433 44.0783C73.1259 44.0783 72.436 44.2507 72.0418 43.9058C71.9679 43.2159 73.052 43.0188 73.1259 42.3782C72.8548 42.5014 72.4606 42.871 72.1896 42.4275L72.2635 42.255C72.3374 42.0579 72.5838 42.1072 72.6085 42.3043C72.6824 42.1811 72.7809 42.1318 72.8056 42.0086C72.8056 41.8608 72.6331 41.8115 72.5345 41.8115C72.2635 42.0086 71.9186 42.2797 71.9186 42.6246C71.9925 42.7971 72.1157 42.871 72.2635 42.9942L71.9432 43.4869C71.8447 43.7087 71.7461 44.1275 72.0664 44.3Z" fill="black"/>
<path d="M50.7787 43.8564L54.5237 42.2056L54.5484 41.9839L50.8772 43.5115L50.7787 43.8564Z" fill="black"/>
<path d="M63.7386 42.871L62.9994 42.4028L62.7037 43.0681L63.4429 43.5608L63.7386 43.0927C63.9603 43.2652 64.2067 43.4377 64.4531 43.6101L64.6995 43.2405C65.0198 42.7231 64.2806 42.6739 64.0588 42.4028L63.7632 42.871H63.7386Z" fill="black"/>
<path d="M40.258 45.0636C40.7508 45.0143 41.3421 44.7186 41.5392 44.3983C41.0464 44.5708 40.529 44.9157 39.9623 44.6201C39.987 43.8563 41.0711 43.5606 41.0464 42.7968L40.7261 43.1664C40.5536 43.3142 40.3319 43.3142 40.1594 43.1664L40.2087 42.9447C40.3073 42.7968 40.4797 42.7722 40.5783 42.8954L40.7261 42.5504L40.6522 42.4272C40.3073 42.5751 39.913 42.9693 39.8638 43.3881C39.8884 43.5853 40.0609 43.6099 40.1841 43.7084C39.9377 44.0287 39.8391 44.3491 39.7899 44.7433C39.7899 44.9404 40.0362 45.1128 40.258 45.0389" fill="black"/>
<path d="M42.8451 44.177C42.8451 44.3248 42.9436 44.5219 43.1407 44.4726C43.4118 44.3741 43.4118 44.0291 43.5103 43.7828L43.19 44.1031C42.7219 43.7335 43.19 43.0436 43.2147 42.6001C43.0175 43.1175 42.7465 43.561 42.8204 44.177" fill="black"/>
<path d="M75.2694 44.3984C75.2694 44.5462 75.4418 44.6694 75.5897 44.6694C75.8607 44.5708 75.91 44.152 75.8853 44.0781C75.8114 44.1766 75.7129 44.3245 75.5897 44.2998C75.1215 43.881 75.6143 43.2896 75.6636 42.7969C75.3433 43.265 75.1708 43.8071 75.2694 44.3737" fill="black"/>
<path d="M79.6551 45.0144C80.0739 44.8912 80.4435 44.4723 80.4682 44.0288C80.4682 43.8317 80.2464 43.6839 80.0493 43.7332C79.8768 43.8317 79.8522 44.0042 79.8522 44.1274H79.9261C80.0493 44.0288 80.1725 44.1274 80.2218 44.2013C80.2218 44.5709 79.8768 44.7926 79.6551 45.039" fill="black"/>
<path d="M84.977 46.4683C85.0263 46.6407 85.1988 46.7393 85.3466 46.7393C85.5437 46.6161 85.6176 46.3943 85.6176 46.1726L85.2973 46.3943C84.8785 45.9508 85.248 45.3841 85.3712 44.916C85.0509 45.3349 84.9031 45.9016 84.977 46.4436" fill="black"/>
<path d="M91.3337 46.3447H91.4077C91.728 46.1969 92.1714 45.8519 92.1468 45.4331C92.1468 45.2113 91.9004 45.1128 91.7033 45.1128C91.5801 45.1867 91.5309 45.3099 91.5062 45.4824C91.654 45.4085 91.8019 45.4331 91.9004 45.5809C91.9743 45.9505 91.5062 46.123 91.3337 46.3694" fill="black"/>
<path d="M28.4068 45.8273C28.3329 46.1229 28.1112 45.778 27.9387 45.778C27.3967 45.3838 27.4459 46.2215 27.2488 46.4432L28.0126 46.7389L28.3083 46.1722L28.9982 46.4432C29.1214 46.1969 29.3431 45.9505 29.3185 45.6794L28.604 45.3838L28.3822 45.8273H28.4068Z" fill="black"/>
<path d="M88.6482 47.4287L88.8699 47.3548C89.1902 47.1576 89.5598 46.8127 89.4613 46.3692C89.412 46.1967 89.2641 46.1475 89.1163 46.1475C88.8946 46.1475 88.8699 46.3938 88.8946 46.5417C89.0424 46.4924 89.1656 46.5417 89.2395 46.6402C89.2395 47.0098 88.8206 47.1823 88.6235 47.4533" fill="black"/>
<path d="M26.0908 47.6755C26.0908 47.8479 26.214 48.0204 26.4111 47.9465C26.6575 47.7494 26.7068 47.4537 26.7561 47.1827C26.6329 47.3305 26.559 47.5769 26.3618 47.5276C26.0908 47.0102 26.4604 46.5421 26.5343 46.0493C26.2386 46.5421 26.0908 47.0595 26.0908 47.6508" fill="black"/>
<path d="M93.428 47.7492H93.5266C93.6252 47.7492 93.773 47.7492 93.8223 47.8971C93.8223 48.2174 93.4527 48.4145 93.2063 48.6609C93.3295 48.6609 93.3788 48.6116 93.428 48.587C93.7483 48.3898 94.1179 48.0695 94.0194 47.626C93.9455 47.4782 93.773 47.4289 93.6498 47.4043C93.4527 47.4043 93.4034 47.6014 93.4034 47.7739" fill="black"/>
<path d="M98.8485 52.48L98.7746 52.5046L98.8485 52.48Z" fill="#010101"/>
<path d="M66.572 19.834C69.8982 19.3412 72.1403 23.4558 72.1403 23.4558C71.6968 16.8773 64.7241 17.8382 64.7241 17.8382C66.4981 16.4338 70.0953 18.2078 70.0953 18.2078C67.4836 14.5367 63.7386 15.5961 63.7386 15.5961C64.1821 14.7584 66.8677 14.9309 66.8677 14.9309C64.4284 12.5409 61.595 14.9309 61.595 14.9309C61.7182 13.6004 60.6095 11.5308 60.6095 11.5308C60.6095 11.5308 59.4761 13.6004 59.6239 14.9309C59.6239 14.9309 56.7659 12.5163 54.3513 14.9309C54.3513 14.9309 57.0369 14.7338 57.4804 15.5961C57.4804 15.5961 53.7353 14.5367 51.1236 18.2078C51.1236 18.2078 54.7208 16.4338 56.4948 17.8382C56.4948 17.8382 49.4975 16.8527 49.0786 23.4558C49.0786 23.4558 51.3207 19.3412 54.6469 19.834C54.6469 19.834 47.5264 21.8543 50.9265 28.1864C50.9265 28.1864 50.754 22.9384 54.844 21.7311C54.844 21.7311 49.4482 26.0429 54.302 29.6647C54.302 29.6647 53.2918 25.5747 56.1252 23.7268C56.1252 23.7268 54.1295 28.3096 58.0224 32.1779C58.0224 32.1779 57.234 28.2603 59.7225 26.0922V32.8924C59.6978 33.8779 59.6239 35.036 59.5746 35.8737C59.5007 37.4013 59.4022 38.5346 59.4022 38.5839C59.2051 39.5448 59.1804 40.1854 59.1804 40.1854V40.6535V41.2202C59.2051 41.2202 59.0819 41.5405 59.0819 41.5405V41.6145C58.9094 41.8608 58.8601 42.0579 58.8601 42.2551C58.8601 42.5507 59.008 42.7478 59.0819 42.8464L58.8355 47.6755C58.1456 48.4147 57.5296 49.7205 57.5296 49.7452L57.4311 49.9669H63.7386L63.64 49.7452C63.64 49.7452 63.024 48.4147 62.3342 47.6755L62.0878 42.8464C62.1617 42.7478 62.3095 42.5754 62.3095 42.2551C62.3095 42.0826 62.2602 41.8608 62.1371 41.6145L62.0631 41.442L61.9892 41.2202V40.5796C62.0139 40.5796 62.0385 40.1854 62.0385 40.1854C62.0385 40.1854 62.0385 39.5202 61.8168 38.5839C61.8168 38.5593 61.7428 37.4013 61.6443 35.849C61.595 34.9867 61.5211 33.8287 61.4965 32.8678V26.0675C64.0096 28.2111 63.1965 32.1532 63.1965 32.1532C67.0894 28.285 65.0937 23.7022 65.0937 23.7022C67.9025 25.5747 66.9169 29.6401 66.9169 29.6401C71.7707 25.9936 66.3749 21.7065 66.3749 21.7065C70.4649 22.8891 70.2924 28.1618 70.2924 28.1618C73.6926 21.8297 66.572 19.8093 66.572 19.8093" fill="#00904E"/>
<path d="M66.572 19.834C69.8982 19.3412 72.1403 23.4558 72.1403 23.4558C71.6968 16.8773 64.7241 17.8382 64.7241 17.8382C66.4981 16.4338 70.0953 18.2078 70.0953 18.2078C67.4836 14.5367 63.7386 15.5961 63.7386 15.5961C64.1821 14.7584 66.8677 14.9309 66.8677 14.9309C64.4284 12.5409 61.595 14.9309 61.595 14.9309C61.7182 13.6004 60.6095 11.5308 60.6095 11.5308C60.6095 11.5308 59.4761 13.6004 59.6239 14.9309C59.6239 14.9309 56.7659 12.5163 54.3513 14.9309C54.3513 14.9309 57.0369 14.7338 57.4804 15.5961C57.4804 15.5961 53.7353 14.5367 51.1236 18.2078C51.1236 18.2078 54.7208 16.4338 56.4948 17.8382C56.4948 17.8382 49.4975 16.8527 49.0786 23.4558C49.0786 23.4558 51.3207 19.3412 54.6469 19.834C54.6469 19.834 47.5264 21.8543 50.9265 28.1864C50.9265 28.1864 50.754 22.9384 54.844 21.7311C54.844 21.7311 49.4482 26.0429 54.302 29.6647C54.302 29.6647 53.2918 25.5747 56.1252 23.7268C56.1252 23.7268 54.1295 28.3096 58.0224 32.1779C58.0224 32.1779 57.234 28.2603 59.7225 26.0922V32.8924C59.6978 33.8779 59.6239 35.036 59.5746 35.8737C59.5007 37.4013 59.4022 38.5346 59.4022 38.5839C59.2051 39.5448 59.1804 40.1854 59.1804 40.1854V40.6535V41.2202C59.2051 41.2202 59.0819 41.5405 59.0819 41.5405V41.6145C58.9094 41.8608 58.8601 42.0579 58.8601 42.2551C58.8601 42.5507 59.008 42.7478 59.0819 42.8464L58.8355 47.6755C58.1456 48.4147 57.5296 49.7205 57.5296 49.7452L57.4311 49.9669H63.7386L63.64 49.7452C63.64 49.7452 63.024 48.4147 62.3342 47.6755L62.0878 42.8464C62.1617 42.7478 62.3095 42.5754 62.3095 42.2551C62.3095 42.0826 62.2602 41.8608 62.1371 41.6145L62.0631 41.442L61.9892 41.2202V40.5796C62.0139 40.5796 62.0385 40.1854 62.0385 40.1854C62.0385 40.1854 62.0385 39.5202 61.8168 38.5839C61.8168 38.5593 61.7428 37.4013 61.6443 35.849C61.595 34.9867 61.5211 33.8287 61.4965 32.8678V26.0675C64.0096 28.2111 63.1965 32.1532 63.1965 32.1532C67.0894 28.285 65.0937 23.7022 65.0937 23.7022C67.9025 25.5747 66.9169 29.6401 66.9169 29.6401C71.7707 25.9936 66.3749 21.7065 66.3749 21.7065C70.4649 22.8891 70.2924 28.1618 70.2924 28.1618C73.6926 21.8297 66.572 19.8093 66.572 19.8093V19.834Z" stroke="#231F20" stroke-miterlimit="10"/>
<path d="M76.797 49.6219C75.7376 49.819 74.6781 50.0407 73.6433 50.3117C72.4606 50.6321 71.278 51.0263 70.1446 51.4944C68.8634 52.0118 67.6561 52.6524 66.4735 53.3423C65.1676 54.1307 63.911 54.9931 62.7038 55.954C61.3733 56.9888 60.1167 58.0975 58.8848 59.2309C58.2442 59.8222 57.6036 60.4382 56.963 61.0542C56.4948 61.4977 56.0267 61.9658 55.5586 62.4093L55.2629 62.6557L55.189 62.7296L55.2383 62.8281C55.3615 63.1484 55.6818 63.6658 56.2977 63.789H56.3963L56.4456 63.7151C56.4456 63.7151 56.4948 63.6412 56.5688 63.518C56.6673 63.3948 56.7905 63.2224 56.963 63.0499C57.2833 62.7049 57.7514 62.3846 58.2688 62.3846C58.3674 62.3846 58.4906 62.3846 58.5891 62.4339C59.2544 62.6064 59.6486 63.1977 59.6486 63.8137C59.6486 64.3557 59.3529 64.9471 58.6138 65.3413H58.5891L58.4659 65.3905C58.3427 65.4152 58.1703 65.4645 57.9485 65.4645C57.234 65.4645 56.0267 65.1442 54.4991 63.4687L54.4006 63.3702L54.302 63.4441C54.2035 63.518 54.0803 63.5919 53.9817 63.6658C53.3165 64.0601 52.6759 64.4543 52.0106 64.8485C51.1236 65.3659 50.3352 65.563 49.7192 65.563C48.4627 65.563 47.7974 64.7746 47.7974 63.9369C47.7974 63.789 47.7974 63.6412 47.8713 63.4934C48.1177 62.6557 48.6844 62.5078 49.1772 62.4832C49.5221 62.4832 49.8424 62.5818 49.9163 62.631C50.0395 62.6803 50.1627 62.8035 50.2859 62.9021L50.4584 63.0745H50.483C50.483 63.0992 50.5323 63.1238 50.5323 63.1238L50.8033 63.1977H50.9265C51.1975 63.1977 51.8874 63.0252 53.3904 61.6948L53.4397 61.6455V61.5716C53.4397 61.2266 53.3657 60.8078 53.0208 60.5121L52.9469 60.4382L52.8483 60.4875L52.7251 60.5368C52.6512 60.5614 52.528 60.6107 52.4048 60.6599C52.1338 60.7585 51.7642 60.8571 51.4193 60.8571C51.0251 60.8571 50.6555 60.7585 50.3352 60.4382C50.0642 60.1672 49.941 59.7976 49.941 59.4527C49.941 58.6889 50.5323 57.9497 51.641 57.9497H51.8381C52.528 57.999 52.9222 58.4671 53.2179 59.0831C53.5136 59.699 53.686 60.4136 53.9078 60.931L53.9817 61.1527L54.1542 60.9802L54.4006 60.7339C66.3256 47.5769 80.0247 49.1291 80.345 49.1537C80.0247 49.1784 79.7044 49.203 79.4087 49.2523C78.5464 49.3508 77.684 49.474 76.8217 49.6465" fill="#00904E"/>
<path d="M76.797 49.6219C75.7376 49.819 74.6781 50.0407 73.6433 50.3117C72.4606 50.6321 71.278 51.0263 70.1446 51.4944C68.8634 52.0118 67.6561 52.6524 66.4735 53.3423C65.1676 54.1307 63.911 54.9931 62.7038 55.954C61.3733 56.9888 60.1167 58.0975 58.8848 59.2309C58.2442 59.8222 57.6036 60.4382 56.963 61.0542C56.4948 61.4977 56.0267 61.9658 55.5586 62.4093L55.2629 62.6557L55.189 62.7296L55.2383 62.8281C55.3615 63.1484 55.6818 63.6658 56.2977 63.789H56.3963L56.4456 63.7151C56.4456 63.7151 56.4948 63.6412 56.5688 63.518C56.6673 63.3948 56.7905 63.2224 56.963 63.0499C57.2833 62.7049 57.7514 62.3846 58.2688 62.3846C58.3674 62.3846 58.4906 62.3846 58.5891 62.4339C59.2544 62.6064 59.6486 63.1977 59.6486 63.8137C59.6486 64.3557 59.3529 64.9471 58.6138 65.3413H58.5891L58.4659 65.3905C58.3427 65.4152 58.1703 65.4645 57.9485 65.4645C57.234 65.4645 56.0267 65.1442 54.4991 63.4687L54.4006 63.3702L54.302 63.4441C54.2035 63.518 54.0803 63.5919 53.9817 63.6658C53.3165 64.0601 52.6759 64.4543 52.0106 64.8485C51.1236 65.3659 50.3352 65.563 49.7192 65.563C48.4627 65.563 47.7974 64.7746 47.7974 63.9369C47.7974 63.789 47.7974 63.6412 47.8713 63.4934C48.1177 62.6557 48.6844 62.5078 49.1772 62.4832C49.5221 62.4832 49.8424 62.5818 49.9163 62.631C50.0395 62.6803 50.1627 62.8035 50.2859 62.9021L50.4584 63.0745H50.483C50.483 63.0992 50.5323 63.1238 50.5323 63.1238L50.8033 63.1977H50.9265C51.1975 63.1977 51.8874 63.0252 53.3904 61.6948L53.4397 61.6455V61.5716C53.4397 61.2266 53.3657 60.8078 53.0208 60.5121L52.9469 60.4382L52.8483 60.4875L52.7251 60.5368C52.6512 60.5614 52.528 60.6107 52.4048 60.6599C52.1338 60.7585 51.7642 60.8571 51.4193 60.8571C51.0251 60.8571 50.6555 60.7585 50.3352 60.4382C50.0642 60.1672 49.941 59.7976 49.941 59.4527C49.941 58.6889 50.5323 57.9497 51.641 57.9497H51.8381C52.528 57.999 52.9222 58.4671 53.2179 59.0831C53.5136 59.699 53.686 60.4136 53.9078 60.931L53.9817 61.1527L54.1542 60.9802L54.4006 60.7339C66.3256 47.5769 80.0247 49.1291 80.345 49.1537C80.0247 49.1784 79.7044 49.203 79.4087 49.2523C78.5464 49.3508 77.684 49.474 76.8217 49.6465L76.797 49.6219Z" stroke="#010101" stroke-linejoin="round"/>
<path d="M44.3727 49.6219C45.4321 49.819 46.4916 50.0407 47.5264 50.3117C48.7091 50.6321 49.8917 51.0263 51.0251 51.4944C52.3063 52.0118 53.5136 52.6524 54.6962 53.3423C56.0021 54.1307 57.2587 54.9931 58.4659 55.954C59.7964 56.9888 61.053 58.0975 62.2849 59.2309C62.9255 59.8222 63.5661 60.4382 64.2067 61.0542C64.6749 61.4977 65.143 61.9658 65.6111 62.4093L65.9068 62.6557L65.9807 62.7296L65.9314 62.8281C65.8082 63.1484 65.4879 63.6658 64.872 63.789H64.7734L64.7241 63.7151C64.7241 63.7151 64.6749 63.6412 64.6009 63.518C64.5024 63.3948 64.3792 63.2224 64.2067 63.0499C63.8864 62.7049 63.4183 62.3846 62.9009 62.3846C62.8023 62.3846 62.6791 62.3846 62.5806 62.4339C61.9153 62.6064 61.5211 63.1977 61.5211 63.8137C61.5211 64.3557 61.8168 64.9471 62.5559 65.3413H62.6052L62.7284 65.3905C62.8516 65.4152 63.0241 65.4645 63.2458 65.4645C63.9603 65.4645 65.1676 65.1442 66.6952 63.4687L66.7938 63.3702L66.8923 63.4441C66.9909 63.518 67.1141 63.5919 67.2126 63.6658C67.8532 64.0601 68.5185 64.4543 69.1837 64.8485C70.0954 65.3659 70.8591 65.563 71.4751 65.563C72.7317 65.563 73.3969 64.7746 73.3969 63.9369C73.3969 63.789 73.3969 63.6412 73.323 63.4934C73.0766 62.6557 72.5099 62.5078 72.0172 62.4832C71.6722 62.4832 71.3519 62.5818 71.278 62.631C71.1548 62.6803 71.0316 62.8035 70.9084 62.9021L70.736 63.0745H70.7113C70.7113 63.0992 70.662 63.1238 70.662 63.1238L70.391 63.1977H70.2678C69.9968 63.1977 69.3069 63.0252 67.804 61.6948L67.7547 61.6455V61.5716C67.7547 61.2266 67.8286 60.8078 68.1735 60.5121L68.2474 60.4382L68.346 60.4875L68.4692 60.5368C68.5431 60.5614 68.6663 60.6107 68.7895 60.6599C69.0605 60.7585 69.4301 60.8571 69.775 60.8571C70.1693 60.8571 70.5388 60.7585 70.8591 60.4382C71.1302 60.1672 71.2534 59.7976 71.2534 59.4527C71.2534 58.6889 70.662 57.9497 69.5533 57.9497H69.3562C68.6663 57.999 68.2721 58.4671 67.9764 59.0831C67.6808 59.699 67.5083 60.4136 67.2866 60.931L67.2126 61.1527L67.0402 60.9802L66.7938 60.7339C54.8687 47.5769 41.1697 49.1291 40.8494 49.1537C41.1697 49.1784 41.49 49.203 41.7856 49.2523C42.648 49.3508 43.5103 49.474 44.3727 49.6465" fill="#00904E"/>
<path d="M44.3727 49.6219C45.4321 49.819 46.4916 50.0407 47.5264 50.3117C48.7091 50.6321 49.8917 51.0263 51.0251 51.4944C52.3063 52.0118 53.5136 52.6524 54.6962 53.3423C56.0021 54.1307 57.2587 54.9931 58.4659 55.954C59.7964 56.9888 61.053 58.0975 62.2849 59.2309C62.9255 59.8222 63.5661 60.4382 64.2067 61.0542C64.6749 61.4977 65.143 61.9658 65.6111 62.4093L65.9068 62.6557L65.9807 62.7296L65.9314 62.8281C65.8082 63.1484 65.4879 63.6658 64.872 63.789H64.7734L64.7241 63.7151C64.7241 63.7151 64.6749 63.6412 64.6009 63.518C64.5024 63.3948 64.3792 63.2224 64.2067 63.0499C63.8864 62.7049 63.4183 62.3846 62.9009 62.3846C62.8023 62.3846 62.6791 62.3846 62.5806 62.4339C61.9153 62.6064 61.5211 63.1977 61.5211 63.8137C61.5211 64.3557 61.8168 64.9471 62.5559 65.3413H62.6052L62.7284 65.3905C62.8516 65.4152 63.0241 65.4645 63.2458 65.4645C63.9603 65.4645 65.1676 65.1442 66.6952 63.4687L66.7938 63.3702L66.8923 63.4441C66.9909 63.518 67.1141 63.5919 67.2126 63.6658C67.8532 64.0601 68.5185 64.4543 69.1837 64.8485C70.0954 65.3659 70.8591 65.563 71.4751 65.563C72.7317 65.563 73.3969 64.7746 73.3969 63.9369C73.3969 63.789 73.3969 63.6412 73.323 63.4934C73.0766 62.6557 72.5099 62.5078 72.0172 62.4832C71.6722 62.4832 71.3519 62.5818 71.278 62.631C71.1548 62.6803 71.0316 62.8035 70.9084 62.9021L70.736 63.0745H70.7113C70.7113 63.0992 70.662 63.1238 70.662 63.1238L70.391 63.1977H70.2678C69.9968 63.1977 69.3069 63.0252 67.804 61.6948L67.7547 61.6455V61.5716C67.7547 61.2266 67.8286 60.8078 68.1735 60.5121L68.2474 60.4382L68.346 60.4875L68.4692 60.5368C68.5431 60.5614 68.6663 60.6107 68.7895 60.6599C69.0605 60.7585 69.4301 60.8571 69.775 60.8571C70.1693 60.8571 70.5388 60.7585 70.8591 60.4382C71.1302 60.1672 71.2534 59.7976 71.2534 59.4527C71.2534 58.6889 70.662 57.9497 69.5533 57.9497H69.3562C68.6663 57.999 68.2721 58.4671 67.9764 59.0831C67.6808 59.699 67.5083 60.4136 67.2866 60.931L67.2126 61.1527L67.0402 60.9802L66.7938 60.7339C54.8687 47.5769 41.1697 49.1291 40.8494 49.1537C41.1697 49.1784 41.49 49.203 41.7856 49.2523C42.648 49.3508 43.5103 49.474 44.3727 49.6465V49.6219Z" stroke="#010101" stroke-linejoin="round"/>
<path d="M94.5368 84.6826C94.1179 85.4957 92.9599 87.5407 90.9149 89.4625C88.5742 91.6553 85.0756 93.725 80.1478 93.725C75.2201 93.725 71.4504 91.3843 69.2822 89.019C68.1981 87.8363 67.4343 86.6537 66.9662 85.7914C66.7198 85.3479 66.5473 84.9783 66.4488 84.7319C66.4488 84.7073 94.586 84.7072 94.586 84.7072L94.5368 84.6826Z" fill="#00904E"/>
<path d="M94.5368 84.6826C94.1179 85.4957 92.9599 87.5407 90.9149 89.4625C88.5742 91.6553 85.0756 93.725 80.1478 93.725C75.2201 93.725 71.4504 91.3843 69.2822 89.019C68.1981 87.8363 67.4343 86.6537 66.9662 85.7914C66.7198 85.3479 66.5473 84.9783 66.4488 84.7319C66.4488 84.7073 94.586 84.7072 94.586 84.7072L94.5368 84.6826Z" stroke="#010101" stroke-linejoin="round"/>
<path d="M80.4681 49.1787L66.3749 84.2887H94.5614L80.4681 49.1787Z" stroke="#010101" stroke-linejoin="round"/>
<path d="M54.8933 84.6826C54.4745 85.4957 53.3165 87.5407 51.2715 89.4625C48.9308 91.6553 45.4321 93.725 40.5044 93.725C35.5767 93.725 31.807 91.3843 29.6388 89.019C28.5547 87.8363 27.7909 86.6537 27.3228 85.7914C27.0764 85.3479 26.9039 84.9783 26.8054 84.7319C26.8054 84.7073 54.9426 84.7072 54.9426 84.7072L54.8933 84.6826Z" fill="#00904E"/>
<path d="M54.8933 84.6826C54.4745 85.4957 53.3165 87.5407 51.2715 89.4625C48.9308 91.6553 45.4321 93.725 40.5044 93.725C35.5767 93.725 31.807 91.3843 29.6388 89.019C28.5547 87.8363 27.7909 86.6537 27.3228 85.7914C27.0764 85.3479 26.9039 84.9783 26.8054 84.7319C26.8054 84.7073 54.9426 84.7072 54.9426 84.7072L54.8933 84.6826Z" stroke="#010101" stroke-linejoin="round"/>
<path d="M40.8247 49.1787L26.7314 84.2887H54.918L40.8247 49.1787Z" stroke="#010101" stroke-linejoin="round"/>
<defs>
<linearGradient id="paint0_linear_54_1764" x1="13.71" y1="79.2008" x2="110.838" y2="79.2008" gradientUnits="userSpaceOnUse">
<stop stop-color="#FFDF5D"/>
<stop offset="0.1" stop-color="#FEDA56"/>
<stop offset="0.3" stop-color="#FDCC44"/>
<stop offset="0.4" stop-color="#FAB626"/>
<stop offset="0.5" stop-color="#FAAE1C"/>
<stop offset="0.6" stop-color="#FAB626"/>
<stop offset="0.7" stop-color="#FDCC44"/>
<stop offset="0.9" stop-color="#FEDA56"/>
<stop offset="1" stop-color="#FFDF5D"/>
</linearGradient>
</defs>
</svg>
