 <svg
      width="355"
      height="309"
      viewBox="0 0 355 309"
      fill="none"
      xmlns="http://www.w3.org/2000/svg"
    >
      <path
        d="M7.49781 275.595C10.0068 275.595 11.9031 274.924 13.1868 273.582C14.4705 272.24 15.1998 270.402 15.3749 268.039C16.1334 269.119 17.2712 269.644 18.8466 269.644H45.5703C47.8168 269.644 49.4214 269.031 50.4133 267.777C51.7845 269.031 53.2724 269.644 54.9061 269.644H77.0786C79.5001 269.644 81.3964 269.031 82.7676 267.777C84.1388 266.522 84.839 264.801 84.839 262.584C84.839 260.775 84.2264 259.258 83.0302 258.062C81.8341 256.865 80.3462 256.253 78.5665 256.253C76.6994 256.253 75.1531 256.865 73.957 258.091C72.7608 259.316 72.1482 260.862 72.1482 262.7C72.1482 263.984 72.5566 265.472 73.4027 267.193H54.9353C53.71 267.193 52.4847 266.785 51.3177 265.939C51.4344 265.355 51.5219 264.83 51.5219 264.363V262C51.5219 260.25 50.9968 258.82 49.859 257.711C48.7212 256.603 47.2916 256.049 45.5412 256.049C44.17 256.049 42.7404 256.282 41.2525 256.72C39.7938 257.186 37.6057 258.003 34.7467 259.258V255.932L32.3835 256.311V267.193H29.6411H18.905C18.0006 267.193 17.2129 266.931 16.5127 266.405C15.8417 265.88 15.4916 265.151 15.4916 264.188V249.397L13.1285 249.747V266.726C13.1285 268.914 12.6908 270.519 11.7864 271.54C10.882 272.561 9.51084 273.116 7.67286 273.116C5.83487 273.116 4.5512 272.678 3.61762 271.774C2.65487 270.869 2.1589 269.556 2.1589 267.835C2.1589 266.055 2.47982 264.188 3.12166 262.292L1.22532 261.767C0.408441 264.247 0 266.464 0 268.448C0 270.811 0.67101 272.59 2.0422 273.787C3.38423 274.983 5.25138 275.595 7.55616 275.595H7.49781ZM75.5908 259.812C76.3785 258.995 77.312 258.587 78.4207 258.587C79.5876 258.587 80.5504 258.966 81.3089 259.725C82.0675 260.483 82.4467 261.475 82.4467 262.642C82.4467 264.072 81.9799 265.18 81.0463 265.968C80.1128 266.756 78.8291 267.164 77.2537 267.164H75.8241C74.8906 265.53 74.4529 264.042 74.4529 262.7C74.4529 261.592 74.8322 260.629 75.6199 259.812H75.5908ZM34.6591 261.242C37.8975 260.045 40.0856 259.287 41.3109 258.937C42.507 258.587 43.7324 258.412 44.9577 258.412C46.183 258.412 47.1749 258.762 47.9335 259.491C48.692 260.22 49.1004 261.125 49.1004 262.292V263.896C49.1004 264.947 48.8087 265.734 48.196 266.318C47.5834 266.872 46.7081 267.135 45.5995 267.135H34.6591V261.242Z"
        fill="white"
      />
      <path
        d="M43.674 251.468L41.6026 249.455L39.6188 251.468L41.661 253.481L43.674 251.468Z"
        fill="white"
      />
      <path
        d="M80.2003 251.877L78.1289 249.864L76.145 251.877L78.1872 253.89L80.2003 251.877Z"
        fill="white"
      />
      <path
        d="M103.569 256.282L101.498 254.269L99.4845 256.282L101.527 258.295L103.569 256.282Z"
        fill="white"
      />
      <path
        d="M109.258 268.01C109.958 269.089 111.038 269.644 112.467 269.644H123.203C125.129 269.644 126.588 269.177 127.55 268.273C128.542 267.339 129.038 266.055 129.038 264.334V255.903L126.675 256.282V263.692C126.675 265.997 125.537 267.164 123.203 267.164H112.467C110.542 267.164 109.491 266.143 109.316 264.101V263.867V255.903L106.982 256.282V266.726C106.982 268.914 106.545 270.519 105.64 271.54C104.736 272.561 103.365 273.116 101.527 273.116C99.6888 273.116 98.4051 272.678 97.4716 271.774C96.5088 270.869 96.0128 269.556 96.0128 267.835C96.0128 266.055 96.3338 264.188 96.9756 262.292L95.0793 261.767C94.2624 264.247 93.8539 266.464 93.8539 268.448C93.8539 270.811 94.525 272.59 95.8961 273.787C97.2382 274.983 99.1053 275.595 101.41 275.595C103.919 275.595 105.815 274.924 107.099 273.582C108.383 272.24 109.112 270.373 109.287 268.01H109.258Z"
        fill="white"
      />
      <path
        d="M124.166 273.845L126.208 275.829L128.251 273.845L126.179 271.832L124.166 273.845Z"
        fill="white"
      />
      <path
        d="M149.898 268.448C150.715 269.235 151.969 269.644 153.661 269.644C155.178 269.644 156.608 269.031 157.862 267.835C158.796 269.031 160.401 269.644 162.618 269.644C166.498 269.644 168.453 267.806 168.453 264.101V249.426L166.119 249.776V263.517C166.119 265.909 164.952 267.106 162.618 267.106C160.313 267.106 159.146 265.909 159.146 263.517V249.397L156.783 249.747V264.042C156.783 264.772 156.841 265.414 156.987 265.909C156.083 266.697 154.974 267.076 153.632 267.076C152.669 267.076 151.969 266.843 151.561 266.347C151.123 265.88 150.919 265.063 150.919 263.955V254.911L148.556 255.29V257.011C147.214 256.486 145.959 256.224 144.851 256.224C143.013 256.224 141.496 256.895 140.299 258.237C139.103 259.579 138.491 261.212 138.491 263.138C138.491 265.063 139.074 266.61 140.27 267.864C141.466 269.148 142.984 269.761 144.851 269.761C146.339 269.761 148.001 269.294 149.869 268.331L149.898 268.448ZM140.766 263.225C140.766 261.942 141.146 260.892 141.933 260.016C142.721 259.141 143.713 258.703 144.967 258.703C145.901 258.703 147.097 258.937 148.585 259.462V264.276C148.585 265.18 148.673 265.939 148.848 266.581C147.418 267.222 146.105 267.543 144.851 267.514C143.625 267.514 142.633 267.076 141.875 266.26C141.116 265.443 140.737 264.422 140.737 263.225H140.766Z"
        fill="white"
      />
      <path
        d="M175.63 249.426L173.296 249.805V269.644H175.63V249.426Z"
        fill="white"
      />
      <path
        d="M214.84 271.861L212.856 273.874L214.898 275.858L216.911 273.874L214.84 271.861Z"
        fill="white"
      />
      <path
        d="M244.744 265.968C241.243 266.551 238.179 266.901 235.554 267.018C234.474 265.559 233.92 264.101 233.92 262.671C233.92 261.446 234.328 260.483 235.145 259.754C235.962 259.024 237.012 258.645 238.296 258.645C239.23 258.645 240.543 258.908 242.235 259.433L242.906 257.42C240.776 256.69 239.113 256.34 237.917 256.34C236.137 256.34 234.62 256.895 233.424 257.974C232.228 259.054 231.615 260.454 231.615 262.175C231.615 263.896 232.14 265.472 233.161 267.135C232.578 267.135 231.644 267.135 230.331 267.135H219.595C218.399 267.135 217.232 266.756 216.094 265.968C216.211 265.501 216.299 264.947 216.299 264.305V258.82L213.935 259.17V263.663C213.935 265.968 212.798 267.135 210.464 267.135H194.359C193.134 267.135 191.938 266.726 190.8 265.909C190.917 265.326 191.004 264.801 191.004 264.305V262.029C190.946 260.25 190.392 258.82 189.254 257.741C188.116 256.661 186.687 256.107 184.907 256.107H182.777V258.528H184.411C185.636 258.528 186.628 258.878 187.416 259.579C188.204 260.279 188.612 261.183 188.612 262.321V263.926C188.612 264.947 188.35 265.734 187.737 266.289C187.124 266.843 186.278 267.106 185.14 267.106H178.168L178.635 269.585H185.111C187.299 269.585 188.904 268.973 189.925 267.718C191.267 268.944 192.726 269.585 194.359 269.585H210.464C212.652 269.585 214.256 268.973 215.219 267.777C216.59 268.973 218.049 269.585 219.624 269.585H230.361C235.466 269.585 240.105 269.206 244.248 268.418L244.744 265.939V265.968Z"
        fill="white"
      />
      <path
        d="M263.707 251.702L261.694 249.718L259.623 251.702L261.694 253.685L263.707 251.702Z"
        fill="white"
      />
      <path
        d="M259.302 251.702L257.289 249.718L255.276 251.702L257.289 253.685L259.302 251.702Z"
        fill="white"
      />
      <path
        d="M308.431 268.039C309.569 266.989 310.123 265.53 310.123 263.721C310.123 261.913 309.511 260.541 308.315 259.491C307.118 258.441 305.485 257.916 303.472 257.916H298.541L306.331 249.28L304.055 248.084L295.77 257.887L297.053 260.133H303.734C304.989 260.133 305.981 260.454 306.71 261.096C307.439 261.738 307.819 262.584 307.819 263.692C307.819 264.801 307.469 265.618 306.71 266.23C305.981 266.843 304.989 267.135 303.705 267.135H268.287C267.325 267.135 266.624 266.901 266.216 266.405C265.778 265.939 265.574 265.122 265.574 264.013V254.969L263.211 255.348V257.07C261.869 256.545 260.615 256.282 259.506 256.282C257.668 256.282 256.151 256.953 254.955 258.295C253.759 259.637 253.146 261.271 253.146 263.196C253.146 265.122 253.729 266.668 254.926 267.923C256.122 269.206 257.639 269.819 259.506 269.819C260.994 269.819 262.657 269.352 264.524 268.389C265.341 269.177 266.595 269.585 268.287 269.585H303.909C305.806 269.585 307.323 269.06 308.461 268.01L308.431 268.039ZM259.506 267.514C258.281 267.514 257.289 267.076 256.53 266.26C255.772 265.443 255.392 264.422 255.392 263.225C255.392 262.029 255.772 260.892 256.559 260.016C257.347 259.141 258.339 258.703 259.593 258.703C260.527 258.703 261.723 258.937 263.211 259.462V264.276C263.211 265.18 263.299 265.939 263.474 266.581C262.044 267.222 260.731 267.543 259.477 267.514H259.506Z"
        fill="white"
      />
      <path
        d="M344.17 252.81L342.128 250.826L340.115 252.81L342.157 254.823L344.17 252.81Z"
        fill="white"
      />
      <path
        d="M346.737 254.823L348.75 252.81L346.737 250.826L344.695 252.81L346.737 254.823Z"
        fill="white"
      />
      <path
        d="M344.479 248L343.034 249.443L344.498 250.909L345.943 249.465L344.479 248Z"
        fill="white"
      />
      <path
        d="M352.076 256.253V263.663C352.076 264.801 351.784 265.676 351.172 266.26C350.559 266.843 349.713 267.135 348.575 267.135C347.583 267.135 346.504 266.901 345.366 266.435C345.599 265.822 345.716 265.122 345.716 264.305V258.82L343.353 259.17V263.663C343.353 265.968 342.215 267.135 339.881 267.135C339.035 267.135 338.072 266.901 336.993 266.464C337.226 265.822 337.314 265.122 337.314 264.334V258.849L334.951 259.199V263.692C334.951 265.997 333.813 267.164 331.479 267.164H320.743C318.788 267.164 317.738 266.289 317.621 264.538V255.903L315.258 256.282V268.827C315.258 272.007 313.624 273.582 310.298 273.582L310.532 275.595C312.895 275.595 314.675 275.07 315.842 273.991C317.009 272.911 317.621 271.219 317.621 268.914V268.185C318.292 269.177 319.313 269.644 320.743 269.644H331.479C333.405 269.644 334.863 269.148 335.884 268.185C337.314 269.148 338.685 269.615 339.998 269.615C341.836 269.615 343.236 269.119 344.199 268.156C345.804 269.119 347.35 269.615 348.809 269.615C350.617 269.615 351.989 269.148 352.893 268.243C353.827 267.31 354.264 265.997 354.264 264.305V255.874L351.93 256.253H352.076Z"
        fill="white"
      />
      <path
        d="M10.2985 286.886L12.3116 284.902L10.2985 282.918L8.25632 284.902L10.2985 286.886Z"
        fill="white"
      />
      <path
        d="M3.88019 284.902L5.89322 286.886L7.90625 284.902L5.89322 282.918L3.88019 284.902Z"
        fill="white"
      />
      <path
        d="M17.7964 307.016L19.8094 309L21.8224 307.016L19.8094 305.032L17.7964 307.016Z"
        fill="white"
      />
      <path
        d="M22.1725 307.016L24.2147 309L26.2278 307.016L24.2147 305.032L22.1725 307.016Z"
        fill="white"
      />
      <path
        d="M30.8081 296.893C30.8081 299.197 29.6411 300.364 27.3072 300.364C25.9068 300.364 24.594 299.898 23.3395 298.993C23.427 298.497 23.4854 298.03 23.4854 297.564V292.079L21.1514 292.429V296.922C21.1514 298.147 20.8013 299.022 20.1303 299.577C19.4593 300.131 18.3798 300.394 16.9211 300.394C15.9584 300.394 15.2582 300.16 14.8497 299.664C14.4121 299.197 14.2079 298.381 14.2079 297.272V288.228L11.8448 288.607V290.328C10.5028 289.803 9.24827 289.541 8.13964 289.541C6.30166 289.541 4.78459 290.212 3.58844 291.554C2.39229 292.896 1.77963 294.53 1.77963 296.455C1.77963 298.381 2.36312 299.927 3.55927 301.181C4.75542 302.465 6.27248 303.078 8.13964 303.078C9.62753 303.078 11.2905 302.611 13.1576 301.648C13.9745 302.436 15.229 302.844 16.9211 302.844C19.6927 302.844 21.5598 302.173 22.5518 300.831C24.0105 302.173 25.5859 302.844 27.3072 302.844C29.2327 302.844 30.6914 302.377 31.6542 301.473C32.6461 300.539 33.1421 299.256 33.1421 297.534V289.103L30.7789 289.482V296.893H30.8081ZM8.11047 300.714C6.88514 300.714 5.89322 300.277 5.13468 299.46C4.37615 298.643 3.99688 297.622 3.99688 296.426C3.99688 295.23 4.37615 294.092 5.16386 293.217C5.95157 292.341 6.94349 291.904 8.19799 291.904C9.13157 291.904 10.3277 292.137 11.8156 292.662V297.476C11.8156 298.381 11.9031 299.139 12.0782 299.781C10.6486 300.423 9.33579 300.744 8.08129 300.714H8.11047Z"
        fill="white"
      />
      <path
        d="M29.8162 284.756L31.8584 286.798L33.9006 284.756L31.8293 282.772L29.8162 284.756Z"
        fill="white"
      />
      <path
        d="M53.4475 296.893C53.4475 299.197 52.2805 300.364 49.9465 300.364H48.3419V295.755C48.3419 293.888 47.8168 292.4 46.7374 291.262C45.6579 290.124 44.2867 289.57 42.5654 289.57C40.7274 289.57 39.1812 290.183 37.985 291.437C36.7889 292.692 36.1762 294.296 36.1762 296.28C36.1762 298.264 36.7597 299.898 37.9559 301.094C39.1228 302.29 40.6983 302.873 42.6529 302.873H45.9788C45.8038 304.245 45.0161 305.236 43.6449 305.849C42.2737 306.462 40.319 306.783 37.7517 306.783L38.0142 308.796C44.5493 308.796 47.9627 306.812 48.3128 302.844H49.9465C51.872 302.844 53.3308 302.377 54.2935 301.473C55.2854 300.539 55.7814 299.256 55.7814 297.534V289.103L53.4183 289.482V296.893H53.4475ZM45.9788 300.364C44.5493 300.394 43.5282 300.423 42.9447 300.423C41.5443 300.423 40.4357 300.043 39.5896 299.314C38.7728 298.585 38.3351 297.505 38.3351 296.134C38.3351 294.88 38.7144 293.858 39.4729 293.1C40.2315 292.341 41.1651 291.933 42.332 291.933C43.499 291.933 44.2867 292.283 44.9869 293.012C45.6579 293.742 46.008 294.705 46.008 295.901V300.364H45.9788Z"
        fill="white"
      />
      <path
        d="M52.4847 284.756L54.5269 286.798L56.5399 284.756L54.4685 282.772L52.4847 284.756Z"
        fill="white"
      />
      <path
        d="M71.4772 287.09L73.4902 285.106L71.4772 283.122L69.435 285.106L71.4772 287.09Z"
        fill="white"
      />
      <path
        d="M73.8111 285.106L75.8533 287.09L77.8955 285.106L75.8533 283.122L73.8111 285.106Z"
        fill="white"
      />
      <path
        d="M84.8974 296.747C84.8974 299.139 83.7305 300.335 81.4257 300.335C79.7336 300.335 78.3332 300.248 77.2538 300.102C78.9459 298.847 79.7919 297.243 79.7919 295.259C79.7919 293.625 79.2084 292.225 78.0706 291.087C76.9328 289.949 75.4741 289.395 73.6945 289.395C71.9149 289.395 70.5145 289.949 69.3475 291.058C68.1805 292.166 67.5971 293.567 67.5971 295.259C67.5971 297.243 68.4431 298.876 70.1352 300.16C68.8515 300.277 67.422 300.335 65.8174 300.335C63.5126 300.335 62.3457 299.139 62.3457 296.747V282.626L59.9825 282.976V297.272C59.9825 300.948 61.9372 302.815 65.8174 302.815C69.0266 302.815 71.6815 302.465 73.782 301.794C76.116 302.465 78.6541 302.815 81.3965 302.815C85.2767 302.815 87.2314 300.977 87.2314 297.272V282.597L84.8974 282.947V296.688V296.747ZM73.6653 299.868C72.5275 299.548 71.5939 298.964 70.9229 298.176C70.2519 297.389 69.9018 296.484 69.9018 295.521C69.9018 294.413 70.2519 293.508 70.9521 292.808C71.6523 292.108 72.5275 291.729 73.6361 291.729C74.7448 291.729 75.6783 292.079 76.4077 292.808C77.1662 293.508 77.5163 294.413 77.5163 295.521C77.5163 296.484 77.1662 297.359 76.4661 298.118C75.7659 298.876 74.8323 299.46 73.6653 299.868Z"
        fill="white"
      />
      <path
        d="M92.045 302.844H94.4082V282.626L92.045 283.006V302.844Z"
        fill="white"
      />
      <path
        d="M122.124 296.893C122.124 299.197 120.957 300.364 118.652 300.364H111.825C108.441 300.364 106.72 298.964 106.72 296.192C106.72 295.317 106.866 294.034 107.157 292.4L105.086 292.137C104.707 293.946 104.503 295.521 104.503 296.863C104.503 298.847 105.086 300.335 106.224 301.356C107.362 302.377 109.054 302.873 111.242 302.873H118.623C120.548 302.873 122.007 302.407 122.97 301.502C123.962 300.569 124.458 299.285 124.458 297.564V289.132L122.095 289.512V296.922L122.124 296.893Z"
        fill="white"
      />
      <path
        d="M114.684 288.14L116.727 290.124L118.74 288.14L116.727 286.156L114.684 288.14Z"
        fill="white"
      />
      <path
        d="M110.308 288.14L112.321 290.124L114.363 288.14L112.321 286.156L110.308 288.14Z"
        fill="white"
      />
      <path
        d="M128.717 302.844H131.051V282.626L128.717 283.006V302.844Z"
        fill="white"
      />
      <path
        d="M137.47 301.998C137.47 305.178 135.807 306.754 132.481 306.754L132.714 308.767C135.077 308.767 136.857 308.241 138.024 307.162C139.191 306.083 139.803 304.39 139.803 302.086V289.074L137.44 289.453V301.998H137.47Z"
        fill="white"
      />
      <path
        d="M158.329 286.011L160.371 288.024L162.355 286.011L160.342 284.027L158.329 286.011Z"
        fill="white"
      />
      <path
        d="M162.643 281.186L161.198 282.629L162.662 284.094L164.107 282.651L162.643 281.186Z"
        fill="white"
      />
      <path
        d="M166.936 286.011L164.923 284.027L162.88 286.011L164.923 288.024L166.936 286.011Z"
        fill="white"
      />
      <path
        d="M178.868 286.069L176.855 288.053L178.868 290.066L180.881 288.053L178.868 286.069Z"
        fill="white"
      />
      <path
        d="M185.286 288.053L183.273 286.069L181.231 288.053L183.273 290.066L185.286 288.053Z"
        fill="white"
      />
      <path
        d="M206.7 296.863C206.7 298.001 206.409 298.876 205.796 299.46C205.183 300.043 204.337 300.335 203.199 300.335C202.207 300.335 201.128 300.102 199.99 299.635C200.224 299.022 200.34 298.322 200.34 297.505V292.021L197.977 292.371V296.863C197.977 299.168 196.839 300.335 194.505 300.335C193.659 300.335 192.697 300.102 191.617 299.664C191.851 299.022 191.938 298.322 191.938 297.534V292.05L189.575 292.4V296.893C189.575 299.197 188.437 300.364 186.103 300.364C184.703 300.364 183.39 299.898 182.136 298.993C182.223 298.497 182.281 298.03 182.281 297.564V292.079L179.947 292.429V296.922C179.947 298.147 179.597 299.022 178.926 299.577C178.255 300.131 177.176 300.394 175.717 300.394C174.55 300.394 173.412 300.043 172.333 299.343C172.479 298.76 172.566 298.147 172.566 297.534V289.103L170.232 289.482V296.893C170.232 298.03 169.941 298.906 169.328 299.489C168.715 300.073 167.869 300.364 166.731 300.364C165.74 300.364 164.66 300.131 163.522 299.664C163.756 299.052 163.872 298.351 163.872 297.534V292.05L161.509 292.4V296.893C161.509 299.197 160.371 300.364 158.037 300.364C157.191 300.364 156.229 300.131 155.149 299.693C155.383 299.052 155.47 298.351 155.47 297.564V292.079L153.107 292.429V296.922C153.107 299.227 151.969 300.394 149.635 300.394C147.331 300.394 146.164 299.197 146.164 296.805V282.685L143.8 283.035V297.33C143.8 301.006 145.755 302.873 149.635 302.873C151.561 302.873 153.02 302.377 154.041 301.415C155.47 302.377 156.841 302.844 158.154 302.844C159.992 302.844 161.393 302.348 162.355 301.385C163.96 302.348 165.506 302.844 166.965 302.844C168.92 302.844 170.378 302.29 171.312 301.181C172.654 302.319 174.083 302.873 175.6 302.873C178.372 302.873 180.239 302.202 181.231 300.86C182.69 302.202 184.265 302.873 185.987 302.873C187.912 302.873 189.371 302.377 190.392 301.415C191.821 302.377 193.193 302.844 194.505 302.844C196.343 302.844 197.744 302.348 198.707 301.385C200.311 302.348 201.857 302.844 203.316 302.844C205.125 302.844 206.496 302.377 207.401 301.473C208.334 300.539 208.772 299.227 208.772 297.534V289.103L206.438 289.482V296.893L206.7 296.863Z"
        fill="white"
      />
      <path
        d="M224.234 296.747C224.234 299.139 223.067 300.335 220.762 300.335H219.946L217.291 286.244L214.957 286.827L217.728 300.335H211.164L211.602 302.815H220.762C224.643 302.815 226.597 300.977 226.597 297.272V282.597L224.234 282.947V296.688V296.747Z"
        fill="white"
      />
      <path
        d="M231.353 302.844H233.716V282.626L231.353 283.006V302.844Z"
        fill="white"
      />
      <path
        d="M243.548 289.541C241.71 289.541 240.163 290.153 238.967 291.408C237.771 292.662 237.158 294.267 237.158 296.251C237.158 298.235 237.742 299.868 238.938 301.065C240.105 302.261 241.68 302.844 243.577 302.844C244.685 302.844 245.823 302.582 247.019 302.027V302.086C247.019 303.719 246.348 304.886 244.977 305.645C243.606 306.403 241.534 306.754 238.763 306.754L239.025 308.767C245.911 308.767 249.353 306.579 249.353 302.173V295.697C249.353 293.829 248.828 292.341 247.749 291.204C246.669 290.066 245.298 289.512 243.577 289.512L243.548 289.541ZM247.019 299.898C246.027 300.248 244.977 300.423 243.898 300.423C242.497 300.452 241.389 300.102 240.572 299.372C239.755 298.643 239.346 297.564 239.346 296.134C239.346 294.88 239.726 293.859 240.484 293.1C241.243 292.341 242.176 291.933 243.343 291.933C244.51 291.933 245.327 292.312 245.998 293.042C246.669 293.771 247.019 294.734 247.019 295.93V299.927V299.898Z"
        fill="white"
      />
      <path
        d="M262.803 283.006L260.76 284.989L262.803 286.973L264.816 284.989L262.803 283.006Z"
        fill="white"
      />
      <path
        d="M267.179 283.006L265.137 284.989L267.179 286.973L269.221 284.989L267.179 283.006Z"
        fill="white"
      />
      <path
        d="M264.991 289.541C263.153 289.541 261.636 290.212 260.439 291.554C259.243 292.896 258.631 294.53 258.631 296.455C258.631 298.381 259.214 299.927 260.41 301.181C261.606 302.465 263.123 303.078 264.991 303.078C266.858 303.078 268.317 302.436 269.513 301.181C270.709 299.898 271.292 298.322 271.292 296.455C271.292 294.588 270.709 292.925 269.513 291.583C268.317 290.241 266.829 289.541 264.991 289.541ZM267.879 299.372C267.12 300.16 266.187 300.569 265.02 300.569C263.853 300.569 262.861 300.16 262.102 299.372C261.344 298.585 260.965 297.593 260.965 296.426C260.965 295.259 261.344 294.179 262.102 293.304C262.861 292.458 263.824 292.021 264.991 292.021C266.158 292.021 267.091 292.458 267.85 293.304C268.608 294.15 268.988 295.201 268.988 296.426C268.988 297.651 268.608 298.585 267.879 299.372Z"
        fill="white"
      />
      <path
        d="M288.009 289.424C286.142 289.424 284.596 290.037 283.4 291.262C282.204 292.487 281.591 294.034 281.591 295.872C281.591 297.155 281.999 298.643 282.845 300.364H280.453C278.148 300.364 276.981 299.168 276.981 296.776V282.656L274.618 283.006V297.301C274.618 300.977 276.573 302.844 280.453 302.844H286.521C288.943 302.844 290.839 302.232 292.21 300.977C293.582 299.723 294.282 298.001 294.282 295.784C294.282 293.975 293.669 292.458 292.473 291.262C291.277 290.066 289.789 289.453 288.009 289.453V289.424ZM290.489 299.168C289.555 299.956 288.272 300.364 286.696 300.364H285.267C284.333 298.731 283.896 297.243 283.896 295.901C283.896 294.792 284.275 293.829 285.063 293.012C285.85 292.196 286.784 291.787 287.893 291.787C289.06 291.787 290.022 292.166 290.781 292.925C291.539 293.683 291.919 294.675 291.919 295.842C291.919 297.272 291.452 298.381 290.518 299.168H290.489Z"
        fill="white"
      />
      <path
        d="M349.305 296.747C349.305 299.139 348.138 300.335 345.833 300.335C343.528 300.335 342.361 299.139 342.361 296.747V282.626L339.998 282.976V297.272C339.998 298.001 340.056 298.643 340.202 299.139C339.298 299.927 338.189 300.306 336.847 300.306H334.513C335.155 298.585 335.476 296.98 335.476 295.551C335.476 293.888 334.863 292.458 333.638 291.233C332.413 290.008 330.954 289.395 329.233 289.395C327.395 289.395 325.907 290.008 324.711 291.233C323.544 292.458 322.931 293.975 322.931 295.813C322.931 297.33 323.252 298.614 323.923 299.723C323.048 300.131 322.143 300.335 321.18 300.335H319.926C318.496 300.335 317.534 299.956 317.067 299.197C317.592 298.964 318.117 298.672 318.642 298.351L318.992 296.047C315.842 293.421 313.595 291.729 312.253 290.941C310.911 290.153 309.657 289.745 308.46 289.745C307.468 289.745 306.272 290.008 304.93 290.533L305.397 292.633C306.768 292.341 307.673 292.196 308.11 292.196C309.131 292.196 310.211 292.517 311.32 293.158C312.457 293.8 314.208 295.113 316.6 297.126C312.224 299.256 307.877 300.335 303.617 300.335C301.313 300.335 300.146 299.139 300.146 296.747V282.626L297.783 282.976V297.272C297.783 300.948 299.737 302.815 303.617 302.815C307.381 302.815 311.378 301.852 315.637 299.898C315.871 300.831 316.367 301.531 317.067 302.057C317.767 302.582 318.73 302.844 319.897 302.844H321.18C322.61 302.844 324.069 302.377 325.498 301.502C326.724 302.407 328.27 302.844 330.079 302.844H336.76C338.277 302.844 339.706 302.232 340.961 301.035C341.894 302.232 343.499 302.844 345.716 302.844C349.596 302.844 351.551 301.006 351.551 297.301V282.626L349.217 282.976V296.718L349.305 296.747ZM332.238 300.335H329.933C328.503 300.335 327.395 299.927 326.549 299.11C325.732 298.293 325.294 297.214 325.294 295.901C325.294 294.646 325.673 293.625 326.403 292.867C327.132 292.108 328.124 291.729 329.378 291.729C330.458 291.729 331.362 292.166 332.092 293.012C332.821 293.859 333.171 294.85 333.171 295.988C333.171 297.126 332.85 298.556 332.208 300.364L332.238 300.335Z"
        fill="white"
      />
      <path
        d="M273.16 121.107H273.219C273.543 121.107 273.838 120.959 274.044 120.694L283.302 110.312C283.744 109.811 283.715 109.044 283.214 108.601L272.835 99.3404C272.6 99.1339 272.275 99.016 271.951 99.0454C271.627 99.0454 271.332 99.1929 271.125 99.4584L261.868 109.84C261.425 110.341 261.455 111.108 261.956 111.551L272.334 120.812C272.57 121.018 272.835 121.107 273.13 121.107H273.16Z"
        fill="#C8B56D"
      />
      <path
        d="M224.247 139.216H224.306C224.63 139.216 224.925 139.068 225.132 138.803L234.389 128.421C234.832 127.92 234.802 127.153 234.301 126.71L223.923 117.449C223.687 117.243 223.363 117.125 223.038 117.155C222.714 117.155 222.419 117.302 222.213 117.567L212.955 127.949C212.513 128.451 212.542 129.217 213.043 129.66L223.422 138.921C223.657 139.127 223.923 139.216 224.218 139.216H224.247Z"
        fill="#C8B56D"
      />
      <path
        d="M113.685 158.976H113.744C114.068 158.976 114.363 158.829 114.569 158.563L123.827 148.182C124.269 147.68 124.24 146.913 123.739 146.471L113.36 137.21C113.125 137.004 112.8 136.886 112.476 136.915C112.152 136.915 111.857 137.063 111.65 137.328L102.393 147.71C101.95 148.211 101.98 148.978 102.481 149.42L112.859 158.681C113.095 158.888 113.36 158.976 113.655 158.976H113.685Z"
        fill="#C8B56D"
      />
      <path
        d="M96.3192 103.263C96.3192 103.263 96.6141 103.499 96.7615 103.617C97.1448 103.941 97.5575 104.236 97.9703 104.531C98.2946 104.738 98.6189 104.944 98.9432 105.121C99.4444 105.416 99.9457 105.711 100.358 106.065C101.096 106.655 101.98 107.156 103.012 106.448C104.103 107.186 105.076 108.1 106.049 109.339C107.995 111.816 109.557 114.441 110.619 117.155C111.238 118.718 111.798 120.34 112.329 121.932C112.447 122.316 112.594 122.699 112.712 123.083C112.889 123.584 113.125 124.262 113.921 124.41C114.009 124.41 114.098 124.41 114.157 124.41C114.746 124.41 115.218 124.027 115.513 123.23C115.837 122.375 116.191 121.49 116.338 120.546C116.692 118.334 116.958 116.063 117.223 113.881V113.733C117.459 111.934 117.636 110.135 117.842 108.365C117.93 107.569 118.019 106.773 118.107 105.947C118.196 105.269 118.255 104.59 118.314 103.941C118.461 102.408 118.638 100.815 118.874 99.2814C118.992 98.4851 119.287 97.9542 119.758 97.7478C120.23 97.5118 120.908 97.6003 121.645 98.0427C123.09 98.8685 124.21 100.078 124.947 101.67C125.036 101.847 125.065 102.083 125.095 102.319C125.095 102.467 125.124 102.644 125.183 102.791C125.183 102.88 125.213 102.968 125.242 103.057C125.331 103.558 125.419 103.971 125.773 104.03C126.009 104.059 126.864 104.148 127.306 103.705C127.719 103.322 128.073 102.762 128.397 101.995C129.871 98.6326 129.783 97.4528 127.837 94.474C126.628 92.6454 125.036 91.2887 123.031 90.4039C121.557 89.755 120.142 90.0794 118.992 91.2592C118.373 91.908 117.842 92.7044 117.518 93.5302C115.955 97.3053 115.365 101.228 114.953 105.947C114.805 107.51 114.628 109.103 114.451 110.636L114.363 111.521C114.363 111.521 114.363 111.551 114.363 111.58C110.796 103.558 105.194 97.4823 97.2037 93.0288C97.0268 92.9403 96.8204 92.9993 96.732 93.1468C96.6141 93.3237 96.5256 93.4712 96.4077 93.6187C96.2013 93.9136 95.9949 94.2085 95.877 94.5035C95.4937 95.5357 95.0809 96.6565 94.8156 97.8067C94.2259 100.196 94.7566 101.965 96.3782 103.234L96.3192 103.263Z"
        fill="#C8B56D"
      />
      <path
        d="M203.903 158.711C203.373 159.035 203.166 159.655 202.989 160.215C202.842 160.657 202.724 161.1 202.429 161.395C201.84 162.014 200.749 161.896 200.012 161.454C198.479 160.539 197.624 158.475 197.771 155.997C197.918 152.96 199.216 150.158 200.336 148.034C200.719 147.326 201.132 146.619 201.545 145.911C202.518 144.23 203.52 142.519 204.021 140.631C204.021 140.543 204.021 140.454 203.933 140.395C203.52 140.159 203.078 140.513 202.813 140.897C199.628 145.734 195.884 152.163 195.412 158.976C195.176 162.516 195.943 165.023 197.712 166.438C198.39 166.999 199.216 167.294 200.012 167.294C200.307 167.294 200.631 167.235 200.896 167.146C201.574 166.94 202.223 166.438 202.813 165.701C203.668 164.61 204.169 163.282 204.375 161.66C204.434 161.218 204.67 158.976 204.257 158.711C204.169 158.652 204.051 158.652 203.962 158.711H203.903Z"
        fill="#C8B56D"
      />
      <path
        d="M83.8183 128.804C83.0812 129.247 82.8453 130.073 82.6095 130.84C82.4326 131.429 82.2557 132.019 81.8724 132.403C81.0763 133.258 79.6022 133.052 78.6292 132.462C76.5654 131.223 75.445 128.48 75.6219 125.147C75.8283 121.077 77.5678 117.302 79.042 114.441C79.5432 113.497 80.1034 112.524 80.6341 111.61C81.9314 109.368 83.2876 107.068 83.9657 104.502C83.9952 104.384 83.9657 104.266 83.8478 104.207C83.2876 103.882 82.6979 104.384 82.3441 104.885C78.069 111.374 73.0569 119.986 72.4083 129.129C72.0839 133.877 73.1159 137.269 75.504 139.157C76.418 139.894 77.5384 140.277 78.5998 140.277C79.0125 140.277 79.4253 140.218 79.8086 140.1C80.7225 139.806 81.5776 139.157 82.3736 138.154C83.5235 136.709 84.2016 134.91 84.4669 132.727C84.5259 132.137 84.8502 129.129 84.29 128.775C84.1721 128.686 84.0247 128.686 83.8773 128.775L83.8183 128.804Z"
        fill="#C8B56D"
      />
      <path
        d="M282.093 124.41C272.305 124.321 267.057 134.231 263.961 142.077C262.457 145.881 253.288 166.32 260.393 168.503C264.108 169.624 272.069 166.556 275.459 164.669C279.086 162.663 280.943 159.92 282.594 156.204C283.066 155.142 283.508 154.051 283.951 152.96C284.835 154.021 285.631 155.172 286.191 156.41C287.459 159.065 287.931 161.867 287.99 164.787C287.99 165.052 287.99 165.317 287.99 165.583C287.99 165.642 287.931 165.671 287.901 165.73C285.513 169.358 282.624 172.691 279.381 175.552C271.302 182.719 261.16 186.818 250.634 188.765C250.576 188.765 250.487 188.824 250.399 188.853C253.435 181.126 257.121 172.071 254.084 163.99C251.313 156.558 246.654 148.831 239.224 145.321C230.674 141.28 225.043 146.501 221.299 153.373C213.25 168.001 208.886 182.335 204.198 198.468C199.628 200.12 195.029 201.683 190.4 203.187L185.801 225.986C202.606 220.559 219.441 214.07 234.772 205.458C239.932 202.568 244.148 199.559 247.185 195.194C246.477 197.436 245.976 199.559 245.711 200.356C245.386 201.3 242.762 212.625 242.91 212.596C264.108 208.702 279.558 195.843 287.577 175.994C291.41 166.497 295.125 155.88 295.921 145.616C296.599 136.709 293.002 124.587 282.093 124.498V124.41ZM223.746 190.652C218.291 193.041 212.748 195.253 207.176 197.347C208.827 193.69 210.242 189.473 212.011 185.963C214.252 181.598 219.441 168.886 224.394 167.529C229.465 166.143 236.04 171.482 239.018 174.903C240.05 176.083 240.964 177.321 241.79 178.649C242.792 180.212 242.261 182.306 240.64 183.161C234.89 186.169 228.669 188.499 223.746 190.652Z"
        fill="#C8B56D"
      />
      <path
        d="M238.104 108.483C238.104 108.483 238.281 108.483 238.37 108.395C243.588 104.944 249.308 102.113 254.851 99.3994C256.266 98.6915 257.711 97.9837 259.126 97.2758L281.268 86.1568C281.621 85.9798 281.916 85.3899 282.3 84.5051C282.3 84.4461 282.359 84.3872 282.359 84.3577C282.771 83.4729 283.125 82.4701 283.449 81.3788C283.656 80.73 284.245 78.5474 283.715 78.1345C283.567 78.0165 283.39 77.9871 283.184 78.105L261.042 89.2241C259.627 89.9319 258.212 90.6398 256.767 91.3476C251.195 94.0905 245.445 96.8924 240.197 100.373C239.814 100.638 239.49 101.287 239.225 101.965C239.195 102.054 239.166 102.113 239.136 102.142C238.723 103.027 238.37 104.03 238.045 105.121C238.045 105.121 237.22 107.982 237.809 108.395C237.868 108.454 237.957 108.483 238.045 108.483H238.104Z"
        fill="#C8B56D"
      />
      <path
        d="M185.417 148.034L176.72 140.277C176.396 140.012 176.012 139.865 175.599 139.894C175.187 139.924 174.833 140.1 174.568 140.395L167.285 148.536V123.702L184.739 118.01C184.739 118.01 184.71 118.039 184.739 118.069C184.887 126.976 185.182 137.859 185.417 148.034Z"
        fill="#C8B56D"
      />
      <path
        d="M182.469 191.655C179.344 200.179 172.592 206.962 161.86 212.389C156.406 215.103 129.606 223.125 123.031 225.219L130.254 200.385C131.168 200.061 137.389 197.937 143.993 195.696C144.436 195.548 144.878 195.371 145.32 195.253C146.47 194.87 147.708 194.428 149.035 193.985C149.979 193.661 150.893 193.336 151.777 193.041C152.662 192.717 153.546 192.422 154.401 192.157C154.578 192.068 154.784 192.009 154.961 191.95C155.698 191.685 156.406 191.449 157.055 191.242C157.231 191.183 157.438 191.095 157.644 191.036C157.88 190.918 158.116 190.859 158.322 190.8C158.499 190.741 158.647 190.682 158.765 190.652C160.534 190.033 161.742 189.591 161.978 189.502C163.747 188.794 165.339 187.556 166.253 185.845C166.931 184.636 167.285 183.25 167.285 181.834V159.448L176.071 167.294C176.366 167.529 176.72 167.677 177.103 167.677H177.192C177.575 167.647 177.958 167.47 178.224 167.176L185.653 158.858C185.683 159.832 185.683 160.775 185.712 161.69C185.742 163.046 185.771 164.374 185.801 165.701C185.919 174.46 185.417 183.309 182.469 191.655Z"
        fill="#C8B56D"
      />
      <path
        d="M271.096 66.2781C270.595 66.986 258.3 83.8858 237.927 85.5669C236.836 85.6554 235.716 85.6849 234.625 85.6849C221.77 85.6849 209.093 79.4912 196.857 67.2809C194.145 64.5675 193.702 60.2909 195.796 57.0466L214.96 27.6416C216.169 25.813 217.997 24.5447 220.119 24.1023C222.242 23.6304 224.424 24.0434 226.252 25.2526C228.286 26.5798 229.613 28.7033 229.908 31.1218C230.144 33.0979 229.583 35.1034 228.463 36.7846L213.22 60.173C221.24 66.8385 229.082 69.9058 236.542 69.2865C244.679 68.6081 251.165 63.5352 254.467 60.3794L232.178 20.1502C231.529 19 231.205 17.7022 231.176 16.375C202.695 14.8119 188.631 29.7946 183.825 36.4896C183.825 64.479 184.179 80.3465 184.651 108.277L167.285 113.586V112.583C167.285 92.1735 167.285 84.2987 167.344 63.5647L167.403 47.2843C167.403 45.7801 167.403 44.2464 167.403 42.7423V40.2943C167.403 40.0878 167.462 39.7339 167.492 39.321C167.551 38.6722 167.728 36.9615 167.492 36.6371C162.922 30.2075 149.301 15.4017 121.557 16.3455C121.557 17.7022 121.203 19 120.554 20.1797L98.2355 60.4089C101.538 63.5647 108.053 68.6671 116.25 69.316C123.68 69.9058 131.463 66.8385 139.483 60.2024L124.092 36.5781C121.645 32.8029 122.707 27.73 126.48 25.2821C130.254 22.8341 135.325 23.8959 137.773 27.6711L156.937 57.0761C159.03 60.2909 158.588 64.597 155.875 67.3104C143.669 79.5502 130.962 85.7144 118.107 85.7144C117.016 85.7144 115.925 85.6849 114.835 85.5964C94.4616 83.9153 82.1671 67.0155 81.6659 66.3076C79.8379 63.7417 79.6316 60.3204 81.1647 57.607L102.982 18.2626C99.916 17.5253 97.4984 15.1363 96.8498 12.01C96.378 9.88645 96.7908 7.70393 97.9701 5.87533C99.179 4.04673 100.977 2.7785 103.1 2.3361C142.46 -6.09905 165.28 10.2109 175.57 21.035C185.83 10.2404 208.562 -6.01057 247.775 2.27711C249.721 2.69002 251.549 3.7223 252.787 5.28546C254.29 7.23203 254.851 9.6505 254.349 12.0395C253.789 14.6644 251.961 16.8469 249.514 17.8497L271.568 57.607C273.101 60.3499 272.894 63.7712 271.066 66.3076L271.096 66.2781Z"
        fill="#C8B56D"
      />
      <path
        d="M213.102 83.2959C213.102 83.2959 213.043 83.1189 213.014 83.0305C211.333 89.8435 207.206 95.9191 201.958 100.579C192.611 108.896 180.464 112.259 168.642 115.385C164.602 116.447 160.593 117.567 156.612 118.836C153.782 119.75 149.33 120.399 148.387 123.732C147.915 125.472 147.856 127.3 147.767 129.099C147.62 132.491 147.561 135.883 147.384 139.304C147.06 145.94 146.264 152.724 143.345 158.799C139.866 166.025 133.556 171.688 126.392 175.286C115.925 180.536 102.127 183.485 91.1005 178.413C88.0048 176.997 85.0859 174.903 83.4054 171.924C81.0467 167.765 81.43 162.604 82.4324 157.915C83.4349 153.225 84.9975 148.565 84.7321 143.787C78.6881 150.276 75.1206 158.77 73.2631 167.441C71.9954 173.428 71.4647 179.681 72.703 185.698C73.9413 191.714 77.0665 197.465 82.0197 201.064C91.2185 207.759 104.81 206.52 114.835 202.509C124.476 198.645 132.436 191.508 138.392 183.073C143.61 175.67 147.414 167.294 149.92 158.593C151.099 154.523 151.983 150.394 152.632 146.206C153.104 143.02 154.372 141.457 157.438 140.218C164.838 137.269 172.504 135.028 180.14 132.757C187.098 130.692 194.233 128.51 199.953 124.027C204.788 120.222 208.326 114.883 210.596 109.162C213.692 101.375 215.933 91.5246 213.132 83.3549L213.102 83.2959Z"
        fill="#C8B56D"
      />
      <path
        d="M176.956 164.816H177.015C177.339 164.816 177.634 164.669 177.84 164.403L187.098 154.021C187.54 153.52 187.511 152.753 187.01 152.311L176.632 143.05C176.396 142.843 176.071 142.725 175.747 142.755C175.423 142.755 175.128 142.902 174.921 143.168L165.664 153.55C165.221 154.051 165.251 154.818 165.752 155.26L176.13 164.521C176.366 164.728 176.632 164.816 176.926 164.816H176.956Z"
        fill="#C8B56D"
      />
    </svg>