<svg width="22" height="20" viewBox="0 0 22 20" fill="none" xmlns="http://www.w3.org/2000/svg">
<path d="M1 4.07617L7.913 7.99317C10.462 9.43717 11.538 9.43717 14.087 7.99317L21 4.07617" stroke="white" stroke-width="1.5" stroke-linejoin="round"/>
<path d="M1.016 11.5519C1.081 14.6179 1.116 16.1519 2.245 17.2859C3.374 18.4199 4.95 18.4599 8.1 18.5389C10.04 18.5879 11.962 18.5879 13.9 18.5389C17.048 18.4599 18.623 18.4199 19.754 17.2849C20.885 16.1499 20.918 14.6169 20.983 11.5509C21.004 10.5649 21.004 9.58592 20.983 8.59992C20.918 5.53392 20.883 3.99992 19.754 2.86592C18.625 1.73192 17.05 1.69192 13.9 1.61292C11.959 1.56392 10.038 1.56392 8.1 1.61292C4.952 1.69192 3.377 1.73192 2.246 2.86692C1.115 4.00192 1.081 5.53492 1.016 8.59992C0.995 9.58592 0.995 10.5659 1.016 11.5519Z" stroke="white" stroke-width="1.5" stroke-linejoin="round"/>
</svg>
