<svg width="688" height="188" viewBox="0 0 688 188" fill="none" xmlns="http://www.w3.org/2000/svg">
<path d="M272.732 58.984C272.732 59.368 272.564 59.8 272.228 60.28C271.94 60.76 271.46 61 270.788 61H268.484C266.948 61 265.628 60.76 264.524 60.28C263.42 59.8 262.508 59.2 261.788 58.48C261.5 61.168 260.804 63.592 259.7 65.752C258.596 67.912 257.156 69.76 255.38 71.296C253.604 72.88 251.516 74.08 249.116 74.896C246.716 75.76 244.076 76.192 241.196 76.192C237.26 76.192 233.972 75.616 231.332 74.464C228.74 73.36 226.652 71.896 225.068 70.072C223.532 68.296 222.428 66.28 221.756 64.024C221.132 61.816 220.82 59.632 220.82 57.472C220.82 55.168 221.204 52.84 221.972 50.488C222.788 48.088 223.94 45.88 225.428 43.864L232.34 47.824C231.236 49.456 230.444 51.088 229.964 52.72C229.484 54.304 229.244 55.888 229.244 57.472C229.244 58.528 229.412 59.656 229.748 60.856C230.132 62.056 230.78 63.16 231.692 64.168C232.604 65.224 233.852 66.088 235.436 66.76C237.02 67.48 239.036 67.84 241.484 67.84C243.068 67.84 244.58 67.624 246.02 67.192C247.508 66.76 248.804 66.064 249.908 65.104C251.06 64.192 251.972 62.992 252.644 61.504C253.364 60.064 253.724 58.336 253.724 56.32V9.448H261.86V46.024C261.86 48.472 262.412 50.2 263.516 51.208C264.62 52.168 266.204 52.648 268.268 52.648H270.788C271.508 52.648 271.988 52.84 272.228 53.224C272.516 53.608 272.684 54.064 272.732 54.592V58.984ZM270.458 61C269.69 61 269.162 60.808 268.874 60.424C268.586 60.04 268.442 59.608 268.442 59.128V54.88C268.442 54.352 268.61 53.848 268.946 53.368C269.282 52.888 269.786 52.648 270.458 52.648H282.41C283.178 52.648 283.706 52.84 283.994 53.224C284.282 53.608 284.426 54.064 284.426 54.592V58.984C284.426 59.368 284.258 59.8 283.922 60.28C283.634 60.76 283.154 61 282.482 61H270.458ZM282.129 61C281.361 61 280.833 60.808 280.545 60.424C280.257 60.04 280.113 59.608 280.113 59.128V54.88C280.113 54.352 280.281 53.848 280.617 53.368C280.953 52.888 281.457 52.648 282.129 52.648H294.081C294.849 52.648 295.377 52.84 295.665 53.224C295.953 53.608 296.097 54.064 296.097 54.592V58.984C296.097 59.368 295.929 59.8 295.593 60.28C295.305 60.76 294.825 61 294.153 61H282.129ZM293.801 61C293.033 61 292.505 60.808 292.217 60.424C291.929 60.04 291.785 59.608 291.785 59.128V54.88C291.785 54.352 291.953 53.848 292.289 53.368C292.625 52.888 293.129 52.648 293.801 52.648H305.753C306.521 52.648 307.049 52.84 307.337 53.224C307.625 53.608 307.769 54.064 307.769 54.592V58.984C307.769 59.368 307.601 59.8 307.265 60.28C306.977 60.76 306.497 61 305.825 61H293.801ZM305.473 61C304.705 61 304.177 60.808 303.889 60.424C303.601 60.04 303.457 59.608 303.457 59.128V54.88C303.457 54.352 303.625 53.848 303.961 53.368C304.297 52.888 304.801 52.648 305.473 52.648H317.425C318.193 52.648 318.721 52.84 319.009 53.224C319.297 53.608 319.441 54.064 319.441 54.592V58.984C319.441 59.368 319.273 59.8 318.937 60.28C318.649 60.76 318.169 61 317.497 61H305.473ZM317.073 61C316.257 61 315.729 60.808 315.489 60.424C315.249 60.04 315.129 59.608 315.129 59.128V54.88C315.129 54.352 315.297 53.848 315.633 53.368C315.921 52.888 316.401 52.648 317.073 52.648H323.985C325.041 52.648 325.737 52.312 326.073 51.64C326.457 50.968 326.649 50.056 326.649 48.904V32.344H334.857V46.024C334.857 47.944 335.313 49.528 336.225 50.776C337.137 52.024 338.793 52.648 341.193 52.648H343.713C344.529 52.648 345.057 52.84 345.297 53.224C345.537 53.608 345.657 54.064 345.657 54.592V58.984C345.657 59.368 345.489 59.8 345.153 60.28C344.865 60.76 344.385 61 343.713 61H340.977C338.865 61 337.161 60.496 335.865 59.488C334.617 58.48 333.657 57.376 332.985 56.176C332.169 57.568 331.017 58.72 329.529 59.632C328.089 60.544 326.361 61 324.345 61H317.073ZM327.297 11.824C327.297 10.672 327.705 9.712 328.521 8.944C329.385 8.128 330.441 7.72 331.689 7.72C332.889 7.72 333.921 8.128 334.785 8.944C335.649 9.712 336.081 10.672 336.081 11.824C336.081 13.024 335.649 14.032 334.785 14.848C333.921 15.616 332.889 16 331.689 16C330.441 16 329.385 15.616 328.521 14.848C327.705 14.032 327.297 13.024 327.297 11.824ZM321.753 21.112C321.753 19.96 322.161 18.976 322.977 18.16C323.793 17.344 324.825 16.936 326.073 16.936C327.321 16.936 328.353 17.344 329.169 18.16C329.985 18.976 330.393 19.96 330.393 21.112C330.393 22.264 329.985 23.248 329.169 24.064C328.353 24.88 327.321 25.288 326.073 25.288C324.825 25.288 323.793 24.88 322.977 24.064C322.161 23.248 321.753 22.264 321.753 21.112ZM332.985 21.112C332.985 19.96 333.393 18.976 334.209 18.16C335.025 17.344 336.057 16.936 337.305 16.936C338.553 16.936 339.585 17.344 340.401 18.16C341.217 18.976 341.625 19.96 341.625 21.112C341.625 22.264 341.217 23.248 340.401 24.064C339.585 24.88 338.553 25.288 337.305 25.288C336.057 25.288 335.025 24.88 334.209 24.064C333.393 23.248 332.985 22.264 332.985 21.112ZM343.372 61C342.604 61 342.076 60.808 341.788 60.424C341.5 60.04 341.356 59.608 341.356 59.128V54.88C341.356 54.352 341.524 53.848 341.86 53.368C342.196 52.888 342.7 52.648 343.372 52.648H355.324C356.092 52.648 356.62 52.84 356.908 53.224C357.196 53.608 357.34 54.064 357.34 54.592V58.984C357.34 59.368 357.172 59.8 356.836 60.28C356.548 60.76 356.068 61 355.396 61H343.372ZM355.043 61C354.275 61 353.747 60.808 353.459 60.424C353.171 60.04 353.027 59.608 353.027 59.128V54.88C353.027 54.352 353.195 53.848 353.531 53.368C353.867 52.888 354.371 52.648 355.043 52.648H366.996C367.764 52.648 368.292 52.84 368.58 53.224C368.868 53.608 369.012 54.064 369.012 54.592V58.984C369.012 59.368 368.844 59.8 368.508 60.28C368.22 60.76 367.74 61 367.068 61H355.043ZM366.715 61C365.947 61 365.419 60.808 365.131 60.424C364.843 60.04 364.699 59.608 364.699 59.128V54.88C364.699 54.352 364.867 53.848 365.203 53.368C365.539 52.888 366.043 52.648 366.715 52.648H378.667C379.435 52.648 379.963 52.84 380.251 53.224C380.539 53.608 380.683 54.064 380.683 54.592V58.984C380.683 59.368 380.515 59.8 380.179 60.28C379.891 60.76 379.411 61 378.739 61H366.715ZM378.387 61C377.619 61 377.091 60.808 376.803 60.424C376.515 60.04 376.371 59.608 376.371 59.128V54.88C376.371 54.352 376.539 53.848 376.875 53.368C377.211 52.888 377.715 52.648 378.387 52.648H390.339C391.107 52.648 391.635 52.84 391.923 53.224C392.211 53.608 392.355 54.064 392.355 54.592V58.984C392.355 59.368 392.187 59.8 391.851 60.28C391.563 60.76 391.083 61 390.411 61H378.387ZM412.019 53.08C414.275 53.08 415.931 52.384 416.987 50.992C418.091 49.6 418.643 47.92 418.643 45.952C418.643 44.704 418.451 43.576 418.067 42.568C417.683 41.56 417.179 40.696 416.555 39.976C415.979 39.256 415.283 38.704 414.467 38.32C413.699 37.936 412.883 37.744 412.019 37.744C411.107 37.744 410.243 37.936 409.427 38.32C408.611 38.704 407.891 39.256 407.267 39.976C406.691 40.696 406.211 41.56 405.827 42.568C405.491 43.576 405.323 44.704 405.323 45.952C405.323 47.872 405.827 49.552 406.835 50.992C407.891 52.384 409.619 53.08 412.019 53.08ZM389.987 61C389.267 61 388.763 60.808 388.475 60.424C388.187 60.04 388.043 59.608 388.043 59.128V54.88C388.043 54.352 388.211 53.848 388.547 53.368C388.835 52.888 389.315 52.648 389.987 52.648H392.795C395.771 52.648 397.259 50.392 397.259 45.88C397.259 43.576 397.619 41.44 398.339 39.472C399.107 37.504 400.163 35.824 401.507 34.432C402.851 32.992 404.411 31.888 406.187 31.12C408.011 30.304 410.003 29.896 412.163 29.896C414.563 29.896 416.651 30.304 418.427 31.12C420.251 31.936 421.739 33.064 422.891 34.504C424.091 35.944 424.979 37.672 425.555 39.688C426.131 41.704 426.419 43.912 426.419 46.312C426.419 48.184 426.155 50.008 425.627 51.784C425.147 53.56 424.331 55.144 423.179 56.536C422.027 57.88 420.539 58.96 418.715 59.776C416.939 60.592 414.755 61 412.163 61C411.107 61 410.051 60.952 408.995 60.856C407.939 60.712 406.883 60.472 405.827 60.136C404.819 59.752 403.835 59.248 402.875 58.624C401.963 57.952 401.123 57.112 400.355 56.104C399.635 57.784 398.627 59.032 397.331 59.848C396.083 60.616 394.739 61 393.299 61H389.987ZM473.043 9.448V61H432.651V52.648H447.411V22.912H455.619V52.648H464.835V9.448H473.043ZM456.267 4.408C455.403 4.168 454.539 4.048 453.675 4.048C452.955 4.048 452.355 4.264 451.875 4.696C451.395 5.08 451.155 5.68 451.155 6.496C451.155 7.216 451.467 7.888 452.091 8.512C452.763 9.136 453.795 9.448 455.187 9.448H457.419V13.264H445.251V9.448H448.491C448.107 8.92 447.747 8.344 447.411 7.72C447.075 7.096 446.907 6.376 446.907 5.56C446.907 4.168 447.435 2.944 448.491 1.888C449.547 0.831996 451.155 0.303996 453.315 0.303996C453.891 0.303996 454.491 0.351997 455.115 0.447999C455.787 0.543997 456.387 0.663997 456.915 0.807998L456.267 4.408ZM484.828 9.448H492.964V61H484.828V9.448ZM516.129 61C515.361 61 514.833 60.808 514.545 60.424C514.257 60.04 514.113 59.608 514.113 59.128V54.88C514.113 54.352 514.281 53.848 514.617 53.368C514.953 52.888 515.457 52.648 516.129 52.648H528.081C528.849 52.648 529.377 52.84 529.665 53.224C529.953 53.608 530.097 54.064 530.097 54.592V58.984C530.097 59.368 529.929 59.8 529.593 60.28C529.305 60.76 528.825 61 528.153 61H516.129ZM527.729 61C527.009 61 526.505 60.808 526.217 60.424C525.929 60.04 525.785 59.608 525.785 59.128V54.88C525.785 54.352 525.953 53.848 526.289 53.368C526.577 52.888 527.057 52.648 527.729 52.648H549.905V45.808C549.905 44.08 549.665 42.736 549.185 41.776C548.753 40.768 548.153 40.024 547.385 39.544C546.617 39.016 545.705 38.704 544.649 38.608C543.641 38.464 542.561 38.392 541.409 38.392H532.697V31.12L546.665 8.944L553.433 13.48L542.417 30.4H543.137C545.057 30.4 546.929 30.616 548.753 31.048C550.577 31.48 552.161 32.248 553.505 33.352C554.897 34.456 556.001 35.968 556.817 37.888C557.681 39.808 558.113 42.232 558.113 45.16V61H527.729ZM581.897 59.848C581.897 62.008 581.609 64.024 581.033 65.896C580.457 67.768 579.593 69.4 578.441 70.792C577.289 72.184 575.873 73.264 574.193 74.032C572.513 74.848 570.569 75.256 568.361 75.256C567.449 75.256 566.609 75.208 565.841 75.112C565.073 75.064 564.401 74.992 563.825 74.896C563.489 74.848 563.177 74.8 562.889 74.752C562.553 74.704 562.217 74.632 561.881 74.536L562.817 66.328L564.833 66.76C565.409 66.856 566.009 66.928 566.633 66.976C567.257 67.072 567.833 67.12 568.361 67.12C570.473 67.12 571.889 66.448 572.609 65.104C573.329 63.76 573.689 61.792 573.689 59.2V32.344H581.897V59.848ZM592.759 9.448H600.967V52.648H605.863C606.631 52.648 607.159 52.84 607.447 53.224C607.735 53.608 607.879 54.064 607.879 54.592V58.984C607.879 59.368 607.711 59.8 607.375 60.28C607.039 60.76 606.535 61 605.863 61H592.759V9.448ZM605.567 61C604.799 61 604.271 60.808 603.983 60.424C603.695 60.04 603.551 59.608 603.551 59.128V54.88C603.551 54.352 603.719 53.848 604.055 53.368C604.391 52.888 604.895 52.648 605.567 52.648H617.519C618.287 52.648 618.815 52.84 619.103 53.224C619.391 53.608 619.535 54.064 619.535 54.592V58.984C619.535 59.368 619.367 59.8 619.031 60.28C618.743 60.76 618.263 61 617.591 61H605.567ZM617.239 61C616.471 61 615.943 60.808 615.655 60.424C615.367 60.04 615.223 59.608 615.223 59.128V54.88C615.223 54.352 615.391 53.848 615.727 53.368C616.063 52.888 616.567 52.648 617.239 52.648H629.191C629.959 52.648 630.487 52.84 630.775 53.224C631.063 53.608 631.207 54.064 631.207 54.592V58.984C631.207 59.368 631.039 59.8 630.703 60.28C630.415 60.76 629.935 61 629.263 61H617.239ZM628.839 61C628.023 61 627.495 60.808 627.255 60.424C627.015 60.04 626.895 59.608 626.895 59.128V54.88C626.895 54.352 627.063 53.848 627.399 53.368C627.687 52.888 628.167 52.648 628.839 52.648H635.751C636.807 52.648 637.503 52.312 637.839 51.64C638.223 50.968 638.415 50.056 638.415 48.904V32.344H646.623V46.024C646.623 47.944 647.079 49.528 647.991 50.776C648.903 52.024 650.559 52.648 652.959 52.648H655.479C656.295 52.648 656.823 52.84 657.063 53.224C657.303 53.608 657.423 54.064 657.423 54.592V58.984C657.423 59.368 657.255 59.8 656.919 60.28C656.631 60.76 656.151 61 655.479 61H652.743C650.631 61 648.927 60.496 647.631 59.488C646.383 58.48 645.423 57.376 644.751 56.176C643.935 57.568 642.783 58.72 641.295 59.632C639.855 60.544 638.127 61 636.111 61H628.839ZM632.583 70.072C632.583 68.92 632.991 67.936 633.807 67.12C634.623 66.352 635.655 65.968 636.903 65.968C638.151 65.968 639.183 66.352 639.999 67.12C640.815 67.936 641.223 68.92 641.223 70.072C641.223 71.272 640.815 72.256 639.999 73.024C639.183 73.84 638.151 74.248 636.903 74.248C635.655 74.248 634.623 73.84 633.807 73.024C632.991 72.256 632.583 71.272 632.583 70.072ZM643.743 70.072C643.743 68.92 644.151 67.936 644.967 67.12C645.783 66.352 646.815 65.968 648.063 65.968C649.311 65.968 650.343 66.352 651.159 67.12C651.975 67.936 652.383 68.92 652.383 70.072C652.383 71.272 651.975 72.256 651.159 73.024C650.343 73.84 649.311 74.248 648.063 74.248C646.815 74.248 645.783 73.84 644.967 73.024C644.151 72.256 643.743 71.272 643.743 70.072ZM674.289 44.584C674.049 42.136 673.449 40.432 672.489 39.472C671.529 38.464 670.137 37.96 668.313 37.96C667.305 37.96 666.033 38.128 664.497 38.464C663.009 38.8 661.569 39.304 660.177 39.976L658.089 32.056C658.665 31.816 659.409 31.552 660.321 31.264C661.233 30.976 662.193 30.712 663.201 30.472C664.257 30.232 665.337 30.04 666.441 29.896C667.593 29.704 668.721 29.608 669.825 29.608C671.889 29.608 673.665 29.944 675.153 30.616C676.689 31.24 677.961 32.152 678.969 33.352C680.025 34.504 680.841 35.896 681.417 37.528C681.993 39.16 682.401 40.936 682.641 42.856C682.737 43.816 682.857 44.776 683.001 45.736C683.145 46.648 683.385 47.56 683.721 48.472C684.105 49.384 684.585 50.224 685.161 50.992C685.785 51.76 686.577 52.432 687.537 53.008V61H655.065C654.345 61 653.841 60.808 653.553 60.424C653.265 60.04 653.121 59.608 653.121 59.128V54.88C653.121 54.352 653.289 53.848 653.625 53.368C653.913 52.888 654.393 52.648 655.065 52.648H677.529C677.097 52.12 676.497 51.208 675.729 49.912C675.009 48.568 674.529 46.792 674.289 44.584ZM665.001 21.112C665.001 19.96 665.409 18.976 666.225 18.16C667.089 17.344 668.121 16.936 669.321 16.936C670.569 16.936 671.601 17.344 672.417 18.16C673.281 18.976 673.713 19.96 673.713 21.112C673.713 22.264 673.281 23.248 672.417 24.064C671.601 24.88 670.569 25.288 669.321 25.288C668.121 25.288 667.089 24.88 666.225 24.064C665.409 23.248 665.001 22.264 665.001 21.112Z" fill="white"/>
<path d="M55.9696 161V147.896C55.9696 146.264 55.8016 144.968 55.4656 144.008C55.1776 143 54.6976 142.232 54.0256 141.704C53.4016 141.176 52.5856 140.84 51.5776 140.696C50.6176 140.504 49.4896 140.408 48.1936 140.408H47.5456V155.6C47.5456 158.48 47.0656 161.168 46.1056 163.664C45.1456 166.208 43.6576 168.416 41.6416 170.288C39.6256 172.16 37.0576 173.648 33.9376 174.752C30.8176 175.856 27.1216 176.408 22.8496 176.408C18.9616 176.408 15.6256 175.832 12.8416 174.68C10.0576 173.528 7.77756 172.04 6.00156 170.216C4.22556 168.44 2.90556 166.424 2.04156 164.168C1.22556 161.912 0.817563 159.656 0.817563 157.4C0.817563 154.808 1.24956 152.408 2.11356 150.2C3.02556 147.992 4.17756 145.88 5.56956 143.864L12.3376 147.824C11.2336 149.456 10.4176 151.064 9.88956 152.648C9.40956 154.184 9.16956 155.6 9.16956 156.896C9.16956 158.48 9.48156 159.92 10.1056 161.216C10.7296 162.56 11.6416 163.712 12.8416 164.672C14.0896 165.632 15.6016 166.376 17.3776 166.904C19.2016 167.48 21.2656 167.768 23.5696 167.768C25.8736 167.768 27.9856 167.528 29.9056 167.048C31.8256 166.616 33.4816 165.944 34.8736 165.032C36.3136 164.168 37.4176 163.064 38.1856 161.72C38.9536 160.424 39.3376 158.936 39.3376 157.256V132.344H49.3456C54.4336 132.344 58.1776 133.568 60.5776 136.016C62.9776 138.464 64.1776 142.16 64.1776 147.104V152.648H68.7856C69.4576 152.648 69.9376 152.84 70.2256 153.224C70.5616 153.608 70.7296 154.064 70.7296 154.592V158.984C70.7296 159.368 70.5616 159.8 70.2256 160.28C69.9376 160.76 69.4576 161 68.7856 161H55.9696ZM13.5616 183.752C13.5616 182.6 13.9696 181.616 14.7856 180.8C15.6016 180.032 16.6336 179.648 17.8816 179.648C19.1296 179.648 20.1616 180.032 20.9776 180.8C21.7936 181.616 22.2016 182.6 22.2016 183.752C22.2016 184.952 21.7936 185.936 20.9776 186.704C20.1616 187.52 19.1296 187.928 17.8816 187.928C16.6336 187.928 15.6016 187.52 14.7856 186.704C13.9696 185.936 13.5616 184.952 13.5616 183.752ZM24.7216 183.752C24.7216 182.6 25.1296 181.616 25.9456 180.8C26.7616 180.032 27.7936 179.648 29.0416 179.648C30.2896 179.648 31.3216 180.032 32.1376 180.8C32.9536 181.616 33.3616 182.6 33.3616 183.752C33.3616 184.952 32.9536 185.936 32.1376 186.704C31.3216 187.52 30.2896 187.928 29.0416 187.928C27.7936 187.928 26.7616 187.52 25.9456 186.704C25.1296 185.936 24.7216 184.952 24.7216 183.752ZM68.3057 161C67.6337 161 67.1537 160.808 66.8657 160.424C66.5777 160.04 66.4337 159.608 66.4337 159.128V154.88C66.4337 154.352 66.6017 153.848 66.9377 153.368C67.2257 152.888 67.6817 152.648 68.3057 152.648H78.1698V132.344H86.3778V161H68.3057ZM78.0977 121.112C78.0977 119.96 78.5058 118.976 79.3218 118.16C80.1858 117.344 81.2178 116.936 82.4178 116.936C83.6658 116.936 84.6978 117.344 85.5138 118.16C86.3778 118.976 86.8098 119.96 86.8098 121.112C86.8098 122.264 86.3778 123.248 85.5138 124.064C84.6978 124.88 83.6658 125.288 82.4178 125.288C81.2178 125.288 80.1858 124.88 79.3218 124.064C78.5058 123.248 78.0977 122.264 78.0977 121.112ZM116.923 152.648V146.24C116.923 143.504 116.371 141.416 115.267 139.976C114.211 138.488 112.723 137.744 110.803 137.744C109.939 137.744 109.099 137.936 108.283 138.32C107.515 138.656 106.819 139.16 106.195 139.832C105.571 140.456 105.067 141.224 104.683 142.136C104.299 143.048 104.107 144.08 104.107 145.232C104.107 146.576 104.323 147.728 104.755 148.688C105.187 149.6 105.763 150.368 106.483 150.992C107.203 151.568 108.019 152 108.931 152.288C109.891 152.528 110.875 152.648 111.883 152.648H116.923ZM125.059 161C124.915 163.784 124.363 166.16 123.403 168.128C122.443 170.144 121.147 171.776 119.515 173.024C117.883 174.272 115.963 175.184 113.755 175.76C111.547 176.384 109.123 176.696 106.483 176.696C105.379 176.696 104.227 176.648 103.027 176.552C101.827 176.504 100.507 176.36 99.0672 176.12L99.6432 168.056C101.035 168.248 102.355 168.392 103.603 168.488C104.851 168.584 105.931 168.632 106.843 168.632C108.187 168.632 109.459 168.536 110.659 168.344C111.859 168.152 112.915 167.768 113.827 167.192C114.787 166.664 115.531 165.896 116.059 164.888C116.635 163.928 116.947 162.632 116.995 161H112.171C109.195 161 106.675 160.592 104.611 159.776C102.595 158.912 100.939 157.808 99.6432 156.464C98.3952 155.072 97.4832 153.512 96.9072 151.784C96.3312 150.056 96.0432 148.304 96.0432 146.528C96.0432 144.272 96.4032 142.136 97.1232 140.12C97.8912 138.056 98.9472 136.256 100.291 134.72C101.635 133.184 103.219 131.984 105.043 131.12C106.915 130.208 108.979 129.752 111.235 129.752C113.395 129.752 115.315 130.112 116.995 130.832C118.723 131.504 120.187 132.488 121.387 133.784C122.587 135.032 123.499 136.544 124.123 138.32C124.747 140.048 125.059 141.968 125.059 144.08V152.648H132.115C132.883 152.648 133.411 152.84 133.699 153.224C133.987 153.608 134.131 154.064 134.131 154.592V158.984C134.131 159.368 133.963 159.8 133.627 160.28C133.339 160.76 132.835 161 132.115 161H125.059ZM131.657 161C130.985 161 130.505 160.808 130.217 160.424C129.929 160.04 129.785 159.608 129.785 159.128V154.88C129.785 154.352 129.953 153.848 130.289 153.368C130.577 152.888 131.033 152.648 131.657 152.648H141.521V132.344H149.729V161H131.657ZM141.449 121.112C141.449 119.96 141.857 118.976 142.673 118.16C143.537 117.344 144.569 116.936 145.769 116.936C147.017 116.936 148.049 117.344 148.865 118.16C149.729 118.976 150.161 119.96 150.161 121.112C150.161 122.264 149.729 123.248 148.865 124.064C148.049 124.88 147.017 125.288 145.769 125.288C144.569 125.288 143.537 124.88 142.673 124.064C141.857 123.248 141.449 122.264 141.449 121.112ZM160.619 109.448H168.827V152.648H173.723C174.491 152.648 175.019 152.84 175.307 153.224C175.595 153.608 175.739 154.064 175.739 154.592V158.984C175.739 159.368 175.571 159.8 175.235 160.28C174.899 160.76 174.395 161 173.723 161H160.619V109.448ZM209.93 152.648H216.914C217.682 152.648 218.186 152.84 218.426 153.224C218.714 153.608 218.858 154.064 218.858 154.592V158.984C218.858 159.368 218.69 159.8 218.354 160.28C218.066 160.76 217.586 161 216.914 161H173.354C172.586 161 172.082 160.808 171.842 160.424C171.554 160.04 171.41 159.608 171.41 159.128V154.88C171.41 154.352 171.578 153.848 171.914 153.368C172.202 152.888 172.682 152.648 173.354 152.648H182.498C182.162 152.12 181.754 151.256 181.274 150.056C180.842 148.808 180.626 147.224 180.626 145.304C180.626 143.336 181.01 141.416 181.778 139.544C182.546 137.672 183.626 136.016 185.018 134.576C186.41 133.136 188.09 131.984 190.058 131.12C192.074 130.208 194.282 129.752 196.682 129.752C198.698 129.752 200.522 130.088 202.154 130.76C203.786 131.432 205.178 132.392 206.33 133.64C207.482 134.84 208.37 136.304 208.994 138.032C209.618 139.76 209.93 141.68 209.93 143.792V152.648ZM201.65 152.648V143.432C201.65 142.76 201.53 142.088 201.29 141.416C201.098 140.744 200.762 140.144 200.282 139.616C199.802 139.04 199.202 138.584 198.482 138.248C197.762 137.912 196.874 137.744 195.818 137.744C194.906 137.744 194.018 137.936 193.154 138.32C192.338 138.656 191.594 139.16 190.922 139.832C190.298 140.456 189.794 141.224 189.41 142.136C189.026 143.048 188.834 144.08 188.834 145.232C188.834 146.96 189.17 148.328 189.842 149.336C190.514 150.296 191.258 151.04 192.074 151.568C192.986 152.144 194.09 152.504 195.386 152.648H201.65ZM186.17 121.112C186.17 119.96 186.578 118.976 187.394 118.16C188.21 117.344 189.242 116.936 190.49 116.936C191.738 116.936 192.77 117.344 193.586 118.16C194.402 118.976 194.81 119.96 194.81 121.112C194.81 122.264 194.402 123.248 193.586 124.064C192.77 124.88 191.738 125.288 190.49 125.288C189.242 125.288 188.21 124.88 187.394 124.064C186.578 123.248 186.17 122.264 186.17 121.112ZM197.402 121.112C197.402 119.96 197.81 118.976 198.626 118.16C199.442 117.344 200.474 116.936 201.722 116.936C202.97 116.936 204.002 117.344 204.818 118.16C205.634 118.976 206.042 119.96 206.042 121.112C206.042 122.264 205.634 123.248 204.818 124.064C204.002 124.88 202.97 125.288 201.722 125.288C200.474 125.288 199.442 124.88 198.626 124.064C197.81 123.248 197.402 122.264 197.402 121.112ZM216.384 161C215.664 161 215.184 160.808 214.944 160.424C214.656 160.04 214.512 159.608 214.512 159.128V154.88C214.512 154.352 214.656 153.848 214.944 153.368C215.232 152.888 215.712 152.648 216.384 152.648H224.88V109.448H233.016V161H216.384ZM244.851 109.448H252.987V161H244.851V109.448ZM328.209 158.984C328.209 159.368 328.041 159.8 327.705 160.28C327.417 160.76 326.937 161 326.265 161H323.961C322.425 161 321.105 160.76 320.001 160.28C318.897 159.8 317.985 159.2 317.265 158.48C316.977 161.168 316.281 163.592 315.177 165.752C314.073 167.912 312.633 169.76 310.857 171.296C309.081 172.88 306.993 174.08 304.593 174.896C302.193 175.76 299.553 176.192 296.673 176.192C292.737 176.192 289.449 175.616 286.809 174.464C284.217 173.36 282.129 171.896 280.545 170.072C279.009 168.296 277.905 166.28 277.233 164.024C276.609 161.816 276.297 159.632 276.297 157.472C276.297 155.168 276.681 152.84 277.449 150.488C278.265 148.088 279.417 145.88 280.905 143.864L287.817 147.824C286.713 149.456 285.921 151.088 285.441 152.72C284.961 154.304 284.721 155.888 284.721 157.472C284.721 158.528 284.889 159.656 285.225 160.856C285.609 162.056 286.257 163.16 287.169 164.168C288.081 165.224 289.329 166.088 290.913 166.76C292.497 167.48 294.513 167.84 296.961 167.84C298.545 167.84 300.057 167.624 301.497 167.192C302.985 166.76 304.281 166.064 305.385 165.104C306.537 164.192 307.449 162.992 308.121 161.504C308.841 160.064 309.201 158.336 309.201 156.32V109.448H317.337V146.024C317.337 148.472 317.889 150.2 318.993 151.208C320.097 152.168 321.681 152.648 323.745 152.648H326.265C326.985 152.648 327.465 152.84 327.705 153.224C327.993 153.608 328.161 154.064 328.209 154.592V158.984ZM325.862 161C325.046 161 324.518 160.808 324.278 160.424C324.038 160.04 323.918 159.608 323.918 159.128V154.88C323.918 154.352 324.086 153.848 324.422 153.368C324.71 152.888 325.19 152.648 325.862 152.648H332.774C333.83 152.648 334.526 152.312 334.862 151.64C335.246 150.968 335.438 150.056 335.438 148.904V132.344H343.646V146.024C343.646 147.944 344.102 149.528 345.014 150.776C345.926 152.024 347.582 152.648 349.982 152.648H352.502C353.318 152.648 353.846 152.84 354.086 153.224C354.326 153.608 354.446 154.064 354.446 154.592V158.984C354.446 159.368 354.278 159.8 353.942 160.28C353.654 160.76 353.174 161 352.502 161H349.766C347.654 161 345.95 160.496 344.654 159.488C343.406 158.48 342.446 157.376 341.774 156.176C340.958 157.568 339.806 158.72 338.318 159.632C336.878 160.544 335.15 161 333.134 161H325.862ZM329.606 170.072C329.606 168.92 330.014 167.936 330.83 167.12C331.646 166.352 332.678 165.968 333.926 165.968C335.174 165.968 336.206 166.352 337.022 167.12C337.838 167.936 338.246 168.92 338.246 170.072C338.246 171.272 337.838 172.256 337.022 173.024C336.206 173.84 335.174 174.248 333.926 174.248C332.678 174.248 331.646 173.84 330.83 173.024C330.014 172.256 329.606 171.272 329.606 170.072ZM340.766 170.072C340.766 168.92 341.174 167.936 341.99 167.12C342.806 166.352 343.838 165.968 345.086 165.968C346.334 165.968 347.366 166.352 348.182 167.12C348.998 167.936 349.406 168.92 349.406 170.072C349.406 171.272 348.998 172.256 348.182 173.024C347.366 173.84 346.334 174.248 345.086 174.248C343.838 174.248 342.806 173.84 341.99 173.024C341.174 172.256 340.766 171.272 340.766 170.072ZM352.089 161C351.273 161 350.745 160.808 350.505 160.424C350.265 160.04 350.145 159.608 350.145 159.128V154.88C350.145 154.352 350.313 153.848 350.649 153.368C350.937 152.888 351.417 152.648 352.089 152.648H359.001C360.057 152.648 360.753 152.312 361.089 151.64C361.473 150.968 361.665 150.056 361.665 148.904V132.344H369.873V146.024C369.873 147.944 370.329 149.528 371.241 150.776C372.153 152.024 373.809 152.648 376.209 152.648H378.729C379.545 152.648 380.073 152.84 380.313 153.224C380.553 153.608 380.673 154.064 380.673 154.592V158.984C380.673 159.368 380.505 159.8 380.169 160.28C379.881 160.76 379.401 161 378.729 161H375.993C373.881 161 372.177 160.496 370.881 159.488C369.633 158.48 368.673 157.376 368.001 156.176C367.185 157.568 366.033 158.72 364.545 159.632C363.105 160.544 361.377 161 359.361 161H352.089ZM362.313 111.824C362.313 110.672 362.721 109.712 363.537 108.944C364.401 108.128 365.457 107.72 366.705 107.72C367.905 107.72 368.937 108.128 369.801 108.944C370.665 109.712 371.097 110.672 371.097 111.824C371.097 113.024 370.665 114.032 369.801 114.848C368.937 115.616 367.905 116 366.705 116C365.457 116 364.401 115.616 363.537 114.848C362.721 114.032 362.313 113.024 362.313 111.824ZM356.769 121.112C356.769 119.96 357.177 118.976 357.993 118.16C358.809 117.344 359.841 116.936 361.089 116.936C362.337 116.936 363.369 117.344 364.185 118.16C365.001 118.976 365.409 119.96 365.409 121.112C365.409 122.264 365.001 123.248 364.185 124.064C363.369 124.88 362.337 125.288 361.089 125.288C359.841 125.288 358.809 124.88 357.993 124.064C357.177 123.248 356.769 122.264 356.769 121.112ZM368.001 121.112C368.001 119.96 368.409 118.976 369.225 118.16C370.041 117.344 371.073 116.936 372.321 116.936C373.569 116.936 374.601 117.344 375.417 118.16C376.233 118.976 376.641 119.96 376.641 121.112C376.641 122.264 376.233 123.248 375.417 124.064C374.601 124.88 373.569 125.288 372.321 125.288C371.073 125.288 370.041 124.88 369.225 124.064C368.409 123.248 368.001 122.264 368.001 121.112ZM400.203 153.08C402.507 153.08 404.187 152.408 405.243 151.064C406.347 149.672 406.899 147.968 406.899 145.952C406.899 144.704 406.707 143.576 406.323 142.568C405.939 141.56 405.435 140.696 404.811 139.976C404.235 139.256 403.539 138.704 402.723 138.32C401.907 137.936 401.067 137.744 400.203 137.744C399.291 137.744 398.427 137.936 397.611 138.32C396.795 138.704 396.075 139.256 395.451 139.976C394.875 140.696 394.395 141.56 394.011 142.568C393.675 143.576 393.507 144.704 393.507 145.952C393.507 147.968 394.035 149.672 395.091 151.064C396.195 152.408 397.899 153.08 400.203 153.08ZM378.315 161C377.595 161 377.091 160.808 376.803 160.424C376.515 160.04 376.371 159.608 376.371 159.128V154.88C376.371 154.352 376.539 153.848 376.875 153.368C377.163 152.888 377.643 152.648 378.315 152.648H381.123C381.651 152.648 382.179 152.576 382.707 152.432C383.235 152.24 383.691 151.904 384.075 151.424C384.507 150.896 384.843 150.2 385.083 149.336C385.323 148.424 385.443 147.272 385.443 145.88C385.443 143.576 385.803 141.464 386.523 139.544C387.291 137.576 388.323 135.896 389.619 134.504C390.963 133.064 392.547 131.936 394.371 131.12C396.195 130.304 398.163 129.896 400.275 129.896C404.931 129.896 408.483 131.384 410.931 134.36C413.427 137.336 414.675 141.512 414.675 146.888C414.675 147.32 414.723 147.872 414.819 148.544C414.963 149.216 415.251 149.864 415.683 150.488C416.115 151.064 416.739 151.568 417.555 152C418.419 152.432 419.571 152.648 421.011 152.648H423.603C424.323 152.648 424.827 152.84 425.115 153.224C425.451 153.608 425.619 154.064 425.619 154.592V158.984C425.619 159.368 425.451 159.8 425.115 160.28C424.779 160.76 424.275 161 423.603 161H420.795C418.779 161 417.003 160.496 415.467 159.488C413.979 158.48 412.875 157.208 412.155 155.672C411.291 157.016 410.379 158.072 409.419 158.84C408.459 159.608 407.475 160.184 406.467 160.568C405.459 160.904 404.403 161.12 403.299 161.216C402.195 161.312 401.067 161.36 399.915 161.36C397.179 161.36 394.899 160.88 393.075 159.92C391.299 158.96 389.835 157.712 388.683 156.176C388.011 157.568 387.051 158.72 385.803 159.632C384.555 160.544 383.139 161 381.555 161H378.315ZM423.245 161C422.429 161 421.901 160.808 421.661 160.424C421.421 160.04 421.301 159.608 421.301 159.128V154.88C421.301 154.352 421.469 153.848 421.805 153.368C422.093 152.888 422.573 152.648 423.245 152.648H430.157C431.213 152.648 431.909 152.312 432.245 151.64C432.629 150.968 432.821 150.056 432.821 148.904V132.344H441.029V146.024C441.029 147.944 441.485 149.528 442.397 150.776C443.309 152.024 444.965 152.648 447.365 152.648H449.885C450.701 152.648 451.229 152.84 451.469 153.224C451.709 153.608 451.829 154.064 451.829 154.592V158.984C451.829 159.368 451.661 159.8 451.325 160.28C451.037 160.76 450.557 161 449.885 161H447.149C445.037 161 443.333 160.496 442.037 159.488C440.789 158.48 439.829 157.376 439.157 156.176C438.341 157.568 437.189 158.72 435.701 159.632C434.261 160.544 432.533 161 430.517 161H423.245ZM427.997 121.112C427.997 119.96 428.405 118.976 429.221 118.16C430.037 117.344 431.069 116.936 432.317 116.936C433.565 116.936 434.597 117.344 435.413 118.16C436.229 118.976 436.637 119.96 436.637 121.112C436.637 122.264 436.229 123.248 435.413 124.064C434.597 124.88 433.565 125.288 432.317 125.288C431.069 125.288 430.037 124.88 429.221 124.064C428.405 123.248 427.997 122.264 427.997 121.112ZM439.229 121.112C439.229 119.96 439.637 118.976 440.453 118.16C441.269 117.344 442.301 116.936 443.549 116.936C444.797 116.936 445.829 117.344 446.645 118.16C447.461 118.976 447.869 119.96 447.869 121.112C447.869 122.264 447.461 123.248 446.645 124.064C445.829 124.88 444.797 125.288 443.549 125.288C442.301 125.288 441.269 124.88 440.453 124.064C439.637 123.248 439.229 122.264 439.229 121.112ZM449.399 161C448.679 161 448.199 160.808 447.959 160.424C447.671 160.04 447.527 159.608 447.527 159.128V154.88C447.527 154.352 447.671 153.848 447.959 153.368C448.247 152.888 448.727 152.648 449.399 152.648H457.896V109.448H466.032V161H449.399ZM477.867 109.448H486.003V161H477.867V109.448ZM564.681 161V147.896C564.681 146.264 564.513 144.968 564.177 144.008C563.889 143 563.409 142.232 562.737 141.704C562.113 141.176 561.297 140.84 560.289 140.696C559.329 140.504 558.201 140.408 556.905 140.408H556.257V155.6C556.257 158.48 555.777 161.168 554.817 163.664C553.857 166.208 552.369 168.416 550.353 170.288C548.337 172.16 545.769 173.648 542.649 174.752C539.529 175.856 535.833 176.408 531.561 176.408C527.673 176.408 524.337 175.832 521.553 174.68C518.769 173.528 516.489 172.04 514.713 170.216C512.937 168.44 511.617 166.424 510.753 164.168C509.937 161.912 509.529 159.656 509.529 157.4C509.529 154.808 509.961 152.408 510.825 150.2C511.737 147.992 512.889 145.88 514.281 143.864L521.049 147.824C519.945 149.456 519.129 151.064 518.601 152.648C518.121 154.184 517.881 155.6 517.881 156.896C517.881 158.48 518.193 159.92 518.816 161.216C519.441 162.56 520.353 163.712 521.553 164.672C522.801 165.632 524.313 166.376 526.089 166.904C527.913 167.48 529.977 167.768 532.281 167.768C534.585 167.768 536.697 167.528 538.617 167.048C540.537 166.616 542.193 165.944 543.585 165.032C545.025 164.168 546.129 163.064 546.897 161.72C547.665 160.424 548.049 158.936 548.049 157.256V132.344H558.057C563.145 132.344 566.889 133.568 569.289 136.016C571.689 138.464 572.889 142.16 572.889 147.104V152.648H577.497C578.169 152.648 578.649 152.84 578.937 153.224C579.273 153.608 579.441 154.064 579.441 154.592V158.984C579.441 159.368 579.273 159.8 578.937 160.28C578.649 160.76 578.169 161 577.497 161H564.681ZM522.273 183.752C522.273 182.6 522.681 181.616 523.497 180.8C524.313 180.032 525.345 179.648 526.593 179.648C527.841 179.648 528.873 180.032 529.689 180.8C530.505 181.616 530.913 182.6 530.913 183.752C530.913 184.952 530.505 185.936 529.689 186.704C528.873 187.52 527.841 187.928 526.593 187.928C525.345 187.928 524.313 187.52 523.497 186.704C522.681 185.936 522.273 184.952 522.273 183.752ZM533.433 183.752C533.433 182.6 533.841 181.616 534.657 180.8C535.473 180.032 536.505 179.648 537.753 179.648C539.001 179.648 540.033 180.032 540.849 180.8C541.665 181.616 542.073 182.6 542.073 183.752C542.073 184.952 541.665 185.936 540.849 186.704C540.033 187.52 539.001 187.928 537.753 187.928C536.505 187.928 535.473 187.52 534.657 186.704C533.841 185.936 533.433 184.952 533.433 183.752ZM613.953 161H577.089C576.369 161 575.865 160.808 575.577 160.424C575.289 160.04 575.145 159.608 575.145 159.128V154.88C575.145 154.352 575.313 153.848 575.649 153.368C575.937 152.888 576.417 152.648 577.089 152.648H586.521C586.137 152.12 585.729 151.256 585.297 150.056C584.865 148.808 584.649 147.224 584.649 145.304C584.649 143.336 585.033 141.416 585.801 139.544C586.569 137.672 587.649 136.016 589.041 134.576C590.433 133.136 592.113 131.984 594.081 131.12C596.049 130.208 598.233 129.752 600.633 129.752C602.697 129.752 604.545 130.088 606.177 130.76C607.809 131.432 609.201 132.392 610.353 133.64C611.505 134.84 612.393 136.304 613.017 138.032C613.641 139.76 613.953 141.68 613.953 143.792V161ZM605.673 152.648V143.432C605.673 142.76 605.553 142.088 605.313 141.416C605.121 140.744 604.785 140.144 604.305 139.616C603.825 139.04 603.201 138.584 602.433 138.248C601.713 137.912 600.849 137.744 599.841 137.744C598.929 137.744 598.041 137.936 597.177 138.32C596.361 138.656 595.617 139.16 594.945 139.832C594.321 140.456 593.793 141.224 593.361 142.136C592.977 143.048 592.785 144.08 592.785 145.232C592.785 146.96 593.121 148.328 593.793 149.336C594.513 150.296 595.281 151.04 596.097 151.568C597.009 152.144 598.113 152.504 599.409 152.648H605.673ZM596.169 121.112C596.169 119.96 596.577 118.976 597.393 118.16C598.257 117.344 599.289 116.936 600.489 116.936C601.737 116.936 602.769 117.344 603.585 118.16C604.449 118.976 604.881 119.96 604.881 121.112C604.881 122.264 604.449 123.248 603.585 124.064C602.769 124.88 601.737 125.288 600.489 125.288C599.289 125.288 598.257 124.88 597.393 124.064C596.577 123.248 596.169 122.264 596.169 121.112Z" fill="#C8B56D"/>
</svg>
