<svg
      width="726"
      height="145"
      viewBox="0 0 726 145"
      fill="none"
      xmlns="http://www.w3.org/2000/svg"
    >
      <path
        d="M-27.5092 67.2719C-26.9991 67.5596 -26.5038 67.862 -26.0233 68.1792C-20.331 71.9633 -16.5312 78.4323 -14.7275 87.424C-14.3209 89.423 -15.3928 91.4515 -17.2705 92.2555L-34.436 99.6097C-36.6316 100.554 -39.1894 99.5359 -40.143 97.3378C-41.0819 95.1397 -40.0617 92.5875 -37.8661 91.6507L-24.079 85.7349C-25.6684 80.4534 -28.2189 76.7874 -31.6786 74.8695C-35.5005 72.7378 -39.8843 73.0697 -42.2795 73.4975L-44.2607 97.8394C-44.3198 98.5401 -44.5564 99.2261 -44.9482 99.831C-32.9427 108.41 -22.5414 105.88 -18.6233 104.382C-18.4237 104.301 -17.995 103.497 -17.8323 103.187C-17.7288 102.995 -17.6401 102.826 -17.5736 102.737L-16.8639 101.646C-16.4204 100.974 -15.9768 100.303 -15.5332 99.6318L-10.7576 92.4252C-4.66619 83.2417 -3.8604 82.0393 2.15714 73.0328L2.45284 72.5903L8.58126 80.0551C0.138963 92.2629 -3.1729 96.8805 -11.4304 109.243C-11.2751 113.617 -9.47135 124.365 3.60607 132.066C4.00527 131.49 4.53754 131.018 5.1659 130.701L26.9 119.496C26.3677 117.121 24.9853 112.976 21.5921 110.283C18.4651 107.82 14.0961 106.868 8.57387 107.443L8.42602 122.27C8.42602 123.332 8.08596 124.379 7.39106 125.191C6.54091 126.172 5.32854 126.725 4.04223 126.71C2.87421 126.696 1.7949 126.231 0.989115 125.405C0.175934 124.586 -0.267625 123.487 -0.252839 122.329L-0.0680257 103.689C-0.045848 101.646 1.42527 99.8826 3.42126 99.4843C12.4328 97.6771 19.8845 98.6803 25.5767 102.464C26.0573 102.782 26.5378 103.128 26.9961 103.49C35.5123 110.224 35.9781 121.303 35.9928 121.776C36.052 123.443 35.1279 125.014 33.642 125.774L12.1519 136.853C12.9429 138.026 13.1129 139.53 12.588 140.843C12.1223 142.038 11.1539 142.946 9.91192 143.366C8.90653 143.698 7.79765 143.617 6.80705 143.226C-13.005 135.355 -18.2685 121.473 -19.6361 113.691C-27.3835 115.439 -42.3017 115.926 -57.2494 100.613C-58.0626 99.7941 -58.4914 98.695 -58.484 97.537C-58.4692 96.3789 -58.0034 95.2946 -57.1681 94.4905C-55.9557 93.3177 -54.1741 92.9636 -52.6069 93.539L-50.67 69.7356C-50.537 68.0759 -49.4355 66.6302 -47.8757 66.0327C-47.4321 65.8631 -37.016 62.0126 -27.4944 67.2719H-27.5092Z"
        stroke="white"
        stroke-miterlimit="10"
      />
      <path
        d="M58.7414 67.272C59.2515 67.5596 59.7468 67.8621 60.2273 68.1792C65.9196 71.9633 69.7194 78.4323 71.5232 87.4241C71.9297 89.423 70.8578 91.4515 68.9801 92.2556L51.8146 99.6097C49.619 100.554 47.0612 99.536 46.1076 97.3378C45.1687 95.1397 46.1889 92.5875 48.3845 91.6507L62.1716 85.7349C60.5822 80.4534 58.0317 76.7874 54.572 74.8696C50.7501 72.7378 46.3663 73.0697 43.9711 73.4976L41.9899 97.8394C41.9308 98.5402 41.6942 99.2262 41.3024 99.831C53.3079 108.41 63.7092 105.88 67.6273 104.382C67.8269 104.301 68.2557 103.497 68.4183 103.187C68.5218 102.995 68.6105 102.826 68.677 102.737L69.3867 101.646C69.8303 100.974 70.2738 100.303 70.7174 99.6319L75.4929 92.4252C81.5844 83.2417 82.3902 82.0394 88.4077 73.0329L88.7035 72.5903L94.8319 80.0551C86.3896 92.2629 83.0777 96.8805 74.8202 109.243C74.9755 113.617 76.7793 124.365 89.8567 132.066C90.2559 131.49 90.7881 131.018 91.4165 130.701L113.151 119.496C112.618 117.121 111.236 112.976 107.843 110.283C104.716 107.82 100.347 106.868 94.8245 107.443L94.6766 122.27C94.6766 123.332 94.3366 124.379 93.6417 125.191C92.7915 126.172 91.5792 126.725 90.2929 126.71C89.1248 126.696 88.0455 126.231 87.2397 125.405C86.4265 124.586 85.983 123.487 85.9978 122.329L86.1826 103.689C86.2048 101.646 87.6759 99.8827 89.6719 99.4843C98.6834 97.6771 106.135 98.6803 111.827 102.464C112.308 102.782 112.788 103.128 113.247 103.49C121.763 110.224 122.229 121.303 122.243 121.776C122.303 123.443 121.379 125.014 119.893 125.774L98.4025 136.853C99.1935 138.026 99.3635 139.53 98.8386 140.843C98.3729 142.038 97.4045 142.946 96.1625 143.366C95.1572 143.698 94.0483 143.617 93.0577 143.226C73.2456 135.355 67.9821 121.473 66.6145 113.691C58.8671 115.439 43.9489 115.926 29.0012 100.613C28.188 99.7941 27.7592 98.6951 27.7666 97.537C27.7814 96.3789 28.2471 95.2946 29.0825 94.4906C30.2949 93.3177 32.0765 92.9637 33.6437 93.539L35.5806 69.7357C35.7136 68.076 36.8151 66.6302 38.375 66.0327C38.8185 65.8631 49.2346 62.0127 58.7562 67.272H58.7414Z"
        stroke="white"
        stroke-miterlimit="10"
      />
      <path
        d="M144.992 67.272C145.502 67.5596 145.997 67.8621 146.478 68.1792C152.17 71.9633 155.97 78.4323 157.774 87.4241C158.18 89.423 157.108 91.4515 155.231 92.2556L138.065 99.6097C135.87 100.554 133.312 99.536 132.358 97.3378C131.419 95.1397 132.439 92.5875 134.635 91.6507L148.422 85.7349C146.833 80.4534 144.282 76.7874 140.823 74.8696C137.001 72.7378 132.617 73.0697 130.222 73.4976L128.24 97.8394C128.181 98.5402 127.945 99.2262 127.553 99.831C139.558 108.41 149.96 105.88 153.878 104.382C154.077 104.301 154.506 103.497 154.669 103.187C154.772 102.995 154.861 102.826 154.928 102.737L155.637 101.646C156.081 100.974 156.524 100.303 156.968 99.6319L161.743 92.4252C167.835 83.2417 168.641 82.0394 174.658 73.0329L174.954 72.5903L181.082 80.0551C172.64 92.2629 169.328 96.8805 161.071 109.243C161.226 113.617 163.03 124.365 176.107 132.066C176.506 131.49 177.039 131.018 177.667 130.701L199.401 119.496C198.869 117.121 197.486 112.976 194.093 110.283C190.966 107.82 186.597 106.868 181.075 107.443L180.927 122.27C180.927 123.332 180.587 124.379 179.892 125.191C179.042 126.172 177.83 126.725 176.543 126.71C175.375 126.696 174.296 126.231 173.49 125.405C172.677 124.586 172.233 123.487 172.248 122.329L172.433 103.689C172.455 101.646 173.926 99.8827 175.922 99.4843C184.934 97.6771 192.386 98.6803 198.078 102.464C198.558 102.782 199.039 103.128 199.497 103.49C208.013 110.224 208.479 121.303 208.494 121.776C208.553 123.443 207.629 125.014 206.143 125.774L184.653 136.853C185.444 138.026 185.614 139.53 185.089 140.843C184.623 142.038 183.655 142.946 182.413 143.366C181.408 143.698 180.299 143.617 179.308 143.226C159.496 135.355 154.233 121.473 152.865 113.691C145.118 115.439 130.199 115.926 115.252 100.613C114.439 99.7941 114.01 98.6951 114.017 97.537C114.032 96.3789 114.498 95.2946 115.333 94.4906C116.545 93.3177 118.327 92.9637 119.894 93.539L121.831 69.7357C121.964 68.076 123.066 66.6302 124.625 66.0327C125.069 65.8631 135.485 62.0127 145.007 67.272H144.992Z"
        stroke="white"
        stroke-miterlimit="10"
      />
      <path
        d="M231.242 67.272C231.753 67.5596 232.248 67.8621 232.728 68.1792C238.421 71.9633 242.22 78.4323 244.024 87.4241C244.431 89.423 243.359 91.4515 241.481 92.2556L224.316 99.6097C222.12 100.554 219.562 99.536 218.609 97.3378C217.67 95.1397 218.69 92.5875 220.886 91.6507L234.673 85.7349C233.083 80.4534 230.533 76.7874 227.073 74.8696C223.251 72.7378 218.867 73.0697 216.472 73.4976L214.491 97.8394C214.432 98.5402 214.195 99.2262 213.803 99.831C225.809 108.41 236.21 105.88 240.128 104.382C240.328 104.301 240.757 103.497 240.919 103.187C241.023 102.995 241.112 102.826 241.178 102.737L241.888 101.646C242.331 100.974 242.775 100.303 243.218 99.6319L247.994 92.4252C254.085 83.2417 254.891 82.0394 260.909 73.0329L261.205 72.5903L267.333 80.0551C258.891 92.2629 255.579 96.8805 247.321 109.243C247.477 113.617 249.28 124.365 262.358 132.066C262.757 131.49 263.289 131.018 263.918 130.701L285.652 119.496C285.119 117.121 283.737 112.976 280.344 110.283C277.217 107.82 272.848 106.868 267.326 107.443L267.178 122.27C267.178 123.332 266.838 124.379 266.143 125.191C265.293 126.172 264.08 126.725 262.794 126.71C261.626 126.696 260.547 126.231 259.741 125.405C258.928 124.586 258.484 123.487 258.499 122.329L258.684 103.689C258.706 101.646 260.177 99.8827 262.173 99.4843C271.184 97.6771 278.636 98.6803 284.328 102.464C284.809 102.782 285.289 103.128 285.748 103.49C294.264 110.224 294.73 121.303 294.745 121.776C294.804 123.443 293.88 125.014 292.394 125.774L270.904 136.853C271.695 138.026 271.865 139.53 271.34 140.843C270.874 142.038 269.906 142.946 268.664 143.366C267.658 143.698 266.549 143.617 265.559 143.226C245.747 135.355 240.483 121.473 239.116 113.691C231.368 115.439 216.45 115.926 201.502 100.613C200.689 99.7941 200.26 98.6951 200.268 97.537C200.282 96.3789 200.748 95.2946 201.584 94.4906C202.796 93.3177 204.578 92.9637 206.145 93.539L208.082 69.7357C208.215 68.076 209.316 66.6302 210.876 66.0327C211.32 65.8631 221.736 62.0127 231.257 67.272H231.242Z"
        stroke="white"
        stroke-miterlimit="10"
      />
      <path
        d="M317.493 67.272C318.003 67.5596 318.498 67.8621 318.979 68.1792C324.671 71.9633 328.471 78.4323 330.275 87.4241C330.681 89.423 329.609 91.4515 327.732 92.2556L310.566 99.6097C308.371 100.554 305.813 99.536 304.859 97.3378C303.92 95.1397 304.94 92.5875 307.136 91.6507L320.923 85.7349C319.334 80.4534 316.783 76.7874 313.324 74.8696C309.502 72.7378 305.118 73.0697 302.723 73.4976L300.742 97.8394C300.682 98.5402 300.446 99.2262 300.054 99.831C312.06 108.41 322.461 105.88 326.379 104.382C326.579 104.301 327.007 103.497 327.17 103.187C327.273 102.995 327.362 102.826 327.429 102.737L328.138 101.646C328.582 100.974 329.025 100.303 329.469 99.6319L334.245 92.4252C340.336 83.2417 341.142 82.0394 347.159 73.0329L347.455 72.5903L353.583 80.0551C345.141 92.2629 341.829 96.8805 333.572 109.243C333.727 113.617 335.531 124.365 348.608 132.066C349.008 131.49 349.54 131.018 350.168 130.701L371.902 119.496C371.37 117.121 369.988 112.976 366.594 110.283C363.467 107.82 359.098 106.868 353.576 107.443L353.428 122.27C353.428 123.332 353.088 124.379 352.393 125.191C351.543 126.172 350.331 126.725 349.044 126.71C347.876 126.696 346.797 126.231 345.991 125.405C345.178 124.586 344.735 123.487 344.749 122.329L344.934 103.689C344.956 101.646 346.428 99.8827 348.424 99.4843C357.435 97.6771 364.887 98.6803 370.579 102.464C371.059 102.782 371.54 103.128 371.998 103.49C380.515 110.224 380.98 121.303 380.995 121.776C381.054 123.443 380.13 125.014 378.644 125.774L357.154 136.853C357.945 138.026 358.115 139.53 357.59 140.843C357.125 142.038 356.156 142.946 354.914 143.366C353.909 143.698 352.8 143.617 351.809 143.226C331.997 135.355 326.734 121.473 325.366 113.691C317.619 115.439 302.701 115.926 287.753 100.613C286.94 99.7941 286.511 98.6951 286.518 97.537C286.533 96.3789 286.999 95.2946 287.834 94.4906C289.047 93.3177 290.828 92.9637 292.395 93.539L294.332 69.7357C294.465 68.076 295.567 66.6302 297.127 66.0327C297.57 65.8631 307.986 62.0127 317.508 67.272H317.493Z"
        stroke="white"
        stroke-miterlimit="10"
      />
      <path
        d="M403.744 67.272C404.254 67.5596 404.749 67.8621 405.23 68.1792C410.922 71.9633 414.722 78.4323 416.525 87.4241C416.932 89.423 415.86 91.4515 413.982 92.2556L396.817 99.6097C394.621 100.554 392.063 99.536 391.11 97.3378C390.171 95.1397 391.191 92.5875 393.387 91.6507L407.174 85.7349C405.584 80.4534 403.034 76.7874 399.574 74.8696C395.752 72.7378 391.369 73.0697 388.973 73.4976L386.992 97.8394C386.933 98.5402 386.696 99.2262 386.305 99.831C398.31 108.41 408.711 105.88 412.63 104.382C412.829 104.301 413.258 103.497 413.421 103.187C413.524 102.995 413.613 102.826 413.679 102.737L414.389 101.646C414.832 100.974 415.276 100.303 415.72 99.6319L420.495 92.4252C426.587 83.2417 427.392 82.0394 433.41 73.0329L433.706 72.5903L439.834 80.0551C431.392 92.2629 428.08 96.8805 419.822 109.243C419.978 113.617 421.781 124.365 434.859 132.066C435.258 131.49 435.79 131.018 436.419 130.701L458.153 119.496C457.621 117.121 456.238 112.976 452.845 110.283C449.718 107.82 445.349 106.868 439.827 107.443L439.679 122.27C439.679 123.332 439.339 124.379 438.644 125.191C437.794 126.172 436.581 126.725 435.295 126.71C434.127 126.696 433.048 126.231 432.242 125.405C431.429 124.586 430.985 123.487 431 122.329L431.185 103.689C431.207 101.646 432.678 99.8827 434.674 99.4843C443.686 97.6771 451.137 98.6803 456.83 102.464C457.31 102.782 457.791 103.128 458.249 103.49C466.765 110.224 467.231 121.303 467.246 121.776C467.305 123.443 466.381 125.014 464.895 125.774L443.405 136.853C444.196 138.026 444.366 139.53 443.841 140.843C443.375 142.038 442.407 142.946 441.165 143.366C440.159 143.698 439.05 143.617 438.06 143.226C418.248 135.355 412.984 121.473 411.617 113.691C403.869 115.439 388.951 115.926 374.003 100.613C373.19 99.7941 372.761 98.6951 372.769 97.537C372.784 96.3789 373.249 95.2946 374.085 94.4906C375.297 93.3177 377.079 92.9637 378.646 93.539L380.583 69.7357C380.716 68.076 381.817 66.6302 383.377 66.0327C383.821 65.8631 394.237 62.0127 403.758 67.272H403.744Z"
        stroke="white"
        stroke-miterlimit="10"
      />
      <path
        d="M489.994 67.272C490.504 67.5596 491 67.8621 491.48 68.1792C497.172 71.9633 500.972 78.4323 502.776 87.4241C503.183 89.423 502.111 91.4515 500.233 92.2556L483.067 99.6097C480.872 100.554 478.314 99.536 477.36 97.3378C476.422 95.1397 477.442 92.5875 479.637 91.6507L493.424 85.7349C491.835 80.4534 489.285 76.7874 485.825 74.8696C482.003 72.7378 477.619 73.0697 475.224 73.4976L473.243 97.8394C473.184 98.5402 472.947 99.2262 472.555 99.831C484.561 108.41 494.962 105.88 498.88 104.382C499.08 104.301 499.509 103.497 499.671 103.187C499.775 102.995 499.863 102.826 499.93 102.737L500.64 101.646C501.083 100.974 501.527 100.303 501.97 99.6319L506.746 92.4252C512.837 83.2417 513.643 82.0394 519.661 73.0329L519.956 72.5903L526.085 80.0551C517.642 92.2629 514.331 96.8805 506.073 109.243C506.228 113.617 508.032 124.365 521.11 132.066C521.509 131.49 522.041 131.018 522.669 130.701L544.403 119.496C543.871 117.121 542.489 112.976 539.096 110.283C535.969 107.82 531.6 106.868 526.077 107.443L525.93 122.27C525.93 123.332 525.589 124.379 524.895 125.191C524.044 126.172 522.832 126.725 521.546 126.71C520.378 126.696 519.298 126.231 518.493 125.405C517.679 124.586 517.236 123.487 517.251 122.329L517.435 103.689C517.458 101.646 518.929 99.8827 520.925 99.4843C529.936 97.6771 537.388 98.6803 543.08 102.464C543.561 102.782 544.041 103.128 544.5 103.49C553.016 110.224 553.482 121.303 553.496 121.776C553.555 123.443 552.631 125.014 551.145 125.774L529.655 136.853C530.446 138.026 530.616 139.53 530.092 140.843C529.626 142.038 528.657 142.946 527.415 143.366C526.41 143.698 525.301 143.617 524.311 143.226C504.498 135.355 499.235 121.473 497.867 113.691C490.12 115.439 475.202 115.926 460.254 100.613C459.441 99.7941 459.012 98.6951 459.02 97.537C459.034 96.3789 459.5 95.2946 460.335 94.4906C461.548 93.3177 463.329 92.9637 464.897 93.539L466.833 69.7357C466.967 68.076 468.068 66.6302 469.628 66.0327C470.071 65.8631 480.487 62.0127 490.009 67.272H489.994Z"
        stroke="white"
        stroke-miterlimit="10"
      />
      <path
        d="M576.245 67.272C576.755 67.5596 577.25 67.8621 577.731 68.1792C583.423 71.9633 587.223 78.4323 589.027 87.4241C589.433 89.423 588.361 91.4515 586.483 92.2556L569.318 99.6097C567.122 100.554 564.565 99.536 563.611 97.3378C562.672 95.1397 563.692 92.5875 565.888 91.6507L579.675 85.7349C578.086 80.4534 575.535 76.7874 572.075 74.8696C568.253 72.7378 563.87 73.0697 561.474 73.4976L559.493 97.8394C559.434 98.5402 559.198 99.2262 558.806 99.831C570.811 108.41 581.213 105.88 585.131 104.382C585.33 104.301 585.759 103.497 585.922 103.187C586.025 102.995 586.114 102.826 586.18 102.737L586.89 101.646C587.334 100.974 587.777 100.303 588.221 99.6319L592.996 92.4252C599.088 83.2417 599.894 82.0394 605.911 73.0329L606.207 72.5903L612.335 80.0551C603.893 92.2629 600.581 96.8805 592.324 109.243C592.479 113.617 594.283 124.365 607.36 132.066C607.759 131.49 608.292 131.018 608.92 130.701L630.654 119.496C630.122 117.121 628.739 112.976 625.346 110.283C622.219 107.82 617.85 106.868 612.328 107.443L612.18 122.27C612.18 123.332 611.84 124.379 611.145 125.191C610.295 126.172 609.083 126.725 607.796 126.71C606.628 126.696 605.549 126.231 604.743 125.405C603.93 124.586 603.486 123.487 603.501 122.329L603.686 103.689C603.708 101.646 605.179 99.8827 607.175 99.4843C616.187 97.6771 623.638 98.6803 629.331 102.464C629.811 102.782 630.292 103.128 630.75 103.49C639.266 110.224 639.732 121.303 639.747 121.776C639.806 123.443 638.882 125.014 637.396 125.774L615.906 136.853C616.697 138.026 616.867 139.53 616.342 140.843C615.876 142.038 614.908 142.946 613.666 143.366C612.66 143.698 611.552 143.617 610.561 143.226C590.749 135.355 585.485 121.473 584.118 113.691C576.37 115.439 561.452 115.926 546.505 100.613C545.691 99.7941 545.263 98.6951 545.27 97.537C545.285 96.3789 545.75 95.2946 546.586 94.4906C547.798 93.3177 549.58 92.9637 551.147 93.539L553.084 69.7357C553.217 68.076 554.318 66.6302 555.878 66.0327C556.322 65.8631 566.738 62.0127 576.26 67.272H576.245Z"
        stroke="white"
        stroke-miterlimit="10"
      />
      <path
        d="M662.495 67.272C663.005 67.5596 663.501 67.8621 663.981 68.1792C669.674 71.9633 673.473 78.4323 675.277 87.4241C675.684 89.423 674.612 91.4515 672.734 92.2556L655.569 99.6097C653.373 100.554 650.815 99.536 649.861 97.3378C648.923 95.1397 649.943 92.5875 652.138 91.6507L665.926 85.7349C664.336 80.4534 661.786 76.7874 658.326 74.8696C654.504 72.7378 650.12 73.0697 647.725 73.4976L645.744 97.8394C645.685 98.5402 645.448 99.2262 645.056 99.831C657.062 108.41 667.463 105.88 671.381 104.382C671.581 104.301 672.01 103.497 672.172 103.187C672.276 102.995 672.364 102.826 672.431 102.737L673.141 101.646C673.584 100.974 674.028 100.303 674.471 99.6319L679.247 92.4252C685.338 83.2417 686.144 82.0394 692.162 73.0329L692.457 72.5903L698.586 80.0551C690.143 92.2629 686.832 96.8805 678.574 109.243C678.729 113.617 680.533 124.365 693.611 132.066C694.01 131.49 694.542 131.018 695.17 130.701L716.905 119.496C716.372 117.121 714.99 112.976 711.597 110.283C708.47 107.82 704.101 106.868 698.578 107.443L698.431 122.27C698.431 123.332 698.09 124.379 697.396 125.191C696.545 126.172 695.333 126.725 694.047 126.71C692.879 126.696 691.799 126.231 690.994 125.405C690.18 124.586 689.737 123.487 689.752 122.329L689.937 103.689C689.959 101.646 691.43 99.8827 693.426 99.4843C702.437 97.6771 709.889 98.6803 715.581 102.464C716.062 102.782 716.542 103.128 717.001 103.49C725.517 110.224 725.983 121.303 725.997 121.776C726.056 123.443 725.132 125.014 723.647 125.774L702.156 136.853C702.947 138.026 703.117 139.53 702.593 140.843C702.127 142.038 701.158 142.946 699.916 143.366C698.911 143.698 697.802 143.617 696.812 143.226C676.999 135.355 671.736 121.473 670.368 113.691C662.621 115.439 647.703 115.926 632.755 100.613C631.942 99.7941 631.513 98.6951 631.521 97.537C631.535 96.3789 632.001 95.2946 632.836 94.4906C634.049 93.3177 635.83 92.9637 637.398 93.539L639.334 69.7357C639.467 68.076 640.569 66.6302 642.129 66.0327C642.572 65.8631 652.989 62.0127 662.51 67.272H662.495Z"
        stroke="white"
        stroke-miterlimit="10"
      />
      <path
        d="M-27.5092 3.75711C-26.9991 4.04478 -26.5038 4.34721 -26.0233 4.66439C-20.331 8.44844 -16.5312 14.9175 -14.7275 23.9092C-14.3209 25.9082 -15.3928 27.9367 -17.2705 28.7407L-34.436 36.0949C-36.6316 37.039 -39.1894 36.0211 -40.143 33.823C-41.0819 31.6248 -40.0617 29.0726 -37.8661 28.1358L-24.079 22.22C-25.6684 16.9386 -28.2189 13.2725 -31.6786 11.3547C-35.5005 9.22295 -39.8843 9.55488 -42.2795 9.98271L-44.2607 34.3246C-44.3198 35.0253 -44.5564 35.7113 -44.9482 36.3162C-32.9427 44.8948 -22.5414 42.3647 -18.6233 40.8674C-18.4237 40.7862 -17.995 39.9822 -17.8323 39.6724C-17.7288 39.4806 -17.6401 39.3109 -17.5736 39.2224L-16.8639 38.1307C-16.4204 37.4595 -15.9768 36.7883 -15.5332 36.117L-10.7576 28.9103C-4.66619 19.7268 -3.8604 18.5245 2.15714 9.51801L2.45284 9.07543L8.58126 16.5403C0.138963 28.7481 -3.1729 33.3656 -11.4304 45.7283C-11.2751 50.1025 -9.47135 60.8498 3.60607 68.5507C4.00527 67.9753 4.53754 67.5032 5.1659 67.1861L26.9 55.9814C26.3677 53.6063 24.9853 49.4608 21.5921 46.7684C18.4651 44.3047 14.0961 43.3532 8.57387 43.9285L8.42602 58.7549C8.42602 59.8171 8.08596 60.8646 7.39106 61.6759C6.54091 62.657 5.32854 63.2102 4.04223 63.1955C2.87421 63.1807 1.7949 62.716 0.989115 61.8899C0.175934 61.0711 -0.267625 59.972 -0.252839 58.8139L-0.0680257 40.174C-0.045848 38.1307 1.42527 36.3678 3.42126 35.9695C12.4328 34.1623 19.8845 35.1655 25.5767 38.9495C26.0573 39.2667 26.5378 39.6134 26.9961 39.9748C35.5123 46.7094 35.9781 57.7886 35.9928 58.2607C36.052 59.9278 35.1279 61.4989 33.642 62.2587L12.1519 73.3379C12.9429 74.5107 13.1129 76.0155 12.588 77.3285C12.1223 78.5235 11.1539 79.4307 9.91192 79.8512C8.90653 80.1831 7.79765 80.102 6.80705 79.711C-13.005 71.8405 -18.2685 57.9583 -19.6361 50.1763C-27.3835 51.9245 -42.3017 52.4113 -57.2494 37.0981C-58.0626 36.2793 -58.4914 35.1802 -58.484 34.0221C-58.4692 32.8641 -58.0034 31.7797 -57.1681 30.9757C-55.9557 29.8029 -54.1741 29.4488 -52.6069 30.0242L-50.67 6.2208C-50.537 4.56112 -49.4355 3.11536 -47.8757 2.51788C-47.4321 2.34823 -37.016 -1.50221 -27.4944 3.75711H-27.5092Z"
        stroke="white"
        stroke-miterlimit="10"
      />
      <path
        d="M58.7414 3.75711C59.2515 4.04478 59.7468 4.34721 60.2273 4.66439C65.9196 8.44844 69.7194 14.9175 71.5232 23.9092C71.9297 25.9082 70.8578 27.9367 68.9801 28.7407L51.8146 36.0949C49.619 37.039 47.0612 36.0211 46.1076 33.823C45.1687 31.6248 46.1889 29.0726 48.3845 28.1358L62.1716 22.22C60.5822 16.9386 58.0317 13.2725 54.572 11.3547C50.7501 9.22295 46.3663 9.55488 43.9711 9.98271L41.9899 34.3246C41.9308 35.0253 41.6942 35.7113 41.3024 36.3162C53.3079 44.8948 63.7092 42.3647 67.6273 40.8674C67.8269 40.7862 68.2557 39.9822 68.4183 39.6724C68.5218 39.4806 68.6105 39.3109 68.677 39.2224L69.3867 38.1307C69.8303 37.4595 70.2738 36.7883 70.7174 36.117L75.4929 28.9103C81.5844 19.7268 82.3902 18.5245 88.4077 9.51801L88.7035 9.07543L94.8319 16.5403C86.3896 28.7481 83.0777 33.3656 74.8202 45.7283C74.9755 50.1025 76.7793 60.8498 89.8567 68.5507C90.2559 67.9753 90.7881 67.5032 91.4165 67.1861L113.151 55.9814C112.618 53.6063 111.236 49.4608 107.843 46.7684C104.716 44.3047 100.347 43.3532 94.8245 43.9285L94.6766 58.7549C94.6766 59.8171 94.3366 60.8646 93.6417 61.6759C92.7915 62.657 91.5792 63.2102 90.2929 63.1955C89.1248 63.1807 88.0455 62.716 87.2397 61.8899C86.4265 61.0711 85.983 59.972 85.9978 58.8139L86.1826 40.174C86.2048 38.1307 87.6759 36.3678 89.6719 35.9695C98.6834 34.1623 106.135 35.1655 111.827 38.9495C112.308 39.2667 112.788 39.6134 113.247 39.9748C121.763 46.7094 122.229 57.7886 122.243 58.2607C122.303 59.9278 121.379 61.4989 119.893 62.2587L98.4025 73.3379C99.1935 74.5107 99.3635 76.0155 98.8386 77.3285C98.3729 78.5235 97.4045 79.4307 96.1625 79.8512C95.1572 80.1831 94.0483 80.102 93.0577 79.711C73.2456 71.8405 67.9821 57.9583 66.6145 50.1763C58.8671 51.9245 43.9489 52.4113 29.0012 37.0981C28.188 36.2793 27.7592 35.1802 27.7666 34.0221C27.7814 32.8641 28.2471 31.7797 29.0825 30.9757C30.2949 29.8029 32.0765 29.4488 33.6437 30.0242L35.5806 6.2208C35.7136 4.56112 36.8151 3.11536 38.375 2.51788C38.8185 2.34823 49.2346 -1.50221 58.7562 3.75711H58.7414Z"
        stroke="white"
        stroke-miterlimit="10"
      />
      <path
        d="M144.992 3.75711C145.502 4.04478 145.997 4.34721 146.478 4.66439C152.17 8.44844 155.97 14.9175 157.774 23.9092C158.18 25.9082 157.108 27.9367 155.231 28.7407L138.065 36.0949C135.87 37.039 133.312 36.0211 132.358 33.823C131.419 31.6248 132.439 29.0726 134.635 28.1358L148.422 22.22C146.833 16.9386 144.282 13.2725 140.823 11.3547C137.001 9.22295 132.617 9.55488 130.222 9.98271L128.24 34.3246C128.181 35.0253 127.945 35.7113 127.553 36.3162C139.558 44.8948 149.96 42.3647 153.878 40.8674C154.077 40.7862 154.506 39.9822 154.669 39.6724C154.772 39.4806 154.861 39.3109 154.928 39.2224L155.637 38.1307C156.081 37.4595 156.524 36.7883 156.968 36.117L161.743 28.9103C167.835 19.7268 168.641 18.5245 174.658 9.51801L174.954 9.07543L181.082 16.5403C172.64 28.7481 169.328 33.3656 161.071 45.7283C161.226 50.1025 163.03 60.8498 176.107 68.5507C176.506 67.9753 177.039 67.5032 177.667 67.1861L199.401 55.9814C198.869 53.6063 197.486 49.4608 194.093 46.7684C190.966 44.3047 186.597 43.3532 181.075 43.9285L180.927 58.7549C180.927 59.8171 180.587 60.8646 179.892 61.6759C179.042 62.657 177.83 63.2102 176.543 63.1955C175.375 63.1807 174.296 62.716 173.49 61.8899C172.677 61.0711 172.233 59.972 172.248 58.8139L172.433 40.174C172.455 38.1307 173.926 36.3678 175.922 35.9695C184.934 34.1623 192.386 35.1655 198.078 38.9495C198.558 39.2667 199.039 39.6134 199.497 39.9748C208.013 46.7094 208.479 57.7886 208.494 58.2607C208.553 59.9278 207.629 61.4989 206.143 62.2587L184.653 73.3379C185.444 74.5107 185.614 76.0155 185.089 77.3285C184.623 78.5235 183.655 79.4307 182.413 79.8512C181.408 80.1831 180.299 80.102 179.308 79.711C159.496 71.8405 154.233 57.9583 152.865 50.1763C145.118 51.9245 130.199 52.4113 115.252 37.0981C114.439 36.2793 114.01 35.1802 114.017 34.0221C114.032 32.8641 114.498 31.7797 115.333 30.9757C116.545 29.8029 118.327 29.4488 119.894 30.0242L121.831 6.2208C121.964 4.56112 123.066 3.11536 124.625 2.51788C125.069 2.34823 135.485 -1.50221 145.007 3.75711H144.992Z"
        stroke="white"
        stroke-miterlimit="10"
      />
      <path
        d="M231.242 3.75711C231.753 4.04478 232.248 4.34721 232.728 4.66439C238.421 8.44844 242.22 14.9175 244.024 23.9092C244.431 25.9082 243.359 27.9367 241.481 28.7407L224.316 36.0949C222.12 37.039 219.562 36.0211 218.609 33.823C217.67 31.6248 218.69 29.0726 220.886 28.1358L234.673 22.22C233.083 16.9386 230.533 13.2725 227.073 11.3547C223.251 9.22295 218.867 9.55488 216.472 9.98271L214.491 34.3246C214.432 35.0253 214.195 35.7113 213.803 36.3162C225.809 44.8948 236.21 42.3647 240.128 40.8674C240.328 40.7862 240.757 39.9822 240.919 39.6724C241.023 39.4806 241.112 39.3109 241.178 39.2224L241.888 38.1307C242.331 37.4595 242.775 36.7883 243.218 36.117L247.994 28.9103C254.085 19.7268 254.891 18.5245 260.909 9.51801L261.205 9.07543L267.333 16.5403C258.891 28.7481 255.579 33.3656 247.321 45.7283C247.477 50.1025 249.28 60.8498 262.358 68.5507C262.757 67.9753 263.289 67.5032 263.918 67.1861L285.652 55.9814C285.119 53.6063 283.737 49.4608 280.344 46.7684C277.217 44.3047 272.848 43.3532 267.326 43.9285L267.178 58.7549C267.178 59.8171 266.838 60.8646 266.143 61.6759C265.293 62.657 264.08 63.2102 262.794 63.1955C261.626 63.1807 260.547 62.716 259.741 61.8899C258.928 61.0711 258.484 59.972 258.499 58.8139L258.684 40.174C258.706 38.1307 260.177 36.3678 262.173 35.9695C271.184 34.1623 278.636 35.1655 284.328 38.9495C284.809 39.2667 285.289 39.6134 285.748 39.9748C294.264 46.7094 294.73 57.7886 294.745 58.2607C294.804 59.9278 293.88 61.4989 292.394 62.2587L270.904 73.3379C271.695 74.5107 271.865 76.0155 271.34 77.3285C270.874 78.5235 269.906 79.4307 268.664 79.8512C267.658 80.1831 266.549 80.102 265.559 79.711C245.747 71.8405 240.483 57.9583 239.116 50.1763C231.368 51.9245 216.45 52.4113 201.502 37.0981C200.689 36.2793 200.26 35.1802 200.268 34.0221C200.282 32.8641 200.748 31.7797 201.584 30.9757C202.796 29.8029 204.578 29.4488 206.145 30.0242L208.082 6.2208C208.215 4.56112 209.316 3.11536 210.876 2.51788C211.32 2.34823 221.736 -1.50221 231.257 3.75711H231.242Z"
        stroke="white"
        stroke-miterlimit="10"
      />
      <path
        d="M317.493 3.75711C318.003 4.04478 318.498 4.34721 318.979 4.66439C324.671 8.44844 328.471 14.9175 330.275 23.9092C330.681 25.9082 329.609 27.9367 327.732 28.7407L310.566 36.0949C308.371 37.039 305.813 36.0211 304.859 33.823C303.92 31.6248 304.94 29.0726 307.136 28.1358L320.923 22.22C319.334 16.9386 316.783 13.2725 313.324 11.3547C309.502 9.22295 305.118 9.55488 302.723 9.98271L300.742 34.3246C300.682 35.0253 300.446 35.7113 300.054 36.3162C312.06 44.8948 322.461 42.3647 326.379 40.8674C326.579 40.7862 327.007 39.9822 327.17 39.6724C327.273 39.4806 327.362 39.3109 327.429 39.2224L328.138 38.1307C328.582 37.4595 329.025 36.7883 329.469 36.117L334.245 28.9103C340.336 19.7268 341.142 18.5245 347.159 9.51801L347.455 9.07543L353.583 16.5403C345.141 28.7481 341.829 33.3656 333.572 45.7283C333.727 50.1025 335.531 60.8498 348.608 68.5507C349.008 67.9753 349.54 67.5032 350.168 67.1861L371.902 55.9814C371.37 53.6063 369.988 49.4608 366.594 46.7684C363.467 44.3047 359.098 43.3532 353.576 43.9285L353.428 58.7549C353.428 59.8171 353.088 60.8646 352.393 61.6759C351.543 62.657 350.331 63.2102 349.044 63.1955C347.876 63.1807 346.797 62.716 345.991 61.8899C345.178 61.0711 344.735 59.972 344.749 58.8139L344.934 40.174C344.956 38.1307 346.428 36.3678 348.424 35.9695C357.435 34.1623 364.887 35.1655 370.579 38.9495C371.059 39.2667 371.54 39.6134 371.998 39.9748C380.515 46.7094 380.98 57.7886 380.995 58.2607C381.054 59.9278 380.13 61.4989 378.644 62.2587L357.154 73.3379C357.945 74.5107 358.115 76.0155 357.59 77.3285C357.125 78.5235 356.156 79.4307 354.914 79.8512C353.909 80.1831 352.8 80.102 351.809 79.711C331.997 71.8405 326.734 57.9583 325.366 50.1763C317.619 51.9245 302.701 52.4113 287.753 37.0981C286.94 36.2793 286.511 35.1802 286.518 34.0221C286.533 32.8641 286.999 31.7797 287.834 30.9757C289.047 29.8029 290.828 29.4488 292.395 30.0242L294.332 6.2208C294.465 4.56112 295.567 3.11536 297.127 2.51788C297.57 2.34823 307.986 -1.50221 317.508 3.75711H317.493Z"
        stroke="white"
        stroke-miterlimit="10"
      />
      <path
        d="M403.744 3.75711C404.254 4.04478 404.749 4.34721 405.23 4.66439C410.922 8.44844 414.722 14.9175 416.525 23.9092C416.932 25.9082 415.86 27.9367 413.982 28.7407L396.817 36.0949C394.621 37.039 392.063 36.0211 391.11 33.823C390.171 31.6248 391.191 29.0726 393.387 28.1358L407.174 22.22C405.584 16.9386 403.034 13.2725 399.574 11.3547C395.752 9.22295 391.369 9.55488 388.973 9.98271L386.992 34.3246C386.933 35.0253 386.696 35.7113 386.305 36.3162C398.31 44.8948 408.711 42.3647 412.63 40.8674C412.829 40.7862 413.258 39.9822 413.421 39.6724C413.524 39.4806 413.613 39.3109 413.679 39.2224L414.389 38.1307C414.832 37.4595 415.276 36.7883 415.72 36.117L420.495 28.9103C426.587 19.7268 427.392 18.5245 433.41 9.51801L433.706 9.07543L439.834 16.5403C431.392 28.7481 428.08 33.3656 419.822 45.7283C419.978 50.1025 421.781 60.8498 434.859 68.5507C435.258 67.9753 435.79 67.5032 436.419 67.1861L458.153 55.9814C457.621 53.6063 456.238 49.4608 452.845 46.7684C449.718 44.3047 445.349 43.3532 439.827 43.9285L439.679 58.7549C439.679 59.8171 439.339 60.8646 438.644 61.6759C437.794 62.657 436.581 63.2102 435.295 63.1955C434.127 63.1807 433.048 62.716 432.242 61.8899C431.429 61.0711 430.985 59.972 431 58.8139L431.185 40.174C431.207 38.1307 432.678 36.3678 434.674 35.9695C443.686 34.1623 451.137 35.1655 456.83 38.9495C457.31 39.2667 457.791 39.6134 458.249 39.9748C466.765 46.7094 467.231 57.7886 467.246 58.2607C467.305 59.9278 466.381 61.4989 464.895 62.2587L443.405 73.3379C444.196 74.5107 444.366 76.0155 443.841 77.3285C443.375 78.5235 442.407 79.4307 441.165 79.8512C440.159 80.1831 439.05 80.102 438.06 79.711C418.248 71.8405 412.984 57.9583 411.617 50.1763C403.869 51.9245 388.951 52.4113 374.003 37.0981C373.19 36.2793 372.761 35.1802 372.769 34.0221C372.784 32.8641 373.249 31.7797 374.085 30.9757C375.297 29.8029 377.079 29.4488 378.646 30.0242L380.583 6.2208C380.716 4.56112 381.817 3.11536 383.377 2.51788C383.821 2.34823 394.237 -1.50221 403.758 3.75711H403.744Z"
        stroke="white"
        stroke-miterlimit="10"
      />
      <path
        d="M489.994 3.75711C490.504 4.04478 491 4.34721 491.48 4.66439C497.172 8.44844 500.972 14.9175 502.776 23.9092C503.183 25.9082 502.111 27.9367 500.233 28.7407L483.067 36.0949C480.872 37.039 478.314 36.0211 477.36 33.823C476.422 31.6248 477.442 29.0726 479.637 28.1358L493.424 22.22C491.835 16.9386 489.285 13.2725 485.825 11.3547C482.003 9.22295 477.619 9.55488 475.224 9.98271L473.243 34.3246C473.184 35.0253 472.947 35.7113 472.555 36.3162C484.561 44.8948 494.962 42.3647 498.88 40.8674C499.08 40.7862 499.509 39.9822 499.671 39.6724C499.775 39.4806 499.863 39.3109 499.93 39.2224L500.64 38.1307C501.083 37.4595 501.527 36.7883 501.97 36.117L506.746 28.9103C512.837 19.7268 513.643 18.5245 519.661 9.51801L519.956 9.07543L526.085 16.5403C517.642 28.7481 514.331 33.3656 506.073 45.7283C506.228 50.1025 508.032 60.8498 521.11 68.5507C521.509 67.9753 522.041 67.5032 522.669 67.1861L544.403 55.9814C543.871 53.6063 542.489 49.4608 539.096 46.7684C535.969 44.3047 531.6 43.3532 526.077 43.9285L525.93 58.7549C525.93 59.8171 525.589 60.8646 524.895 61.6759C524.044 62.657 522.832 63.2102 521.546 63.1955C520.378 63.1807 519.298 62.716 518.493 61.8899C517.679 61.0711 517.236 59.972 517.251 58.8139L517.435 40.174C517.458 38.1307 518.929 36.3678 520.925 35.9695C529.936 34.1623 537.388 35.1655 543.08 38.9495C543.561 39.2667 544.041 39.6134 544.5 39.9748C553.016 46.7094 553.482 57.7886 553.496 58.2607C553.555 59.9278 552.631 61.4989 551.145 62.2587L529.655 73.3379C530.446 74.5107 530.616 76.0155 530.092 77.3285C529.626 78.5235 528.657 79.4307 527.415 79.8512C526.41 80.1831 525.301 80.102 524.311 79.711C504.498 71.8405 499.235 57.9583 497.867 50.1763C490.12 51.9245 475.202 52.4113 460.254 37.0981C459.441 36.2793 459.012 35.1802 459.02 34.0221C459.034 32.8641 459.5 31.7797 460.335 30.9757C461.548 29.8029 463.329 29.4488 464.897 30.0242L466.833 6.2208C466.967 4.56112 468.068 3.11536 469.628 2.51788C470.071 2.34823 480.487 -1.50221 490.009 3.75711H489.994Z"
        stroke="white"
        stroke-miterlimit="10"
      />
      <path
        d="M576.245 3.75711C576.755 4.04478 577.25 4.34721 577.731 4.66439C583.423 8.44844 587.223 14.9175 589.027 23.9092C589.433 25.9082 588.361 27.9367 586.483 28.7407L569.318 36.0949C567.122 37.039 564.565 36.0211 563.611 33.823C562.672 31.6248 563.692 29.0726 565.888 28.1358L579.675 22.22C578.086 16.9386 575.535 13.2725 572.075 11.3547C568.253 9.22295 563.87 9.55488 561.474 9.98271L559.493 34.3246C559.434 35.0253 559.198 35.7113 558.806 36.3162C570.811 44.8948 581.213 42.3647 585.131 40.8674C585.33 40.7862 585.759 39.9822 585.922 39.6724C586.025 39.4806 586.114 39.3109 586.18 39.2224L586.89 38.1307C587.334 37.4595 587.777 36.7883 588.221 36.117L592.996 28.9103C599.088 19.7268 599.894 18.5245 605.911 9.51801L606.207 9.07543L612.335 16.5403C603.893 28.7481 600.581 33.3656 592.324 45.7283C592.479 50.1025 594.283 60.8498 607.36 68.5507C607.759 67.9753 608.292 67.5032 608.92 67.1861L630.654 55.9814C630.122 53.6063 628.739 49.4608 625.346 46.7684C622.219 44.3047 617.85 43.3532 612.328 43.9285L612.18 58.7549C612.18 59.8171 611.84 60.8646 611.145 61.6759C610.295 62.657 609.083 63.2102 607.796 63.1955C606.628 63.1807 605.549 62.716 604.743 61.8899C603.93 61.0711 603.486 59.972 603.501 58.8139L603.686 40.174C603.708 38.1307 605.179 36.3678 607.175 35.9695C616.187 34.1623 623.638 35.1655 629.331 38.9495C629.811 39.2667 630.292 39.6134 630.75 39.9748C639.266 46.7094 639.732 57.7886 639.747 58.2607C639.806 59.9278 638.882 61.4989 637.396 62.2587L615.906 73.3379C616.697 74.5107 616.867 76.0155 616.342 77.3285C615.876 78.5235 614.908 79.4307 613.666 79.8512C612.66 80.1831 611.552 80.102 610.561 79.711C590.749 71.8405 585.485 57.9583 584.118 50.1763C576.37 51.9245 561.452 52.4113 546.505 37.0981C545.691 36.2793 545.263 35.1802 545.27 34.0221C545.285 32.8641 545.75 31.7797 546.586 30.9757C547.798 29.8029 549.58 29.4488 551.147 30.0242L553.084 6.2208C553.217 4.56112 554.318 3.11536 555.878 2.51788C556.322 2.34823 566.738 -1.50221 576.26 3.75711H576.245Z"
        stroke="white"
        stroke-miterlimit="10"
      />
      <path
        d="M662.495 3.75717C663.005 4.04485 663.501 4.34727 663.981 4.66445C669.674 8.4485 673.473 14.9175 675.277 23.9093C675.684 25.9082 674.612 27.9367 672.734 28.7408L655.569 36.0949C653.373 37.0391 650.815 36.0212 649.861 33.823C648.923 31.6249 649.943 29.0727 652.138 28.1359L665.926 22.2201C664.336 16.9386 661.786 13.2726 658.326 11.3548C654.504 9.22301 650.12 9.55495 647.725 9.98277L645.744 34.3246C645.685 35.0254 645.448 35.7114 645.056 36.3162C657.062 44.8949 667.463 42.3648 671.381 40.8674C671.581 40.7863 672.01 39.9823 672.172 39.6724C672.276 39.4807 672.364 39.311 672.431 39.2225L673.141 38.1308C673.584 37.4596 674.028 36.7883 674.471 36.1171L679.247 28.9104C685.338 19.7269 686.144 18.5246 692.162 9.51807L692.457 9.07549L698.586 16.5403C690.143 28.7481 686.832 33.3657 678.574 45.7284C678.729 50.1026 680.533 60.8499 693.611 68.5507C694.01 67.9754 694.542 67.5033 695.17 67.1861L716.905 55.9815C716.372 53.6063 714.99 49.4608 711.597 46.7685C708.47 44.3048 704.101 43.3532 698.578 43.9286L698.431 58.755C698.431 59.8172 698.09 60.8646 697.396 61.676C696.545 62.6571 695.333 63.2103 694.047 63.1955C692.879 63.1808 691.799 62.7161 690.994 61.8899C690.18 61.0712 689.737 59.9721 689.752 58.814L689.937 40.174C689.959 38.1308 691.43 36.3679 693.426 35.9695C702.437 34.1623 709.889 35.1655 715.581 38.9496C716.062 39.2668 716.542 39.6134 717.001 39.9749C725.517 46.7095 725.983 57.7887 725.997 58.2608C726.056 59.9278 725.132 61.499 723.647 62.2587L702.156 73.338C702.947 74.5108 703.117 76.0156 702.593 77.3285C702.127 78.5235 701.158 79.4308 699.916 79.8513C698.911 80.1832 697.802 80.102 696.812 79.7111C676.999 71.8406 671.736 57.9583 670.368 50.1763C662.621 51.9245 647.703 52.4114 632.755 37.0981C631.942 36.2793 631.513 35.1803 631.521 34.0222C631.535 32.8641 632.001 31.7798 632.836 30.9758C634.049 29.8029 635.83 29.4489 637.398 30.0242L639.334 6.22086C639.467 4.56118 640.569 3.11542 642.129 2.51794C642.572 2.34829 652.989 -1.50215 662.51 3.75717H662.495Z"
        stroke="white"
        stroke-miterlimit="10"
      />
    </svg>