<svg width="204" height="235" viewBox="0 0 204 235" fill="none" xmlns="http://www.w3.org/2000/svg">
<g clip-path="url(#clip0_70_408)">
<path d="M204 190.457C204.254 208.621 188.814 218.205 170.085 218.205C151.356 218.205 136.169 208.633 136.169 190.457H203.988H204Z" fill="#E0E0E0"/>
<path d="M170.085 209.47C161.125 209.47 152.722 207.458 146.41 203.799C140.196 200.2 136.786 195.462 136.786 190.446C136.786 185.429 140.208 180.691 146.41 177.093C152.722 173.433 161.137 171.422 170.085 171.422C179.032 171.422 187.447 173.433 193.759 177.093C199.974 180.691 203.383 185.429 203.383 190.446C203.383 195.462 199.962 200.2 193.759 203.799C187.447 207.458 179.032 209.47 170.085 209.47Z" fill="#FAFAFA"/>
<path d="M170.085 172.052C178.936 172.052 187.23 174.039 193.457 177.638C199.466 181.115 202.779 185.671 202.779 190.457C202.779 195.244 199.466 199.8 193.457 203.277C187.23 206.876 178.936 208.863 170.085 208.863C161.234 208.863 152.94 206.876 146.713 203.277C140.704 199.8 137.391 195.244 137.391 190.457C137.391 185.671 140.704 181.115 146.713 177.638C152.94 174.039 161.234 172.052 170.085 172.052ZM170.085 170.84C161.404 170.84 152.722 172.754 146.108 176.583C132.869 184.241 132.869 196.674 146.108 204.332C152.734 208.161 161.404 210.075 170.085 210.075C178.766 210.075 187.436 208.161 194.062 204.332C207.301 196.674 207.301 184.241 194.062 176.583C187.436 172.754 178.766 170.84 170.085 170.84Z" fill="#E6E6E6"/>
<path d="M192.344 205.24C179.6 211.674 160.569 211.674 147.837 205.24C143.315 199.884 144.875 193.256 152.565 188.797C162.25 183.199 177.944 183.199 187.629 188.797C195.319 193.244 196.878 199.884 192.356 205.24H192.344Z" fill="#F0F0F0"/>
<path d="M178.826 210.014C178.826 210.014 178.863 210.014 178.875 210.014C179.201 209.99 179.443 209.699 179.407 209.372L170.665 114.047C170.641 113.719 170.314 113.477 170.024 113.513C169.698 113.538 169.456 113.828 169.492 114.156L178.234 209.481C178.258 209.784 178.524 210.014 178.826 210.014Z" fill="#E0E0E0"/>
<path d="M137.342 185.949C137.56 185.949 137.777 185.816 137.874 185.61L170.616 114.349C170.749 114.058 170.616 113.707 170.326 113.562C170.036 113.428 169.685 113.562 169.54 113.852L136.798 185.113C136.665 185.404 136.798 185.756 137.088 185.901C137.173 185.937 137.257 185.949 137.342 185.949Z" fill="#E0E0E0"/>
<path d="M194.061 177.177C194.134 177.177 194.206 177.165 194.279 177.141C194.581 177.019 194.738 176.68 194.617 176.377L170.641 113.889C170.52 113.586 170.181 113.429 169.879 113.55C169.577 113.671 169.42 114.01 169.54 114.313L193.517 176.801C193.614 177.032 193.831 177.177 194.073 177.177H194.061Z" fill="#E0E0E0"/>
<path d="M67.8186 111.502C68.0725 129.666 52.6323 139.25 33.9033 139.25C15.1743 139.25 0 129.678 0 111.502H67.8186Z" fill="#E0E0E0"/>
<path d="M33.9154 130.526C24.956 130.526 16.5527 128.515 10.2412 124.856C4.02637 121.269 0.616699 116.519 0.616699 111.502C0.616699 106.486 4.03846 101.748 10.2412 98.1493C16.5527 94.49 24.968 92.4785 33.9154 92.4785C42.8628 92.4785 51.2781 94.49 57.5897 98.1493C63.8045 101.736 67.2141 106.486 67.2141 111.502C67.2141 116.519 63.7924 121.257 57.5897 124.856C51.2781 128.515 42.8628 130.526 33.9154 130.526Z" fill="#FAFAFA"/>
<path d="M33.9158 93.0965C42.7665 93.0965 51.0609 95.0837 57.2878 98.6825C63.297 102.16 66.61 106.716 66.61 111.502C66.61 116.289 63.297 120.845 57.2878 124.322C51.0609 127.921 42.7665 129.908 33.9158 129.908C25.0652 129.908 16.7707 127.921 10.5438 124.322C4.53459 120.845 1.22165 116.289 1.22165 111.502C1.22165 106.716 4.53459 102.16 10.5438 98.6825C16.7707 95.0837 25.0652 93.0965 33.9158 93.0965ZM33.9158 91.8848C25.2345 91.8848 16.5531 93.7993 9.93929 97.6283C-3.3004 105.286 -3.3004 117.719 9.93929 125.377C16.5652 129.206 25.2345 131.12 33.9158 131.12C42.5972 131.12 51.2786 129.206 57.8924 125.377C71.132 117.719 71.132 105.286 57.8924 97.6283C51.2665 93.7993 42.5972 91.8848 33.9158 91.8848Z" fill="#E6E6E6"/>
<path d="M56.1629 126.285C43.4189 132.719 24.3876 132.719 11.6557 126.285C7.13369 120.929 8.69343 114.301 16.3833 109.842C26.0683 104.244 41.7624 104.244 51.4473 109.842C59.1372 114.289 60.697 120.929 56.1749 126.285H56.1629Z" fill="#F0F0F0"/>
<path d="M42.6572 131.059C42.6572 131.059 42.6935 131.059 42.7056 131.059C43.032 131.035 43.2739 130.744 43.2376 130.417L34.4958 35.0915C34.4716 34.7643 34.1572 34.5219 33.8549 34.5583C33.5285 34.5825 33.2867 34.8733 33.3229 35.2005L42.0648 130.526C42.0889 130.829 42.3549 131.059 42.6572 131.059Z" fill="#E0E0E0"/>
<path d="M1.17272 107.006C1.39036 107.006 1.608 106.873 1.70473 106.667L34.4473 35.3941C34.5803 35.1033 34.4473 34.7519 34.1571 34.6065C33.8669 34.4732 33.5162 34.6065 33.3712 34.8973L0.628626 106.158C0.495624 106.449 0.628626 106.8 0.918811 106.946C1.00345 106.982 1.08809 106.994 1.17272 106.994V107.006Z" fill="#E0E0E0"/>
<path d="M57.892 98.2219C57.9645 98.2219 58.0371 98.2097 58.1096 98.1855C58.4119 98.0643 58.5691 97.7251 58.4482 97.4221L34.4596 34.934C34.3386 34.6311 34.0001 34.4735 33.6978 34.5947C33.3955 34.7159 33.2384 35.0552 33.3593 35.3581L57.3358 97.8462C57.4204 98.0886 57.6502 98.2219 57.892 98.2219Z" fill="#E0E0E0"/>
<path d="M29.9012 25.4951C29.9617 28.4396 31.7753 31.9172 33.9275 33.1653C34.4475 33.4682 35.1971 33.7469 35.7654 33.4076C36.3941 33.0441 36.7689 32.0263 36.7689 30.6813C36.7689 28.9606 36.1402 27.0582 35.1971 25.4951H37.8934C38.6672 27.1309 39.1267 28.9606 39.1267 30.6813C39.1267 32.9108 38.3287 34.6436 36.9382 35.4554C36.3941 35.7705 35.7896 35.928 35.1608 35.928C34.387 35.928 33.5527 35.6856 32.7305 35.2131C29.8529 33.5409 27.5797 29.2999 27.5193 25.4951H29.8891H29.9012Z" fill="#EBEBEB"/>
<path d="M124.211 197.606C111.407 190.203 90.6584 190.203 77.866 197.606C71.4699 201.314 68.2899 206.161 68.302 211.02C68.302 212.523 68.302 214.546 68.302 216.049C68.302 220.896 71.4699 225.755 77.866 229.462C90.6705 236.866 111.419 236.866 124.211 229.462C130.607 225.755 133.787 220.908 133.775 216.049C133.775 214.546 133.775 212.523 133.775 211.02C133.775 206.161 130.607 201.314 124.211 197.606Z" fill="#E0E0E0"/>
<path opacity="0.1" d="M124.211 197.606C111.407 190.203 90.6584 190.203 77.866 197.606C71.4699 201.314 68.2899 206.161 68.302 211.02C68.302 212.523 68.302 214.546 68.302 216.049C68.302 220.896 71.4699 225.755 77.866 229.462C90.6705 236.866 111.419 236.866 124.211 229.462C130.607 225.755 133.787 220.908 133.775 216.049C133.775 214.546 133.775 212.523 133.775 211.02C133.775 206.161 130.607 201.314 124.211 197.606Z" fill="black"/>
<path d="M77.8662 197.606C65.0618 205.01 65.0618 217.018 77.8662 224.422C90.6707 231.825 111.419 231.825 124.211 224.422C137.016 217.018 137.016 205.01 124.211 197.606C111.407 190.203 90.6586 190.203 77.8662 197.606Z" fill="#EBEBEB"/>
<path d="M120.197 191.378C109.617 185.259 92.4601 185.259 81.8805 191.378C76.5846 194.444 73.9609 198.455 73.9729 202.466C73.9729 203.702 73.9729 208.609 73.9729 209.857C73.9729 213.868 76.5846 217.879 81.8805 220.944C92.4601 227.063 109.617 227.063 120.197 220.944C125.493 217.879 128.117 213.868 128.105 209.857C128.105 208.621 128.105 203.714 128.105 202.466C128.105 198.455 125.493 194.444 120.197 191.378Z" fill="#E0E0E0"/>
<path d="M81.8805 191.378C71.3009 197.498 71.3009 207.422 81.8805 213.541C92.4602 219.66 109.617 219.66 120.197 213.541C130.777 207.422 130.777 197.498 120.197 191.378C109.617 185.259 92.4602 185.259 81.8805 191.378Z" fill="#EBEBEB"/>
<path d="M164.317 103.929H166.699C166.663 104.171 166.651 104.426 166.651 104.704C166.651 107.685 168.501 111.26 170.677 112.532C171.197 112.823 171.947 113.114 172.527 112.774C173.156 112.411 173.531 111.393 173.531 110.048C173.531 108.994 173.301 107.879 172.902 106.813H175.393C175.707 107.879 175.888 108.982 175.888 110.048C175.888 112.277 175.09 114.01 173.7 114.822C173.156 115.137 172.551 115.295 171.923 115.295C171.149 115.295 170.314 115.052 169.492 114.58C166.566 112.883 164.281 108.545 164.281 104.704C164.281 104.438 164.293 104.183 164.317 103.929Z" fill="#EBEBEB"/>
<path d="M122.518 197.655C122.518 194.48 120.427 191.293 116.231 188.87C107.84 184.011 94.2375 184.011 85.8584 188.87C81.6628 191.293 79.571 194.48 79.571 197.655V200.199C79.571 203.374 81.6628 206.561 85.8584 208.984C94.2496 213.843 107.852 213.843 116.231 208.984C120.427 206.561 122.518 203.374 122.518 200.199V197.655Z" fill="#E0E0E0"/>
<path d="M116.219 188.87C114.744 187.937 112.483 184.205 111.443 179.176C109.025 167.471 109.061 148.702 111.02 141.589H91.0456C93.0043 148.702 93.0406 167.471 90.6224 179.176C89.5825 184.205 87.3094 187.925 85.8464 188.87C81.6508 191.293 79.5591 194.48 79.5591 197.655C79.5591 200.83 81.6508 204.016 85.8464 206.44C94.2376 211.299 107.84 211.299 116.219 206.44C120.415 204.016 122.506 200.83 122.506 197.655C122.506 194.48 120.415 191.293 116.219 188.87Z" fill="#EBEBEB"/>
<g opacity="0.15">
<path d="M95.2292 145.854C95.2292 150.398 94.9753 183.042 92.0371 187.186C89.099 191.33 85.7619 191.669 83.525 195.22C81.2761 198.77 84.8309 203.714 90.1509 205.325C88.7 203.762 88.5065 201.921 88.5065 201.921C88.5065 201.921 92.0371 206.101 99.9689 205.325C92.9802 204.138 90.1993 198.843 91.6865 196.262C93.2704 193.535 95.8337 192.639 97.2725 187.84C98.3849 184.133 98.3728 146.46 98.3728 146.46C97.2363 146.327 96.1964 146.133 95.2292 145.854Z" fill="white"/>
</g>
<g opacity="0.1">
<path d="M104.467 146.351C104.72 154.106 104.89 185.041 107.139 188.761C108.892 191.657 109.992 193.317 110.355 196.552C110.718 199.787 107.828 202.586 105.7 203.289C108.856 203.047 111.044 201.314 111.044 201.314C111.044 201.314 109.255 204.949 102.23 206.621C106.969 206.936 114.526 205.591 118.734 200.296C122.289 195.813 118.589 193.68 115.59 191.935C112.592 190.191 111.032 188.64 109.581 184.532C106.413 175.529 107.792 145.575 107.792 145.575C106.703 145.939 105.603 146.205 104.491 146.363L104.467 146.351Z" fill="black"/>
</g>
<g opacity="0.1">
<path d="M110.162 145.926C110.331 144.557 110.597 143.127 111.02 141.601H91.0457C91.4688 143.127 91.7348 144.557 91.9041 145.926C97.0549 148.689 104.999 148.689 110.149 145.926H110.162Z" fill="black"/>
</g>
<path d="M91.5291 144.327C88.9053 142.813 87.5874 140.813 87.5874 138.826C87.5874 136.839 88.9053 134.84 91.5291 133.325C96.7766 130.284 105.301 130.284 110.548 133.325C113.172 134.84 114.49 136.839 114.49 138.826C114.49 140.813 113.172 142.813 110.548 144.327C105.301 147.369 96.7766 147.369 91.5291 144.327Z" fill="#E0E0E0"/>
<g opacity="0.1">
<path d="M113.571 136.027C112.918 135.046 111.915 134.125 110.548 133.325C105.301 130.284 96.7766 130.284 91.5291 133.325C90.1628 134.113 89.1593 135.034 88.5063 136.027C88.8449 137.578 90.0419 139.081 92.0974 140.28C97.0426 143.14 105.047 143.14 109.992 140.28C112.048 139.093 113.245 137.59 113.583 136.027H113.571Z" fill="black"/>
</g>
<path d="M92.0854 138.474C89.6188 137.044 88.3855 135.166 88.3855 133.3C88.3855 131.434 89.6188 129.556 92.0854 128.126C97.0306 125.267 105.035 125.267 109.98 128.126C112.447 129.556 113.68 131.434 113.68 133.3C113.68 135.166 112.447 137.044 109.98 138.474C105.035 141.334 97.0306 141.334 92.0854 138.474Z" fill="#E0E0E0"/>
<g opacity="0.1">
<path d="M112.797 130.598C112.18 129.701 111.249 128.853 109.992 128.126C105.047 125.267 97.0425 125.267 92.0972 128.126C90.8398 128.853 89.9088 129.701 89.28 130.598C89.5944 132.064 90.7068 133.482 92.6534 134.609C97.2843 137.287 104.793 137.287 109.424 134.609C111.37 133.482 112.495 132.064 112.797 130.598Z" fill="black"/>
</g>
<path d="M92.6535 132.622C90.3441 131.277 89.1833 129.532 89.1833 127.775C89.1833 126.018 90.3441 124.261 92.6535 122.928C97.2843 120.25 104.793 120.25 109.424 122.928C111.733 124.273 112.894 126.018 112.894 127.775C112.894 129.532 111.733 131.289 109.424 132.622C104.793 135.3 97.2843 135.3 92.6535 132.622Z" fill="#E0E0E0"/>
<g opacity="0.1">
<path d="M111.939 125.085C111.358 124.298 110.524 123.571 109.424 122.928C104.793 120.25 97.2845 120.25 92.6536 122.928C91.5533 123.571 90.719 124.298 90.1387 125.085C90.5014 126.358 91.5291 127.569 93.2098 128.551C97.5263 131.047 104.527 131.047 108.856 128.551C110.548 127.569 111.564 126.358 111.927 125.085H111.939Z" fill="black"/>
</g>
<g opacity="0.1">
<path d="M110.863 137.917C112.676 136.499 111.443 133.203 110.04 132.246C111.588 130.477 110.742 127.993 108.856 126.781C107.707 127.448 106.449 127.884 105.144 128.199C107.03 129.411 107.949 132.137 106.401 133.906C107.816 134.863 109.025 138.293 107.211 139.71C108.481 140.789 109.847 143.794 107.755 145.587C109.025 145.151 110.246 144.606 111.37 143.818C113.462 142.025 112.132 139.007 110.863 137.929V137.917Z" fill="black"/>
</g>
<g opacity="0.15">
<path d="M91.2147 137.917C89.4011 136.499 90.6344 133.203 92.0369 132.246C90.4893 130.477 91.3356 127.993 93.2218 126.781C94.3705 127.448 95.628 127.884 96.9338 128.199C95.0476 129.411 94.1287 132.137 95.6763 133.906C94.2617 134.863 93.0526 138.293 94.8662 139.71C93.5967 140.789 92.2304 143.794 94.3221 145.587C93.0526 145.151 91.8314 144.606 90.7069 143.818C88.6151 142.025 89.9452 139.007 91.2147 137.929V137.917Z" fill="white"/>
</g>
<path d="M110.234 118.699C109.726 118.239 108.287 114.725 107.852 109.284C106.377 90.7937 106.389 66.9835 106.389 48.8926H95.6644C95.6644 66.9714 95.6644 90.6967 94.2013 109.224C93.7661 114.689 92.3272 118.239 91.8194 118.699C90.5861 119.766 89.9695 121.002 89.9695 122.25C89.9695 123.886 91.0456 125.521 93.2099 126.77C97.5264 129.266 104.527 129.266 108.856 126.77C111.02 125.521 112.096 123.886 112.096 122.25C112.096 121.014 111.479 119.778 110.234 118.699Z" fill="#EBEBEB"/>
<g opacity="0.1">
<path d="M108.856 119.511C107.308 117.015 106.159 115.355 105.688 109.224C105.24 103.553 105.627 50.6496 105.688 48.8926H104.95L103.983 49.1955C103.983 57.7139 103.427 111.32 104.696 115.985C105.966 120.65 108.868 125.315 105.168 128.175C106.522 127.86 107.779 127.387 108.88 126.757C110.947 124.237 110.427 121.983 108.88 119.487L108.856 119.511Z" fill="black"/>
</g>
<g opacity="0.15">
<path d="M93.222 119.511C94.7697 117.015 95.9183 115.355 96.3899 109.224C96.8373 103.553 96.4624 50.6496 96.3899 48.8926H97.1274L98.0947 49.1955C98.0947 57.7139 98.6509 111.32 97.3813 115.985C96.1118 120.65 93.2099 125.315 96.9098 128.175C95.5556 127.86 94.2981 127.387 93.1979 126.757C91.1303 124.237 91.6502 121.983 93.1979 119.487L93.222 119.511Z" fill="white"/>
</g>
<g opacity="0.1">
<path d="M95.6643 51.873C97.1878 52.9514 99.0377 53.5815 101.033 53.5815C103.028 53.5815 104.878 52.9514 106.401 51.873C106.401 50.9157 106.401 49.9343 106.401 48.9043H95.6764C95.6764 49.9343 95.6764 50.9157 95.6764 51.873H95.6643Z" fill="black"/>
</g>
<path d="M91.6985 41.9134C91.6985 47.0875 95.882 51.28 101.045 51.28C106.208 51.28 110.391 47.0875 110.391 41.9134C110.391 36.7394 106.208 32.5469 101.045 32.5469C95.882 32.5469 91.6985 36.7394 91.6985 41.9134Z" fill="#E0E0E0"/>
<g opacity="0.1">
<path d="M103.197 46.7726C105.168 45.9123 106.776 44.2643 107.344 42.156C107.719 40.7504 107.779 39.26 107.55 37.818C107.429 37.1152 107.247 36.4124 106.981 35.746C106.848 35.4188 106.715 35.0795 106.546 34.7645C106.462 34.6191 106.268 34.1708 106.135 34.0859C108.686 35.7581 110.379 38.642 110.379 41.9257C110.379 47.0998 106.196 51.2923 101.033 51.2923C95.8698 51.2923 91.6863 47.0998 91.6863 41.9257C92.714 44.8944 97.7318 49.1839 103.185 46.7847L103.197 46.7726Z" fill="black"/>
</g>
<g opacity="0.15">
<path d="M93.4879 41.6829C94.3947 44.1911 94.697 40.556 98.8805 37.8902C102.278 35.7212 106.316 36.1696 104.128 34.6549C102.363 33.4311 99.5092 33.4069 96.825 34.873C94.1408 36.3392 92.8108 39.7926 93.4999 41.6829H93.4879Z" fill="white"/>
</g>
<path d="M101.686 29.748V39.6599C104.418 41.332 107.078 43.1739 109.629 45.1247C118.553 51.9467 126.351 60.356 133.763 69.1772C139.071 75.5145 144.089 82.1547 149.397 88.7101C149.675 89.2311 149.989 89.7279 150.352 90.2005C150.751 90.7215 151.21 91.182 151.742 91.5819C153.109 93.2298 154.499 94.8656 155.926 96.4893C159.892 100.936 164.172 105.383 169.649 108.728L170.689 109.333C171.064 109.552 171.487 109.758 171.922 109.939C172.793 110.315 173.748 110.606 174.776 110.739C176.831 111.054 179.346 110.436 181.015 108.873C181.898 108.073 182.49 107.116 182.889 106.183C183.288 105.25 183.506 104.317 183.639 103.408C183.868 101.615 183.747 99.9063 183.433 98.2705C183.119 96.6347 182.635 95.0716 181.982 93.5933C181.341 92.115 180.543 90.6852 179.528 89.3402C178.5 88.0315 177.279 86.7956 175.671 85.8989C174.848 85.4627 173.942 85.0992 172.878 85.0022C171.826 84.8811 170.604 85.1234 169.649 85.7656C169.19 86.0564 168.718 86.5048 168.404 86.9531C168.077 87.4014 167.86 87.8861 167.691 88.3587C167.376 89.2917 167.292 90.1884 167.304 91.0608C167.34 92.7815 167.751 94.3809 168.404 95.8592C169.045 97.3133 169.915 98.7431 171.185 99.8821C171.826 100.439 172.551 100.936 173.47 101.227C173.93 101.348 174.437 101.433 174.969 101.348C175.501 101.276 176.021 101.045 176.432 100.718C176.831 100.403 176.904 99.8336 176.59 99.4217C176.299 99.0703 175.804 98.9733 175.405 99.2035L175.332 99.252C174.981 99.458 174.607 99.458 174.123 99.252C173.651 99.046 173.18 98.6825 172.769 98.2221C171.934 97.3011 171.342 96.1137 170.931 94.8656C170.532 93.6054 170.314 92.3089 170.399 91.0972C170.435 90.5034 170.556 89.9339 170.75 89.4977C170.967 89.0494 171.173 88.8313 171.451 88.698C171.741 88.5647 172.043 88.5283 172.43 88.601C172.817 88.6737 173.277 88.8918 173.736 89.1827C174.643 89.7764 175.489 90.7094 176.178 91.7515C176.868 92.7815 177.424 93.9811 177.871 95.217C178.306 96.4529 178.609 97.7253 178.754 98.9854C178.911 100.246 178.887 101.494 178.669 102.584C178.452 103.675 177.98 104.559 177.533 104.874C176.529 105.65 174.921 105.432 172.732 103.808C170.544 102.33 168.513 100.476 166.566 98.5007C164.692 96.6105 162.915 94.5627 161.186 92.4543C161.56 92.115 161.875 91.7394 162.08 91.3516C162.866 89.8006 162.842 88.4799 162.745 87.2924C162.6 86.0928 162.286 84.9901 161.838 83.9602C161.391 82.9302 160.787 81.9487 159.952 81.1853C159.819 81.0642 159.614 81.0763 159.493 81.2096C159.408 81.3065 159.384 81.4277 159.432 81.5489V81.5731C159.783 82.4819 159.88 83.4634 159.88 84.4206C159.88 85.3658 159.783 86.3109 159.541 87.1591C159.348 87.9952 158.925 88.7464 158.586 88.9161C158.429 88.9888 158.393 88.8797 158.405 88.807C158.441 88.7464 158.344 88.6616 158.175 88.5647C158.127 88.5283 158.066 88.4799 158.006 88.4435C155.466 85.1476 152.988 81.7427 150.485 78.3378C147.196 73.8908 143.859 69.4196 140.401 65.009C139.905 62.1857 138.853 58.6959 136.713 54.9275C131.974 46.6272 118.19 39.151 105.313 31.8322C104.128 31.1052 102.919 30.4024 101.698 29.748H101.686ZM119.979 42.7982C123.824 45.1005 129.918 49.2445 133.944 54.3943C136.556 57.7387 137.294 60.053 137.487 61.3132C132.167 54.77 126.412 48.4812 119.979 42.7982Z" fill="#EBEBEB"/>
<path d="M19.4907 8.8092C19.406 12.2747 20.2524 15.5342 21.655 18.5393C23.0575 21.4716 24.8954 24.2586 27.5796 26.5608C28.2325 27.1182 29.0184 27.6756 29.7681 28.1239C30.4572 28.5359 31.1827 28.9479 31.9323 29.3114C33.4075 30.0506 34.9793 30.6443 36.5753 31.1048C39.7794 32.0135 43.1045 32.3044 46.2602 32.2195C52.608 32.0257 58.3513 30.8503 63.9131 30.3414C69.475 29.8325 74.8918 29.8809 80.1877 30.8866C87.7204 32.2922 94.9508 35.479 101.698 39.6473V29.7234C101.613 29.6749 101.528 29.6386 101.444 29.5901C87.6841 21.617 71.8207 11.3053 66.6699 14.371C63.7922 16.0795 62.8854 19.6056 62.6315 22.4168C57.8193 23.0347 53.2247 24.0647 48.8598 24.6463C48.751 24.61 48.6663 24.5494 48.5575 24.513C47.8925 24.2828 47.1912 23.9799 46.635 23.4588C46.0789 22.9499 45.5589 22.3319 45.1237 21.6413C44.6521 20.9627 44.2652 20.1993 43.9629 19.3754C43.6365 18.5635 43.4188 17.6911 43.3342 16.8186C43.2858 16.3824 43.2737 15.9462 43.3342 15.5342C43.3947 15.1222 43.5035 14.7587 43.7695 14.5648L43.8541 14.5043C43.9992 14.4073 44.0234 14.2013 43.9267 14.0559C43.8662 13.9711 43.7574 13.9226 43.6486 13.9226C42.9352 13.9711 42.4274 14.5043 42.0888 14.9647C41.7503 15.4615 41.5084 15.9826 41.3271 16.5157C40.9523 17.5941 40.8072 18.7089 40.7709 19.8358C40.7709 20.9627 40.8797 22.1017 41.1578 23.2407C41.315 23.8345 41.5205 24.4161 41.7624 24.9977C40.5653 24.9371 39.3925 24.7917 38.2318 24.5494C37.0106 24.2828 35.8015 23.9072 34.6407 23.4225C34.0483 23.1801 33.48 22.9014 32.8996 22.5985C32.3797 22.3319 31.9444 22.0532 31.4729 21.714C29.5988 20.3205 27.9665 18.2363 26.709 15.9826C25.4999 13.7651 24.6898 11.2447 24.6173 8.84555C24.581 7.65807 24.7503 6.50694 25.113 5.69509C25.2944 5.29523 25.5241 5.00441 25.7538 4.81054C25.911 4.68937 26.0198 4.61667 26.31 4.59243C26.9025 4.55608 27.9544 5.04077 28.8008 5.81626C29.6834 6.57964 30.4935 7.58537 31.1343 8.68803C31.7752 9.76645 32.2467 10.9539 32.5006 12.1414C32.7424 13.3168 32.7304 14.5891 32.4039 15.3888C32.2588 15.7766 31.9686 15.9947 31.9565 16.031C31.9082 16.0553 31.8235 16.0795 31.6784 16.0916C31.5213 16.0916 31.3157 16.0553 31.086 15.9583C30.1429 15.619 29.1272 14.7224 28.1599 13.7288L28.1358 13.7045C27.8214 13.3895 27.3136 13.3895 26.9992 13.7045C26.7937 13.9105 26.7211 14.2013 26.7816 14.4558C26.9629 15.2434 27.2894 16.0068 27.7609 16.7338C28.2204 17.4487 28.8129 18.1273 29.6471 18.6604C30.0461 18.927 30.5419 19.1451 31.0981 19.3027C31.6663 19.4238 32.3193 19.4238 32.9722 19.2421C34.3626 18.8058 35.1002 17.8365 35.5718 16.9035C36.4665 15.0253 36.4302 13.2077 36.2247 11.5356C35.9828 9.83916 35.4387 8.22758 34.677 6.74928C33.9274 5.28311 32.9843 3.88964 31.7268 2.65369C31.0981 2.04783 30.3968 1.46621 29.5504 0.98152C28.7161 0.508952 27.7247 0.109086 26.5518 0.0121484C25.3911 -0.0969059 24.0006 0.242374 22.9729 0.993638C22.0056 1.6722 21.3164 2.54463 20.8207 3.4413C19.8413 5.24676 19.5632 7.07645 19.4907 8.8092ZM69.475 17.0973C75.2545 16.3824 85.3506 22.7318 86.8136 23.6769C86.741 23.6527 86.6685 23.6406 86.5959 23.6164C80.7801 20.9991 70.4665 20.3084 65.8961 20.9869C65.8961 20.9869 65.3278 17.6063 69.475 17.0973Z" fill="#EBEBEB"/>
<path d="M91.7104 8.76074C91.7104 16.1158 96.172 27.2636 101.698 30.4626C107.199 33.6494 111.661 27.6635 111.661 20.3084C111.661 12.9533 107.199 4.38645 101.698 1.19964C96.172 -1.99929 91.7104 1.38139 91.7104 8.76074ZM108.868 18.6968C108.868 19.7873 108.723 20.8415 108.481 21.8473C107.997 17.1216 105.156 12.0687 101.698 10.0694C98.2396 8.07006 95.3619 9.80281 94.8904 14.0075C94.6365 12.7109 94.5035 11.475 94.5035 10.3844C94.5035 5.06501 97.7197 2.62946 101.698 4.93172C105.651 7.22186 108.868 13.3774 108.868 18.6968Z" fill="#EBEBEB"/>
<path d="M101.673 14.6982L98.5298 17.7881L101.698 24.913L104.841 21.399L101.673 14.6982Z" fill="#FAFAFA"/>
<path d="M100.392 20.3685L101.395 22.4648L101.528 16.7334L100.368 17.9451C99.9323 18.3934 99.9444 19.4234 100.392 20.3685Z" fill="#F0F0F0"/>
</g>
<defs>
<clipPath id="clip0_70_408">
<rect width="204" height="235" fill="white"/>
</clipPath>
</defs>
</svg>
