<svg width="36" height="36" viewBox="0 0 36 36" fill="none" xmlns="http://www.w3.org/2000/svg">
<path d="M18 27.2704C16.47 27.2704 15.555 26.7004 14.955 26.3254C14.67 26.1454 14.46 26.0254 14.25 25.9504C13.755 25.7854 13.29 25.7705 12.885 25.7405C12.42 25.7255 11.955 25.7104 11.55 25.4404C11.13 25.1554 10.995 24.7505 10.935 24.4805C10.905 24.4655 10.875 24.4654 10.845 24.4504C10.455 24.3454 10.02 24.2254 9.49498 23.9404C8.71498 23.5054 8.625 22.9205 8.625 22.6055C8.64 22.3055 8.75999 21.7355 9.50999 21.3905C11.325 20.5205 11.955 19.3054 12.15 18.7804C11.985 18.6754 11.79 18.5555 11.61 18.4355L11.145 18.1355C9.91499 17.2805 10.125 16.2604 10.275 15.8704C10.515 15.2104 11.13 14.8055 11.895 14.8055C12.045 14.8055 12.18 14.8204 12.315 14.8504C12.345 14.8504 12.36 14.8655 12.39 14.8655C12.39 14.4005 12.39 13.9955 12.42 13.6355C12.57 12.0305 13.14 11.1755 13.695 10.5455C14.175 10.0055 15.54 8.73047 17.97 8.73047C19.635 8.73047 21.195 9.37546 22.23 10.5005C22.83 11.2055 23.385 12.0454 23.52 13.6204C23.55 14.0404 23.565 14.4604 23.565 14.8504C23.58 14.8504 23.58 14.8504 23.595 14.8504C23.655 14.8204 23.85 14.7904 24.045 14.7904C24.81 14.7904 25.425 15.2105 25.665 15.8855C25.815 16.2605 26.025 17.2655 24.795 18.1355C24.705 18.1955 24.54 18.3155 24.33 18.4355C24.135 18.5555 23.955 18.6754 23.805 18.7804C24.015 19.3204 24.66 20.5204 26.46 21.4054C27.18 21.7954 27.33 22.2905 27.33 22.6505C27.33 23.0255 27.18 23.5504 26.46 23.9404C25.935 24.2254 25.485 24.3605 25.11 24.4655C25.08 24.4655 25.05 24.4804 25.005 24.4954C24.93 24.8104 24.795 25.1705 24.42 25.4255C23.985 25.7105 23.535 25.7255 23.085 25.7405C22.665 25.7555 22.2 25.7854 21.675 25.9504C21.495 26.0104 21.285 26.1455 21.03 26.2955C20.4 26.7155 19.515 27.2704 18 27.2704ZM13.035 23.5055C13.545 23.5355 14.205 23.5805 14.955 23.8205C15.405 23.9705 15.765 24.1805 16.155 24.4205C16.65 24.7355 17.115 25.0204 18 25.0204C18.87 25.0204 19.335 24.7354 19.86 24.4054C20.235 24.1804 20.595 23.9705 21.03 23.8205C21.84 23.5655 22.515 23.5205 22.98 23.5055C23.07 23.2205 23.265 22.9205 23.625 22.6805C23.745 22.6055 23.85 22.5454 23.985 22.4854C21.855 20.8654 21.555 18.9605 21.54 18.8555C21.54 18.8405 21.54 18.8105 21.54 18.7955C21.495 18.5105 21.45 17.9105 22.02 17.3555C21.855 17.2805 21.72 17.1755 21.63 17.0705C21.45 16.8905 21.255 16.5605 21.3 16.0355C21.33 15.4055 21.39 14.5654 21.33 13.8154C21.24 12.8104 20.94 12.3904 20.595 11.9854C20.265 11.6254 19.455 10.9655 18.03 10.9655C16.485 10.9655 15.66 11.7605 15.45 12.0005C15.12 12.3755 14.82 12.8105 14.73 13.8005C14.685 14.3555 14.685 15.0755 14.745 15.9005C14.76 15.9755 14.76 16.0654 14.76 16.1104C14.79 16.5454 14.595 16.8755 14.415 17.0555C14.34 17.1455 14.205 17.2505 14.025 17.3405C14.61 17.8955 14.55 18.5105 14.505 18.7955C14.505 18.8105 14.505 18.8255 14.505 18.8555C14.49 18.9455 14.19 20.8505 12.075 22.4705C12.195 22.5305 12.33 22.5905 12.45 22.6805C12.765 22.9205 12.945 23.2355 13.035 23.5055ZM25.965 22.9655L25.44 21.9754C25.44 21.9754 25.425 21.9755 25.425 21.9905L25.965 22.9655L25.425 21.9905L25.965 22.9655Z" fill="white"/>
<path d="M18 34.125C9.105 34.125 1.875 26.895 1.875 18C1.875 9.105 9.105 1.875 18 1.875C26.895 1.875 34.125 9.105 34.125 18C34.125 26.895 26.895 34.125 18 34.125ZM18 4.125C10.35 4.125 4.125 10.35 4.125 18C4.125 25.65 10.35 31.875 18 31.875C25.65 31.875 31.875 25.65 31.875 18C31.875 10.35 25.65 4.125 18 4.125Z" fill="white"/>
</svg>
