<svg width="444" height="423" viewBox="0 0 444 423" fill="none" xmlns="http://www.w3.org/2000/svg">
<g clip-path="url(#clip0_70_324)">
<path d="M441.219 96.6143V329.167C441.219 341.292 431.373 351.137 419.247 351.137H180.782L95.6753 416.937C92.894 419.051 89.4453 420.219 85.9409 420.219C76.9296 420.219 69.6427 412.933 69.6427 403.922V351.137H56.3483C44.222 351.137 34.3763 341.292 34.3763 329.167V96.5587C34.3763 84.4889 44.2776 74.6995 56.3483 74.7551H419.358C431.429 74.7551 441.219 84.5445 441.219 96.6143Z" stroke="#C8B56D" stroke-width="3" stroke-miterlimit="10"/>
<path d="M218.162 42.0498H172.716V47.6119H218.162V42.0498Z" fill="#6E1636"/>
<path d="M5.56252 107.572H0V80.1503C0 59.0699 17.1325 41.9941 38.2145 41.9941H139.619V47.5563H38.2145C20.1919 47.5563 5.61814 62.129 5.56252 80.1503V107.572Z" fill="#6E1636"/>
<path d="M327.02 245.123C316.785 245.123 308.553 236.502 309.443 226.323C309.443 226.267 309.443 226.156 309.443 226.101C315.395 158.298 369.129 152.069 375.859 74.9219C377.806 52.7846 369.685 44.3302 354.165 44.3302C338.646 44.3302 329.023 52.729 327.132 74.9219L326.019 87.6592C324.962 99.5065 315.061 108.628 303.157 108.628C289.696 108.628 279.127 97.0592 280.295 83.6544L280.796 78.0367C285.135 28.3669 312.002 0 359.45 0C406.898 0 428.759 28.3669 424.42 78.0367C417.356 158.743 358.671 171.147 353.665 227.88C353.665 228.159 353.665 228.437 353.609 228.715C352.886 237.948 345.321 245.179 336.032 245.179H327.076L327.02 245.123ZM351.05 292.29V292.457C349.993 304.527 339.87 313.815 327.743 313.815C314.004 313.815 303.213 302.024 304.436 288.396V288.23C305.493 276.16 315.617 266.871 327.743 266.871C341.483 266.871 352.274 278.663 351.05 292.29Z" fill="#6E1636"/>
<path d="M264.331 190.726H136.615C130.497 190.726 125.49 185.72 125.49 179.601C125.49 173.483 130.497 168.477 136.615 168.477H264.331C270.45 168.477 275.456 173.483 275.456 179.601C275.456 185.72 270.45 190.726 264.331 190.726Z" fill="#C8B56D"/>
<path d="M246.642 234.722H136.615C130.497 234.722 125.49 229.716 125.49 223.598C125.49 217.48 130.497 212.474 136.615 212.474H246.642C252.761 212.474 257.767 217.48 257.767 223.598C257.767 229.716 252.761 234.722 246.642 234.722Z" fill="#C8B56D"/>
<path d="M228.898 278.718H136.56C130.441 278.718 125.435 273.712 125.435 267.594C125.435 261.476 130.441 256.47 136.56 256.47H228.898C235.016 256.47 240.023 261.476 240.023 267.594C240.023 273.712 235.016 278.718 228.898 278.718Z" fill="#C8B56D"/>
</g>
<defs>
<clipPath id="clip0_70_324">
<rect width="444" height="423" fill="white"/>
</clipPath>
</defs>
</svg>
