<svg width="36" height="36" viewBox="0 0 36 36" fill="none" xmlns="http://www.w3.org/2000/svg">
<path d="M3.00002 34.1254C2.70002 34.1254 2.41498 34.0054 2.20498 33.7954C1.91998 33.5104 1.80005 33.0903 1.90505 32.7003L3.79507 25.6354C2.53507 23.2954 1.87502 20.6554 1.87502 17.9854C1.87502 9.09035 9.10502 1.86035 18 1.86035C26.895 1.86035 34.125 9.09035 34.125 17.9854C34.125 26.8804 26.895 34.1104 18 34.1104C15.285 34.1104 12.6301 33.4354 10.2601 32.1454L3.30004 34.0804C3.19504 34.1104 3.10502 34.1254 3.00002 34.1254ZM10.41 29.8204C10.605 29.8204 10.8 29.8804 10.98 29.9704C13.095 31.2154 15.525 31.8754 18 31.8754C25.65 31.8754 31.875 25.6504 31.875 18.0004C31.875 10.3504 25.65 4.12537 18 4.12537C10.35 4.12537 4.12502 10.3504 4.12502 18.0004C4.12502 20.4454 4.77001 22.8304 5.98501 24.9304C6.13501 25.1854 6.18004 25.5004 6.10504 25.7854L4.60504 31.3954L10.125 29.8654C10.215 29.8354 10.32 29.8204 10.41 29.8204Z" fill="white"/>
<path d="M22.11 26.6404C21.18 26.6404 20.22 26.4304 19.215 25.9954C18.27 25.5904 17.325 25.0504 16.41 24.3754C15.51 23.7154 14.625 22.9654 13.815 22.1554C13.005 21.3304 12.255 20.4604 11.595 19.5604C10.92 18.6154 10.38 17.6854 9.98996 16.7704C9.56996 15.7804 9.35999 14.8054 9.35999 13.8754C9.35999 13.2154 9.47996 12.5854 9.70496 12.0004C9.94496 11.3854 10.335 10.8304 10.845 10.3504C11.805 9.40542 13.185 9.06045 14.28 9.58545C14.655 9.75045 14.97 10.0204 15.21 10.3804L16.95 12.8254C17.13 13.0654 17.265 13.3204 17.37 13.5754C17.49 13.8754 17.565 14.1755 17.565 14.4605C17.565 14.8505 17.46 15.2405 17.25 15.5855C17.115 15.8105 16.92 16.0805 16.665 16.3355L16.47 16.5454C16.56 16.6654 16.665 16.8154 16.83 16.9954C17.145 17.3554 17.49 17.7454 17.865 18.1204C18.24 18.4804 18.615 18.8404 18.99 19.1554C19.17 19.3054 19.32 19.4254 19.44 19.5004L19.65 19.2904C19.92 19.0204 20.19 18.8104 20.46 18.6754C20.955 18.3604 21.72 18.2854 22.395 18.5704C22.635 18.6604 22.875 18.7954 23.13 18.9754L25.635 20.7454C25.98 20.9854 26.25 21.3154 26.43 21.6904C26.58 22.0654 26.64 22.3954 26.64 22.7404C26.64 23.1904 26.535 23.6254 26.34 24.0454C26.145 24.4354 25.92 24.7804 25.65 25.0954C25.17 25.6204 24.615 26.0104 24.015 26.2654C23.415 26.5204 22.77 26.6404 22.11 26.6404ZM13.185 11.6104C13.095 11.6104 12.795 11.6104 12.42 11.9854C12.135 12.2554 11.94 12.5404 11.805 12.8554C11.67 13.1704 11.61 13.5304 11.61 13.8904C11.61 14.5204 11.76 15.1954 12.06 15.9154C12.375 16.6654 12.84 17.4604 13.41 18.2554C13.995 19.0504 14.655 19.8454 15.39 20.5804C16.125 21.3004 16.905 21.9754 17.715 22.5754C18.495 23.1454 19.29 23.5954 20.085 23.9404C21.225 24.4354 22.275 24.5554 23.13 24.1954C23.43 24.0754 23.7 23.8654 23.97 23.5954C24.105 23.4454 24.21 23.2954 24.3 23.1004C24.345 22.9954 24.375 22.8754 24.375 22.7704C24.375 22.7404 24.375 22.6954 24.33 22.6054L21.825 20.8654C21.72 20.7904 21.615 20.7304 21.525 20.7004C21.465 20.7304 21.375 20.7754 21.21 20.9404L20.64 21.5104C20.205 21.9454 19.515 22.0654 18.96 21.8704L18.69 21.7504C18.345 21.5704 17.955 21.3004 17.52 20.9254C17.1 20.5654 16.695 20.1904 16.26 19.7704C15.84 19.3354 15.465 18.9304 15.105 18.5104C14.715 18.0454 14.445 17.6704 14.265 17.3554L14.1 16.9654C14.055 16.8154 14.04 16.6504 14.04 16.5004C14.04 16.0804 14.19 15.7054 14.475 15.4054L15.045 14.8204C15.21 14.6554 15.27 14.5654 15.3 14.5054C15.255 14.4004 15.195 14.3104 15.12 14.2054L13.365 11.7304L13.185 11.6104Z" fill="white"/>
</svg>
