  <svg
          width="101"
          height="105"
          viewBox="0 0 99 112"
          fill="none"
          xmlns="http://www.w3.org/2000/svg"
        >
          <path
            d="M25.1954 5.404L20.2514 10.348L15.2114 5.404L20.2034 0.459999L25.1954 5.404ZM41.0834 21.58C41.3714 21.58 41.5634 21.772 41.5634 22.06V28.972C41.5634 29.26 41.3714 29.5 41.0834 29.5C38.9714 29.5 37.1474 28.732 35.8994 27.34C35.0834 35.164 30.0434 39.82 21.2594 39.82C11.8994 39.82 6.90738 35.596 6.90738 27.004C6.90738 23.74 7.57938 20.044 8.97138 15.82L15.0194 17.452C14.1554 20.188 13.6754 22.492 13.6754 24.796C13.7234 29.548 16.2674 31.9 21.2594 31.9C26.1074 31.9 28.5554 29.356 28.5074 23.98V6.076L35.9954 5.164V17.164C36.0914 19.996 38.2034 21.58 41.0834 21.58ZM49.4489 21.58C49.7369 21.58 49.9289 21.772 49.9289 22.06V28.972C49.9289 29.26 49.7369 29.5 49.4489 29.5H40.1369C39.8489 29.5 39.6569 29.26 39.6569 28.972V22.06C39.6569 21.772 39.8489 21.58 40.1369 21.58H49.4489ZM57.817 21.58C58.105 21.58 58.297 21.772 58.297 22.06V28.972C58.297 29.26 58.105 29.5 57.817 29.5H48.505C48.217 29.5 48.025 29.26 48.025 28.972V22.06C48.025 21.772 48.217 21.58 48.505 21.58H57.817ZM66.1851 21.58C66.4731 21.58 66.6651 21.772 66.6651 22.06V28.972C66.6651 29.26 66.4731 29.5 66.1851 29.5H56.8731C56.5851 29.5 56.3931 29.26 56.3931 28.972V22.06C56.3931 21.772 56.5851 21.58 56.8731 21.58H66.1851ZM74.5533 21.58C74.8413 21.58 75.0333 21.772 75.0333 22.06V28.972C75.0333 29.26 74.8413 29.5 74.5533 29.5H65.2413C64.9533 29.5 64.7613 29.26 64.7613 28.972V22.06C64.7613 21.772 64.9533 21.58 65.2413 21.58H74.5533ZM86.5214 4.78C93.3854 4.78 98.3774 9.676 98.3774 16.396C98.3774 24.364 93.0974 29.5 84.6494 29.5H73.6094C73.2734 29.5 73.1294 29.356 73.1294 28.972V22.06C73.1294 21.772 73.3214 21.58 73.6094 21.58H76.5854C75.6734 19.66 75.1454 17.836 75.1454 15.964C75.1454 9.436 80.0894 4.78 86.5214 4.78ZM84.6974 21.58C88.5854 21.58 90.8894 19.516 90.8894 16.348C90.8894 13.804 88.9694 11.932 86.4254 11.932C83.8814 11.932 81.8174 13.996 81.8174 16.636C81.8174 18.172 82.2974 19.804 83.1614 21.58H84.6974Z"
            fill="#6E1636"
          />
          <path
            d="M10.9915 66.7C15.0235 66.7 19.8235 69.004 23.5675 72.652L18.7195 77.164C15.7915 74.668 13.1035 73.228 10.9435 73.228C9.1195 73.228 7.7275 74.236 7.7275 75.868C7.7275 77.404 8.9755 78.364 12.4795 80.572C15.7435 82.732 17.3275 84.7 17.6155 88.108L13.5835 89.692H9.7915V89.212C9.7915 87.628 8.7835 86.428 5.3755 84.124C1.9675 81.82 0.239497 79.612 0.239497 75.724C0.239497 70.3 4.6075 66.7 10.9915 66.7ZM11.6635 101.5V95.02H18.1435V101.5H11.6635ZM41.9091 77.404L36.9651 82.348L31.9251 77.404L36.9171 72.46L41.9091 77.404ZM57.7971 93.58C58.0851 93.58 58.2771 93.772 58.2771 94.06V100.972C58.2771 101.26 58.0851 101.5 57.7971 101.5C55.6851 101.5 53.8611 100.732 52.6131 99.34C51.7971 107.164 46.7571 111.82 37.9731 111.82C28.6131 111.82 23.6211 107.596 23.6211 99.004C23.6211 95.74 24.2931 92.044 25.6851 87.82L31.7331 89.452C30.8691 92.188 30.3891 94.492 30.3891 96.796C30.4371 101.548 32.9811 103.9 37.9731 103.9C42.8211 103.9 45.2691 101.356 45.2211 95.98V78.076L52.7091 77.164V89.164C52.8051 91.996 54.9171 93.58 57.7971 93.58ZM87.1866 93.58C87.4746 93.58 87.6666 93.772 87.6666 94.06V100.972C87.6666 101.26 87.4746 101.5 87.1866 101.5H86.3706C82.6746 101.5 79.9386 99.676 78.7866 96.604C71.3946 100.204 65.4906 101.5 56.8986 101.5C56.6106 101.5 56.3706 101.26 56.3706 100.972V94.06C56.3706 93.772 56.6106 93.58 56.8986 93.58C65.9706 93.58 70.9626 92.764 76.7226 90.556C70.2906 86.188 67.7466 84.892 64.5306 84.892C62.9946 84.892 61.8906 85.18 59.9226 85.564L58.5306 78.94C61.2186 77.788 63.3786 77.308 65.4426 77.308C69.6666 77.308 73.3146 79.084 84.4026 86.812L83.2026 93.052C83.9706 93.388 85.0266 93.532 86.4186 93.58H87.1866ZM93.8508 73.66L88.8108 68.716L93.8028 63.772L98.7948 68.716L93.8508 73.66ZM86.2188 101.5C85.9307 101.5 85.7387 101.26 85.7387 100.972L85.8347 94.06C85.8347 93.772 86.0267 93.58 86.3148 93.58C89.0028 93.58 90.2988 92.092 90.2988 88.684L90.2508 78.076L97.7388 77.164V91.42C97.7388 98.044 93.9468 101.5 86.2188 101.5Z"
            fill="#C8B56D"
          />
        </svg>