<svg width="36" height="36" viewBox="0 0 36 36" fill="none" xmlns="http://www.w3.org/2000/svg">
<path d="M17.235 17.9997C17.235 19.9797 16.47 21.8397 15.06 23.2347L6.465 31.8297C5.685 32.6097 4.53 32.8347 3.525 32.4147C2.52 31.9947 1.86 31.0198 1.86 29.9248L1.86 27.8097C1.86 26.2497 2.475 24.7797 3.57 23.6847L8.94 18.3148C9.165 18.0898 9.165 17.9097 8.94 17.6847L3.57 12.3148C2.46 11.2048 1.86 9.74977 1.86 8.18977L1.86 6.07472C1.86 4.97972 2.52 4.00476 3.525 3.58476C4.53 3.16476 5.685 3.38978 6.465 4.16978L15.06 12.7648C16.47 14.1598 17.235 16.0197 17.235 17.9997ZM4.125 29.9248C4.125 30.1798 4.305 30.2997 4.395 30.3447C4.485 30.3897 4.695 30.4347 4.875 30.2547L13.47 21.6597C15.42 19.7097 15.42 16.3048 13.47 14.3548L4.875 5.75978C4.695 5.57978 4.485 5.62478 4.395 5.66978C4.305 5.71478 4.125 5.81974 4.125 6.08974L4.125 8.2047C4.125 9.1647 4.5 10.0647 5.175 10.7397L10.545 16.1097C11.595 17.1597 11.595 18.8698 10.545 19.9198L5.175 25.2897C4.5 25.9647 4.125 26.8647 4.125 27.8247L4.125 29.9248Z" fill="white"/>
<path d="M34.08 6.07472L34.08 8.18977C34.08 9.74977 33.465 11.2198 32.37 12.3148L27 17.6847C26.775 17.9097 26.775 18.0898 27 18.3148L32.37 23.6847C33.48 24.7947 34.08 26.2497 34.08 27.8097L34.08 29.9248C34.08 31.0198 33.42 31.9947 32.415 32.4147C31.41 32.8347 30.255 32.6097 29.475 31.8297L20.88 23.2347C19.485 21.8397 18.705 19.9797 18.705 17.9997C18.705 16.0197 19.47 14.1598 20.88 12.7648L29.475 4.16978C30.255 3.38978 31.41 3.16476 32.415 3.58476C33.42 4.00476 34.08 4.97972 34.08 6.07472ZM24.63 17.9997C24.63 17.3097 24.9 16.6197 25.425 16.0947L30.795 10.7248C31.47 10.0498 31.845 9.14977 31.845 8.18977L31.845 6.07472C31.845 5.81972 31.665 5.69977 31.575 5.65477C31.485 5.60977 31.275 5.56477 31.095 5.74477L22.5 14.3397C20.55 16.2897 20.55 19.6947 22.5 21.6447L31.095 30.2397C31.275 30.4197 31.485 30.3747 31.575 30.3297C31.665 30.2847 31.845 30.1797 31.845 29.9097L31.845 27.7948C31.845 26.8348 31.47 25.9348 30.795 25.2598L25.425 19.8898C24.885 19.3798 24.63 18.6897 24.63 17.9997Z" fill="white"/>
</svg>
