<svg width="36" height="36" viewBox="0 0 36 36" fill="none" xmlns="http://www.w3.org/2000/svg">
<path d="M25.5 31.125H10.5C5.34 31.125 1.875 27.66 1.875 22.5V13.5C1.875 8.34 5.34 4.875 10.5 4.875H25.5C30.66 4.875 34.125 8.34 34.125 13.5V22.5C34.125 27.66 30.66 31.125 25.5 31.125ZM10.5 7.125C6.63 7.125 4.125 9.63 4.125 13.5V22.5C4.125 26.37 6.63 28.875 10.5 28.875H25.5C29.37 28.875 31.875 26.37 31.875 22.5V13.5C31.875 9.63 29.37 7.125 25.5 7.125H10.5Z" fill="white"/>
<path d="M15.885 23.2958C15.45 23.2958 15.03 23.1908 14.655 22.9808C13.785 22.4858 13.275 21.4808 13.275 20.2358V15.7958C13.275 14.5508 13.77 13.5458 14.655 13.0508C15.525 12.5558 16.65 12.6458 17.715 13.2908L21.42 15.5108C22.44 16.1258 23.025 17.0408 23.025 18.0158C23.025 18.9908 22.44 19.9058 21.42 20.5208L17.715 22.7408C17.1 23.1008 16.47 23.2958 15.885 23.2958ZM15.885 14.9558C15.825 14.9558 15.78 14.9708 15.75 14.9858C15.645 15.0458 15.525 15.3158 15.525 15.7808V20.2208C15.525 20.6708 15.645 20.9408 15.75 21.0158C15.87 21.0758 16.155 21.0458 16.545 20.8058L20.25 18.5858C20.625 18.3608 20.76 18.1358 20.76 18.0008C20.76 17.8658 20.625 17.6558 20.25 17.4158L16.545 15.1958C16.275 15.0308 16.035 14.9558 15.885 14.9558Z" fill="white"/>
</svg>
